G04 EAGLE Gerber RS-274X export*
G75*
%MOMM*%
%FSLAX34Y34*%
%LPD*%
%INTop Copper*%
%IPPOS*%
%AMOC8*
5,1,8,0,0,1.08239X$1,22.5*%
G01*
%ADD10P,1.429621X8X202.500000*%
%ADD11P,1.429621X8X22.500000*%
%ADD12R,1.470000X1.270000*%
%ADD13C,1.320800*%
%ADD14C,1.524000*%
%ADD15R,2.540000X5.080000*%
%ADD16R,5.080000X2.540000*%
%ADD17C,1.676400*%
%ADD18C,0.609600*%
%ADD19C,1.270000*%
%ADD20C,0.203200*%

G36*
X406420Y202442D02*
X406420Y202442D01*
X406439Y202440D01*
X406541Y202462D01*
X406643Y202479D01*
X406660Y202488D01*
X406680Y202492D01*
X406769Y202545D01*
X406860Y202594D01*
X406874Y202608D01*
X406891Y202618D01*
X406958Y202697D01*
X407030Y202772D01*
X407038Y202790D01*
X407051Y202805D01*
X407090Y202901D01*
X407133Y202995D01*
X407135Y203015D01*
X407143Y203033D01*
X407161Y203200D01*
X407161Y330200D01*
X407158Y330220D01*
X407160Y330239D01*
X407138Y330341D01*
X407122Y330443D01*
X407112Y330460D01*
X407108Y330480D01*
X407055Y330569D01*
X407006Y330660D01*
X406992Y330674D01*
X406982Y330691D01*
X406903Y330758D01*
X406828Y330830D01*
X406810Y330838D01*
X406795Y330851D01*
X406699Y330890D01*
X406605Y330933D01*
X406585Y330935D01*
X406567Y330943D01*
X406400Y330961D01*
X391288Y330961D01*
X391217Y330950D01*
X391146Y330948D01*
X391097Y330930D01*
X391045Y330922D01*
X390982Y330888D01*
X390915Y330863D01*
X390874Y330831D01*
X390828Y330806D01*
X390779Y330755D01*
X390723Y330710D01*
X390694Y330666D01*
X390659Y330628D01*
X390628Y330563D01*
X390590Y330503D01*
X390577Y330452D01*
X390555Y330405D01*
X390547Y330334D01*
X390530Y330264D01*
X390534Y330212D01*
X390528Y330161D01*
X390543Y330090D01*
X390549Y330019D01*
X390569Y329971D01*
X390580Y329920D01*
X390617Y329859D01*
X390645Y329793D01*
X390690Y329737D01*
X390706Y329709D01*
X390724Y329694D01*
X390750Y329662D01*
X391399Y329013D01*
X391399Y313787D01*
X390622Y313010D01*
X390569Y312936D01*
X390509Y312867D01*
X390497Y312837D01*
X390478Y312810D01*
X390451Y312723D01*
X390417Y312639D01*
X390413Y312598D01*
X390406Y312575D01*
X390407Y312543D01*
X390399Y312472D01*
X390399Y309828D01*
X390413Y309738D01*
X390421Y309647D01*
X390433Y309617D01*
X390438Y309585D01*
X390481Y309505D01*
X390517Y309421D01*
X390543Y309389D01*
X390554Y309368D01*
X390577Y309346D01*
X390622Y309290D01*
X391399Y308513D01*
X391399Y293287D01*
X389613Y291501D01*
X372387Y291501D01*
X370601Y293287D01*
X370601Y308513D01*
X371378Y309290D01*
X371431Y309364D01*
X371491Y309433D01*
X371503Y309463D01*
X371522Y309490D01*
X371549Y309577D01*
X371583Y309661D01*
X371587Y309702D01*
X371594Y309725D01*
X371593Y309757D01*
X371601Y309828D01*
X371601Y312472D01*
X371587Y312562D01*
X371579Y312653D01*
X371567Y312683D01*
X371562Y312715D01*
X371519Y312795D01*
X371483Y312879D01*
X371457Y312911D01*
X371446Y312932D01*
X371423Y312954D01*
X371378Y313010D01*
X370601Y313787D01*
X370601Y329013D01*
X371250Y329662D01*
X371292Y329720D01*
X371341Y329772D01*
X371363Y329819D01*
X371394Y329861D01*
X371415Y329930D01*
X371445Y329995D01*
X371451Y330047D01*
X371466Y330097D01*
X371464Y330168D01*
X371472Y330239D01*
X371461Y330290D01*
X371460Y330342D01*
X371435Y330410D01*
X371420Y330480D01*
X371393Y330524D01*
X371375Y330573D01*
X371330Y330629D01*
X371294Y330691D01*
X371254Y330725D01*
X371222Y330765D01*
X371161Y330804D01*
X371107Y330851D01*
X371058Y330870D01*
X371015Y330898D01*
X370945Y330916D01*
X370879Y330943D01*
X370807Y330951D01*
X370776Y330959D01*
X370753Y330957D01*
X370712Y330961D01*
X355600Y330961D01*
X355580Y330958D01*
X355561Y330960D01*
X355459Y330938D01*
X355357Y330922D01*
X355340Y330912D01*
X355320Y330908D01*
X355231Y330855D01*
X355140Y330806D01*
X355126Y330792D01*
X355109Y330782D01*
X355042Y330703D01*
X354971Y330628D01*
X354962Y330610D01*
X354949Y330595D01*
X354910Y330499D01*
X354867Y330405D01*
X354865Y330385D01*
X354857Y330367D01*
X354839Y330200D01*
X354839Y305561D01*
X302260Y305561D01*
X302240Y305558D01*
X302221Y305560D01*
X302119Y305538D01*
X302017Y305522D01*
X302000Y305512D01*
X301980Y305508D01*
X301891Y305455D01*
X301800Y305406D01*
X301786Y305392D01*
X301769Y305382D01*
X301702Y305303D01*
X301630Y305228D01*
X301622Y305210D01*
X301609Y305195D01*
X301570Y305099D01*
X301527Y305005D01*
X301525Y304985D01*
X301517Y304967D01*
X301499Y304800D01*
X301499Y269464D01*
X301513Y269374D01*
X301521Y269283D01*
X301533Y269253D01*
X301538Y269221D01*
X301581Y269141D01*
X301617Y269057D01*
X301643Y269025D01*
X301654Y269004D01*
X301677Y268982D01*
X301722Y268926D01*
X301791Y268857D01*
X303531Y264656D01*
X303531Y243344D01*
X301790Y239143D01*
X298575Y235928D01*
X294374Y234187D01*
X289826Y234187D01*
X285625Y235928D01*
X282410Y239143D01*
X280669Y243344D01*
X280669Y264656D01*
X282409Y268857D01*
X282478Y268926D01*
X282526Y268992D01*
X282534Y269001D01*
X282537Y269006D01*
X282591Y269069D01*
X282603Y269099D01*
X282622Y269125D01*
X282649Y269213D01*
X282683Y269297D01*
X282687Y269338D01*
X282694Y269361D01*
X282693Y269393D01*
X282701Y269464D01*
X282701Y304800D01*
X282698Y304820D01*
X282700Y304839D01*
X282678Y304941D01*
X282662Y305043D01*
X282652Y305060D01*
X282648Y305080D01*
X282595Y305169D01*
X282546Y305260D01*
X282532Y305274D01*
X282522Y305291D01*
X282443Y305358D01*
X282368Y305430D01*
X282350Y305438D01*
X282335Y305451D01*
X282239Y305490D01*
X282145Y305533D01*
X282125Y305535D01*
X282107Y305543D01*
X281940Y305561D01*
X229361Y305561D01*
X229361Y468378D01*
X229358Y468398D01*
X229360Y468417D01*
X229338Y468519D01*
X229322Y468621D01*
X229312Y468638D01*
X229308Y468658D01*
X229255Y468747D01*
X229206Y468838D01*
X229192Y468852D01*
X229182Y468869D01*
X229103Y468936D01*
X229028Y469008D01*
X229010Y469016D01*
X228995Y469029D01*
X228899Y469068D01*
X228805Y469111D01*
X228785Y469113D01*
X228767Y469121D01*
X228600Y469139D01*
X61722Y469139D01*
X61702Y469136D01*
X61683Y469138D01*
X61581Y469116D01*
X61479Y469100D01*
X61462Y469090D01*
X61442Y469086D01*
X61353Y469033D01*
X61262Y468984D01*
X61248Y468970D01*
X61231Y468960D01*
X61164Y468881D01*
X61092Y468806D01*
X61084Y468788D01*
X61071Y468773D01*
X61032Y468677D01*
X60989Y468583D01*
X60987Y468563D01*
X60979Y468545D01*
X60961Y468378D01*
X60961Y364906D01*
X60972Y364836D01*
X60974Y364764D01*
X60992Y364715D01*
X61000Y364664D01*
X61034Y364600D01*
X61059Y364533D01*
X61091Y364492D01*
X61116Y364446D01*
X61167Y364397D01*
X61212Y364341D01*
X61256Y364313D01*
X61294Y364277D01*
X61359Y364247D01*
X61419Y364208D01*
X61470Y364195D01*
X61517Y364173D01*
X61588Y364165D01*
X61658Y364148D01*
X61710Y364152D01*
X61761Y364146D01*
X61832Y364161D01*
X61903Y364167D01*
X61951Y364187D01*
X62002Y364198D01*
X62063Y364235D01*
X62129Y364263D01*
X62185Y364308D01*
X62213Y364325D01*
X62228Y364342D01*
X62260Y364368D01*
X62537Y364645D01*
X66458Y366269D01*
X69342Y366269D01*
X69362Y366272D01*
X69381Y366270D01*
X69483Y366292D01*
X69585Y366308D01*
X69602Y366318D01*
X69622Y366322D01*
X69711Y366375D01*
X69802Y366424D01*
X69816Y366438D01*
X69833Y366448D01*
X69900Y366527D01*
X69972Y366602D01*
X69980Y366620D01*
X69993Y366635D01*
X70032Y366731D01*
X70075Y366825D01*
X70077Y366845D01*
X70085Y366863D01*
X70103Y367030D01*
X70103Y407613D01*
X71031Y409854D01*
X98146Y436969D01*
X100387Y437897D01*
X166313Y437897D01*
X168554Y436969D01*
X170376Y435147D01*
X170376Y435146D01*
X189246Y416276D01*
X189320Y416223D01*
X189390Y416163D01*
X189420Y416151D01*
X189446Y416132D01*
X189533Y416105D01*
X189618Y416071D01*
X189659Y416067D01*
X189681Y416060D01*
X189713Y416061D01*
X189785Y416053D01*
X194498Y416053D01*
X200153Y410398D01*
X200153Y405685D01*
X200155Y405668D01*
X200154Y405653D01*
X200168Y405587D01*
X200175Y405504D01*
X200187Y405474D01*
X200192Y405442D01*
X200205Y405419D01*
X200206Y405413D01*
X200223Y405384D01*
X200235Y405361D01*
X200271Y405277D01*
X200297Y405245D01*
X200308Y405225D01*
X200331Y405202D01*
X200376Y405146D01*
X208369Y397154D01*
X209297Y394913D01*
X209297Y382774D01*
X209311Y382683D01*
X209319Y382593D01*
X209331Y382563D01*
X209336Y382531D01*
X209379Y382450D01*
X209415Y382366D01*
X209441Y382334D01*
X209452Y382313D01*
X209475Y382291D01*
X209520Y382235D01*
X211383Y380372D01*
X212853Y376824D01*
X212853Y359776D01*
X211383Y356228D01*
X209520Y354365D01*
X209467Y354291D01*
X209407Y354221D01*
X209395Y354191D01*
X209376Y354165D01*
X209349Y354078D01*
X209315Y353993D01*
X209311Y353952D01*
X209304Y353930D01*
X209305Y353898D01*
X209297Y353826D01*
X209297Y306574D01*
X209311Y306483D01*
X209319Y306393D01*
X209331Y306363D01*
X209336Y306331D01*
X209379Y306250D01*
X209415Y306166D01*
X209441Y306134D01*
X209452Y306113D01*
X209475Y306091D01*
X209520Y306035D01*
X211383Y304172D01*
X212853Y300624D01*
X212853Y283576D01*
X211383Y280028D01*
X209520Y278165D01*
X209467Y278091D01*
X209407Y278021D01*
X209395Y277991D01*
X209376Y277965D01*
X209349Y277878D01*
X209315Y277793D01*
X209311Y277752D01*
X209304Y277730D01*
X209305Y277698D01*
X209297Y277626D01*
X209297Y274570D01*
X209311Y274480D01*
X209319Y274389D01*
X209331Y274359D01*
X209336Y274327D01*
X209379Y274246D01*
X209415Y274162D01*
X209441Y274130D01*
X209452Y274109D01*
X209475Y274087D01*
X209520Y274031D01*
X212853Y270698D01*
X212853Y262702D01*
X207198Y257047D01*
X199202Y257047D01*
X193547Y262702D01*
X193547Y270698D01*
X196880Y274031D01*
X196933Y274105D01*
X196993Y274175D01*
X197005Y274205D01*
X197024Y274231D01*
X197051Y274318D01*
X197085Y274403D01*
X197089Y274444D01*
X197096Y274466D01*
X197095Y274498D01*
X197103Y274570D01*
X197103Y277626D01*
X197089Y277716D01*
X197081Y277807D01*
X197069Y277837D01*
X197064Y277869D01*
X197021Y277950D01*
X196985Y278034D01*
X196959Y278066D01*
X196948Y278087D01*
X196925Y278109D01*
X196880Y278165D01*
X195017Y280028D01*
X193547Y283576D01*
X193547Y300624D01*
X195017Y304172D01*
X196880Y306035D01*
X196933Y306109D01*
X196993Y306179D01*
X197005Y306209D01*
X197024Y306235D01*
X197051Y306322D01*
X197085Y306407D01*
X197089Y306448D01*
X197096Y306470D01*
X197095Y306502D01*
X197103Y306574D01*
X197103Y353826D01*
X197089Y353917D01*
X197081Y354007D01*
X197069Y354037D01*
X197064Y354069D01*
X197021Y354150D01*
X196985Y354234D01*
X196959Y354266D01*
X196948Y354287D01*
X196925Y354309D01*
X196880Y354365D01*
X195017Y356228D01*
X193547Y359776D01*
X193547Y376824D01*
X195017Y380372D01*
X196880Y382235D01*
X196933Y382309D01*
X196993Y382379D01*
X197005Y382409D01*
X197024Y382435D01*
X197051Y382522D01*
X197085Y382607D01*
X197089Y382648D01*
X197096Y382670D01*
X197095Y382702D01*
X197103Y382774D01*
X197103Y390859D01*
X197089Y390949D01*
X197081Y391040D01*
X197069Y391070D01*
X197064Y391102D01*
X197021Y391183D01*
X196985Y391267D01*
X196959Y391299D01*
X196948Y391319D01*
X196925Y391342D01*
X196880Y391398D01*
X191754Y396524D01*
X191680Y396577D01*
X191610Y396637D01*
X191580Y396649D01*
X191554Y396668D01*
X191467Y396695D01*
X191382Y396729D01*
X191341Y396733D01*
X191319Y396740D01*
X191287Y396739D01*
X191215Y396747D01*
X186502Y396747D01*
X180847Y402402D01*
X180847Y407115D01*
X180833Y407205D01*
X180825Y407296D01*
X180813Y407326D01*
X180808Y407358D01*
X180765Y407439D01*
X180729Y407523D01*
X180703Y407555D01*
X180692Y407575D01*
X180669Y407598D01*
X180624Y407654D01*
X162798Y425480D01*
X162724Y425533D01*
X162654Y425593D01*
X162624Y425605D01*
X162598Y425624D01*
X162511Y425651D01*
X162426Y425685D01*
X162385Y425689D01*
X162363Y425696D01*
X162331Y425695D01*
X162259Y425703D01*
X104441Y425703D01*
X104351Y425689D01*
X104260Y425681D01*
X104230Y425669D01*
X104198Y425664D01*
X104117Y425621D01*
X104033Y425585D01*
X104001Y425559D01*
X103981Y425548D01*
X103958Y425525D01*
X103902Y425480D01*
X82520Y404098D01*
X82467Y404024D01*
X82407Y403954D01*
X82395Y403924D01*
X82376Y403898D01*
X82349Y403811D01*
X82315Y403726D01*
X82311Y403685D01*
X82304Y403663D01*
X82305Y403631D01*
X82297Y403559D01*
X82297Y367030D01*
X82300Y367010D01*
X82298Y366991D01*
X82320Y366889D01*
X82336Y366787D01*
X82346Y366770D01*
X82350Y366750D01*
X82403Y366661D01*
X82452Y366570D01*
X82466Y366556D01*
X82476Y366539D01*
X82555Y366472D01*
X82630Y366400D01*
X82648Y366392D01*
X82663Y366379D01*
X82759Y366340D01*
X82853Y366297D01*
X82873Y366295D01*
X82891Y366287D01*
X83058Y366269D01*
X85942Y366269D01*
X89863Y364645D01*
X92865Y361643D01*
X94489Y357722D01*
X94489Y353478D01*
X92865Y349557D01*
X89863Y346555D01*
X85942Y344931D01*
X66458Y344931D01*
X62537Y346555D01*
X62260Y346832D01*
X62202Y346874D01*
X62150Y346923D01*
X62103Y346945D01*
X62061Y346975D01*
X61992Y346996D01*
X61927Y347027D01*
X61875Y347032D01*
X61825Y347048D01*
X61754Y347046D01*
X61683Y347054D01*
X61632Y347043D01*
X61580Y347041D01*
X61512Y347017D01*
X61442Y347002D01*
X61397Y346975D01*
X61349Y346957D01*
X61293Y346912D01*
X61231Y346875D01*
X61197Y346836D01*
X61157Y346803D01*
X61118Y346743D01*
X61071Y346688D01*
X61052Y346640D01*
X61024Y346596D01*
X61006Y346527D01*
X60979Y346460D01*
X60971Y346389D01*
X60963Y346358D01*
X60965Y346335D01*
X60961Y346294D01*
X60961Y339506D01*
X60972Y339436D01*
X60974Y339364D01*
X60992Y339315D01*
X61000Y339264D01*
X61034Y339200D01*
X61059Y339133D01*
X61091Y339092D01*
X61116Y339046D01*
X61167Y338997D01*
X61212Y338941D01*
X61256Y338913D01*
X61294Y338877D01*
X61359Y338847D01*
X61419Y338808D01*
X61470Y338795D01*
X61517Y338773D01*
X61588Y338765D01*
X61658Y338748D01*
X61710Y338752D01*
X61761Y338746D01*
X61832Y338761D01*
X61903Y338767D01*
X61951Y338787D01*
X62002Y338798D01*
X62063Y338835D01*
X62129Y338863D01*
X62185Y338908D01*
X62213Y338925D01*
X62228Y338942D01*
X62260Y338968D01*
X62537Y339245D01*
X66458Y340869D01*
X85942Y340869D01*
X89863Y339245D01*
X92865Y336243D01*
X93489Y334735D01*
X93551Y334635D01*
X93611Y334535D01*
X93616Y334531D01*
X93619Y334526D01*
X93710Y334451D01*
X93798Y334375D01*
X93804Y334373D01*
X93809Y334369D01*
X93917Y334327D01*
X94026Y334283D01*
X94034Y334282D01*
X94038Y334281D01*
X94056Y334280D01*
X94193Y334265D01*
X163101Y334265D01*
X163191Y334279D01*
X163282Y334287D01*
X163312Y334299D01*
X163344Y334304D01*
X163424Y334347D01*
X163508Y334383D01*
X163540Y334409D01*
X163561Y334420D01*
X163583Y334443D01*
X163639Y334488D01*
X173512Y344361D01*
X173565Y344435D01*
X173625Y344504D01*
X173637Y344534D01*
X173656Y344560D01*
X173683Y344647D01*
X173717Y344732D01*
X173721Y344773D01*
X173728Y344796D01*
X173727Y344828D01*
X173735Y344899D01*
X173735Y352423D01*
X173733Y352435D01*
X173734Y352444D01*
X173724Y352491D01*
X173716Y352538D01*
X173699Y352654D01*
X173697Y352660D01*
X173696Y352666D01*
X173641Y352768D01*
X173588Y352873D01*
X173583Y352878D01*
X173580Y352883D01*
X173496Y352963D01*
X173412Y353045D01*
X173406Y353049D01*
X173402Y353052D01*
X173385Y353060D01*
X173265Y353126D01*
X172332Y353513D01*
X169617Y356228D01*
X168147Y359776D01*
X168147Y376824D01*
X169617Y380372D01*
X172332Y383087D01*
X175880Y384557D01*
X179720Y384557D01*
X183268Y383087D01*
X185983Y380372D01*
X187453Y376824D01*
X187453Y359776D01*
X185983Y356228D01*
X183268Y353513D01*
X182335Y353126D01*
X182235Y353065D01*
X182135Y353005D01*
X182131Y353000D01*
X182126Y352997D01*
X182051Y352907D01*
X181975Y352818D01*
X181973Y352812D01*
X181969Y352807D01*
X181927Y352699D01*
X181883Y352590D01*
X181882Y352582D01*
X181881Y352578D01*
X181880Y352559D01*
X181865Y352423D01*
X181865Y341216D01*
X166784Y326135D01*
X94193Y326135D01*
X94078Y326116D01*
X93962Y326099D01*
X93956Y326097D01*
X93950Y326096D01*
X93847Y326041D01*
X93743Y325988D01*
X93738Y325983D01*
X93733Y325980D01*
X93653Y325896D01*
X93570Y325812D01*
X93567Y325806D01*
X93563Y325802D01*
X93555Y325785D01*
X93489Y325665D01*
X92865Y324157D01*
X89863Y321155D01*
X85942Y319531D01*
X66458Y319531D01*
X62537Y321155D01*
X62260Y321432D01*
X62202Y321474D01*
X62150Y321523D01*
X62103Y321545D01*
X62061Y321575D01*
X61992Y321596D01*
X61927Y321627D01*
X61875Y321632D01*
X61825Y321648D01*
X61754Y321646D01*
X61683Y321654D01*
X61632Y321643D01*
X61580Y321641D01*
X61512Y321617D01*
X61442Y321602D01*
X61397Y321575D01*
X61349Y321557D01*
X61293Y321512D01*
X61231Y321475D01*
X61197Y321436D01*
X61157Y321403D01*
X61118Y321343D01*
X61071Y321288D01*
X61052Y321240D01*
X61024Y321196D01*
X61006Y321127D01*
X60979Y321060D01*
X60971Y320989D01*
X60963Y320958D01*
X60965Y320935D01*
X60961Y320894D01*
X60961Y203200D01*
X60964Y203180D01*
X60962Y203161D01*
X60984Y203059D01*
X61000Y202957D01*
X61010Y202940D01*
X61014Y202920D01*
X61067Y202831D01*
X61116Y202740D01*
X61130Y202726D01*
X61140Y202709D01*
X61219Y202642D01*
X61294Y202571D01*
X61312Y202562D01*
X61327Y202549D01*
X61423Y202510D01*
X61517Y202467D01*
X61537Y202465D01*
X61555Y202457D01*
X61722Y202439D01*
X406400Y202439D01*
X406420Y202442D01*
G37*
G36*
X342920Y316742D02*
X342920Y316742D01*
X342939Y316740D01*
X343041Y316762D01*
X343143Y316779D01*
X343160Y316788D01*
X343180Y316792D01*
X343269Y316845D01*
X343360Y316894D01*
X343374Y316908D01*
X343391Y316918D01*
X343458Y316997D01*
X343530Y317072D01*
X343538Y317090D01*
X343551Y317105D01*
X343590Y317201D01*
X343633Y317295D01*
X343635Y317315D01*
X343643Y317333D01*
X343661Y317500D01*
X343661Y342139D01*
X406400Y342139D01*
X406420Y342142D01*
X406439Y342140D01*
X406541Y342162D01*
X406643Y342179D01*
X406660Y342188D01*
X406680Y342192D01*
X406769Y342245D01*
X406860Y342294D01*
X406874Y342308D01*
X406891Y342318D01*
X406958Y342397D01*
X407030Y342472D01*
X407038Y342490D01*
X407051Y342505D01*
X407090Y342601D01*
X407133Y342695D01*
X407135Y342715D01*
X407143Y342733D01*
X407161Y342900D01*
X407161Y468378D01*
X407158Y468398D01*
X407160Y468417D01*
X407138Y468519D01*
X407122Y468621D01*
X407112Y468638D01*
X407108Y468658D01*
X407055Y468747D01*
X407006Y468838D01*
X406992Y468852D01*
X406982Y468869D01*
X406903Y468936D01*
X406828Y469008D01*
X406810Y469016D01*
X406795Y469029D01*
X406699Y469068D01*
X406605Y469111D01*
X406585Y469113D01*
X406567Y469121D01*
X406400Y469139D01*
X241300Y469139D01*
X241280Y469136D01*
X241261Y469138D01*
X241159Y469116D01*
X241057Y469100D01*
X241040Y469090D01*
X241020Y469086D01*
X240931Y469033D01*
X240840Y468984D01*
X240826Y468970D01*
X240809Y468960D01*
X240742Y468881D01*
X240671Y468806D01*
X240662Y468788D01*
X240649Y468773D01*
X240610Y468677D01*
X240567Y468583D01*
X240565Y468563D01*
X240557Y468545D01*
X240539Y468378D01*
X240539Y317500D01*
X240542Y317480D01*
X240540Y317461D01*
X240562Y317359D01*
X240579Y317257D01*
X240588Y317240D01*
X240592Y317220D01*
X240645Y317131D01*
X240694Y317040D01*
X240708Y317026D01*
X240718Y317009D01*
X240797Y316942D01*
X240872Y316871D01*
X240890Y316862D01*
X240905Y316849D01*
X241001Y316810D01*
X241095Y316767D01*
X241115Y316765D01*
X241133Y316757D01*
X241300Y316739D01*
X342900Y316739D01*
X342920Y316742D01*
G37*
%LPC*%
G36*
X288589Y402589D02*
X288589Y402589D01*
X281805Y404407D01*
X275724Y407918D01*
X270758Y412884D01*
X267247Y418965D01*
X265429Y425749D01*
X265429Y432771D01*
X267247Y439555D01*
X270758Y445636D01*
X275724Y450602D01*
X281805Y454113D01*
X288589Y455931D01*
X295611Y455931D01*
X302395Y454113D01*
X308476Y450602D01*
X313442Y445636D01*
X316953Y439555D01*
X318771Y432771D01*
X318771Y425749D01*
X316953Y418965D01*
X313442Y412884D01*
X308476Y407918D01*
X302395Y404407D01*
X295611Y402589D01*
X288589Y402589D01*
G37*
%LPD*%
%LPC*%
G36*
X173802Y218947D02*
X173802Y218947D01*
X168147Y224602D01*
X168147Y232598D01*
X171480Y235931D01*
X171533Y236005D01*
X171593Y236075D01*
X171605Y236105D01*
X171624Y236131D01*
X171651Y236218D01*
X171685Y236303D01*
X171689Y236344D01*
X171696Y236366D01*
X171695Y236398D01*
X171703Y236470D01*
X171703Y277626D01*
X171689Y277717D01*
X171681Y277807D01*
X171669Y277837D01*
X171664Y277869D01*
X171621Y277950D01*
X171585Y278034D01*
X171559Y278066D01*
X171548Y278087D01*
X171525Y278109D01*
X171480Y278165D01*
X169617Y280028D01*
X168147Y283576D01*
X168147Y285242D01*
X168144Y285262D01*
X168146Y285281D01*
X168124Y285383D01*
X168108Y285485D01*
X168098Y285502D01*
X168094Y285522D01*
X168041Y285611D01*
X167992Y285702D01*
X167978Y285716D01*
X167968Y285733D01*
X167889Y285800D01*
X167814Y285872D01*
X167796Y285880D01*
X167781Y285893D01*
X167685Y285932D01*
X167591Y285975D01*
X167571Y285977D01*
X167553Y285985D01*
X167386Y286003D01*
X162814Y286003D01*
X162794Y286000D01*
X162775Y286002D01*
X162673Y285980D01*
X162571Y285964D01*
X162554Y285954D01*
X162534Y285950D01*
X162445Y285897D01*
X162354Y285848D01*
X162340Y285834D01*
X162323Y285824D01*
X162256Y285745D01*
X162184Y285670D01*
X162176Y285652D01*
X162163Y285637D01*
X162124Y285541D01*
X162081Y285447D01*
X162079Y285427D01*
X162071Y285409D01*
X162053Y285242D01*
X162053Y283576D01*
X160583Y280028D01*
X157868Y277313D01*
X154320Y275843D01*
X150480Y275843D01*
X146932Y277313D01*
X144217Y280028D01*
X142747Y283576D01*
X142747Y300624D01*
X144217Y304172D01*
X146932Y306887D01*
X150480Y308357D01*
X154320Y308357D01*
X157868Y306887D01*
X160583Y304172D01*
X162053Y300624D01*
X162053Y298958D01*
X162056Y298938D01*
X162054Y298919D01*
X162076Y298817D01*
X162092Y298715D01*
X162102Y298698D01*
X162106Y298678D01*
X162159Y298589D01*
X162208Y298498D01*
X162222Y298484D01*
X162232Y298467D01*
X162311Y298400D01*
X162386Y298328D01*
X162404Y298320D01*
X162419Y298307D01*
X162515Y298268D01*
X162609Y298225D01*
X162629Y298223D01*
X162647Y298215D01*
X162814Y298197D01*
X167386Y298197D01*
X167406Y298200D01*
X167425Y298198D01*
X167527Y298220D01*
X167629Y298236D01*
X167646Y298246D01*
X167666Y298250D01*
X167755Y298303D01*
X167846Y298352D01*
X167860Y298366D01*
X167877Y298376D01*
X167944Y298455D01*
X168016Y298530D01*
X168024Y298548D01*
X168037Y298563D01*
X168076Y298659D01*
X168119Y298753D01*
X168121Y298773D01*
X168129Y298791D01*
X168147Y298958D01*
X168147Y300624D01*
X169617Y304172D01*
X172332Y306887D01*
X175880Y308357D01*
X179720Y308357D01*
X183268Y306887D01*
X185983Y304172D01*
X187453Y300624D01*
X187453Y283576D01*
X185983Y280028D01*
X184120Y278165D01*
X184067Y278091D01*
X184007Y278021D01*
X183995Y277991D01*
X183976Y277965D01*
X183949Y277878D01*
X183915Y277793D01*
X183911Y277752D01*
X183904Y277730D01*
X183905Y277698D01*
X183897Y277626D01*
X183897Y236470D01*
X183911Y236380D01*
X183919Y236289D01*
X183931Y236259D01*
X183936Y236227D01*
X183979Y236146D01*
X184015Y236062D01*
X184041Y236030D01*
X184052Y236009D01*
X184075Y235987D01*
X184120Y235931D01*
X187453Y232598D01*
X187453Y224602D01*
X181798Y218947D01*
X173802Y218947D01*
G37*
%LPD*%
%LPC*%
G36*
X250002Y218947D02*
X250002Y218947D01*
X244347Y224602D01*
X244347Y232598D01*
X250002Y238253D01*
X254715Y238253D01*
X254805Y238267D01*
X254896Y238275D01*
X254926Y238287D01*
X254958Y238292D01*
X255038Y238335D01*
X255123Y238371D01*
X255155Y238397D01*
X255175Y238408D01*
X255198Y238431D01*
X255254Y238476D01*
X256331Y239553D01*
X256400Y239648D01*
X256469Y239742D01*
X256471Y239748D01*
X256475Y239753D01*
X256509Y239864D01*
X256545Y239976D01*
X256545Y239982D01*
X256547Y239988D01*
X256544Y240105D01*
X256543Y240222D01*
X256541Y240229D01*
X256541Y240234D01*
X256534Y240251D01*
X256496Y240383D01*
X255269Y243344D01*
X255269Y264656D01*
X257010Y268857D01*
X260225Y272072D01*
X264426Y273813D01*
X268974Y273813D01*
X273175Y272072D01*
X276390Y268857D01*
X278131Y264656D01*
X278131Y243344D01*
X276390Y239143D01*
X273175Y235928D01*
X268974Y234187D01*
X268525Y234187D01*
X268435Y234173D01*
X268344Y234165D01*
X268314Y234153D01*
X268282Y234148D01*
X268201Y234105D01*
X268117Y234069D01*
X268085Y234043D01*
X268065Y234032D01*
X268042Y234009D01*
X267986Y233964D01*
X263876Y229854D01*
X263823Y229780D01*
X263763Y229710D01*
X263751Y229680D01*
X263732Y229654D01*
X263705Y229567D01*
X263671Y229482D01*
X263667Y229441D01*
X263660Y229419D01*
X263661Y229387D01*
X263653Y229315D01*
X263653Y224602D01*
X257998Y218947D01*
X250002Y218947D01*
G37*
%LPD*%
%LPC*%
G36*
X150480Y352043D02*
X150480Y352043D01*
X146932Y353513D01*
X144217Y356228D01*
X142747Y359776D01*
X142747Y376824D01*
X144217Y380372D01*
X146932Y383087D01*
X150480Y384557D01*
X154320Y384557D01*
X157868Y383087D01*
X160583Y380372D01*
X162053Y376824D01*
X162053Y359776D01*
X160583Y356228D01*
X157868Y353513D01*
X154320Y352043D01*
X150480Y352043D01*
G37*
%LPD*%
D10*
X190500Y406400D03*
X139700Y406400D03*
D11*
X203200Y266700D03*
X228600Y266700D03*
D12*
X381000Y321400D03*
X381000Y364400D03*
X381000Y257900D03*
X381000Y300900D03*
D13*
X203200Y361696D02*
X203200Y374904D01*
X177800Y374904D02*
X177800Y361696D01*
X177800Y298704D02*
X177800Y285496D01*
X203200Y285496D02*
X203200Y298704D01*
X152400Y361696D02*
X152400Y374904D01*
X127000Y374904D02*
X127000Y361696D01*
X152400Y298704D02*
X152400Y285496D01*
X127000Y285496D02*
X127000Y298704D01*
D14*
X83820Y355600D02*
X68580Y355600D01*
X68580Y330200D02*
X83820Y330200D01*
X83820Y304800D02*
X68580Y304800D01*
D15*
X381000Y419100D03*
D16*
X368300Y228600D03*
D17*
X266700Y245618D02*
X266700Y262382D01*
X292100Y262382D02*
X292100Y245618D01*
X317500Y245618D02*
X317500Y262382D01*
D11*
X177800Y228600D03*
X254000Y228600D03*
D18*
X177800Y228600D02*
X177800Y292100D01*
X152400Y292100D01*
X254000Y228600D02*
X266700Y241300D01*
X266700Y254000D01*
D19*
X381000Y300900D02*
X381000Y321400D01*
X292100Y330200D02*
X292100Y254000D01*
D20*
X177800Y342900D02*
X165100Y330200D01*
X177800Y342900D02*
X177800Y368300D01*
X165100Y330200D02*
X76200Y330200D01*
D18*
X190500Y406400D02*
X203200Y393700D01*
X203200Y292100D01*
X76200Y355600D02*
X76200Y406400D01*
X101600Y431800D01*
X165100Y431800D01*
X190500Y406400D01*
X203200Y292100D02*
X203200Y266700D01*
M02*
