G04 EAGLE Gerber RS-274X export*
G75*
%MOMM*%
%FSLAX34Y34*%
%LPD*%
%INBottom Copper*%
%IPPOS*%
%AMOC8*
5,1,8,0,0,1.08239X$1,22.5*%
G01*
%ADD10P,1.429621X8X202.500000*%
%ADD11P,1.429621X8X22.500000*%
%ADD12C,1.320800*%
%ADD13C,1.524000*%
%ADD14C,1.676400*%
%ADD15C,0.756400*%

G36*
X406420Y202442D02*
X406420Y202442D01*
X406439Y202440D01*
X406541Y202462D01*
X406643Y202479D01*
X406660Y202488D01*
X406680Y202492D01*
X406769Y202545D01*
X406860Y202594D01*
X406874Y202608D01*
X406891Y202618D01*
X406958Y202697D01*
X407030Y202772D01*
X407038Y202790D01*
X407051Y202805D01*
X407090Y202901D01*
X407133Y202995D01*
X407135Y203015D01*
X407143Y203033D01*
X407161Y203200D01*
X407161Y330200D01*
X407158Y330220D01*
X407160Y330239D01*
X407138Y330341D01*
X407122Y330443D01*
X407112Y330460D01*
X407108Y330480D01*
X407055Y330569D01*
X407006Y330660D01*
X406992Y330674D01*
X406982Y330691D01*
X406903Y330758D01*
X406828Y330830D01*
X406810Y330838D01*
X406795Y330851D01*
X406699Y330890D01*
X406605Y330933D01*
X406585Y330935D01*
X406567Y330943D01*
X406400Y330961D01*
X355600Y330961D01*
X355580Y330958D01*
X355561Y330960D01*
X355459Y330938D01*
X355357Y330922D01*
X355340Y330912D01*
X355320Y330908D01*
X355231Y330855D01*
X355140Y330806D01*
X355126Y330792D01*
X355109Y330782D01*
X355042Y330703D01*
X354971Y330628D01*
X354962Y330610D01*
X354949Y330595D01*
X354910Y330499D01*
X354867Y330405D01*
X354865Y330385D01*
X354857Y330367D01*
X354839Y330200D01*
X354839Y305561D01*
X229361Y305561D01*
X229361Y468378D01*
X229358Y468398D01*
X229360Y468417D01*
X229338Y468519D01*
X229322Y468621D01*
X229312Y468638D01*
X229308Y468658D01*
X229255Y468747D01*
X229206Y468838D01*
X229192Y468852D01*
X229182Y468869D01*
X229103Y468936D01*
X229028Y469008D01*
X229010Y469016D01*
X228995Y469029D01*
X228899Y469068D01*
X228805Y469111D01*
X228785Y469113D01*
X228767Y469121D01*
X228600Y469139D01*
X61722Y469139D01*
X61702Y469136D01*
X61683Y469138D01*
X61581Y469116D01*
X61479Y469100D01*
X61462Y469090D01*
X61442Y469086D01*
X61353Y469033D01*
X61262Y468984D01*
X61248Y468970D01*
X61231Y468960D01*
X61164Y468881D01*
X61092Y468806D01*
X61084Y468788D01*
X61071Y468773D01*
X61032Y468677D01*
X60989Y468583D01*
X60987Y468563D01*
X60979Y468545D01*
X60961Y468378D01*
X60961Y364906D01*
X60972Y364836D01*
X60974Y364764D01*
X60992Y364715D01*
X61000Y364664D01*
X61034Y364600D01*
X61059Y364533D01*
X61091Y364492D01*
X61116Y364446D01*
X61167Y364397D01*
X61212Y364341D01*
X61256Y364313D01*
X61294Y364277D01*
X61359Y364247D01*
X61419Y364208D01*
X61470Y364195D01*
X61517Y364173D01*
X61588Y364165D01*
X61658Y364148D01*
X61710Y364152D01*
X61761Y364146D01*
X61832Y364161D01*
X61903Y364167D01*
X61951Y364187D01*
X62002Y364198D01*
X62063Y364235D01*
X62129Y364263D01*
X62185Y364308D01*
X62213Y364325D01*
X62228Y364342D01*
X62260Y364368D01*
X62537Y364645D01*
X66458Y366269D01*
X85942Y366269D01*
X89863Y364645D01*
X92865Y361643D01*
X94489Y357722D01*
X94489Y353478D01*
X92865Y349557D01*
X89863Y346555D01*
X85942Y344931D01*
X66458Y344931D01*
X62537Y346555D01*
X62260Y346832D01*
X62202Y346874D01*
X62150Y346923D01*
X62103Y346945D01*
X62061Y346975D01*
X61992Y346996D01*
X61927Y347027D01*
X61875Y347032D01*
X61825Y347048D01*
X61754Y347046D01*
X61683Y347054D01*
X61632Y347043D01*
X61580Y347041D01*
X61512Y347017D01*
X61442Y347002D01*
X61397Y346975D01*
X61349Y346957D01*
X61293Y346912D01*
X61231Y346875D01*
X61197Y346836D01*
X61157Y346803D01*
X61118Y346743D01*
X61071Y346688D01*
X61052Y346640D01*
X61024Y346596D01*
X61006Y346527D01*
X60979Y346460D01*
X60971Y346389D01*
X60963Y346358D01*
X60965Y346335D01*
X60961Y346294D01*
X60961Y339506D01*
X60972Y339436D01*
X60974Y339364D01*
X60992Y339315D01*
X61000Y339264D01*
X61034Y339200D01*
X61059Y339133D01*
X61091Y339092D01*
X61116Y339046D01*
X61167Y338997D01*
X61212Y338941D01*
X61256Y338913D01*
X61294Y338877D01*
X61359Y338847D01*
X61419Y338808D01*
X61470Y338795D01*
X61517Y338773D01*
X61588Y338765D01*
X61658Y338748D01*
X61710Y338752D01*
X61761Y338746D01*
X61832Y338761D01*
X61903Y338767D01*
X61951Y338787D01*
X62002Y338798D01*
X62063Y338835D01*
X62129Y338863D01*
X62185Y338908D01*
X62213Y338925D01*
X62228Y338942D01*
X62260Y338968D01*
X62537Y339245D01*
X66458Y340869D01*
X85942Y340869D01*
X89863Y339245D01*
X92865Y336243D01*
X94489Y332322D01*
X94489Y328078D01*
X92865Y324157D01*
X89863Y321155D01*
X85942Y319531D01*
X66458Y319531D01*
X62537Y321155D01*
X62260Y321432D01*
X62202Y321474D01*
X62150Y321523D01*
X62103Y321545D01*
X62061Y321575D01*
X61992Y321596D01*
X61927Y321627D01*
X61875Y321632D01*
X61825Y321648D01*
X61754Y321646D01*
X61683Y321654D01*
X61632Y321643D01*
X61580Y321641D01*
X61512Y321617D01*
X61442Y321602D01*
X61397Y321575D01*
X61349Y321557D01*
X61293Y321512D01*
X61231Y321475D01*
X61197Y321436D01*
X61157Y321403D01*
X61118Y321343D01*
X61071Y321288D01*
X61052Y321240D01*
X61024Y321196D01*
X61006Y321127D01*
X60979Y321060D01*
X60971Y320989D01*
X60963Y320958D01*
X60965Y320935D01*
X60961Y320894D01*
X60961Y203200D01*
X60964Y203180D01*
X60962Y203161D01*
X60984Y203059D01*
X61000Y202957D01*
X61010Y202940D01*
X61014Y202920D01*
X61067Y202831D01*
X61116Y202740D01*
X61130Y202726D01*
X61140Y202709D01*
X61219Y202642D01*
X61294Y202571D01*
X61312Y202562D01*
X61327Y202549D01*
X61423Y202510D01*
X61517Y202467D01*
X61537Y202465D01*
X61555Y202457D01*
X61722Y202439D01*
X406400Y202439D01*
X406420Y202442D01*
G37*
G36*
X342920Y316742D02*
X342920Y316742D01*
X342939Y316740D01*
X343041Y316762D01*
X343143Y316779D01*
X343160Y316788D01*
X343180Y316792D01*
X343269Y316845D01*
X343360Y316894D01*
X343374Y316908D01*
X343391Y316918D01*
X343458Y316997D01*
X343530Y317072D01*
X343538Y317090D01*
X343551Y317105D01*
X343590Y317201D01*
X343633Y317295D01*
X343635Y317315D01*
X343643Y317333D01*
X343661Y317500D01*
X343661Y342139D01*
X406400Y342139D01*
X406420Y342142D01*
X406439Y342140D01*
X406541Y342162D01*
X406643Y342179D01*
X406660Y342188D01*
X406680Y342192D01*
X406769Y342245D01*
X406860Y342294D01*
X406874Y342308D01*
X406891Y342318D01*
X406958Y342397D01*
X407030Y342472D01*
X407038Y342490D01*
X407051Y342505D01*
X407090Y342601D01*
X407133Y342695D01*
X407135Y342715D01*
X407143Y342733D01*
X407161Y342900D01*
X407161Y468378D01*
X407158Y468398D01*
X407160Y468417D01*
X407138Y468519D01*
X407122Y468621D01*
X407112Y468638D01*
X407108Y468658D01*
X407055Y468747D01*
X407006Y468838D01*
X406992Y468852D01*
X406982Y468869D01*
X406903Y468936D01*
X406828Y469008D01*
X406810Y469016D01*
X406795Y469029D01*
X406699Y469068D01*
X406605Y469111D01*
X406585Y469113D01*
X406567Y469121D01*
X406400Y469139D01*
X309690Y469139D01*
X309642Y469132D01*
X309594Y469133D01*
X309521Y469112D01*
X309447Y469100D01*
X309404Y469077D01*
X309358Y469063D01*
X309296Y469020D01*
X309229Y468984D01*
X309196Y468950D01*
X309157Y468922D01*
X309112Y468861D01*
X309060Y468806D01*
X309040Y468763D01*
X309011Y468724D01*
X308988Y468652D01*
X308956Y468583D01*
X308951Y468535D01*
X308936Y468490D01*
X308938Y468414D01*
X308929Y468339D01*
X308939Y468292D01*
X308940Y468244D01*
X308965Y468172D01*
X308982Y468098D01*
X309006Y468057D01*
X309022Y468012D01*
X309069Y467952D01*
X309108Y467887D01*
X309144Y467856D01*
X309174Y467818D01*
X309277Y467742D01*
X309295Y467727D01*
X309301Y467725D01*
X309309Y467719D01*
X317834Y462797D01*
X325637Y454994D01*
X331155Y445437D01*
X334011Y434778D01*
X334011Y423742D01*
X331155Y413083D01*
X325637Y403526D01*
X317834Y395723D01*
X308277Y390205D01*
X297618Y387349D01*
X286582Y387349D01*
X275923Y390205D01*
X266366Y395723D01*
X258563Y403526D01*
X253045Y413083D01*
X250189Y423742D01*
X250189Y434778D01*
X253045Y445437D01*
X258563Y454994D01*
X266366Y462797D01*
X274891Y467719D01*
X274928Y467749D01*
X274971Y467772D01*
X275023Y467827D01*
X275081Y467875D01*
X275107Y467915D01*
X275140Y467950D01*
X275172Y468019D01*
X275212Y468083D01*
X275223Y468130D01*
X275244Y468173D01*
X275252Y468248D01*
X275270Y468322D01*
X275265Y468370D01*
X275271Y468417D01*
X275255Y468492D01*
X275248Y468567D01*
X275229Y468611D01*
X275218Y468658D01*
X275180Y468723D01*
X275149Y468792D01*
X275117Y468828D01*
X275092Y468869D01*
X275035Y468918D01*
X274984Y468974D01*
X274942Y468998D01*
X274905Y469029D01*
X274835Y469057D01*
X274769Y469094D01*
X274722Y469103D01*
X274677Y469121D01*
X274549Y469135D01*
X274527Y469139D01*
X274521Y469138D01*
X274510Y469139D01*
X241300Y469139D01*
X241280Y469136D01*
X241261Y469138D01*
X241159Y469116D01*
X241057Y469100D01*
X241040Y469090D01*
X241020Y469086D01*
X240931Y469033D01*
X240840Y468984D01*
X240826Y468970D01*
X240809Y468960D01*
X240742Y468881D01*
X240671Y468806D01*
X240662Y468788D01*
X240649Y468773D01*
X240610Y468677D01*
X240567Y468583D01*
X240565Y468563D01*
X240557Y468545D01*
X240539Y468378D01*
X240539Y317500D01*
X240542Y317480D01*
X240540Y317461D01*
X240562Y317359D01*
X240579Y317257D01*
X240588Y317240D01*
X240592Y317220D01*
X240645Y317131D01*
X240694Y317040D01*
X240708Y317026D01*
X240718Y317009D01*
X240797Y316942D01*
X240872Y316871D01*
X240890Y316862D01*
X240905Y316849D01*
X241001Y316810D01*
X241095Y316767D01*
X241115Y316765D01*
X241133Y316757D01*
X241300Y316739D01*
X342900Y316739D01*
X342920Y316742D01*
G37*
%LPC*%
G36*
X250002Y218947D02*
X250002Y218947D01*
X244347Y224602D01*
X244347Y232598D01*
X250002Y238253D01*
X256239Y238253D01*
X256284Y238260D01*
X256330Y238258D01*
X256405Y238280D01*
X256482Y238292D01*
X256522Y238314D01*
X256566Y238327D01*
X256630Y238371D01*
X256699Y238408D01*
X256731Y238441D01*
X256768Y238467D01*
X256815Y238530D01*
X256868Y238586D01*
X256888Y238628D01*
X256915Y238664D01*
X256939Y238738D01*
X256972Y238809D01*
X256977Y238855D01*
X256991Y238898D01*
X256991Y238976D01*
X256999Y239053D01*
X256989Y239098D01*
X256989Y239144D01*
X256951Y239276D01*
X256947Y239294D01*
X256944Y239298D01*
X256942Y239305D01*
X255269Y243344D01*
X255269Y264656D01*
X257010Y268857D01*
X260225Y272072D01*
X264426Y273813D01*
X268974Y273813D01*
X273175Y272072D01*
X276390Y268857D01*
X278131Y264656D01*
X278131Y243344D01*
X276390Y239143D01*
X273175Y235928D01*
X268974Y234187D01*
X264426Y234187D01*
X263929Y234393D01*
X263834Y234416D01*
X263741Y234444D01*
X263715Y234444D01*
X263689Y234449D01*
X263593Y234440D01*
X263495Y234438D01*
X263471Y234429D01*
X263445Y234426D01*
X263355Y234387D01*
X263264Y234353D01*
X263244Y234337D01*
X263220Y234326D01*
X263148Y234260D01*
X263072Y234200D01*
X263058Y234178D01*
X263039Y234160D01*
X262992Y234075D01*
X262939Y233993D01*
X262933Y233967D01*
X262920Y233944D01*
X262903Y233848D01*
X262879Y233754D01*
X262881Y233728D01*
X262876Y233702D01*
X262891Y233606D01*
X262898Y233509D01*
X262908Y233485D01*
X262912Y233459D01*
X262956Y233372D01*
X262994Y233283D01*
X263015Y233257D01*
X263024Y233240D01*
X263047Y233217D01*
X263099Y233152D01*
X263653Y232598D01*
X263653Y224602D01*
X257998Y218947D01*
X250002Y218947D01*
G37*
%LPD*%
%LPC*%
G36*
X199202Y257047D02*
X199202Y257047D01*
X193547Y262702D01*
X193547Y270698D01*
X198645Y275796D01*
X198671Y275833D01*
X198705Y275864D01*
X198743Y275932D01*
X198788Y275995D01*
X198802Y276039D01*
X198824Y276079D01*
X198838Y276156D01*
X198861Y276230D01*
X198859Y276276D01*
X198867Y276322D01*
X198856Y276399D01*
X198854Y276476D01*
X198838Y276519D01*
X198832Y276565D01*
X198796Y276634D01*
X198770Y276707D01*
X198741Y276743D01*
X198720Y276784D01*
X198665Y276839D01*
X198616Y276899D01*
X198577Y276924D01*
X198545Y276956D01*
X198425Y277022D01*
X198409Y277032D01*
X198404Y277034D01*
X198398Y277037D01*
X197732Y277313D01*
X195017Y280028D01*
X193547Y283576D01*
X193547Y300624D01*
X195017Y304172D01*
X197732Y306887D01*
X201280Y308357D01*
X205120Y308357D01*
X208668Y306887D01*
X211383Y304172D01*
X212853Y300624D01*
X212853Y283576D01*
X211383Y280028D01*
X208668Y277313D01*
X208002Y277037D01*
X207963Y277013D01*
X207920Y276997D01*
X207860Y276949D01*
X207793Y276908D01*
X207764Y276872D01*
X207728Y276844D01*
X207686Y276778D01*
X207637Y276718D01*
X207620Y276675D01*
X207595Y276637D01*
X207576Y276561D01*
X207548Y276489D01*
X207546Y276443D01*
X207535Y276398D01*
X207541Y276321D01*
X207538Y276243D01*
X207551Y276199D01*
X207554Y276153D01*
X207585Y276081D01*
X207606Y276007D01*
X207633Y275969D01*
X207651Y275927D01*
X207736Y275820D01*
X207747Y275804D01*
X207751Y275802D01*
X207755Y275796D01*
X212853Y270698D01*
X212853Y262702D01*
X207198Y257047D01*
X199202Y257047D01*
G37*
%LPD*%
%LPC*%
G36*
X289826Y234187D02*
X289826Y234187D01*
X285625Y235928D01*
X282410Y239143D01*
X280669Y243344D01*
X280669Y264656D01*
X282410Y268857D01*
X285625Y272072D01*
X289826Y273813D01*
X294374Y273813D01*
X298575Y272072D01*
X301790Y268857D01*
X303531Y264656D01*
X303531Y243344D01*
X301790Y239143D01*
X298575Y235928D01*
X294374Y234187D01*
X289826Y234187D01*
G37*
%LPD*%
%LPC*%
G36*
X201280Y352043D02*
X201280Y352043D01*
X197732Y353513D01*
X195017Y356228D01*
X193547Y359776D01*
X193547Y376824D01*
X195017Y380372D01*
X197732Y383087D01*
X201280Y384557D01*
X205120Y384557D01*
X208668Y383087D01*
X211383Y380372D01*
X212853Y376824D01*
X212853Y359776D01*
X211383Y356228D01*
X208668Y353513D01*
X205120Y352043D01*
X201280Y352043D01*
G37*
%LPD*%
%LPC*%
G36*
X175880Y352043D02*
X175880Y352043D01*
X172332Y353513D01*
X169617Y356228D01*
X168147Y359776D01*
X168147Y376824D01*
X169617Y380372D01*
X172332Y383087D01*
X175880Y384557D01*
X179720Y384557D01*
X183268Y383087D01*
X185983Y380372D01*
X187453Y376824D01*
X187453Y359776D01*
X185983Y356228D01*
X183268Y353513D01*
X179720Y352043D01*
X175880Y352043D01*
G37*
%LPD*%
%LPC*%
G36*
X150480Y352043D02*
X150480Y352043D01*
X146932Y353513D01*
X144217Y356228D01*
X142747Y359776D01*
X142747Y376824D01*
X144217Y380372D01*
X146932Y383087D01*
X150480Y384557D01*
X154320Y384557D01*
X157868Y383087D01*
X160583Y380372D01*
X162053Y376824D01*
X162053Y359776D01*
X160583Y356228D01*
X157868Y353513D01*
X154320Y352043D01*
X150480Y352043D01*
G37*
%LPD*%
%LPC*%
G36*
X175880Y275843D02*
X175880Y275843D01*
X172332Y277313D01*
X169617Y280028D01*
X168147Y283576D01*
X168147Y300624D01*
X169617Y304172D01*
X172332Y306887D01*
X175880Y308357D01*
X179720Y308357D01*
X183268Y306887D01*
X185983Y304172D01*
X187453Y300624D01*
X187453Y283576D01*
X185983Y280028D01*
X183268Y277313D01*
X179720Y275843D01*
X175880Y275843D01*
G37*
%LPD*%
%LPC*%
G36*
X150480Y275843D02*
X150480Y275843D01*
X146932Y277313D01*
X144217Y280028D01*
X142747Y283576D01*
X142747Y300624D01*
X144217Y304172D01*
X146932Y306887D01*
X150480Y308357D01*
X154320Y308357D01*
X157868Y306887D01*
X160583Y304172D01*
X162053Y300624D01*
X162053Y283576D01*
X160583Y280028D01*
X157868Y277313D01*
X154320Y275843D01*
X150480Y275843D01*
G37*
%LPD*%
%LPC*%
G36*
X186502Y396747D02*
X186502Y396747D01*
X180847Y402402D01*
X180847Y410398D01*
X186502Y416053D01*
X194498Y416053D01*
X200153Y410398D01*
X200153Y402402D01*
X194498Y396747D01*
X186502Y396747D01*
G37*
%LPD*%
%LPC*%
G36*
X173802Y218947D02*
X173802Y218947D01*
X168147Y224602D01*
X168147Y232598D01*
X173802Y238253D01*
X181798Y238253D01*
X187453Y232598D01*
X187453Y224602D01*
X181798Y218947D01*
X173802Y218947D01*
G37*
%LPD*%
D10*
X190500Y406400D03*
X139700Y406400D03*
D11*
X203200Y266700D03*
X228600Y266700D03*
D12*
X203200Y361696D02*
X203200Y374904D01*
X177800Y374904D02*
X177800Y361696D01*
X177800Y298704D02*
X177800Y285496D01*
X203200Y285496D02*
X203200Y298704D01*
X152400Y361696D02*
X152400Y374904D01*
X127000Y374904D02*
X127000Y361696D01*
X152400Y298704D02*
X152400Y285496D01*
X127000Y285496D02*
X127000Y298704D01*
D13*
X83820Y355600D02*
X68580Y355600D01*
X68580Y330200D02*
X83820Y330200D01*
X83820Y304800D02*
X68580Y304800D01*
D14*
X266700Y262382D02*
X266700Y245618D01*
X292100Y245618D02*
X292100Y262382D01*
X317500Y262382D02*
X317500Y245618D01*
D11*
X177800Y228600D03*
X254000Y228600D03*
D15*
X342900Y241300D03*
X342900Y228600D03*
X355600Y241300D03*
X355600Y228600D03*
X368300Y241300D03*
X368300Y228600D03*
X381000Y241300D03*
X381000Y228600D03*
X393700Y241300D03*
X393700Y228600D03*
X393700Y215900D03*
X381000Y215900D03*
X368300Y215900D03*
X355600Y215900D03*
X342900Y215900D03*
X323850Y266700D03*
X311150Y266700D03*
X311150Y241300D03*
X323850Y241300D03*
X330200Y254000D03*
X317500Y273050D03*
X317500Y234950D03*
X374650Y254000D03*
X387350Y254000D03*
X387350Y266700D03*
X374650Y266700D03*
X393700Y444500D03*
X381000Y444500D03*
X368300Y444500D03*
X374650Y431800D03*
X387350Y431800D03*
X393700Y419100D03*
X381000Y419100D03*
X368300Y419100D03*
X374650Y406400D03*
X387350Y406400D03*
X393700Y393700D03*
X381000Y393700D03*
X368300Y393700D03*
X254000Y381000D03*
X273050Y381000D03*
X292100Y381000D03*
X311150Y381000D03*
X330200Y381000D03*
X254000Y361950D03*
X273050Y361950D03*
X292100Y361950D03*
X311150Y361950D03*
X330200Y361950D03*
X330200Y400050D03*
X254000Y400050D03*
X374650Y374650D03*
X387350Y374650D03*
X387350Y361950D03*
X374650Y361950D03*
M02*
