G04 EAGLE Gerber RS-274X export*
G75*
%MOMM*%
%FSLAX34Y34*%
%LPD*%
%INBottom Copper*%
%IPPOS*%
%AMOC8*
5,1,8,0,0,1.08239X$1,22.5*%
G01*
%ADD10P,1.429621X8X202.500000*%
%ADD11P,1.429621X8X22.500000*%
%ADD12C,1.320800*%
%ADD13P,1.429621X8X112.500000*%
%ADD14C,1.320800*%
%ADD15P,1.429621X8X292.500000*%
%ADD16C,1.524000*%
%ADD17R,1.168400X1.600200*%
%ADD18C,0.756400*%
%ADD19C,0.152400*%
%ADD20C,0.304800*%
%ADD21C,0.254000*%
%ADD22C,0.406400*%
%ADD23C,2.540000*%

G36*
X297875Y2676D02*
X297875Y2676D01*
X297933Y2674D01*
X298015Y2696D01*
X298099Y2708D01*
X298152Y2731D01*
X298208Y2746D01*
X298281Y2789D01*
X298358Y2824D01*
X298403Y2862D01*
X298453Y2891D01*
X298511Y2953D01*
X298575Y3007D01*
X298607Y3056D01*
X298647Y3099D01*
X298686Y3174D01*
X298733Y3244D01*
X298750Y3300D01*
X298777Y3352D01*
X298788Y3420D01*
X298818Y3515D01*
X298821Y3615D01*
X298832Y3683D01*
X298832Y241300D01*
X298825Y241350D01*
X298826Y241368D01*
X298824Y241372D01*
X298826Y241416D01*
X298804Y241498D01*
X298792Y241582D01*
X298769Y241635D01*
X298754Y241691D01*
X298711Y241764D01*
X298676Y241841D01*
X298638Y241886D01*
X298609Y241936D01*
X298547Y241994D01*
X298493Y242058D01*
X298444Y242090D01*
X298401Y242130D01*
X298326Y242169D01*
X298256Y242216D01*
X298200Y242233D01*
X298148Y242260D01*
X298080Y242271D01*
X297985Y242301D01*
X297885Y242304D01*
X297817Y242315D01*
X3683Y242315D01*
X3625Y242307D01*
X3567Y242309D01*
X3485Y242287D01*
X3401Y242275D01*
X3348Y242251D01*
X3292Y242237D01*
X3219Y242194D01*
X3142Y242159D01*
X3097Y242121D01*
X3047Y242091D01*
X2989Y242030D01*
X2925Y241975D01*
X2893Y241927D01*
X2853Y241884D01*
X2814Y241809D01*
X2767Y241739D01*
X2750Y241683D01*
X2723Y241631D01*
X2712Y241563D01*
X2682Y241468D01*
X2679Y241368D01*
X2668Y241300D01*
X2668Y3683D01*
X2676Y3625D01*
X2674Y3567D01*
X2696Y3485D01*
X2708Y3401D01*
X2731Y3348D01*
X2746Y3292D01*
X2789Y3219D01*
X2824Y3142D01*
X2862Y3097D01*
X2891Y3047D01*
X2953Y2989D01*
X3007Y2925D01*
X3056Y2893D01*
X3099Y2853D01*
X3174Y2814D01*
X3244Y2767D01*
X3300Y2750D01*
X3352Y2723D01*
X3420Y2712D01*
X3515Y2682D01*
X3615Y2679D01*
X3683Y2668D01*
X297817Y2668D01*
X297875Y2676D01*
G37*
G36*
X146070Y246892D02*
X146070Y246892D01*
X146089Y246890D01*
X146191Y246912D01*
X146293Y246929D01*
X146310Y246938D01*
X146330Y246942D01*
X146419Y246995D01*
X146510Y247044D01*
X146524Y247058D01*
X146541Y247068D01*
X146608Y247147D01*
X146680Y247222D01*
X146688Y247240D01*
X146701Y247255D01*
X146740Y247351D01*
X146783Y247445D01*
X146785Y247465D01*
X146793Y247483D01*
X146811Y247650D01*
X146811Y378714D01*
X146808Y378734D01*
X146810Y378753D01*
X146788Y378855D01*
X146772Y378957D01*
X146762Y378974D01*
X146758Y378994D01*
X146705Y379083D01*
X146656Y379174D01*
X146642Y379188D01*
X146632Y379205D01*
X146553Y379272D01*
X146478Y379344D01*
X146460Y379352D01*
X146445Y379365D01*
X146349Y379404D01*
X146255Y379447D01*
X146235Y379449D01*
X146217Y379457D01*
X146050Y379475D01*
X130521Y379475D01*
X125292Y381641D01*
X125113Y381820D01*
X125039Y381873D01*
X124969Y381933D01*
X124939Y381945D01*
X124913Y381964D01*
X124867Y381978D01*
X121626Y385219D01*
X121611Y385248D01*
X121575Y385332D01*
X121549Y385364D01*
X121538Y385385D01*
X121515Y385407D01*
X121470Y385463D01*
X121291Y385642D01*
X119125Y390871D01*
X119125Y396529D01*
X121291Y401758D01*
X121470Y401937D01*
X121523Y402011D01*
X121583Y402081D01*
X121595Y402111D01*
X121614Y402137D01*
X121628Y402183D01*
X124869Y405424D01*
X124898Y405439D01*
X124982Y405475D01*
X125014Y405501D01*
X125035Y405512D01*
X125057Y405535D01*
X125113Y405580D01*
X125292Y405759D01*
X130521Y407925D01*
X146050Y407925D01*
X146070Y407928D01*
X146089Y407926D01*
X146191Y407948D01*
X146293Y407964D01*
X146310Y407974D01*
X146330Y407978D01*
X146419Y408031D01*
X146510Y408080D01*
X146524Y408094D01*
X146541Y408104D01*
X146608Y408183D01*
X146680Y408258D01*
X146688Y408276D01*
X146701Y408291D01*
X146740Y408387D01*
X146783Y408481D01*
X146785Y408501D01*
X146793Y408519D01*
X146811Y408686D01*
X146811Y434621D01*
X146808Y434641D01*
X146810Y434660D01*
X146788Y434762D01*
X146772Y434864D01*
X146762Y434881D01*
X146758Y434901D01*
X146705Y434990D01*
X146656Y435081D01*
X146642Y435095D01*
X146632Y435112D01*
X146553Y435179D01*
X146478Y435251D01*
X146460Y435259D01*
X146445Y435272D01*
X146349Y435311D01*
X146255Y435354D01*
X146235Y435356D01*
X146217Y435364D01*
X146050Y435382D01*
X3429Y435382D01*
X3409Y435379D01*
X3390Y435381D01*
X3288Y435359D01*
X3186Y435343D01*
X3169Y435333D01*
X3149Y435329D01*
X3060Y435276D01*
X2969Y435227D01*
X2955Y435213D01*
X2938Y435203D01*
X2871Y435124D01*
X2799Y435049D01*
X2791Y435031D01*
X2778Y435016D01*
X2739Y434920D01*
X2696Y434826D01*
X2694Y434806D01*
X2686Y434788D01*
X2668Y434621D01*
X2668Y247650D01*
X2671Y247630D01*
X2669Y247611D01*
X2691Y247509D01*
X2707Y247407D01*
X2717Y247390D01*
X2721Y247370D01*
X2774Y247281D01*
X2823Y247190D01*
X2837Y247176D01*
X2847Y247159D01*
X2926Y247092D01*
X3001Y247021D01*
X3019Y247012D01*
X3034Y246999D01*
X3130Y246960D01*
X3224Y246917D01*
X3244Y246915D01*
X3262Y246907D01*
X3429Y246889D01*
X146050Y246889D01*
X146070Y246892D01*
G37*
G36*
X253225Y246900D02*
X253225Y246900D01*
X253296Y246902D01*
X253345Y246920D01*
X253397Y246929D01*
X253460Y246962D01*
X253527Y246987D01*
X253568Y247019D01*
X253614Y247044D01*
X253663Y247096D01*
X253719Y247140D01*
X253748Y247184D01*
X253783Y247222D01*
X253814Y247287D01*
X253852Y247347D01*
X253865Y247398D01*
X253887Y247445D01*
X253895Y247516D01*
X253913Y247586D01*
X253908Y247638D01*
X253914Y247689D01*
X253899Y247760D01*
X253893Y247831D01*
X253873Y247879D01*
X253862Y247930D01*
X253825Y247991D01*
X253797Y248057D01*
X253752Y248113D01*
X253736Y248141D01*
X253718Y248156D01*
X253692Y248188D01*
X252600Y249281D01*
X251660Y250575D01*
X250934Y252000D01*
X250439Y253521D01*
X250189Y255100D01*
X250189Y261997D01*
X259588Y261997D01*
X259608Y262000D01*
X259627Y261998D01*
X259729Y262020D01*
X259831Y262037D01*
X259848Y262046D01*
X259868Y262050D01*
X259957Y262103D01*
X260048Y262152D01*
X260062Y262166D01*
X260079Y262176D01*
X260146Y262255D01*
X260217Y262330D01*
X260226Y262348D01*
X260239Y262363D01*
X260277Y262459D01*
X260321Y262553D01*
X260323Y262573D01*
X260331Y262591D01*
X260349Y262758D01*
X260349Y263521D01*
X260351Y263521D01*
X260351Y262758D01*
X260354Y262738D01*
X260352Y262719D01*
X260374Y262617D01*
X260391Y262515D01*
X260400Y262498D01*
X260404Y262478D01*
X260457Y262389D01*
X260506Y262298D01*
X260520Y262284D01*
X260530Y262267D01*
X260609Y262200D01*
X260684Y262129D01*
X260702Y262120D01*
X260717Y262107D01*
X260813Y262068D01*
X260907Y262025D01*
X260927Y262023D01*
X260945Y262015D01*
X261112Y261997D01*
X270511Y261997D01*
X270511Y255100D01*
X270261Y253521D01*
X269766Y252000D01*
X269040Y250575D01*
X268100Y249281D01*
X267008Y248188D01*
X266966Y248130D01*
X266917Y248078D01*
X266895Y248031D01*
X266864Y247989D01*
X266843Y247920D01*
X266813Y247855D01*
X266807Y247803D01*
X266792Y247753D01*
X266794Y247682D01*
X266786Y247611D01*
X266797Y247560D01*
X266798Y247508D01*
X266823Y247440D01*
X266838Y247370D01*
X266865Y247326D01*
X266883Y247277D01*
X266928Y247221D01*
X266964Y247159D01*
X267004Y247125D01*
X267036Y247085D01*
X267097Y247046D01*
X267151Y246999D01*
X267199Y246980D01*
X267243Y246952D01*
X267313Y246934D01*
X267379Y246907D01*
X267451Y246899D01*
X267482Y246891D01*
X267505Y246893D01*
X267546Y246889D01*
X279991Y246889D01*
X280062Y246900D01*
X280133Y246902D01*
X280182Y246920D01*
X280234Y246929D01*
X280297Y246962D01*
X280364Y246987D01*
X280405Y247019D01*
X280451Y247044D01*
X280500Y247096D01*
X280556Y247140D01*
X280584Y247184D01*
X280620Y247222D01*
X280651Y247287D01*
X280689Y247347D01*
X280702Y247398D01*
X280724Y247445D01*
X280732Y247516D01*
X280749Y247586D01*
X280745Y247638D01*
X280751Y247689D01*
X280736Y247760D01*
X280730Y247831D01*
X280710Y247879D01*
X280699Y247930D01*
X280662Y247991D01*
X280634Y248057D01*
X280589Y248113D01*
X280573Y248141D01*
X280555Y248156D01*
X280529Y248188D01*
X277997Y250720D01*
X276605Y254081D01*
X276605Y272959D01*
X277997Y276320D01*
X280570Y278893D01*
X283931Y280285D01*
X287569Y280285D01*
X290930Y278893D01*
X292072Y277751D01*
X292130Y277709D01*
X292182Y277660D01*
X292229Y277638D01*
X292271Y277607D01*
X292340Y277586D01*
X292405Y277556D01*
X292457Y277550D01*
X292507Y277535D01*
X292578Y277537D01*
X292649Y277529D01*
X292700Y277540D01*
X292752Y277541D01*
X292820Y277566D01*
X292890Y277581D01*
X292935Y277608D01*
X292983Y277626D01*
X293039Y277671D01*
X293101Y277707D01*
X293135Y277747D01*
X293175Y277779D01*
X293214Y277840D01*
X293261Y277894D01*
X293280Y277943D01*
X293308Y277986D01*
X293326Y278056D01*
X293353Y278122D01*
X293361Y278194D01*
X293369Y278225D01*
X293367Y278248D01*
X293371Y278289D01*
X293371Y342900D01*
X293368Y342920D01*
X293370Y342939D01*
X293348Y343041D01*
X293332Y343143D01*
X293322Y343160D01*
X293318Y343180D01*
X293265Y343269D01*
X293216Y343360D01*
X293202Y343374D01*
X293192Y343391D01*
X293113Y343458D01*
X293038Y343530D01*
X293020Y343538D01*
X293005Y343551D01*
X292909Y343590D01*
X292815Y343633D01*
X292795Y343635D01*
X292777Y343643D01*
X292610Y343661D01*
X216661Y343661D01*
X216661Y434621D01*
X216658Y434641D01*
X216660Y434660D01*
X216638Y434762D01*
X216622Y434864D01*
X216612Y434881D01*
X216608Y434901D01*
X216555Y434990D01*
X216506Y435081D01*
X216492Y435095D01*
X216482Y435112D01*
X216403Y435179D01*
X216328Y435251D01*
X216310Y435259D01*
X216295Y435272D01*
X216199Y435311D01*
X216105Y435354D01*
X216085Y435356D01*
X216067Y435364D01*
X215900Y435382D01*
X158750Y435382D01*
X158730Y435379D01*
X158711Y435381D01*
X158609Y435359D01*
X158507Y435343D01*
X158490Y435333D01*
X158470Y435329D01*
X158381Y435276D01*
X158290Y435227D01*
X158276Y435213D01*
X158259Y435203D01*
X158192Y435124D01*
X158121Y435049D01*
X158112Y435031D01*
X158099Y435016D01*
X158060Y434920D01*
X158017Y434826D01*
X158015Y434806D01*
X158007Y434788D01*
X157989Y434621D01*
X157989Y408686D01*
X157992Y408666D01*
X157990Y408647D01*
X158012Y408545D01*
X158029Y408443D01*
X158038Y408426D01*
X158042Y408406D01*
X158095Y408317D01*
X158144Y408226D01*
X158158Y408212D01*
X158168Y408195D01*
X158247Y408128D01*
X158322Y408056D01*
X158340Y408048D01*
X158355Y408035D01*
X158451Y407996D01*
X158545Y407953D01*
X158565Y407951D01*
X158583Y407943D01*
X158750Y407925D01*
X161579Y407925D01*
X166808Y405759D01*
X166987Y405580D01*
X167061Y405527D01*
X167131Y405467D01*
X167161Y405455D01*
X167187Y405436D01*
X167233Y405422D01*
X170474Y402181D01*
X170489Y402152D01*
X170525Y402068D01*
X170551Y402036D01*
X170562Y402015D01*
X170585Y401993D01*
X170630Y401937D01*
X170809Y401758D01*
X172975Y396529D01*
X172975Y390871D01*
X170809Y385642D01*
X170630Y385463D01*
X170577Y385389D01*
X170517Y385319D01*
X170505Y385289D01*
X170486Y385263D01*
X170472Y385217D01*
X167231Y381976D01*
X167202Y381961D01*
X167118Y381925D01*
X167086Y381899D01*
X167065Y381888D01*
X167043Y381865D01*
X166987Y381820D01*
X166808Y381641D01*
X161579Y379475D01*
X158750Y379475D01*
X158730Y379472D01*
X158711Y379474D01*
X158609Y379452D01*
X158507Y379436D01*
X158490Y379426D01*
X158470Y379422D01*
X158381Y379369D01*
X158290Y379320D01*
X158276Y379306D01*
X158259Y379296D01*
X158192Y379217D01*
X158121Y379142D01*
X158112Y379124D01*
X158099Y379109D01*
X158060Y379013D01*
X158017Y378919D01*
X158015Y378899D01*
X158007Y378881D01*
X157989Y378714D01*
X157989Y247650D01*
X157992Y247630D01*
X157990Y247611D01*
X158012Y247509D01*
X158029Y247407D01*
X158038Y247390D01*
X158042Y247370D01*
X158095Y247281D01*
X158144Y247190D01*
X158158Y247176D01*
X158168Y247159D01*
X158247Y247092D01*
X158322Y247021D01*
X158340Y247012D01*
X158355Y246999D01*
X158451Y246960D01*
X158545Y246917D01*
X158565Y246915D01*
X158583Y246907D01*
X158750Y246889D01*
X253154Y246889D01*
X253225Y246900D01*
G37*
G36*
X298091Y348492D02*
X298091Y348492D01*
X298110Y348490D01*
X298212Y348512D01*
X298314Y348529D01*
X298331Y348538D01*
X298351Y348542D01*
X298440Y348595D01*
X298531Y348644D01*
X298545Y348658D01*
X298562Y348668D01*
X298629Y348747D01*
X298701Y348822D01*
X298709Y348840D01*
X298722Y348855D01*
X298761Y348951D01*
X298804Y349045D01*
X298806Y349065D01*
X298814Y349083D01*
X298832Y349250D01*
X298832Y434621D01*
X298829Y434641D01*
X298831Y434660D01*
X298809Y434762D01*
X298793Y434864D01*
X298783Y434881D01*
X298779Y434901D01*
X298726Y434990D01*
X298677Y435081D01*
X298663Y435095D01*
X298653Y435112D01*
X298574Y435179D01*
X298499Y435251D01*
X298481Y435259D01*
X298466Y435272D01*
X298370Y435311D01*
X298276Y435354D01*
X298256Y435356D01*
X298238Y435364D01*
X298071Y435382D01*
X222250Y435382D01*
X222230Y435379D01*
X222211Y435381D01*
X222109Y435359D01*
X222007Y435343D01*
X221990Y435333D01*
X221970Y435329D01*
X221881Y435276D01*
X221790Y435227D01*
X221776Y435213D01*
X221759Y435203D01*
X221692Y435124D01*
X221621Y435049D01*
X221612Y435031D01*
X221599Y435016D01*
X221560Y434920D01*
X221517Y434826D01*
X221515Y434806D01*
X221507Y434788D01*
X221489Y434621D01*
X221489Y349250D01*
X221492Y349230D01*
X221490Y349211D01*
X221512Y349109D01*
X221529Y349007D01*
X221538Y348990D01*
X221542Y348970D01*
X221595Y348881D01*
X221644Y348790D01*
X221658Y348776D01*
X221668Y348759D01*
X221747Y348692D01*
X221822Y348621D01*
X221840Y348612D01*
X221855Y348599D01*
X221951Y348560D01*
X222045Y348517D01*
X222065Y348515D01*
X222083Y348507D01*
X222250Y348489D01*
X298071Y348489D01*
X298091Y348492D01*
G37*
%LPC*%
G36*
X197013Y153443D02*
X197013Y153443D01*
X195063Y154251D01*
X193570Y155744D01*
X192762Y157694D01*
X192762Y159806D01*
X193570Y161756D01*
X195063Y163249D01*
X195242Y163323D01*
X195341Y163381D01*
X195443Y163434D01*
X195463Y163453D01*
X195487Y163468D01*
X195566Y163551D01*
X195649Y163630D01*
X195663Y163654D01*
X195682Y163674D01*
X195735Y163776D01*
X195793Y163875D01*
X195800Y163902D01*
X195813Y163927D01*
X195835Y164040D01*
X195863Y164151D01*
X195862Y164179D01*
X195868Y164206D01*
X195858Y164320D01*
X195854Y164435D01*
X195846Y164462D01*
X195843Y164489D01*
X195802Y164596D01*
X195767Y164706D01*
X195752Y164726D01*
X195741Y164754D01*
X195580Y164967D01*
X195572Y164979D01*
X194563Y165987D01*
X194563Y183253D01*
X195456Y184146D01*
X204524Y184146D01*
X204610Y184158D01*
X204698Y184161D01*
X204750Y184178D01*
X204805Y184186D01*
X204885Y184221D01*
X204968Y184248D01*
X205007Y184276D01*
X205064Y184302D01*
X205178Y184398D01*
X205241Y184443D01*
X209013Y188215D01*
X210230Y188215D01*
X210316Y188227D01*
X210404Y188230D01*
X210457Y188247D01*
X210511Y188255D01*
X210591Y188290D01*
X210674Y188317D01*
X210714Y188345D01*
X210771Y188371D01*
X210884Y188467D01*
X210948Y188512D01*
X211284Y188848D01*
X211336Y188918D01*
X211396Y188982D01*
X211422Y189031D01*
X211455Y189075D01*
X211486Y189157D01*
X211526Y189235D01*
X211534Y189283D01*
X211556Y189341D01*
X211568Y189489D01*
X211581Y189566D01*
X211581Y191556D01*
X212389Y193506D01*
X213882Y194999D01*
X215832Y195807D01*
X217944Y195807D01*
X219894Y194999D01*
X221387Y193506D01*
X222195Y191556D01*
X222195Y189444D01*
X221387Y187494D01*
X219772Y185879D01*
X219754Y185855D01*
X219732Y185836D01*
X219669Y185742D01*
X219601Y185652D01*
X219590Y185624D01*
X219574Y185600D01*
X219540Y185492D01*
X219500Y185386D01*
X219497Y185357D01*
X219488Y185329D01*
X219485Y185215D01*
X219476Y185103D01*
X219482Y185074D01*
X219481Y185045D01*
X219510Y184935D01*
X219532Y184824D01*
X219545Y184798D01*
X219553Y184770D01*
X219611Y184672D01*
X219663Y184572D01*
X219683Y184550D01*
X219698Y184525D01*
X219781Y184448D01*
X219859Y184366D01*
X219884Y184351D01*
X219905Y184331D01*
X220006Y184279D01*
X220104Y184222D01*
X220132Y184215D01*
X220159Y184201D01*
X220236Y184188D01*
X220379Y184152D01*
X220442Y184154D01*
X220490Y184146D01*
X223644Y184146D01*
X224537Y183253D01*
X224537Y171632D01*
X224549Y171545D01*
X224552Y171457D01*
X224569Y171405D01*
X224577Y171350D01*
X224612Y171270D01*
X224639Y171187D01*
X224667Y171148D01*
X224693Y171091D01*
X224789Y170977D01*
X224834Y170913D01*
X225045Y170703D01*
X225045Y169631D01*
X225057Y169544D01*
X225060Y169457D01*
X225077Y169404D01*
X225085Y169349D01*
X225120Y169269D01*
X225147Y169186D01*
X225175Y169147D01*
X225201Y169090D01*
X225297Y168976D01*
X225342Y168913D01*
X226749Y167506D01*
X227557Y165556D01*
X227557Y163444D01*
X226749Y161494D01*
X225256Y160001D01*
X223306Y159193D01*
X221194Y159193D01*
X219244Y160001D01*
X217751Y161494D01*
X216943Y163444D01*
X216943Y164079D01*
X216935Y164137D01*
X216937Y164195D01*
X216915Y164277D01*
X216903Y164361D01*
X216880Y164414D01*
X216865Y164470D01*
X216822Y164543D01*
X216787Y164620D01*
X216749Y164665D01*
X216720Y164715D01*
X216658Y164773D01*
X216604Y164837D01*
X216555Y164869D01*
X216512Y164909D01*
X216437Y164948D01*
X216367Y164995D01*
X216311Y165012D01*
X216259Y165039D01*
X216191Y165050D01*
X216096Y165080D01*
X215996Y165083D01*
X215928Y165094D01*
X210696Y165094D01*
X210268Y165523D01*
X210221Y165558D01*
X210181Y165600D01*
X210108Y165643D01*
X210041Y165694D01*
X209986Y165714D01*
X209936Y165744D01*
X209854Y165765D01*
X209775Y165795D01*
X209717Y165800D01*
X209660Y165814D01*
X209576Y165811D01*
X209492Y165818D01*
X209434Y165807D01*
X209376Y165805D01*
X209296Y165779D01*
X209213Y165763D01*
X209161Y165736D01*
X209105Y165718D01*
X209049Y165678D01*
X208961Y165632D01*
X208888Y165563D01*
X208832Y165523D01*
X208404Y165094D01*
X205740Y165094D01*
X205682Y165086D01*
X205624Y165088D01*
X205542Y165066D01*
X205458Y165054D01*
X205405Y165031D01*
X205349Y165016D01*
X205276Y164973D01*
X205199Y164938D01*
X205154Y164900D01*
X205104Y164871D01*
X205046Y164809D01*
X204982Y164755D01*
X204950Y164706D01*
X204910Y164663D01*
X204871Y164588D01*
X204824Y164518D01*
X204807Y164462D01*
X204780Y164410D01*
X204769Y164342D01*
X204739Y164247D01*
X204736Y164147D01*
X204725Y164079D01*
X204725Y161453D01*
X203673Y160402D01*
X203621Y160332D01*
X203561Y160268D01*
X203535Y160219D01*
X203502Y160175D01*
X203471Y160093D01*
X203431Y160015D01*
X203423Y159967D01*
X203401Y159909D01*
X203389Y159761D01*
X203376Y159684D01*
X203376Y157694D01*
X202568Y155744D01*
X201075Y154251D01*
X199125Y153443D01*
X197013Y153443D01*
G37*
%LPD*%
%LPC*%
G36*
X266781Y181355D02*
X266781Y181355D01*
X263420Y182747D01*
X260847Y185320D01*
X259455Y188681D01*
X259455Y192319D01*
X260847Y195680D01*
X263420Y198253D01*
X266781Y199645D01*
X285659Y199645D01*
X289020Y198253D01*
X291593Y195680D01*
X292985Y192319D01*
X292985Y188681D01*
X291593Y185320D01*
X289020Y182747D01*
X285659Y181355D01*
X266781Y181355D01*
G37*
%LPD*%
%LPC*%
G36*
X15961Y67055D02*
X15961Y67055D01*
X12600Y68447D01*
X10027Y71020D01*
X8635Y74381D01*
X8635Y78019D01*
X10027Y81380D01*
X12600Y83953D01*
X15961Y85345D01*
X34839Y85345D01*
X38200Y83953D01*
X40773Y81380D01*
X42165Y78019D01*
X42165Y74381D01*
X40773Y71020D01*
X38200Y68447D01*
X34839Y67055D01*
X15961Y67055D01*
G37*
%LPD*%
%LPC*%
G36*
X266781Y155955D02*
X266781Y155955D01*
X263420Y157347D01*
X260847Y159920D01*
X259455Y163281D01*
X259455Y166919D01*
X260847Y170280D01*
X263420Y172853D01*
X266781Y174245D01*
X285659Y174245D01*
X289020Y172853D01*
X291593Y170280D01*
X292985Y166919D01*
X292985Y163281D01*
X291593Y159920D01*
X289020Y157347D01*
X285659Y155955D01*
X266781Y155955D01*
G37*
%LPD*%
%LPC*%
G36*
X15961Y92455D02*
X15961Y92455D01*
X12600Y93847D01*
X10027Y96420D01*
X8635Y99781D01*
X8635Y103419D01*
X10027Y106780D01*
X12600Y109353D01*
X15961Y110745D01*
X34839Y110745D01*
X38200Y109353D01*
X40773Y106780D01*
X42165Y103419D01*
X42165Y99781D01*
X40773Y96420D01*
X38200Y93847D01*
X34839Y92455D01*
X15961Y92455D01*
G37*
%LPD*%
%LPC*%
G36*
X48756Y102643D02*
X48756Y102643D01*
X46806Y103451D01*
X45313Y104944D01*
X44505Y106894D01*
X44505Y109006D01*
X45313Y110956D01*
X46806Y112449D01*
X48756Y113257D01*
X50597Y113257D01*
X50626Y113261D01*
X50655Y113258D01*
X50766Y113281D01*
X50878Y113297D01*
X50905Y113309D01*
X50934Y113314D01*
X51034Y113367D01*
X51137Y113413D01*
X51160Y113432D01*
X51186Y113445D01*
X51268Y113523D01*
X51354Y113596D01*
X51371Y113621D01*
X51392Y113641D01*
X51449Y113739D01*
X51512Y113833D01*
X51521Y113861D01*
X51536Y113886D01*
X51564Y113996D01*
X51598Y114104D01*
X51599Y114134D01*
X51606Y114162D01*
X51602Y114275D01*
X51605Y114388D01*
X51598Y114417D01*
X51597Y114446D01*
X51562Y114554D01*
X51533Y114663D01*
X51518Y114689D01*
X51509Y114717D01*
X51464Y114780D01*
X51388Y114908D01*
X51342Y114951D01*
X51314Y114990D01*
X49021Y117283D01*
X49021Y124017D01*
X53783Y128779D01*
X60517Y128779D01*
X65279Y124017D01*
X65279Y117283D01*
X62986Y114990D01*
X62968Y114966D01*
X62946Y114947D01*
X62883Y114853D01*
X62815Y114763D01*
X62804Y114735D01*
X62788Y114711D01*
X62754Y114603D01*
X62713Y114497D01*
X62711Y114468D01*
X62702Y114440D01*
X62699Y114326D01*
X62690Y114214D01*
X62696Y114185D01*
X62695Y114156D01*
X62724Y114046D01*
X62746Y113935D01*
X62759Y113909D01*
X62767Y113881D01*
X62825Y113783D01*
X62877Y113683D01*
X62897Y113661D01*
X62912Y113636D01*
X62995Y113559D01*
X63073Y113477D01*
X63098Y113462D01*
X63119Y113442D01*
X63220Y113390D01*
X63318Y113333D01*
X63346Y113326D01*
X63372Y113312D01*
X63450Y113299D01*
X63593Y113263D01*
X63656Y113265D01*
X63703Y113257D01*
X65544Y113257D01*
X67494Y112449D01*
X68987Y110956D01*
X69795Y109006D01*
X69795Y106894D01*
X68987Y104944D01*
X67494Y103451D01*
X65544Y102643D01*
X63432Y102643D01*
X61482Y103451D01*
X59989Y104944D01*
X59951Y105037D01*
X59950Y105038D01*
X59950Y105039D01*
X59881Y105155D01*
X59806Y105281D01*
X59805Y105283D01*
X59804Y105284D01*
X59704Y105378D01*
X59600Y105477D01*
X59598Y105477D01*
X59597Y105478D01*
X59471Y105543D01*
X59347Y105607D01*
X59345Y105607D01*
X59344Y105608D01*
X59329Y105610D01*
X59068Y105662D01*
X59038Y105659D01*
X59013Y105663D01*
X55287Y105663D01*
X55286Y105663D01*
X55284Y105663D01*
X55145Y105643D01*
X55006Y105623D01*
X55004Y105623D01*
X55003Y105623D01*
X54876Y105566D01*
X54746Y105507D01*
X54745Y105506D01*
X54744Y105506D01*
X54636Y105413D01*
X54529Y105324D01*
X54528Y105322D01*
X54527Y105321D01*
X54519Y105308D01*
X54372Y105087D01*
X54362Y105058D01*
X54349Y105037D01*
X54311Y104944D01*
X52818Y103451D01*
X50868Y102643D01*
X48756Y102643D01*
G37*
%LPD*%
%LPC*%
G36*
X17179Y36321D02*
X17179Y36321D01*
X14191Y37559D01*
X11905Y39845D01*
X10667Y42833D01*
X10667Y46067D01*
X11905Y49055D01*
X14191Y51341D01*
X17179Y52579D01*
X33621Y52579D01*
X36609Y51341D01*
X38895Y49055D01*
X40133Y46067D01*
X40133Y42833D01*
X38895Y39845D01*
X36609Y37559D01*
X33621Y36321D01*
X17179Y36321D01*
G37*
%LPD*%
%LPC*%
G36*
X85533Y169671D02*
X85533Y169671D01*
X80750Y174454D01*
X80680Y174506D01*
X80617Y174566D01*
X80567Y174592D01*
X80523Y174625D01*
X80441Y174656D01*
X80364Y174696D01*
X80316Y174704D01*
X80258Y174726D01*
X80110Y174738D01*
X80032Y174751D01*
X74727Y174751D01*
X74640Y174739D01*
X74553Y174736D01*
X74500Y174719D01*
X74445Y174711D01*
X74365Y174676D01*
X74282Y174649D01*
X74243Y174621D01*
X74186Y174595D01*
X74072Y174499D01*
X74009Y174454D01*
X72856Y173301D01*
X70906Y172493D01*
X68794Y172493D01*
X66844Y173301D01*
X65351Y174794D01*
X64543Y176744D01*
X64543Y178856D01*
X65351Y180806D01*
X66844Y182299D01*
X68794Y183107D01*
X70906Y183107D01*
X72856Y182299D01*
X74009Y181146D01*
X74079Y181094D01*
X74142Y181034D01*
X74192Y181008D01*
X74236Y180975D01*
X74318Y180944D01*
X74396Y180904D01*
X74443Y180896D01*
X74502Y180874D01*
X74649Y180862D01*
X74727Y180849D01*
X80032Y180849D01*
X80119Y180861D01*
X80207Y180864D01*
X80259Y180881D01*
X80314Y180889D01*
X80394Y180924D01*
X80477Y180951D01*
X80516Y180979D01*
X80573Y181005D01*
X80687Y181101D01*
X80750Y181146D01*
X85533Y185929D01*
X92267Y185929D01*
X97029Y181167D01*
X97029Y174433D01*
X92267Y169671D01*
X85533Y169671D01*
G37*
%LPD*%
%LPC*%
G36*
X166000Y89689D02*
X166000Y89689D01*
X164050Y90497D01*
X162557Y91989D01*
X161737Y93971D01*
X161734Y94043D01*
X161717Y94095D01*
X161709Y94150D01*
X161674Y94230D01*
X161647Y94313D01*
X161619Y94352D01*
X161593Y94410D01*
X161497Y94523D01*
X161452Y94587D01*
X155701Y100337D01*
X155701Y118017D01*
X155689Y118104D01*
X155686Y118191D01*
X155669Y118244D01*
X155661Y118299D01*
X155626Y118379D01*
X155599Y118462D01*
X155571Y118501D01*
X155545Y118558D01*
X155449Y118672D01*
X155404Y118735D01*
X154251Y119888D01*
X153443Y121838D01*
X153443Y123950D01*
X154251Y125900D01*
X155744Y127393D01*
X157694Y128201D01*
X159806Y128201D01*
X161756Y127393D01*
X163249Y125900D01*
X164057Y123950D01*
X164057Y121838D01*
X163249Y119888D01*
X162096Y118735D01*
X162044Y118665D01*
X161984Y118602D01*
X161958Y118552D01*
X161925Y118508D01*
X161894Y118426D01*
X161854Y118348D01*
X161846Y118301D01*
X161824Y118242D01*
X161812Y118095D01*
X161799Y118017D01*
X161799Y103283D01*
X161811Y103197D01*
X161814Y103109D01*
X161831Y103057D01*
X161839Y103002D01*
X161874Y102922D01*
X161901Y102839D01*
X161929Y102800D01*
X161955Y102742D01*
X162051Y102629D01*
X162096Y102565D01*
X164360Y100301D01*
X164362Y100300D01*
X164363Y100299D01*
X164478Y100212D01*
X164588Y100130D01*
X164589Y100130D01*
X164590Y100129D01*
X164721Y100080D01*
X164853Y100029D01*
X164855Y100029D01*
X164856Y100028D01*
X164994Y100017D01*
X165136Y100006D01*
X165138Y100006D01*
X165140Y100006D01*
X165155Y100009D01*
X165415Y100061D01*
X165442Y100075D01*
X165467Y100081D01*
X166000Y100302D01*
X168112Y100302D01*
X170062Y99494D01*
X171555Y98002D01*
X172363Y96051D01*
X172363Y93940D01*
X171555Y91989D01*
X170062Y90497D01*
X168112Y89689D01*
X166000Y89689D01*
G37*
%LPD*%
%LPC*%
G36*
X274445Y36321D02*
X274445Y36321D01*
X269684Y41083D01*
X269684Y47817D01*
X274445Y52579D01*
X281180Y52579D01*
X285941Y47817D01*
X285941Y41083D01*
X281180Y36321D01*
X274445Y36321D01*
G37*
%LPD*%
%LPC*%
G36*
X244283Y74421D02*
X244283Y74421D01*
X239521Y79183D01*
X239521Y85917D01*
X244283Y90679D01*
X251017Y90679D01*
X255779Y85917D01*
X255779Y79183D01*
X251017Y74421D01*
X244283Y74421D01*
G37*
%LPD*%
%LPC*%
G36*
X66483Y131571D02*
X66483Y131571D01*
X61721Y136333D01*
X61721Y143067D01*
X66483Y147829D01*
X73217Y147829D01*
X77979Y143067D01*
X77979Y136333D01*
X73217Y131571D01*
X66483Y131571D01*
G37*
%LPD*%
%LPC*%
G36*
X218883Y112521D02*
X218883Y112521D01*
X214121Y117283D01*
X214121Y124017D01*
X218883Y128779D01*
X225617Y128779D01*
X230379Y124017D01*
X230379Y117283D01*
X225617Y112521D01*
X218883Y112521D01*
G37*
%LPD*%
%LPC*%
G36*
X79183Y112521D02*
X79183Y112521D01*
X74421Y117283D01*
X74421Y124017D01*
X79183Y128779D01*
X85917Y128779D01*
X90679Y124017D01*
X90679Y117283D01*
X85917Y112521D01*
X79183Y112521D01*
G37*
%LPD*%
%LPC*%
G36*
X201583Y42671D02*
X201583Y42671D01*
X198595Y43909D01*
X196309Y46195D01*
X195071Y49183D01*
X195071Y52417D01*
X196309Y55405D01*
X198595Y57691D01*
X201583Y58929D01*
X204817Y58929D01*
X207805Y57691D01*
X210091Y55405D01*
X211329Y52417D01*
X211329Y49183D01*
X210091Y46195D01*
X207805Y43909D01*
X204817Y42671D01*
X201583Y42671D01*
G37*
%LPD*%
%LPC*%
G36*
X261873Y265043D02*
X261873Y265043D01*
X261873Y281186D01*
X262729Y281051D01*
X264250Y280556D01*
X265675Y279830D01*
X266969Y278890D01*
X268100Y277759D01*
X269040Y276465D01*
X269766Y275040D01*
X270261Y273519D01*
X270511Y271940D01*
X270511Y265043D01*
X261873Y265043D01*
G37*
%LPD*%
%LPC*%
G36*
X250189Y265043D02*
X250189Y265043D01*
X250189Y271940D01*
X250439Y273519D01*
X250934Y275040D01*
X251660Y276465D01*
X252600Y277759D01*
X253731Y278890D01*
X255025Y279830D01*
X256450Y280556D01*
X257971Y281051D01*
X258827Y281186D01*
X258827Y265043D01*
X250189Y265043D01*
G37*
%LPD*%
%LPC*%
G36*
X278251Y217931D02*
X278251Y217931D01*
X278251Y226061D01*
X284640Y226061D01*
X286219Y225811D01*
X287740Y225316D01*
X289165Y224590D01*
X290459Y223650D01*
X291590Y222519D01*
X292530Y221225D01*
X293256Y219800D01*
X293751Y218279D01*
X293806Y217931D01*
X278251Y217931D01*
G37*
%LPD*%
%LPC*%
G36*
X27431Y129031D02*
X27431Y129031D01*
X27431Y137161D01*
X33820Y137161D01*
X35399Y136911D01*
X36920Y136416D01*
X38345Y135690D01*
X39639Y134750D01*
X40770Y133619D01*
X41710Y132325D01*
X42436Y130900D01*
X42931Y129379D01*
X42986Y129031D01*
X27431Y129031D01*
G37*
%LPD*%
%LPC*%
G36*
X258634Y217931D02*
X258634Y217931D01*
X258689Y218279D01*
X259184Y219800D01*
X259910Y221225D01*
X260850Y222519D01*
X261981Y223650D01*
X263275Y224590D01*
X264700Y225316D01*
X266221Y225811D01*
X267800Y226061D01*
X274189Y226061D01*
X274189Y217931D01*
X258634Y217931D01*
G37*
%LPD*%
%LPC*%
G36*
X7814Y129031D02*
X7814Y129031D01*
X7869Y129379D01*
X8364Y130900D01*
X9090Y132325D01*
X10030Y133619D01*
X11161Y134750D01*
X12455Y135690D01*
X13880Y136416D01*
X15401Y136911D01*
X16980Y137161D01*
X23369Y137161D01*
X23369Y129031D01*
X7814Y129031D01*
G37*
%LPD*%
%LPC*%
G36*
X278251Y205739D02*
X278251Y205739D01*
X278251Y213869D01*
X293806Y213869D01*
X293751Y213521D01*
X293256Y212000D01*
X292530Y210575D01*
X291590Y209281D01*
X290459Y208150D01*
X289165Y207210D01*
X287740Y206484D01*
X286219Y205989D01*
X284640Y205739D01*
X278251Y205739D01*
G37*
%LPD*%
%LPC*%
G36*
X27431Y116839D02*
X27431Y116839D01*
X27431Y124969D01*
X42986Y124969D01*
X42931Y124621D01*
X42436Y123100D01*
X41710Y121675D01*
X40770Y120381D01*
X39639Y119250D01*
X38345Y118310D01*
X36920Y117584D01*
X35399Y117089D01*
X33820Y116839D01*
X27431Y116839D01*
G37*
%LPD*%
%LPC*%
G36*
X267800Y205739D02*
X267800Y205739D01*
X266221Y205989D01*
X264700Y206484D01*
X263275Y207210D01*
X261981Y208150D01*
X260850Y209281D01*
X259910Y210575D01*
X259184Y212000D01*
X258689Y213521D01*
X258634Y213869D01*
X274189Y213869D01*
X274189Y205739D01*
X267800Y205739D01*
G37*
%LPD*%
%LPC*%
G36*
X16980Y116839D02*
X16980Y116839D01*
X15401Y117089D01*
X13880Y117584D01*
X12455Y118310D01*
X11161Y119250D01*
X10030Y120381D01*
X9090Y121675D01*
X8364Y123100D01*
X7869Y124621D01*
X7814Y124969D01*
X23369Y124969D01*
X23369Y116839D01*
X16980Y116839D01*
G37*
%LPD*%
%LPC*%
G36*
X27431Y21081D02*
X27431Y21081D01*
X27431Y28195D01*
X32905Y28195D01*
X34671Y27843D01*
X36336Y27154D01*
X37834Y26153D01*
X39107Y24880D01*
X40108Y23382D01*
X40797Y21717D01*
X40924Y21081D01*
X27431Y21081D01*
G37*
%LPD*%
%LPC*%
G36*
X9876Y21081D02*
X9876Y21081D01*
X10003Y21717D01*
X10692Y23382D01*
X11693Y24880D01*
X12966Y26153D01*
X14464Y27154D01*
X16129Y27843D01*
X17895Y28195D01*
X23369Y28195D01*
X23369Y21081D01*
X9876Y21081D01*
G37*
%LPD*%
%LPC*%
G36*
X27431Y9905D02*
X27431Y9905D01*
X27431Y17019D01*
X40924Y17019D01*
X40797Y16383D01*
X40108Y14718D01*
X39107Y13220D01*
X37834Y11947D01*
X36336Y10946D01*
X34671Y10257D01*
X32905Y9905D01*
X27431Y9905D01*
G37*
%LPD*%
%LPC*%
G36*
X17895Y9905D02*
X17895Y9905D01*
X16129Y10257D01*
X14464Y10946D01*
X12966Y11947D01*
X11693Y13220D01*
X10692Y14718D01*
X10003Y16383D01*
X9876Y17019D01*
X23369Y17019D01*
X23369Y9905D01*
X17895Y9905D01*
G37*
%LPD*%
%LPC*%
G36*
X275081Y122681D02*
X275081Y122681D01*
X275081Y129795D01*
X276838Y129795D01*
X282195Y124438D01*
X282195Y122681D01*
X275081Y122681D01*
G37*
%LPD*%
%LPC*%
G36*
X275081Y84581D02*
X275081Y84581D01*
X275081Y91695D01*
X276838Y91695D01*
X282195Y86338D01*
X282195Y84581D01*
X275081Y84581D01*
G37*
%LPD*%
%LPC*%
G36*
X205231Y78231D02*
X205231Y78231D01*
X205231Y85345D01*
X206988Y85345D01*
X212345Y79988D01*
X212345Y78231D01*
X205231Y78231D01*
G37*
%LPD*%
%LPC*%
G36*
X40131Y179831D02*
X40131Y179831D01*
X40131Y186945D01*
X41888Y186945D01*
X47245Y181588D01*
X47245Y179831D01*
X40131Y179831D01*
G37*
%LPD*%
%LPC*%
G36*
X279844Y21081D02*
X279844Y21081D01*
X279844Y28195D01*
X281600Y28195D01*
X286957Y22838D01*
X286957Y21081D01*
X279844Y21081D01*
G37*
%LPD*%
%LPC*%
G36*
X263905Y84581D02*
X263905Y84581D01*
X263905Y86338D01*
X269262Y91695D01*
X271019Y91695D01*
X271019Y84581D01*
X263905Y84581D01*
G37*
%LPD*%
%LPC*%
G36*
X28955Y179831D02*
X28955Y179831D01*
X28955Y181588D01*
X34312Y186945D01*
X36069Y186945D01*
X36069Y179831D01*
X28955Y179831D01*
G37*
%LPD*%
%LPC*%
G36*
X263905Y122681D02*
X263905Y122681D01*
X263905Y124438D01*
X269262Y129795D01*
X271019Y129795D01*
X271019Y122681D01*
X263905Y122681D01*
G37*
%LPD*%
%LPC*%
G36*
X275081Y111505D02*
X275081Y111505D01*
X275081Y118619D01*
X282195Y118619D01*
X282195Y116862D01*
X276838Y111505D01*
X275081Y111505D01*
G37*
%LPD*%
%LPC*%
G36*
X40131Y168655D02*
X40131Y168655D01*
X40131Y175769D01*
X47245Y175769D01*
X47245Y174012D01*
X41888Y168655D01*
X40131Y168655D01*
G37*
%LPD*%
%LPC*%
G36*
X194055Y78231D02*
X194055Y78231D01*
X194055Y79988D01*
X199412Y85345D01*
X201169Y85345D01*
X201169Y78231D01*
X194055Y78231D01*
G37*
%LPD*%
%LPC*%
G36*
X275081Y73405D02*
X275081Y73405D01*
X275081Y80519D01*
X282195Y80519D01*
X282195Y78762D01*
X276838Y73405D01*
X275081Y73405D01*
G37*
%LPD*%
%LPC*%
G36*
X268668Y21081D02*
X268668Y21081D01*
X268668Y22838D01*
X274025Y28195D01*
X275781Y28195D01*
X275781Y21081D01*
X268668Y21081D01*
G37*
%LPD*%
%LPC*%
G36*
X279844Y9905D02*
X279844Y9905D01*
X279844Y17019D01*
X286957Y17019D01*
X286957Y15262D01*
X281600Y9905D01*
X279844Y9905D01*
G37*
%LPD*%
%LPC*%
G36*
X205231Y67055D02*
X205231Y67055D01*
X205231Y74169D01*
X212345Y74169D01*
X212345Y72412D01*
X206988Y67055D01*
X205231Y67055D01*
G37*
%LPD*%
%LPC*%
G36*
X199412Y67055D02*
X199412Y67055D01*
X194055Y72412D01*
X194055Y74169D01*
X201169Y74169D01*
X201169Y67055D01*
X199412Y67055D01*
G37*
%LPD*%
%LPC*%
G36*
X274025Y9905D02*
X274025Y9905D01*
X268668Y15262D01*
X268668Y17019D01*
X275781Y17019D01*
X275781Y9905D01*
X274025Y9905D01*
G37*
%LPD*%
%LPC*%
G36*
X269262Y111505D02*
X269262Y111505D01*
X263905Y116862D01*
X263905Y118619D01*
X271019Y118619D01*
X271019Y111505D01*
X269262Y111505D01*
G37*
%LPD*%
%LPC*%
G36*
X34312Y168655D02*
X34312Y168655D01*
X28955Y174012D01*
X28955Y175769D01*
X36069Y175769D01*
X36069Y168655D01*
X34312Y168655D01*
G37*
%LPD*%
%LPC*%
G36*
X269262Y73405D02*
X269262Y73405D01*
X263905Y78762D01*
X263905Y80519D01*
X271019Y80519D01*
X271019Y73405D01*
X269262Y73405D01*
G37*
%LPD*%
%LPC*%
G36*
X273049Y82549D02*
X273049Y82549D01*
X273049Y82551D01*
X273051Y82551D01*
X273051Y82549D01*
X273049Y82549D01*
G37*
%LPD*%
%LPC*%
G36*
X203199Y76199D02*
X203199Y76199D01*
X203199Y76201D01*
X203201Y76201D01*
X203201Y76199D01*
X203199Y76199D01*
G37*
%LPD*%
%LPC*%
G36*
X38099Y177799D02*
X38099Y177799D01*
X38099Y177801D01*
X38101Y177801D01*
X38101Y177799D01*
X38099Y177799D01*
G37*
%LPD*%
%LPC*%
G36*
X276219Y215899D02*
X276219Y215899D01*
X276219Y215901D01*
X276221Y215901D01*
X276221Y215899D01*
X276219Y215899D01*
G37*
%LPD*%
%LPC*%
G36*
X25399Y126999D02*
X25399Y126999D01*
X25399Y127001D01*
X25401Y127001D01*
X25401Y126999D01*
X25399Y126999D01*
G37*
%LPD*%
%LPC*%
G36*
X277812Y19049D02*
X277812Y19049D01*
X277812Y19051D01*
X277813Y19051D01*
X277813Y19049D01*
X277812Y19049D01*
G37*
%LPD*%
%LPC*%
G36*
X25399Y19049D02*
X25399Y19049D01*
X25399Y19051D01*
X25401Y19051D01*
X25401Y19049D01*
X25399Y19049D01*
G37*
%LPD*%
%LPC*%
G36*
X273049Y120649D02*
X273049Y120649D01*
X273049Y120651D01*
X273051Y120651D01*
X273051Y120649D01*
X273049Y120649D01*
G37*
%LPD*%
D10*
X88900Y177800D03*
X38100Y177800D03*
D11*
X57150Y120650D03*
X69850Y139700D03*
X82550Y120650D03*
D12*
X32004Y19050D02*
X18796Y19050D01*
X18796Y44450D02*
X32004Y44450D01*
D13*
X203200Y76200D03*
D14*
X203200Y50800D03*
D15*
X277813Y44450D03*
X277813Y19050D03*
D16*
X33020Y76200D02*
X17780Y76200D01*
X17780Y101600D02*
X33020Y101600D01*
X33020Y127000D02*
X17780Y127000D01*
D11*
X222250Y120650D03*
X273050Y120650D03*
X247650Y82550D03*
X273050Y82550D03*
D16*
X285750Y255900D02*
X285750Y271140D01*
X260350Y271140D02*
X260350Y255900D01*
X268600Y165100D02*
X283840Y165100D01*
X283840Y190500D02*
X268600Y190500D01*
X268600Y215900D02*
X283840Y215900D01*
D17*
X201930Y174620D03*
X217170Y174620D03*
D18*
X49812Y107950D03*
D19*
X64488Y107950D01*
D18*
X64488Y107950D03*
X158750Y122894D03*
D20*
X158750Y101600D01*
X165355Y94995D01*
X167056Y94995D01*
D18*
X167056Y94995D03*
X198069Y158750D03*
D21*
X201930Y162611D01*
X201930Y174620D01*
D18*
X216888Y190500D03*
D21*
X211808Y185420D02*
X210171Y185420D01*
X211808Y185420D02*
X216888Y190500D01*
X201930Y177179D02*
X201930Y174620D01*
X201930Y177179D02*
X210171Y185420D01*
D18*
X69850Y177800D03*
D20*
X88900Y177800D01*
D18*
X165100Y69850D03*
X152400Y88900D03*
X101600Y139700D03*
X101600Y107950D03*
X69850Y158750D03*
X50800Y57150D03*
X95250Y57150D03*
X44450Y88900D03*
X177800Y158750D03*
X196850Y101600D03*
X152400Y203200D03*
D22*
X296928Y239778D02*
X296928Y361950D01*
D18*
X234950Y368300D03*
X247650Y368300D03*
X241300Y361950D03*
X234950Y355600D03*
X247650Y355600D03*
X260350Y355600D03*
X260350Y368300D03*
X273050Y368300D03*
X273050Y355600D03*
X266700Y361950D03*
X292100Y431800D03*
X266700Y431800D03*
X241300Y431800D03*
X241300Y419100D03*
X266700Y419100D03*
X292100Y419100D03*
X279400Y425450D03*
X254000Y425450D03*
X254000Y412750D03*
X279400Y412750D03*
X241300Y406400D03*
X266700Y406400D03*
X292100Y406400D03*
X279400Y400050D03*
X254000Y400050D03*
X241300Y393700D03*
X266700Y393700D03*
X292100Y393700D03*
X254000Y387350D03*
X279400Y387350D03*
X228600Y425450D03*
X228600Y412750D03*
X228600Y400050D03*
X228600Y387350D03*
X158750Y133350D03*
X136525Y123825D03*
X133350Y82550D03*
X228600Y361950D03*
X254000Y361950D03*
X241300Y374650D03*
X254000Y374650D03*
X266700Y374650D03*
X279400Y361950D03*
X247650Y165100D03*
X247650Y215900D03*
D22*
X292100Y234950D02*
X296928Y239778D01*
X296801Y263525D02*
X285750Y263520D01*
X296801Y263525D02*
X296801Y266700D01*
X296801Y263525D02*
X296801Y239778D01*
D18*
X127000Y400050D03*
X127000Y387350D03*
X139700Y400050D03*
X139700Y387350D03*
X152400Y400050D03*
X158750Y393700D03*
X165100Y400050D03*
X165100Y387350D03*
X152400Y387350D03*
D23*
X158750Y393700D02*
X133350Y393700D01*
D18*
X133350Y393700D03*
X50800Y368300D03*
X63500Y361950D03*
X76200Y368300D03*
X101600Y368300D03*
X127000Y368300D03*
X88900Y361950D03*
X114300Y361950D03*
X50800Y355600D03*
X76200Y355600D03*
X101600Y355600D03*
X127000Y355600D03*
X127000Y342900D03*
X101600Y342900D03*
X76200Y342900D03*
X50800Y342900D03*
X50800Y330200D03*
X50800Y317500D03*
X50800Y304800D03*
X50800Y292100D03*
X50800Y279400D03*
X50800Y266700D03*
X76200Y266700D03*
X76200Y279400D03*
X76200Y292100D03*
X76200Y304800D03*
X76200Y317500D03*
X76200Y330200D03*
X101600Y330200D03*
X101600Y317500D03*
X101600Y304800D03*
X101600Y292100D03*
X101600Y279400D03*
X101600Y266700D03*
X127000Y266700D03*
X127000Y279400D03*
X127000Y292100D03*
X127000Y304800D03*
X127000Y317500D03*
X127000Y330200D03*
X114300Y349250D03*
X114300Y336550D03*
X114300Y323850D03*
X114300Y311150D03*
X114300Y298450D03*
X114300Y285750D03*
X114300Y273050D03*
X88900Y273050D03*
X88900Y285750D03*
X88900Y298450D03*
X88900Y311150D03*
X88900Y323850D03*
X88900Y336550D03*
X88900Y349250D03*
X63500Y349250D03*
X63500Y336550D03*
X63500Y323850D03*
X63500Y311150D03*
X63500Y298450D03*
X63500Y285750D03*
X63500Y273050D03*
X82550Y400050D03*
X88900Y393700D03*
X95250Y400050D03*
X95250Y387350D03*
X82550Y387350D03*
X6350Y431800D03*
X31750Y431800D03*
X31750Y431800D03*
X57150Y431800D03*
X69850Y425450D03*
X44450Y425450D03*
X19050Y425450D03*
X57150Y419100D03*
X31750Y419100D03*
X6350Y419100D03*
X19050Y412750D03*
X44450Y412750D03*
X69850Y412750D03*
X6350Y406400D03*
X31750Y406400D03*
X57150Y406400D03*
X19050Y400050D03*
X44450Y400050D03*
X69850Y400050D03*
X6350Y393700D03*
X31750Y393700D03*
X57150Y393700D03*
X69850Y387350D03*
X44450Y387350D03*
X19050Y387350D03*
X177800Y355600D03*
X203200Y355600D03*
X177800Y342900D03*
X177800Y330200D03*
X177800Y317500D03*
X177800Y304800D03*
X177800Y292100D03*
X203200Y292100D03*
X203200Y304800D03*
X203200Y317500D03*
X203200Y330200D03*
X203200Y342900D03*
X190500Y349250D03*
X190500Y336550D03*
X190500Y323850D03*
X190500Y311150D03*
X190500Y298450D03*
X241300Y330200D03*
X234950Y336550D03*
X247650Y336550D03*
X234950Y323850D03*
X247650Y323850D03*
X266700Y330200D03*
X260350Y336550D03*
X273050Y336550D03*
X273050Y323850D03*
X260350Y323850D03*
X190500Y387350D03*
X190500Y400050D03*
X196850Y393700D03*
X203200Y400050D03*
X203200Y387350D03*
X241300Y317500D03*
X254000Y330200D03*
X228600Y330200D03*
X254000Y317500D03*
X266700Y317500D03*
X279400Y330200D03*
D21*
X217170Y174620D02*
X222250Y169545D01*
X222250Y164500D01*
D18*
X222250Y164500D03*
M02*
