G04 EAGLE Gerber RS-274X export*
G75*
%MOMM*%
%FSLAX34Y34*%
%LPD*%
%INTop Copper*%
%IPPOS*%
%AMOC8*
5,1,8,0,0,1.08239X$1,22.5*%
G01*
%ADD10C,0.050800*%
%ADD11P,1.429621X8X202.500000*%
%ADD12R,0.600000X2.200000*%
%ADD13P,1.429621X8X22.500000*%
%ADD14R,1.000000X1.100000*%
%ADD15R,1.100000X1.000000*%
%ADD16C,1.320800*%
%ADD17P,1.429621X8X112.500000*%
%ADD18C,1.320800*%
%ADD19P,1.429621X8X292.500000*%
%ADD20C,1.524000*%
%ADD21R,0.800000X0.800000*%
%ADD22R,1.600000X1.300000*%
%ADD23R,1.270000X1.470000*%
%ADD24R,1.803000X1.600000*%
%ADD25R,3.500000X0.800000*%
%ADD26R,9.750000X12.200000*%
%ADD27C,0.152400*%
%ADD28C,0.304800*%
%ADD29C,0.254000*%
%ADD30C,0.756400*%
%ADD31C,0.406400*%
%ADD32C,0.203200*%
%ADD33C,0.609600*%
%ADD34C,2.540000*%

G36*
X297681Y2683D02*
X297681Y2683D01*
X297800Y2690D01*
X297838Y2703D01*
X297879Y2708D01*
X297989Y2751D01*
X298102Y2788D01*
X298137Y2810D01*
X298174Y2825D01*
X298270Y2894D01*
X298371Y2958D01*
X298399Y2988D01*
X298432Y3011D01*
X298508Y3103D01*
X298589Y3190D01*
X298609Y3225D01*
X298634Y3256D01*
X298685Y3364D01*
X298743Y3468D01*
X298753Y3508D01*
X298770Y3544D01*
X298792Y3661D01*
X298822Y3776D01*
X298826Y3836D01*
X298830Y3856D01*
X298828Y3877D01*
X298832Y3937D01*
X298832Y241300D01*
X298817Y241418D01*
X298810Y241537D01*
X298797Y241575D01*
X298792Y241616D01*
X298749Y241726D01*
X298712Y241839D01*
X298690Y241874D01*
X298675Y241911D01*
X298606Y242007D01*
X298542Y242108D01*
X298512Y242136D01*
X298489Y242169D01*
X298397Y242245D01*
X298310Y242326D01*
X298275Y242346D01*
X298244Y242371D01*
X298136Y242422D01*
X298032Y242480D01*
X297992Y242490D01*
X297956Y242507D01*
X297839Y242529D01*
X297724Y242559D01*
X297664Y242563D01*
X297644Y242567D01*
X297623Y242565D01*
X297563Y242569D01*
X240792Y242569D01*
X240674Y242554D01*
X240555Y242547D01*
X240517Y242534D01*
X240476Y242529D01*
X240366Y242486D01*
X240253Y242449D01*
X240218Y242427D01*
X240181Y242412D01*
X240085Y242343D01*
X239984Y242279D01*
X239956Y242249D01*
X239923Y242226D01*
X239847Y242134D01*
X239766Y242047D01*
X239746Y242012D01*
X239721Y241981D01*
X239670Y241873D01*
X239612Y241769D01*
X239602Y241729D01*
X239585Y241693D01*
X239563Y241576D01*
X239533Y241461D01*
X239529Y241401D01*
X239525Y241381D01*
X239526Y241370D01*
X239525Y241367D01*
X239526Y241354D01*
X239523Y241300D01*
X239523Y214371D01*
X239510Y214289D01*
X239485Y214193D01*
X239479Y214093D01*
X239475Y214073D01*
X239477Y214061D01*
X239475Y214032D01*
X239475Y204868D01*
X238582Y203975D01*
X231318Y203975D01*
X230425Y204868D01*
X230425Y214032D01*
X230413Y214131D01*
X230410Y214230D01*
X230393Y214288D01*
X230385Y214348D01*
X230377Y214368D01*
X230377Y241300D01*
X230362Y241418D01*
X230355Y241537D01*
X230342Y241575D01*
X230337Y241616D01*
X230294Y241726D01*
X230257Y241839D01*
X230235Y241874D01*
X230220Y241911D01*
X230151Y242007D01*
X230087Y242108D01*
X230057Y242136D01*
X230034Y242169D01*
X229942Y242245D01*
X229855Y242326D01*
X229820Y242346D01*
X229789Y242371D01*
X229681Y242422D01*
X229577Y242480D01*
X229537Y242490D01*
X229501Y242507D01*
X229384Y242529D01*
X229269Y242559D01*
X229209Y242563D01*
X229189Y242567D01*
X229168Y242565D01*
X229108Y242569D01*
X228092Y242569D01*
X227974Y242554D01*
X227855Y242547D01*
X227817Y242534D01*
X227776Y242529D01*
X227666Y242486D01*
X227553Y242449D01*
X227518Y242427D01*
X227481Y242412D01*
X227385Y242343D01*
X227284Y242279D01*
X227256Y242249D01*
X227223Y242226D01*
X227147Y242134D01*
X227066Y242047D01*
X227046Y242012D01*
X227021Y241981D01*
X226970Y241873D01*
X226912Y241769D01*
X226902Y241729D01*
X226885Y241693D01*
X226863Y241576D01*
X226833Y241461D01*
X226829Y241401D01*
X226825Y241381D01*
X226826Y241370D01*
X226825Y241367D01*
X226826Y241354D01*
X226823Y241300D01*
X226823Y214371D01*
X226810Y214289D01*
X226785Y214193D01*
X226779Y214093D01*
X226775Y214073D01*
X226777Y214061D01*
X226775Y214032D01*
X226775Y204868D01*
X225882Y203975D01*
X218618Y203975D01*
X217725Y204868D01*
X217725Y214032D01*
X217713Y214131D01*
X217710Y214230D01*
X217693Y214288D01*
X217685Y214348D01*
X217677Y214368D01*
X217677Y241300D01*
X217662Y241418D01*
X217655Y241537D01*
X217642Y241575D01*
X217637Y241616D01*
X217594Y241726D01*
X217557Y241839D01*
X217535Y241874D01*
X217520Y241911D01*
X217451Y242007D01*
X217387Y242108D01*
X217357Y242136D01*
X217334Y242169D01*
X217242Y242245D01*
X217155Y242326D01*
X217120Y242346D01*
X217089Y242371D01*
X216981Y242422D01*
X216877Y242480D01*
X216837Y242490D01*
X216801Y242507D01*
X216684Y242529D01*
X216569Y242559D01*
X216509Y242563D01*
X216489Y242567D01*
X216468Y242565D01*
X216408Y242569D01*
X3937Y242569D01*
X3819Y242554D01*
X3700Y242547D01*
X3662Y242534D01*
X3621Y242529D01*
X3511Y242486D01*
X3398Y242449D01*
X3363Y242427D01*
X3326Y242412D01*
X3230Y242343D01*
X3129Y242279D01*
X3101Y242249D01*
X3068Y242226D01*
X2992Y242134D01*
X2911Y242047D01*
X2891Y242012D01*
X2866Y241981D01*
X2815Y241873D01*
X2757Y241769D01*
X2747Y241729D01*
X2730Y241693D01*
X2708Y241576D01*
X2678Y241461D01*
X2674Y241401D01*
X2670Y241381D01*
X2671Y241370D01*
X2670Y241367D01*
X2671Y241354D01*
X2668Y241300D01*
X2668Y238152D01*
X2685Y238014D01*
X2698Y237876D01*
X2705Y237857D01*
X2708Y237836D01*
X2759Y237707D01*
X2806Y237576D01*
X2817Y237560D01*
X2825Y237541D01*
X2906Y237428D01*
X2984Y237313D01*
X3000Y237300D01*
X3011Y237283D01*
X3119Y237195D01*
X3223Y237103D01*
X3241Y237094D01*
X3256Y237081D01*
X3382Y237021D01*
X3506Y236958D01*
X3526Y236954D01*
X3544Y236945D01*
X3681Y236919D01*
X3816Y236889D01*
X3837Y236889D01*
X3856Y236885D01*
X3995Y236894D01*
X4134Y236898D01*
X4154Y236904D01*
X4174Y236905D01*
X4306Y236948D01*
X4440Y236987D01*
X4457Y236997D01*
X4476Y237003D01*
X4594Y237077D01*
X4714Y237148D01*
X4735Y237167D01*
X4745Y237173D01*
X4759Y237188D01*
X4834Y237255D01*
X6595Y239015D01*
X7929Y239015D01*
X9108Y239015D01*
X9853Y239015D01*
X9881Y238990D01*
X9917Y238971D01*
X9949Y238947D01*
X10058Y238899D01*
X10164Y238845D01*
X10204Y238836D01*
X10241Y238820D01*
X10359Y238802D01*
X10474Y238776D01*
X10515Y238777D01*
X10555Y238770D01*
X10674Y238782D01*
X10792Y238785D01*
X10831Y238796D01*
X10871Y238800D01*
X10984Y238841D01*
X11098Y238874D01*
X11133Y238894D01*
X11171Y238908D01*
X11269Y238975D01*
X11337Y239015D01*
X11354Y239015D01*
X11355Y239015D01*
X12734Y239015D01*
X13879Y239015D01*
X15216Y239015D01*
X16258Y237973D01*
X16258Y236869D01*
X16273Y236751D01*
X16281Y236632D01*
X16293Y236594D01*
X16298Y236554D01*
X16342Y236443D01*
X16379Y236330D01*
X16400Y236295D01*
X16415Y236258D01*
X16485Y236162D01*
X16549Y236061D01*
X16578Y236033D01*
X16602Y236001D01*
X16694Y235925D01*
X16780Y235843D01*
X16816Y235824D01*
X16847Y235798D01*
X16955Y235747D01*
X17059Y235690D01*
X17098Y235679D01*
X17135Y235662D01*
X17251Y235640D01*
X17367Y235610D01*
X17427Y235606D01*
X17447Y235602D01*
X17467Y235604D01*
X17528Y235600D01*
X21229Y235600D01*
X21330Y235613D01*
X21432Y235616D01*
X21488Y235632D01*
X21545Y235640D01*
X21639Y235677D01*
X21737Y235706D01*
X21787Y235736D01*
X21840Y235757D01*
X21923Y235817D01*
X22011Y235869D01*
X22051Y235910D01*
X22098Y235944D01*
X22163Y236022D01*
X22235Y236094D01*
X22264Y236144D01*
X22301Y236189D01*
X22344Y236281D01*
X22396Y236369D01*
X22427Y236457D01*
X22436Y236476D01*
X22439Y236490D01*
X22450Y236520D01*
X22996Y238433D01*
X24284Y239149D01*
X25701Y238744D01*
X25907Y238373D01*
X25952Y238311D01*
X25989Y238244D01*
X26046Y238184D01*
X26095Y238117D01*
X26154Y238068D01*
X26207Y238012D01*
X26277Y237968D01*
X26341Y237915D01*
X26410Y237883D01*
X26475Y237842D01*
X26554Y237816D01*
X26629Y237781D01*
X26705Y237767D01*
X26778Y237743D01*
X26860Y237738D01*
X26942Y237723D01*
X27019Y237728D01*
X27095Y237723D01*
X27177Y237738D01*
X27259Y237744D01*
X27332Y237768D01*
X27407Y237782D01*
X27483Y237817D01*
X27561Y237843D01*
X27626Y237885D01*
X27695Y237917D01*
X27759Y237970D01*
X27829Y238015D01*
X27882Y238071D01*
X27941Y238120D01*
X28043Y238244D01*
X28242Y238517D01*
X30301Y239186D01*
X32409Y238501D01*
X32418Y238494D01*
X32450Y238461D01*
X32546Y238400D01*
X32638Y238332D01*
X32680Y238315D01*
X32718Y238290D01*
X32826Y238255D01*
X32932Y238212D01*
X32977Y238206D01*
X33021Y238192D01*
X33135Y238185D01*
X33247Y238169D01*
X33292Y238175D01*
X33338Y238172D01*
X33450Y238193D01*
X33563Y238206D01*
X33606Y238223D01*
X33650Y238231D01*
X33754Y238280D01*
X33860Y238321D01*
X33919Y238357D01*
X33938Y238367D01*
X33953Y238379D01*
X33997Y238406D01*
X34849Y239015D01*
X36725Y239015D01*
X38252Y237924D01*
X38430Y237404D01*
X38483Y237298D01*
X38528Y237188D01*
X38552Y237155D01*
X38570Y237119D01*
X38647Y237029D01*
X38719Y236933D01*
X38764Y236892D01*
X38777Y236877D01*
X38793Y236865D01*
X38838Y236825D01*
X39072Y236637D01*
X39131Y236601D01*
X39185Y236557D01*
X39266Y236519D01*
X39344Y236471D01*
X39410Y236451D01*
X39472Y236422D01*
X39561Y236405D01*
X39648Y236378D01*
X39717Y236375D01*
X39785Y236362D01*
X39875Y236367D01*
X39965Y236363D01*
X40033Y236377D01*
X40102Y236382D01*
X40188Y236409D01*
X40277Y236428D01*
X40339Y236458D01*
X40405Y236480D01*
X40481Y236528D01*
X40562Y236568D01*
X40615Y236613D01*
X40673Y236650D01*
X40735Y236716D01*
X40804Y236774D01*
X40844Y236831D01*
X40891Y236881D01*
X40935Y236961D01*
X40987Y237035D01*
X41011Y237099D01*
X41045Y237160D01*
X41067Y237247D01*
X41099Y237332D01*
X41107Y237401D01*
X41124Y237468D01*
X41134Y237629D01*
X41134Y237973D01*
X42176Y239015D01*
X45548Y239015D01*
X47327Y237722D01*
X47348Y237707D01*
X47363Y237674D01*
X47439Y237583D01*
X47509Y237486D01*
X47540Y237460D01*
X47566Y237429D01*
X47662Y237359D01*
X47754Y237283D01*
X47790Y237266D01*
X47823Y237242D01*
X47934Y237198D01*
X48041Y237148D01*
X48081Y237140D01*
X48119Y237125D01*
X48237Y237110D01*
X48354Y237088D01*
X48394Y237090D01*
X48434Y237085D01*
X48552Y237100D01*
X48671Y237107D01*
X48729Y237122D01*
X48750Y237125D01*
X48769Y237132D01*
X48827Y237147D01*
X49320Y237307D01*
X50645Y236877D01*
X50758Y236855D01*
X50869Y236826D01*
X50913Y236826D01*
X50957Y236817D01*
X51072Y236825D01*
X51187Y236824D01*
X51253Y236836D01*
X51275Y236837D01*
X51293Y236843D01*
X51345Y236853D01*
X53044Y237278D01*
X53971Y236722D01*
X54087Y236671D01*
X54200Y236614D01*
X54232Y236607D01*
X54262Y236594D01*
X54387Y236573D01*
X54511Y236546D01*
X54543Y236547D01*
X54575Y236542D01*
X54702Y236553D01*
X54829Y236558D01*
X54860Y236567D01*
X54892Y236570D01*
X55012Y236612D01*
X55134Y236648D01*
X55175Y236670D01*
X55192Y236675D01*
X55210Y236687D01*
X55277Y236722D01*
X56203Y237278D01*
X57902Y236853D01*
X58016Y236839D01*
X58129Y236817D01*
X58174Y236820D01*
X58218Y236815D01*
X58332Y236830D01*
X58446Y236837D01*
X58512Y236854D01*
X58533Y236857D01*
X58551Y236864D01*
X58602Y236877D01*
X59927Y237307D01*
X61563Y236776D01*
X61699Y236750D01*
X61834Y236720D01*
X61855Y236720D01*
X61875Y236716D01*
X62014Y236725D01*
X62152Y236729D01*
X62172Y236735D01*
X62193Y236736D01*
X62324Y236779D01*
X62458Y236818D01*
X62475Y236828D01*
X62495Y236835D01*
X62612Y236909D01*
X62732Y236979D01*
X62753Y236998D01*
X62764Y237005D01*
X62778Y237020D01*
X62853Y237086D01*
X62919Y237152D01*
X64998Y237152D01*
X65103Y237165D01*
X65208Y237170D01*
X65260Y237185D01*
X65314Y237192D01*
X65412Y237231D01*
X65513Y237261D01*
X65559Y237289D01*
X65609Y237309D01*
X65695Y237371D01*
X65785Y237426D01*
X65823Y237464D01*
X65867Y237496D01*
X65934Y237577D01*
X66008Y237653D01*
X66055Y237724D01*
X66069Y237741D01*
X66076Y237755D01*
X66097Y237787D01*
X66339Y238205D01*
X67741Y239015D01*
X68550Y239015D01*
X69919Y239015D01*
X71014Y238193D01*
X71846Y237569D01*
X71851Y237567D01*
X71854Y237563D01*
X71988Y237489D01*
X72123Y237412D01*
X72127Y237411D01*
X72132Y237408D01*
X72279Y237369D01*
X72429Y237328D01*
X72434Y237328D01*
X72439Y237327D01*
X72532Y237326D01*
X73539Y236722D01*
X73655Y236671D01*
X73768Y236614D01*
X73800Y236607D01*
X73830Y236594D01*
X73955Y236573D01*
X74079Y236546D01*
X74111Y236547D01*
X74144Y236542D01*
X74270Y236553D01*
X74397Y236558D01*
X74428Y236567D01*
X74460Y236570D01*
X74580Y236612D01*
X74702Y236648D01*
X74743Y236670D01*
X74760Y236675D01*
X74778Y236688D01*
X74845Y236722D01*
X75665Y237214D01*
X75740Y237273D01*
X75820Y237324D01*
X75864Y237371D01*
X75915Y237410D01*
X75973Y237486D01*
X76038Y237555D01*
X76069Y237612D01*
X76108Y237663D01*
X76145Y237750D01*
X76191Y237834D01*
X76207Y237896D01*
X76210Y237901D01*
X77323Y239015D01*
X81339Y239015D01*
X82534Y237820D01*
X82538Y237810D01*
X82608Y237714D01*
X82672Y237613D01*
X82701Y237585D01*
X82725Y237553D01*
X82817Y237477D01*
X82903Y237395D01*
X82939Y237376D01*
X82970Y237350D01*
X83078Y237299D01*
X83182Y237242D01*
X83221Y237232D01*
X83258Y237214D01*
X83374Y237192D01*
X83490Y237162D01*
X83550Y237158D01*
X83570Y237155D01*
X83590Y237156D01*
X83650Y237152D01*
X85264Y237152D01*
X85382Y237167D01*
X85501Y237174D01*
X85539Y237187D01*
X85579Y237192D01*
X85690Y237236D01*
X85803Y237272D01*
X85837Y237294D01*
X85875Y237309D01*
X85971Y237379D01*
X86072Y237443D01*
X86100Y237472D01*
X86132Y237496D01*
X86208Y237587D01*
X86290Y237674D01*
X86309Y237710D01*
X86335Y237741D01*
X86365Y237805D01*
X87575Y239015D01*
X89048Y239015D01*
X89701Y238362D01*
X89704Y238360D01*
X89707Y238356D01*
X89833Y238260D01*
X89952Y238167D01*
X89956Y238166D01*
X89960Y238163D01*
X90102Y238102D01*
X90244Y238041D01*
X90249Y238040D01*
X90253Y238038D01*
X90404Y238016D01*
X90558Y237991D01*
X90563Y237992D01*
X90567Y237991D01*
X90720Y238006D01*
X90875Y238021D01*
X90879Y238022D01*
X90884Y238023D01*
X91027Y238076D01*
X91174Y238129D01*
X91178Y238131D01*
X91182Y238133D01*
X91309Y238220D01*
X91437Y238307D01*
X91440Y238310D01*
X91444Y238313D01*
X91547Y238431D01*
X91648Y238546D01*
X91650Y238550D01*
X91653Y238553D01*
X91733Y238690D01*
X93131Y239156D01*
X94289Y238577D01*
X94317Y238567D01*
X94343Y238552D01*
X94467Y238515D01*
X94589Y238472D01*
X94619Y238469D01*
X94648Y238461D01*
X94777Y238455D01*
X94906Y238444D01*
X94935Y238449D01*
X94965Y238448D01*
X95092Y238475D01*
X95220Y238496D01*
X95247Y238508D01*
X95276Y238514D01*
X95425Y238577D01*
X96583Y239156D01*
X98213Y238613D01*
X98354Y238585D01*
X98494Y238554D01*
X98509Y238554D01*
X98525Y238551D01*
X98669Y238559D01*
X98811Y238564D01*
X98826Y238568D01*
X98842Y238569D01*
X98979Y238612D01*
X99117Y238652D01*
X99130Y238660D01*
X99145Y238665D01*
X99267Y238741D01*
X99391Y238813D01*
X99407Y238828D01*
X99415Y238833D01*
X99428Y238846D01*
X99512Y238920D01*
X99676Y239084D01*
X99704Y239097D01*
X100372Y239022D01*
X100387Y239023D01*
X100512Y239015D01*
X101178Y239015D01*
X101207Y239004D01*
X101627Y238479D01*
X101637Y238469D01*
X101720Y238374D01*
X102191Y237904D01*
X102204Y237875D01*
X102130Y237207D01*
X102130Y237193D01*
X102122Y237067D01*
X102122Y234463D01*
X102134Y234365D01*
X102137Y234266D01*
X102154Y234207D01*
X102162Y234147D01*
X102198Y234055D01*
X102226Y233960D01*
X102257Y233908D01*
X102279Y233852D01*
X102337Y233771D01*
X102387Y233686D01*
X102454Y233611D01*
X102466Y233594D01*
X102475Y233586D01*
X102494Y233565D01*
X103674Y232385D01*
X103674Y230911D01*
X102632Y229869D01*
X98054Y229869D01*
X97882Y230042D01*
X97769Y230130D01*
X97657Y230220D01*
X97643Y230227D01*
X97631Y230237D01*
X97498Y230294D01*
X97369Y230354D01*
X97353Y230357D01*
X97339Y230363D01*
X97196Y230386D01*
X97056Y230412D01*
X97040Y230410D01*
X97025Y230413D01*
X96881Y230399D01*
X96739Y230390D01*
X96718Y230384D01*
X96708Y230383D01*
X96691Y230377D01*
X96583Y230348D01*
X95625Y230029D01*
X95616Y230025D01*
X95607Y230023D01*
X95459Y229960D01*
X94940Y229701D01*
X94937Y229701D01*
X94928Y229702D01*
X94790Y229693D01*
X94255Y229960D01*
X94246Y229963D01*
X94238Y229969D01*
X94089Y230029D01*
X93354Y230274D01*
X93243Y230331D01*
X93108Y230401D01*
X93103Y230402D01*
X93099Y230404D01*
X92947Y230438D01*
X92798Y230473D01*
X92793Y230473D01*
X92789Y230474D01*
X92636Y230469D01*
X92480Y230466D01*
X92476Y230464D01*
X92471Y230464D01*
X92323Y230421D01*
X92174Y230380D01*
X92170Y230377D01*
X92165Y230376D01*
X92031Y230297D01*
X91899Y230220D01*
X91896Y230217D01*
X91891Y230214D01*
X91770Y230108D01*
X91532Y229869D01*
X86522Y229869D01*
X86472Y229863D01*
X86421Y229865D01*
X86314Y229843D01*
X86206Y229829D01*
X86159Y229811D01*
X86110Y229801D01*
X86012Y229753D01*
X85910Y229712D01*
X85870Y229683D01*
X85824Y229661D01*
X85741Y229590D01*
X85653Y229526D01*
X85621Y229487D01*
X85583Y229454D01*
X85520Y229365D01*
X85450Y229281D01*
X85429Y229235D01*
X85400Y229194D01*
X85361Y229092D01*
X85315Y228993D01*
X85305Y228944D01*
X85287Y228896D01*
X85275Y228788D01*
X85255Y228681D01*
X85258Y228630D01*
X85252Y228580D01*
X85268Y228472D01*
X85275Y228363D01*
X85290Y228315D01*
X85297Y228265D01*
X85339Y228164D01*
X85373Y228061D01*
X85400Y228018D01*
X85419Y227972D01*
X85484Y227884D01*
X85509Y227846D01*
X85518Y227762D01*
X85550Y227629D01*
X85577Y227495D01*
X85589Y227466D01*
X85592Y227453D01*
X85602Y227434D01*
X85639Y227346D01*
X85919Y226771D01*
X85919Y223825D01*
X85356Y222670D01*
X85354Y222666D01*
X85296Y222525D01*
X85053Y221816D01*
X83526Y220725D01*
X81650Y220725D01*
X81207Y221042D01*
X81194Y221049D01*
X81183Y221058D01*
X81054Y221124D01*
X80927Y221193D01*
X80913Y221196D01*
X80900Y221203D01*
X80758Y221234D01*
X80618Y221269D01*
X80604Y221269D01*
X80590Y221272D01*
X80445Y221268D01*
X80300Y221267D01*
X80286Y221263D01*
X80272Y221263D01*
X80133Y221222D01*
X79993Y221185D01*
X79980Y221178D01*
X79966Y221174D01*
X79841Y221100D01*
X79715Y221030D01*
X79705Y221020D01*
X79692Y221013D01*
X79571Y220906D01*
X79390Y220725D01*
X75673Y220725D01*
X75651Y220723D01*
X75570Y220721D01*
X74873Y220665D01*
X74631Y220906D01*
X74620Y220915D01*
X74611Y220926D01*
X74494Y221013D01*
X74380Y221101D01*
X74367Y221107D01*
X74355Y221116D01*
X74221Y221170D01*
X74088Y221228D01*
X74074Y221230D01*
X74061Y221235D01*
X73918Y221255D01*
X73774Y221277D01*
X73760Y221276D01*
X73745Y221278D01*
X73603Y221261D01*
X73458Y221248D01*
X73444Y221243D01*
X73430Y221241D01*
X73294Y221189D01*
X73158Y221140D01*
X73146Y221132D01*
X73133Y221127D01*
X72996Y221042D01*
X72553Y220725D01*
X70677Y220725D01*
X70234Y221042D01*
X70221Y221049D01*
X70210Y221058D01*
X70082Y221124D01*
X69954Y221193D01*
X69940Y221196D01*
X69927Y221203D01*
X69786Y221234D01*
X69645Y221269D01*
X69631Y221269D01*
X69617Y221272D01*
X69472Y221268D01*
X69327Y221267D01*
X69313Y221263D01*
X69299Y221263D01*
X69160Y221222D01*
X69020Y221185D01*
X69007Y221178D01*
X68994Y221174D01*
X68868Y221100D01*
X68743Y221030D01*
X68732Y221020D01*
X68720Y221013D01*
X68599Y220906D01*
X68418Y220725D01*
X64700Y220725D01*
X64678Y220723D01*
X64597Y220721D01*
X63900Y220665D01*
X63406Y221159D01*
X63389Y221172D01*
X63331Y221229D01*
X62628Y221826D01*
X62571Y221863D01*
X62520Y221908D01*
X62439Y221949D01*
X62362Y222000D01*
X62298Y222022D01*
X62237Y222052D01*
X62148Y222073D01*
X62061Y222102D01*
X61993Y222107D01*
X61927Y222122D01*
X61835Y222119D01*
X61744Y222126D01*
X61677Y222114D01*
X61609Y222112D01*
X61521Y222087D01*
X61430Y222071D01*
X61369Y222043D01*
X61303Y222024D01*
X61224Y221977D01*
X61141Y221940D01*
X61088Y221897D01*
X61029Y221862D01*
X60909Y221756D01*
X59878Y220725D01*
X51629Y220725D01*
X51209Y220967D01*
X51106Y221011D01*
X51005Y221062D01*
X50959Y221072D01*
X50916Y221091D01*
X50805Y221107D01*
X50695Y221132D01*
X50648Y221130D01*
X50601Y221137D01*
X50489Y221125D01*
X50377Y221122D01*
X50332Y221109D01*
X50285Y221104D01*
X50180Y221065D01*
X50072Y221034D01*
X50031Y221010D01*
X49987Y220993D01*
X49895Y220929D01*
X49798Y220872D01*
X49744Y220824D01*
X49726Y220812D01*
X49714Y220798D01*
X49677Y220766D01*
X49637Y220725D01*
X46595Y220725D01*
X46586Y220734D01*
X46472Y220810D01*
X46463Y220817D01*
X46459Y220818D01*
X46452Y220823D01*
X46269Y220929D01*
X46186Y220964D01*
X46107Y221008D01*
X46040Y221025D01*
X45976Y221052D01*
X45887Y221065D01*
X45799Y221088D01*
X45730Y221088D01*
X45662Y221098D01*
X45571Y221089D01*
X45481Y221089D01*
X45414Y221073D01*
X45345Y221065D01*
X45260Y221034D01*
X45173Y221012D01*
X45062Y220960D01*
X45047Y220955D01*
X45041Y220950D01*
X45027Y220944D01*
X44378Y220590D01*
X43008Y220993D01*
X42888Y221012D01*
X42770Y221038D01*
X42732Y221037D01*
X42694Y221043D01*
X42573Y221032D01*
X42452Y221029D01*
X42415Y221018D01*
X42377Y221015D01*
X42263Y220974D01*
X42147Y220940D01*
X42114Y220921D01*
X42077Y220908D01*
X41977Y220840D01*
X41873Y220779D01*
X41830Y220741D01*
X41814Y220730D01*
X41809Y220725D01*
X40331Y220725D01*
X39068Y221988D01*
X39027Y222020D01*
X38992Y222059D01*
X38902Y222118D01*
X38817Y222183D01*
X38769Y222204D01*
X38725Y222233D01*
X38624Y222267D01*
X38525Y222310D01*
X38474Y222318D01*
X38424Y222335D01*
X38317Y222343D01*
X38211Y222360D01*
X38159Y222355D01*
X38107Y222359D01*
X38001Y222340D01*
X37894Y222330D01*
X37845Y222312D01*
X37794Y222303D01*
X37696Y222259D01*
X37595Y222222D01*
X37552Y222193D01*
X37505Y222171D01*
X37373Y222078D01*
X35682Y220712D01*
X34748Y220725D01*
X33571Y220742D01*
X32686Y221061D01*
X32524Y221097D01*
X32377Y221130D01*
X32376Y221130D01*
X32212Y221125D01*
X32059Y221120D01*
X32058Y221120D01*
X31917Y221079D01*
X31753Y221032D01*
X31752Y221032D01*
X31622Y220955D01*
X31479Y220870D01*
X31478Y220869D01*
X31359Y220764D01*
X31320Y220725D01*
X30449Y220725D01*
X30448Y220725D01*
X28255Y220725D01*
X28000Y220911D01*
X27983Y220920D01*
X27968Y220933D01*
X27843Y220997D01*
X27721Y221064D01*
X27702Y221069D01*
X27685Y221078D01*
X27549Y221108D01*
X27413Y221143D01*
X27394Y221143D01*
X27374Y221147D01*
X27235Y221143D01*
X27095Y221143D01*
X27076Y221138D01*
X27057Y221138D01*
X26922Y221099D01*
X26787Y221064D01*
X26770Y221055D01*
X26751Y221049D01*
X26630Y220978D01*
X26508Y220911D01*
X26494Y220898D01*
X26477Y220888D01*
X26356Y220781D01*
X26300Y220725D01*
X21102Y220725D01*
X21016Y220811D01*
X20907Y220896D01*
X20800Y220984D01*
X20781Y220993D01*
X20765Y221006D01*
X20638Y221061D01*
X20512Y221120D01*
X20492Y221124D01*
X20473Y221132D01*
X20336Y221154D01*
X20200Y221180D01*
X20179Y221179D01*
X20159Y221182D01*
X20020Y221169D01*
X19882Y221160D01*
X19855Y221153D01*
X19842Y221152D01*
X19823Y221145D01*
X19726Y221120D01*
X18032Y220570D01*
X16421Y221093D01*
X16284Y221119D01*
X16149Y221150D01*
X16128Y221149D01*
X16108Y221153D01*
X15969Y221144D01*
X15831Y221140D01*
X15811Y221134D01*
X15791Y221133D01*
X15659Y221090D01*
X15526Y221052D01*
X15508Y221041D01*
X15488Y221035D01*
X15371Y220961D01*
X15252Y220890D01*
X15230Y220871D01*
X15220Y220864D01*
X15206Y220850D01*
X15131Y220784D01*
X15072Y220725D01*
X11115Y220725D01*
X10902Y220939D01*
X10808Y221012D01*
X10718Y221091D01*
X10682Y221109D01*
X10650Y221134D01*
X10541Y221181D01*
X10435Y221235D01*
X10396Y221244D01*
X10359Y221260D01*
X10241Y221279D01*
X10125Y221305D01*
X10085Y221304D01*
X10045Y221310D01*
X9926Y221299D01*
X9807Y221295D01*
X9768Y221284D01*
X9728Y221280D01*
X9616Y221240D01*
X9501Y221207D01*
X9467Y221186D01*
X9429Y221173D01*
X9330Y221106D01*
X9228Y221045D01*
X9182Y221006D01*
X9165Y220994D01*
X9152Y220979D01*
X9107Y220939D01*
X8893Y220725D01*
X7419Y220725D01*
X6377Y221767D01*
X6377Y225277D01*
X6365Y225375D01*
X6362Y225474D01*
X6345Y225533D01*
X6338Y225593D01*
X6301Y225685D01*
X6274Y225780D01*
X6243Y225832D01*
X6221Y225888D01*
X6162Y225969D01*
X6112Y226054D01*
X6046Y226129D01*
X6034Y226146D01*
X6024Y226154D01*
X6006Y226175D01*
X4834Y227346D01*
X4725Y227431D01*
X4618Y227520D01*
X4599Y227529D01*
X4583Y227541D01*
X4456Y227596D01*
X4330Y227655D01*
X4310Y227659D01*
X4291Y227667D01*
X4153Y227689D01*
X4017Y227715D01*
X3997Y227714D01*
X3977Y227717D01*
X3838Y227704D01*
X3700Y227695D01*
X3681Y227689D01*
X3661Y227687D01*
X3529Y227640D01*
X3398Y227597D01*
X3380Y227587D01*
X3361Y227580D01*
X3246Y227502D01*
X3129Y227427D01*
X3115Y227413D01*
X3098Y227401D01*
X3006Y227297D01*
X2911Y227196D01*
X2901Y227178D01*
X2888Y227163D01*
X2825Y227039D01*
X2757Y226917D01*
X2752Y226898D01*
X2743Y226880D01*
X2713Y226744D01*
X2678Y226609D01*
X2676Y226581D01*
X2673Y226569D01*
X2674Y226549D01*
X2668Y226449D01*
X2668Y3937D01*
X2683Y3819D01*
X2690Y3700D01*
X2703Y3662D01*
X2708Y3621D01*
X2751Y3511D01*
X2788Y3398D01*
X2810Y3363D01*
X2825Y3326D01*
X2894Y3230D01*
X2958Y3129D01*
X2988Y3101D01*
X3011Y3068D01*
X3103Y2992D01*
X3190Y2911D01*
X3225Y2891D01*
X3256Y2866D01*
X3364Y2815D01*
X3468Y2757D01*
X3508Y2747D01*
X3544Y2730D01*
X3661Y2708D01*
X3776Y2678D01*
X3836Y2674D01*
X3856Y2670D01*
X3877Y2672D01*
X3937Y2668D01*
X297563Y2668D01*
X297681Y2683D01*
G37*
%LPC*%
G36*
X103051Y21677D02*
X103051Y21677D01*
X101340Y23388D01*
X101339Y23389D01*
X91436Y33292D01*
X91358Y33352D01*
X91286Y33420D01*
X91233Y33449D01*
X91185Y33486D01*
X91094Y33526D01*
X91008Y33574D01*
X90949Y33589D01*
X90893Y33613D01*
X90795Y33628D01*
X90700Y33653D01*
X90600Y33659D01*
X90579Y33663D01*
X90567Y33661D01*
X90539Y33663D01*
X78144Y33663D01*
X78026Y33648D01*
X77907Y33641D01*
X77869Y33628D01*
X77828Y33623D01*
X77718Y33580D01*
X77605Y33543D01*
X77570Y33521D01*
X77533Y33506D01*
X77437Y33437D01*
X77336Y33373D01*
X77308Y33343D01*
X77275Y33320D01*
X77199Y33228D01*
X77118Y33141D01*
X77098Y33106D01*
X77073Y33075D01*
X77022Y32967D01*
X76964Y32863D01*
X76954Y32823D01*
X76937Y32787D01*
X76915Y32670D01*
X76885Y32555D01*
X76881Y32495D01*
X76877Y32475D01*
X76879Y32454D01*
X76875Y32394D01*
X76875Y30318D01*
X75982Y29425D01*
X63718Y29425D01*
X62825Y30318D01*
X62825Y39215D01*
X62813Y39313D01*
X62810Y39412D01*
X62793Y39471D01*
X62785Y39531D01*
X62749Y39623D01*
X62721Y39718D01*
X62691Y39770D01*
X62668Y39826D01*
X62610Y39906D01*
X62560Y39992D01*
X62494Y40067D01*
X62482Y40084D01*
X62472Y40091D01*
X62454Y40113D01*
X60775Y41792D01*
X60696Y41852D01*
X60624Y41920D01*
X60571Y41949D01*
X60523Y41986D01*
X60432Y42026D01*
X60346Y42074D01*
X60287Y42089D01*
X60231Y42113D01*
X60134Y42128D01*
X60038Y42153D01*
X59938Y42159D01*
X59917Y42163D01*
X59905Y42161D01*
X59877Y42163D01*
X40703Y42163D01*
X40674Y42160D01*
X40645Y42162D01*
X40517Y42140D01*
X40388Y42123D01*
X40360Y42113D01*
X40331Y42108D01*
X40213Y42054D01*
X40092Y42006D01*
X40068Y41989D01*
X40041Y41977D01*
X39940Y41896D01*
X39835Y41820D01*
X39816Y41797D01*
X39793Y41778D01*
X39715Y41675D01*
X39632Y41575D01*
X39619Y41548D01*
X39602Y41524D01*
X39531Y41380D01*
X38895Y39845D01*
X36609Y37559D01*
X33621Y36321D01*
X17179Y36321D01*
X14191Y37559D01*
X11905Y39845D01*
X10667Y42833D01*
X10667Y46067D01*
X11905Y49055D01*
X14191Y51341D01*
X17179Y52579D01*
X33621Y52579D01*
X36609Y51341D01*
X38895Y49055D01*
X39531Y47520D01*
X39545Y47495D01*
X39554Y47467D01*
X39624Y47357D01*
X39688Y47244D01*
X39709Y47223D01*
X39725Y47198D01*
X39819Y47109D01*
X39910Y47016D01*
X39935Y47000D01*
X39956Y46980D01*
X40070Y46917D01*
X40181Y46849D01*
X40209Y46841D01*
X40235Y46826D01*
X40360Y46794D01*
X40485Y46756D01*
X40514Y46754D01*
X40543Y46747D01*
X40703Y46737D01*
X61556Y46737D01*
X61674Y46752D01*
X61793Y46759D01*
X61831Y46772D01*
X61872Y46777D01*
X61982Y46820D01*
X62095Y46857D01*
X62130Y46879D01*
X62167Y46894D01*
X62263Y46963D01*
X62364Y47027D01*
X62392Y47057D01*
X62425Y47080D01*
X62501Y47172D01*
X62582Y47259D01*
X62602Y47294D01*
X62627Y47325D01*
X62678Y47433D01*
X62736Y47537D01*
X62746Y47577D01*
X62763Y47613D01*
X62785Y47730D01*
X62815Y47845D01*
X62819Y47905D01*
X62823Y47925D01*
X62821Y47946D01*
X62825Y48006D01*
X62825Y58582D01*
X63718Y59475D01*
X66099Y59475D01*
X66217Y59490D01*
X66336Y59497D01*
X66374Y59510D01*
X66415Y59515D01*
X66525Y59558D01*
X66638Y59595D01*
X66673Y59617D01*
X66710Y59632D01*
X66806Y59701D01*
X66907Y59765D01*
X66935Y59795D01*
X66968Y59818D01*
X67044Y59910D01*
X67125Y59997D01*
X67145Y60032D01*
X67170Y60063D01*
X67221Y60171D01*
X67279Y60275D01*
X67289Y60315D01*
X67306Y60351D01*
X67328Y60468D01*
X67358Y60583D01*
X67362Y60643D01*
X67366Y60663D01*
X67364Y60684D01*
X67368Y60744D01*
X67368Y66256D01*
X67353Y66374D01*
X67346Y66493D01*
X67333Y66531D01*
X67328Y66572D01*
X67285Y66682D01*
X67248Y66795D01*
X67226Y66830D01*
X67211Y66867D01*
X67142Y66963D01*
X67078Y67064D01*
X67048Y67092D01*
X67025Y67125D01*
X66933Y67201D01*
X66846Y67282D01*
X66811Y67302D01*
X66780Y67327D01*
X66672Y67378D01*
X66568Y67436D01*
X66528Y67446D01*
X66492Y67463D01*
X66375Y67485D01*
X66260Y67515D01*
X66200Y67519D01*
X66180Y67523D01*
X66159Y67521D01*
X66099Y67525D01*
X63718Y67525D01*
X62825Y68418D01*
X62825Y71374D01*
X62810Y71492D01*
X62803Y71611D01*
X62790Y71649D01*
X62785Y71690D01*
X62742Y71800D01*
X62705Y71913D01*
X62683Y71948D01*
X62668Y71985D01*
X62599Y72081D01*
X62535Y72182D01*
X62505Y72210D01*
X62482Y72243D01*
X62390Y72319D01*
X62303Y72400D01*
X62268Y72420D01*
X62237Y72445D01*
X62129Y72496D01*
X62025Y72554D01*
X61985Y72564D01*
X61949Y72581D01*
X61832Y72603D01*
X61717Y72633D01*
X61657Y72637D01*
X61637Y72641D01*
X61616Y72639D01*
X61556Y72643D01*
X42293Y72643D01*
X42264Y72640D01*
X42234Y72642D01*
X42106Y72620D01*
X41977Y72603D01*
X41950Y72593D01*
X41921Y72588D01*
X41802Y72534D01*
X41682Y72486D01*
X41658Y72469D01*
X41631Y72457D01*
X41530Y72376D01*
X41424Y72300D01*
X41406Y72277D01*
X41383Y72258D01*
X41304Y72155D01*
X41222Y72055D01*
X41209Y72028D01*
X41191Y72004D01*
X41120Y71860D01*
X40773Y71020D01*
X38200Y68447D01*
X34839Y67055D01*
X15961Y67055D01*
X12600Y68447D01*
X10027Y71020D01*
X8635Y74381D01*
X8635Y78019D01*
X10027Y81380D01*
X12600Y83953D01*
X15961Y85345D01*
X34839Y85345D01*
X38200Y83953D01*
X40773Y81380D01*
X41120Y80540D01*
X41135Y80515D01*
X41144Y80487D01*
X41214Y80377D01*
X41278Y80264D01*
X41298Y80243D01*
X41314Y80218D01*
X41409Y80129D01*
X41499Y80036D01*
X41524Y80020D01*
X41546Y80000D01*
X41660Y79937D01*
X41770Y79869D01*
X41799Y79861D01*
X41824Y79846D01*
X41950Y79814D01*
X42074Y79776D01*
X42104Y79774D01*
X42132Y79767D01*
X42293Y79757D01*
X56049Y79757D01*
X56187Y79774D01*
X56325Y79787D01*
X56344Y79794D01*
X56365Y79797D01*
X56494Y79848D01*
X56625Y79895D01*
X56642Y79906D01*
X56660Y79914D01*
X56773Y79995D01*
X56888Y80073D01*
X56901Y80089D01*
X56918Y80100D01*
X57006Y80207D01*
X57098Y80312D01*
X57108Y80330D01*
X57120Y80345D01*
X57180Y80471D01*
X57243Y80595D01*
X57247Y80615D01*
X57256Y80633D01*
X57282Y80770D01*
X57313Y80905D01*
X57312Y80926D01*
X57316Y80945D01*
X57307Y81084D01*
X57303Y81223D01*
X57297Y81243D01*
X57296Y81263D01*
X57253Y81395D01*
X57215Y81529D01*
X57204Y81546D01*
X57198Y81565D01*
X57124Y81683D01*
X57053Y81803D01*
X57034Y81824D01*
X57028Y81834D01*
X57013Y81848D01*
X56947Y81923D01*
X56049Y82821D01*
X56049Y82822D01*
X53593Y85277D01*
X53593Y101873D01*
X53587Y101922D01*
X53589Y101972D01*
X53567Y102079D01*
X53553Y102188D01*
X53535Y102235D01*
X53525Y102283D01*
X53477Y102382D01*
X53436Y102484D01*
X53407Y102524D01*
X53385Y102569D01*
X53314Y102652D01*
X53250Y102741D01*
X53211Y102773D01*
X53179Y102811D01*
X53089Y102874D01*
X53005Y102944D01*
X52960Y102965D01*
X52919Y102994D01*
X52816Y103033D01*
X52717Y103080D01*
X52668Y103089D01*
X52622Y103107D01*
X52512Y103119D01*
X52405Y103139D01*
X52355Y103136D01*
X52306Y103142D01*
X52197Y103126D01*
X52087Y103120D01*
X52040Y103104D01*
X51991Y103097D01*
X51838Y103045D01*
X50868Y102643D01*
X48756Y102643D01*
X46806Y103451D01*
X45303Y104954D01*
X45246Y105043D01*
X45182Y105156D01*
X45162Y105177D01*
X45146Y105202D01*
X45051Y105291D01*
X44961Y105384D01*
X44936Y105400D01*
X44914Y105420D01*
X44801Y105483D01*
X44690Y105551D01*
X44662Y105559D01*
X44636Y105574D01*
X44510Y105606D01*
X44386Y105644D01*
X44356Y105646D01*
X44328Y105653D01*
X44167Y105663D01*
X43135Y105663D01*
X43085Y105657D01*
X43036Y105659D01*
X42928Y105637D01*
X42819Y105623D01*
X42773Y105605D01*
X42724Y105595D01*
X42626Y105547D01*
X42523Y105506D01*
X42483Y105477D01*
X42439Y105455D01*
X42355Y105384D01*
X42266Y105320D01*
X42234Y105281D01*
X42197Y105249D01*
X42133Y105159D01*
X42063Y105075D01*
X42042Y105030D01*
X42013Y104989D01*
X41974Y104886D01*
X41928Y104787D01*
X41918Y104738D01*
X41901Y104692D01*
X41889Y104582D01*
X41868Y104475D01*
X41871Y104425D01*
X41866Y104376D01*
X41881Y104267D01*
X41888Y104157D01*
X41903Y104110D01*
X41910Y104061D01*
X41962Y103908D01*
X42165Y103419D01*
X42165Y99781D01*
X40773Y96420D01*
X38200Y93847D01*
X34839Y92455D01*
X15961Y92455D01*
X12600Y93847D01*
X10027Y96420D01*
X8635Y99781D01*
X8635Y103419D01*
X10027Y106780D01*
X12600Y109353D01*
X15961Y110745D01*
X34839Y110745D01*
X35832Y110333D01*
X35841Y110331D01*
X35849Y110326D01*
X35994Y110289D01*
X36139Y110249D01*
X36148Y110249D01*
X36157Y110247D01*
X36318Y110237D01*
X44167Y110237D01*
X44197Y110240D01*
X44226Y110238D01*
X44354Y110260D01*
X44483Y110277D01*
X44510Y110287D01*
X44539Y110293D01*
X44658Y110346D01*
X44778Y110394D01*
X44802Y110411D01*
X44829Y110423D01*
X44931Y110504D01*
X45036Y110580D01*
X45055Y110603D01*
X45078Y110622D01*
X45156Y110725D01*
X45239Y110825D01*
X45251Y110852D01*
X45269Y110876D01*
X45304Y110946D01*
X46806Y112449D01*
X48756Y113257D01*
X49983Y113257D01*
X50121Y113274D01*
X50260Y113287D01*
X50279Y113294D01*
X50299Y113297D01*
X50428Y113348D01*
X50559Y113395D01*
X50576Y113406D01*
X50595Y113414D01*
X50707Y113495D01*
X50822Y113573D01*
X50835Y113589D01*
X50852Y113600D01*
X50941Y113708D01*
X51033Y113812D01*
X51042Y113830D01*
X51055Y113845D01*
X51114Y113971D01*
X51177Y114095D01*
X51182Y114115D01*
X51190Y114133D01*
X51216Y114269D01*
X51247Y114405D01*
X51246Y114426D01*
X51250Y114445D01*
X51241Y114584D01*
X51237Y114723D01*
X51231Y114743D01*
X51230Y114763D01*
X51187Y114895D01*
X51149Y115029D01*
X51138Y115046D01*
X51132Y115065D01*
X51058Y115183D01*
X50987Y115303D01*
X50969Y115324D01*
X50962Y115334D01*
X50947Y115348D01*
X50881Y115423D01*
X49021Y117283D01*
X49021Y124017D01*
X53222Y128217D01*
X53282Y128296D01*
X53350Y128368D01*
X53379Y128421D01*
X53416Y128469D01*
X53456Y128559D01*
X53504Y128646D01*
X53519Y128705D01*
X53543Y128760D01*
X53558Y128858D01*
X53583Y128954D01*
X53589Y129054D01*
X53593Y129074D01*
X53591Y129087D01*
X53593Y129115D01*
X53593Y166573D01*
X64172Y177151D01*
X64232Y177230D01*
X64300Y177302D01*
X64329Y177355D01*
X64366Y177403D01*
X64406Y177494D01*
X64454Y177580D01*
X64469Y177639D01*
X64493Y177695D01*
X64508Y177793D01*
X64533Y177888D01*
X64539Y177988D01*
X64543Y178009D01*
X64541Y178021D01*
X64543Y178049D01*
X64543Y178856D01*
X65351Y180806D01*
X65921Y181376D01*
X65982Y181454D01*
X66050Y181527D01*
X66079Y181580D01*
X66116Y181628D01*
X66156Y181719D01*
X66204Y181805D01*
X66219Y181864D01*
X66243Y181919D01*
X66258Y182017D01*
X66283Y182113D01*
X66289Y182213D01*
X66293Y182234D01*
X66291Y182246D01*
X66293Y182274D01*
X66293Y185623D01*
X83227Y202557D01*
X106006Y202557D01*
X106124Y202572D01*
X106243Y202579D01*
X106281Y202592D01*
X106322Y202597D01*
X106432Y202640D01*
X106545Y202677D01*
X106580Y202699D01*
X106617Y202714D01*
X106713Y202783D01*
X106814Y202847D01*
X106842Y202877D01*
X106875Y202900D01*
X106951Y202992D01*
X107032Y203079D01*
X107052Y203114D01*
X107077Y203145D01*
X107128Y203253D01*
X107186Y203357D01*
X107196Y203397D01*
X107213Y203433D01*
X107235Y203550D01*
X107265Y203665D01*
X107269Y203725D01*
X107273Y203745D01*
X107271Y203766D01*
X107275Y203826D01*
X107275Y204632D01*
X108168Y205525D01*
X120432Y205525D01*
X121325Y204632D01*
X121325Y203826D01*
X121340Y203708D01*
X121347Y203589D01*
X121360Y203551D01*
X121365Y203510D01*
X121408Y203400D01*
X121445Y203287D01*
X121467Y203252D01*
X121482Y203215D01*
X121551Y203119D01*
X121615Y203018D01*
X121645Y202990D01*
X121668Y202957D01*
X121760Y202881D01*
X121847Y202800D01*
X121882Y202780D01*
X121913Y202755D01*
X122021Y202704D01*
X122125Y202646D01*
X122165Y202636D01*
X122201Y202619D01*
X122318Y202597D01*
X122433Y202567D01*
X122493Y202563D01*
X122513Y202559D01*
X122534Y202561D01*
X122594Y202557D01*
X125056Y202557D01*
X125174Y202572D01*
X125293Y202579D01*
X125331Y202592D01*
X125372Y202597D01*
X125482Y202640D01*
X125595Y202677D01*
X125630Y202699D01*
X125667Y202714D01*
X125763Y202783D01*
X125864Y202847D01*
X125892Y202877D01*
X125925Y202900D01*
X126001Y202992D01*
X126082Y203079D01*
X126102Y203114D01*
X126127Y203145D01*
X126178Y203253D01*
X126236Y203357D01*
X126246Y203397D01*
X126263Y203433D01*
X126285Y203550D01*
X126315Y203665D01*
X126319Y203725D01*
X126323Y203745D01*
X126321Y203766D01*
X126325Y203826D01*
X126325Y204632D01*
X127218Y205525D01*
X134319Y205525D01*
X134417Y205537D01*
X134516Y205540D01*
X134574Y205557D01*
X134635Y205565D01*
X134727Y205601D01*
X134822Y205629D01*
X134874Y205659D01*
X134930Y205682D01*
X135010Y205740D01*
X135096Y205790D01*
X135171Y205856D01*
X135188Y205868D01*
X135195Y205878D01*
X135217Y205896D01*
X149377Y220057D01*
X203756Y220057D01*
X203874Y220072D01*
X203993Y220079D01*
X204031Y220092D01*
X204072Y220097D01*
X204182Y220140D01*
X204295Y220177D01*
X204330Y220199D01*
X204367Y220214D01*
X204463Y220283D01*
X204564Y220347D01*
X204592Y220377D01*
X204625Y220400D01*
X204701Y220492D01*
X204782Y220579D01*
X204802Y220614D01*
X204827Y220645D01*
X204878Y220753D01*
X204936Y220857D01*
X204946Y220897D01*
X204963Y220933D01*
X204985Y221050D01*
X205015Y221165D01*
X205019Y221225D01*
X205023Y221245D01*
X205021Y221266D01*
X205025Y221326D01*
X205025Y228132D01*
X205918Y229025D01*
X213182Y229025D01*
X214075Y228132D01*
X214075Y204868D01*
X213479Y204272D01*
X213418Y204194D01*
X213350Y204122D01*
X213321Y204069D01*
X213284Y204021D01*
X213244Y203930D01*
X213196Y203843D01*
X213181Y203785D01*
X213157Y203729D01*
X213142Y203631D01*
X213117Y203535D01*
X213111Y203435D01*
X213107Y203415D01*
X213109Y203403D01*
X213107Y203375D01*
X213107Y196577D01*
X213113Y196528D01*
X213111Y196478D01*
X213133Y196371D01*
X213147Y196262D01*
X213165Y196215D01*
X213175Y196167D01*
X213223Y196068D01*
X213264Y195966D01*
X213293Y195926D01*
X213315Y195881D01*
X213386Y195798D01*
X213450Y195709D01*
X213489Y195677D01*
X213521Y195639D01*
X213611Y195576D01*
X213695Y195506D01*
X213740Y195485D01*
X213781Y195456D01*
X213884Y195417D01*
X213983Y195370D01*
X214032Y195361D01*
X214078Y195343D01*
X214188Y195331D01*
X214295Y195311D01*
X214345Y195314D01*
X214394Y195308D01*
X214503Y195324D01*
X214613Y195330D01*
X214660Y195346D01*
X214709Y195353D01*
X214862Y195405D01*
X215832Y195807D01*
X217944Y195807D01*
X219894Y194999D01*
X221226Y193666D01*
X221305Y193606D01*
X221377Y193538D01*
X221430Y193509D01*
X221478Y193472D01*
X221569Y193432D01*
X221655Y193384D01*
X221714Y193369D01*
X221770Y193345D01*
X221867Y193330D01*
X221963Y193305D01*
X222063Y193299D01*
X222084Y193295D01*
X222096Y193297D01*
X222124Y193295D01*
X259011Y193295D01*
X259041Y193298D01*
X259070Y193296D01*
X259198Y193318D01*
X259327Y193335D01*
X259354Y193345D01*
X259383Y193350D01*
X259502Y193404D01*
X259623Y193452D01*
X259646Y193469D01*
X259673Y193481D01*
X259775Y193562D01*
X259880Y193638D01*
X259899Y193661D01*
X259922Y193680D01*
X260000Y193783D01*
X260083Y193883D01*
X260095Y193910D01*
X260113Y193934D01*
X260184Y194078D01*
X260847Y195680D01*
X263420Y198253D01*
X266781Y199645D01*
X285659Y199645D01*
X289020Y198253D01*
X291593Y195680D01*
X292985Y192319D01*
X292985Y188681D01*
X291593Y185320D01*
X289020Y182747D01*
X285659Y181355D01*
X266985Y181355D01*
X266847Y181338D01*
X266709Y181325D01*
X266690Y181318D01*
X266670Y181315D01*
X266541Y181264D01*
X266410Y181217D01*
X266393Y181206D01*
X266374Y181198D01*
X266262Y181117D01*
X266147Y181039D01*
X266133Y181023D01*
X266117Y181012D01*
X266028Y180905D01*
X265936Y180800D01*
X265927Y180782D01*
X265914Y180767D01*
X265855Y180641D01*
X265791Y180517D01*
X265787Y180497D01*
X265778Y180479D01*
X265752Y180343D01*
X265722Y180207D01*
X265722Y180187D01*
X265718Y180167D01*
X265727Y180028D01*
X265731Y179889D01*
X265737Y179869D01*
X265738Y179849D01*
X265781Y179717D01*
X265820Y179583D01*
X265830Y179566D01*
X265836Y179547D01*
X265911Y179429D01*
X265981Y179310D01*
X266000Y179288D01*
X266006Y179278D01*
X266021Y179264D01*
X266088Y179189D01*
X270658Y174617D01*
X270736Y174556D01*
X270809Y174488D01*
X270862Y174459D01*
X270909Y174422D01*
X271000Y174382D01*
X271087Y174334D01*
X271146Y174319D01*
X271201Y174295D01*
X271299Y174280D01*
X271395Y174255D01*
X271495Y174249D01*
X271515Y174245D01*
X271527Y174247D01*
X271556Y174245D01*
X285659Y174245D01*
X289020Y172853D01*
X291593Y170280D01*
X292985Y166919D01*
X292985Y163281D01*
X291593Y159920D01*
X289020Y157347D01*
X285659Y155955D01*
X266781Y155955D01*
X263420Y157347D01*
X260847Y159920D01*
X259455Y163281D01*
X259455Y166919D01*
X260847Y170280D01*
X263072Y172504D01*
X263145Y172598D01*
X263223Y172688D01*
X263242Y172724D01*
X263267Y172756D01*
X263314Y172865D01*
X263368Y172971D01*
X263377Y173010D01*
X263393Y173048D01*
X263412Y173165D01*
X263438Y173281D01*
X263437Y173321D01*
X263443Y173362D01*
X263432Y173480D01*
X263428Y173599D01*
X263417Y173638D01*
X263413Y173678D01*
X263373Y173790D01*
X263340Y173904D01*
X263319Y173939D01*
X263306Y173978D01*
X263239Y174076D01*
X263178Y174178D01*
X263138Y174224D01*
X263127Y174241D01*
X263112Y174254D01*
X263072Y174299D01*
X259564Y177808D01*
X259486Y177869D01*
X259413Y177937D01*
X259360Y177966D01*
X259313Y178003D01*
X259222Y178043D01*
X259135Y178091D01*
X259076Y178106D01*
X259021Y178130D01*
X258923Y178145D01*
X258827Y178170D01*
X258727Y178176D01*
X258707Y178180D01*
X258695Y178178D01*
X258666Y178180D01*
X254216Y178180D01*
X254091Y178164D01*
X253966Y178155D01*
X253934Y178145D01*
X253901Y178140D01*
X253784Y178094D01*
X253665Y178054D01*
X253636Y178036D01*
X253605Y178023D01*
X253503Y177950D01*
X253398Y177881D01*
X253375Y177856D01*
X253348Y177837D01*
X253267Y177740D01*
X253182Y177647D01*
X253166Y177618D01*
X253145Y177592D01*
X253091Y177478D01*
X253032Y177367D01*
X253024Y177334D01*
X253009Y177304D01*
X252986Y177181D01*
X252956Y177058D01*
X252956Y177025D01*
X252950Y176992D01*
X252957Y176866D01*
X252959Y176740D01*
X252968Y176692D01*
X252969Y176674D01*
X252976Y176654D01*
X252990Y176582D01*
X253191Y175834D01*
X253191Y165999D01*
X249149Y165999D01*
X249149Y176911D01*
X249134Y177029D01*
X249127Y177148D01*
X249114Y177186D01*
X249109Y177227D01*
X249066Y177337D01*
X249029Y177450D01*
X249007Y177485D01*
X248992Y177522D01*
X248923Y177618D01*
X248859Y177719D01*
X248829Y177747D01*
X248806Y177780D01*
X248714Y177856D01*
X248627Y177937D01*
X248592Y177957D01*
X248561Y177982D01*
X248453Y178033D01*
X248349Y178091D01*
X248309Y178101D01*
X248273Y178118D01*
X248156Y178140D01*
X248041Y178170D01*
X247981Y178174D01*
X247961Y178178D01*
X247940Y178176D01*
X247880Y178180D01*
X247420Y178180D01*
X247302Y178165D01*
X247183Y178158D01*
X247145Y178145D01*
X247104Y178140D01*
X246994Y178097D01*
X246881Y178060D01*
X246846Y178038D01*
X246809Y178023D01*
X246712Y177954D01*
X246612Y177890D01*
X246584Y177860D01*
X246551Y177837D01*
X246475Y177745D01*
X246394Y177658D01*
X246374Y177623D01*
X246349Y177592D01*
X246298Y177484D01*
X246240Y177380D01*
X246230Y177340D01*
X246213Y177304D01*
X246191Y177187D01*
X246161Y177072D01*
X246157Y177012D01*
X246153Y176992D01*
X246155Y176971D01*
X246151Y176911D01*
X246151Y165999D01*
X242109Y165999D01*
X242109Y175834D01*
X242310Y176582D01*
X242327Y176707D01*
X242350Y176831D01*
X242348Y176864D01*
X242353Y176898D01*
X242338Y177023D01*
X242331Y177148D01*
X242320Y177180D01*
X242316Y177213D01*
X242271Y177331D01*
X242233Y177450D01*
X242215Y177479D01*
X242203Y177510D01*
X242130Y177613D01*
X242062Y177719D01*
X242038Y177742D01*
X242018Y177770D01*
X241922Y177851D01*
X241831Y177937D01*
X241801Y177953D01*
X241776Y177975D01*
X241662Y178030D01*
X241552Y178091D01*
X241520Y178099D01*
X241489Y178114D01*
X241366Y178139D01*
X241244Y178170D01*
X241196Y178173D01*
X241178Y178177D01*
X241156Y178176D01*
X241084Y178180D01*
X240490Y178180D01*
X240352Y178163D01*
X240214Y178150D01*
X240195Y178143D01*
X240175Y178140D01*
X240046Y178089D01*
X239915Y178042D01*
X239898Y178031D01*
X239879Y178023D01*
X239767Y177942D01*
X239651Y177864D01*
X239638Y177848D01*
X239622Y177837D01*
X239533Y177729D01*
X239441Y177625D01*
X239432Y177607D01*
X239419Y177592D01*
X239360Y177466D01*
X239296Y177342D01*
X239292Y177322D01*
X239283Y177304D01*
X239257Y177167D01*
X239227Y177032D01*
X239227Y177011D01*
X239224Y176992D01*
X239232Y176853D01*
X239236Y176714D01*
X239242Y176694D01*
X239243Y176674D01*
X239286Y176542D01*
X239325Y176408D01*
X239335Y176391D01*
X239341Y176372D01*
X239416Y176254D01*
X239475Y176154D01*
X239475Y152868D01*
X238582Y151975D01*
X231318Y151975D01*
X230425Y152868D01*
X230425Y176163D01*
X230481Y176230D01*
X230490Y176249D01*
X230502Y176265D01*
X230557Y176392D01*
X230617Y176518D01*
X230620Y176538D01*
X230628Y176557D01*
X230650Y176694D01*
X230676Y176831D01*
X230675Y176851D01*
X230678Y176871D01*
X230665Y177009D01*
X230657Y177148D01*
X230650Y177167D01*
X230649Y177187D01*
X230601Y177318D01*
X230559Y177450D01*
X230548Y177468D01*
X230541Y177487D01*
X230463Y177602D01*
X230388Y177719D01*
X230374Y177733D01*
X230362Y177750D01*
X230258Y177842D01*
X230157Y177937D01*
X230139Y177947D01*
X230124Y177960D01*
X230000Y178023D01*
X229878Y178091D01*
X229859Y178096D01*
X229841Y178105D01*
X229705Y178135D01*
X229570Y178170D01*
X229542Y178172D01*
X229530Y178175D01*
X229510Y178174D01*
X229410Y178180D01*
X227790Y178180D01*
X227652Y178163D01*
X227514Y178150D01*
X227495Y178143D01*
X227475Y178140D01*
X227346Y178089D01*
X227215Y178042D01*
X227198Y178031D01*
X227179Y178023D01*
X227067Y177942D01*
X226951Y177864D01*
X226938Y177848D01*
X226922Y177837D01*
X226833Y177729D01*
X226741Y177625D01*
X226732Y177607D01*
X226719Y177592D01*
X226660Y177466D01*
X226596Y177342D01*
X226592Y177322D01*
X226583Y177304D01*
X226557Y177167D01*
X226527Y177032D01*
X226527Y177011D01*
X226524Y176992D01*
X226532Y176853D01*
X226536Y176714D01*
X226542Y176694D01*
X226543Y176674D01*
X226586Y176542D01*
X226625Y176408D01*
X226635Y176391D01*
X226641Y176372D01*
X226716Y176254D01*
X226775Y176154D01*
X226775Y167696D01*
X226776Y167687D01*
X226775Y167678D01*
X226796Y167529D01*
X226808Y167436D01*
X226808Y167433D01*
X226808Y167432D01*
X226815Y167380D01*
X226818Y167372D01*
X226819Y167363D01*
X226871Y167210D01*
X227557Y165556D01*
X227557Y163444D01*
X226871Y161790D01*
X226869Y161781D01*
X226864Y161773D01*
X226856Y161739D01*
X226845Y161717D01*
X226832Y161647D01*
X226827Y161627D01*
X226787Y161483D01*
X226787Y161474D01*
X226785Y161465D01*
X226775Y161304D01*
X226775Y152868D01*
X225882Y151975D01*
X218618Y151975D01*
X217725Y152868D01*
X217725Y161304D01*
X217724Y161313D01*
X217725Y161322D01*
X217704Y161471D01*
X217696Y161532D01*
X217695Y161561D01*
X217692Y161570D01*
X217685Y161620D01*
X217682Y161628D01*
X217681Y161637D01*
X217629Y161790D01*
X216943Y163444D01*
X216943Y165556D01*
X217629Y167210D01*
X217631Y167219D01*
X217636Y167227D01*
X217644Y167260D01*
X217652Y167277D01*
X217663Y167334D01*
X217673Y167373D01*
X217713Y167517D01*
X217713Y167526D01*
X217715Y167535D01*
X217725Y167696D01*
X217725Y176132D01*
X218761Y177167D01*
X218797Y177182D01*
X218893Y177251D01*
X218994Y177315D01*
X219022Y177345D01*
X219055Y177368D01*
X219131Y177460D01*
X219212Y177547D01*
X219232Y177582D01*
X219257Y177613D01*
X219308Y177721D01*
X219366Y177825D01*
X219376Y177865D01*
X219393Y177901D01*
X219415Y178018D01*
X219445Y178133D01*
X219449Y178193D01*
X219453Y178213D01*
X219451Y178234D01*
X219455Y178294D01*
X219455Y178958D01*
X224267Y183770D01*
X258667Y183770D01*
X258669Y183770D01*
X259590Y183770D01*
X259639Y183776D01*
X259689Y183774D01*
X259796Y183796D01*
X259905Y183810D01*
X259952Y183828D01*
X260000Y183838D01*
X260099Y183886D01*
X260201Y183927D01*
X260241Y183956D01*
X260286Y183978D01*
X260370Y184049D01*
X260458Y184113D01*
X260490Y184152D01*
X260528Y184184D01*
X260591Y184274D01*
X260661Y184358D01*
X260682Y184403D01*
X260711Y184444D01*
X260750Y184547D01*
X260797Y184646D01*
X260806Y184695D01*
X260824Y184741D01*
X260836Y184851D01*
X260857Y184958D01*
X260854Y185008D01*
X260859Y185058D01*
X260844Y185166D01*
X260837Y185276D01*
X260822Y185323D01*
X260815Y185372D01*
X260763Y185525D01*
X260184Y186922D01*
X260169Y186947D01*
X260160Y186975D01*
X260091Y187085D01*
X260026Y187198D01*
X260006Y187219D01*
X259990Y187244D01*
X259896Y187333D01*
X259805Y187426D01*
X259780Y187442D01*
X259758Y187462D01*
X259645Y187525D01*
X259534Y187593D01*
X259506Y187601D01*
X259480Y187616D01*
X259354Y187648D01*
X259230Y187686D01*
X259201Y187688D01*
X259172Y187695D01*
X259011Y187705D01*
X222124Y187705D01*
X222026Y187693D01*
X221927Y187690D01*
X221868Y187673D01*
X221808Y187665D01*
X221716Y187629D01*
X221621Y187601D01*
X221569Y187571D01*
X221513Y187548D01*
X221433Y187490D01*
X221347Y187440D01*
X221272Y187374D01*
X221255Y187362D01*
X221248Y187352D01*
X221226Y187334D01*
X219894Y186001D01*
X217944Y185193D01*
X215832Y185193D01*
X214862Y185595D01*
X214814Y185609D01*
X214769Y185630D01*
X214661Y185650D01*
X214555Y185679D01*
X214505Y185680D01*
X214456Y185689D01*
X214347Y185683D01*
X214237Y185684D01*
X214189Y185673D01*
X214139Y185670D01*
X214035Y185636D01*
X213928Y185610D01*
X213884Y185587D01*
X213837Y185572D01*
X213744Y185513D01*
X213647Y185461D01*
X213610Y185428D01*
X213568Y185401D01*
X213493Y185321D01*
X213411Y185248D01*
X213384Y185206D01*
X213350Y185170D01*
X213297Y185074D01*
X213237Y184982D01*
X213220Y184935D01*
X213196Y184891D01*
X213169Y184785D01*
X213133Y184681D01*
X213129Y184631D01*
X213117Y184583D01*
X213107Y184423D01*
X213107Y177625D01*
X213119Y177527D01*
X213122Y177428D01*
X213139Y177370D01*
X213147Y177310D01*
X213183Y177218D01*
X213211Y177123D01*
X213241Y177070D01*
X213264Y177014D01*
X213322Y176934D01*
X213372Y176849D01*
X213438Y176773D01*
X213450Y176757D01*
X213460Y176749D01*
X213479Y176728D01*
X214075Y176132D01*
X214075Y152868D01*
X213479Y152272D01*
X213418Y152194D01*
X213350Y152122D01*
X213321Y152069D01*
X213284Y152021D01*
X213244Y151930D01*
X213196Y151843D01*
X213181Y151785D01*
X213157Y151729D01*
X213142Y151631D01*
X213117Y151535D01*
X213111Y151435D01*
X213107Y151415D01*
X213109Y151403D01*
X213107Y151375D01*
X213107Y135349D01*
X213119Y135251D01*
X213122Y135152D01*
X213139Y135094D01*
X213147Y135033D01*
X213183Y134941D01*
X213211Y134846D01*
X213241Y134794D01*
X213264Y134738D01*
X213322Y134658D01*
X213372Y134572D01*
X213438Y134497D01*
X213450Y134480D01*
X213460Y134473D01*
X213478Y134451D01*
X218779Y129150D01*
X218858Y129090D01*
X218930Y129022D01*
X218983Y128993D01*
X219031Y128956D01*
X219122Y128916D01*
X219208Y128868D01*
X219267Y128853D01*
X219323Y128829D01*
X219421Y128814D01*
X219516Y128789D01*
X219616Y128783D01*
X219637Y128779D01*
X219649Y128781D01*
X219677Y128779D01*
X225617Y128779D01*
X230379Y124017D01*
X230379Y118077D01*
X230391Y117979D01*
X230394Y117880D01*
X230411Y117822D01*
X230419Y117761D01*
X230455Y117669D01*
X230483Y117574D01*
X230513Y117522D01*
X230536Y117466D01*
X230594Y117386D01*
X230644Y117300D01*
X230710Y117225D01*
X230722Y117208D01*
X230732Y117201D01*
X230750Y117179D01*
X251207Y96723D01*
X251207Y91015D01*
X251219Y90917D01*
X251222Y90818D01*
X251239Y90759D01*
X251247Y90699D01*
X251283Y90607D01*
X251311Y90512D01*
X251341Y90460D01*
X251364Y90404D01*
X251422Y90324D01*
X251472Y90238D01*
X251538Y90163D01*
X251550Y90146D01*
X251560Y90138D01*
X251578Y90117D01*
X255779Y85917D01*
X255779Y79183D01*
X251017Y74421D01*
X244283Y74421D01*
X239521Y79183D01*
X239521Y85917D01*
X243722Y90117D01*
X243782Y90196D01*
X243850Y90268D01*
X243879Y90321D01*
X243916Y90369D01*
X243956Y90460D01*
X244004Y90546D01*
X244019Y90605D01*
X244043Y90660D01*
X244058Y90758D01*
X244083Y90854D01*
X244089Y90954D01*
X244093Y90974D01*
X244091Y90987D01*
X244093Y91015D01*
X244093Y93251D01*
X244081Y93349D01*
X244078Y93448D01*
X244061Y93506D01*
X244053Y93567D01*
X244017Y93659D01*
X243989Y93754D01*
X243959Y93806D01*
X243936Y93862D01*
X243878Y93942D01*
X243828Y94028D01*
X243762Y94103D01*
X243750Y94120D01*
X243740Y94127D01*
X243722Y94149D01*
X225721Y112150D01*
X225642Y112210D01*
X225570Y112278D01*
X225517Y112307D01*
X225469Y112344D01*
X225378Y112384D01*
X225292Y112432D01*
X225233Y112447D01*
X225177Y112471D01*
X225079Y112486D01*
X224984Y112511D01*
X224884Y112517D01*
X224863Y112521D01*
X224851Y112519D01*
X224823Y112521D01*
X218883Y112521D01*
X214121Y117283D01*
X214121Y123223D01*
X214109Y123321D01*
X214106Y123420D01*
X214089Y123478D01*
X214081Y123539D01*
X214045Y123631D01*
X214017Y123726D01*
X213987Y123778D01*
X213964Y123834D01*
X213906Y123914D01*
X213856Y124000D01*
X213790Y124075D01*
X213778Y124092D01*
X213768Y124099D01*
X213750Y124121D01*
X209597Y128273D01*
X209488Y128358D01*
X209381Y128446D01*
X209362Y128455D01*
X209346Y128468D01*
X209218Y128523D01*
X209093Y128582D01*
X209073Y128586D01*
X209054Y128594D01*
X208916Y128616D01*
X208780Y128642D01*
X208760Y128641D01*
X208740Y128644D01*
X208601Y128631D01*
X208463Y128622D01*
X208444Y128616D01*
X208424Y128614D01*
X208292Y128567D01*
X208161Y128524D01*
X208143Y128513D01*
X208124Y128506D01*
X208009Y128428D01*
X207892Y128354D01*
X207878Y128339D01*
X207861Y128328D01*
X207769Y128223D01*
X207674Y128122D01*
X207664Y128105D01*
X207651Y128089D01*
X207587Y127965D01*
X207520Y127844D01*
X207515Y127824D01*
X207506Y127806D01*
X207476Y127670D01*
X207441Y127536D01*
X207439Y127508D01*
X207436Y127496D01*
X207437Y127475D01*
X207431Y127375D01*
X207431Y115695D01*
X204966Y113231D01*
X204897Y113142D01*
X204822Y113059D01*
X204800Y113017D01*
X204771Y112980D01*
X204727Y112877D01*
X204675Y112777D01*
X204664Y112731D01*
X204645Y112688D01*
X204628Y112577D01*
X204602Y112467D01*
X204603Y112420D01*
X204595Y112374D01*
X204606Y112262D01*
X204608Y112149D01*
X204621Y112104D01*
X204625Y112057D01*
X204663Y111951D01*
X204693Y111843D01*
X204710Y111810D01*
X204891Y111134D01*
X204891Y108299D01*
X198080Y108299D01*
X197962Y108284D01*
X197843Y108277D01*
X197805Y108264D01*
X197765Y108259D01*
X197654Y108216D01*
X197541Y108179D01*
X197507Y108157D01*
X197469Y108142D01*
X197373Y108073D01*
X197272Y108009D01*
X197244Y107979D01*
X197212Y107956D01*
X197136Y107864D01*
X197054Y107777D01*
X197035Y107742D01*
X197009Y107711D01*
X196958Y107603D01*
X196901Y107499D01*
X196891Y107459D01*
X196873Y107423D01*
X196853Y107316D01*
X196849Y107346D01*
X196805Y107456D01*
X196769Y107569D01*
X196747Y107604D01*
X196732Y107641D01*
X196662Y107737D01*
X196599Y107838D01*
X196569Y107866D01*
X196545Y107899D01*
X196454Y107975D01*
X196367Y108056D01*
X196332Y108076D01*
X196300Y108101D01*
X196193Y108152D01*
X196088Y108210D01*
X196049Y108220D01*
X196013Y108237D01*
X195896Y108259D01*
X195780Y108289D01*
X195720Y108293D01*
X195700Y108297D01*
X195680Y108295D01*
X195620Y108299D01*
X188809Y108299D01*
X188809Y110152D01*
X188792Y110290D01*
X188779Y110428D01*
X188772Y110447D01*
X188769Y110467D01*
X188718Y110596D01*
X188671Y110728D01*
X188660Y110744D01*
X188652Y110763D01*
X188571Y110875D01*
X188493Y110991D01*
X188477Y111004D01*
X188466Y111020D01*
X188358Y111109D01*
X188254Y111201D01*
X188236Y111210D01*
X188221Y111223D01*
X188095Y111283D01*
X187971Y111346D01*
X187951Y111350D01*
X187933Y111359D01*
X187796Y111385D01*
X187661Y111415D01*
X187640Y111415D01*
X187621Y111419D01*
X187482Y111410D01*
X187343Y111406D01*
X187323Y111400D01*
X187303Y111399D01*
X187171Y111356D01*
X187037Y111317D01*
X187020Y111307D01*
X187001Y111301D01*
X186883Y111226D01*
X186763Y111156D01*
X186742Y111137D01*
X186732Y111131D01*
X186718Y111116D01*
X186643Y111049D01*
X185196Y109603D01*
X185136Y109525D01*
X185068Y109453D01*
X185039Y109400D01*
X185002Y109352D01*
X184962Y109261D01*
X184914Y109174D01*
X184899Y109116D01*
X184875Y109060D01*
X184860Y108962D01*
X184835Y108867D01*
X184829Y108766D01*
X184825Y108746D01*
X184827Y108734D01*
X184825Y108706D01*
X184825Y100168D01*
X183932Y99275D01*
X172927Y99275D01*
X172877Y99269D01*
X172828Y99271D01*
X172720Y99249D01*
X172611Y99235D01*
X172565Y99217D01*
X172516Y99207D01*
X172417Y99159D01*
X172316Y99118D01*
X172275Y99089D01*
X172231Y99067D01*
X172147Y98996D01*
X172058Y98932D01*
X172026Y98893D01*
X171989Y98861D01*
X171926Y98771D01*
X171855Y98687D01*
X171834Y98642D01*
X171806Y98601D01*
X171767Y98498D01*
X171720Y98399D01*
X171711Y98350D01*
X171693Y98304D01*
X171681Y98194D01*
X171660Y98087D01*
X171663Y98037D01*
X171658Y97988D01*
X171673Y97879D01*
X171680Y97769D01*
X171695Y97722D01*
X171702Y97673D01*
X171754Y97520D01*
X172363Y96051D01*
X172363Y94526D01*
X172375Y94428D01*
X172378Y94329D01*
X172395Y94271D01*
X172403Y94210D01*
X172439Y94118D01*
X172467Y94023D01*
X172497Y93971D01*
X172520Y93915D01*
X172578Y93835D01*
X172628Y93749D01*
X172694Y93674D01*
X172706Y93657D01*
X172716Y93650D01*
X172734Y93629D01*
X187199Y79164D01*
X187199Y71639D01*
X187211Y71540D01*
X187214Y71441D01*
X187231Y71383D01*
X187239Y71323D01*
X187275Y71231D01*
X187303Y71136D01*
X187333Y71084D01*
X187356Y71027D01*
X187414Y70947D01*
X187464Y70862D01*
X187530Y70787D01*
X187542Y70770D01*
X187552Y70762D01*
X187570Y70741D01*
X199428Y58884D01*
X199451Y58866D01*
X199470Y58843D01*
X199528Y58803D01*
X199575Y58758D01*
X199626Y58730D01*
X199679Y58689D01*
X199706Y58677D01*
X199730Y58660D01*
X199802Y58633D01*
X199854Y58604D01*
X199904Y58591D01*
X199971Y58563D01*
X200000Y58558D01*
X200027Y58548D01*
X200110Y58538D01*
X200162Y58525D01*
X200240Y58520D01*
X200285Y58513D01*
X200312Y58515D01*
X200322Y58515D01*
X200344Y58512D01*
X200472Y58530D01*
X200601Y58543D01*
X200628Y58552D01*
X200647Y58555D01*
X200649Y58555D01*
X200658Y58557D01*
X200811Y58609D01*
X201583Y58929D01*
X204817Y58929D01*
X207805Y57691D01*
X210091Y55405D01*
X211329Y52417D01*
X211329Y49172D01*
X211324Y49161D01*
X211303Y49053D01*
X211274Y48947D01*
X211273Y48897D01*
X211264Y48848D01*
X211271Y48739D01*
X211269Y48629D01*
X211281Y48581D01*
X211284Y48531D01*
X211317Y48427D01*
X211343Y48320D01*
X211366Y48276D01*
X211382Y48229D01*
X211440Y48136D01*
X211492Y48039D01*
X211525Y48002D01*
X211552Y47960D01*
X211632Y47885D01*
X211706Y47803D01*
X211747Y47776D01*
X211783Y47742D01*
X211880Y47689D01*
X211971Y47629D01*
X212018Y47612D01*
X212062Y47588D01*
X212168Y47561D01*
X212272Y47525D01*
X212322Y47521D01*
X212370Y47509D01*
X212531Y47499D01*
X268840Y47499D01*
X268938Y47511D01*
X269037Y47514D01*
X269095Y47531D01*
X269155Y47539D01*
X269247Y47575D01*
X269342Y47603D01*
X269395Y47633D01*
X269451Y47656D01*
X269531Y47714D01*
X269616Y47764D01*
X269692Y47830D01*
X269708Y47842D01*
X269716Y47852D01*
X269737Y47870D01*
X274445Y52579D01*
X281180Y52579D01*
X285941Y47817D01*
X285941Y41083D01*
X281180Y36321D01*
X274445Y36321D01*
X269737Y41030D01*
X269659Y41090D01*
X269587Y41158D01*
X269534Y41187D01*
X269486Y41224D01*
X269395Y41264D01*
X269308Y41312D01*
X269250Y41327D01*
X269194Y41351D01*
X269096Y41366D01*
X269000Y41391D01*
X268900Y41397D01*
X268880Y41401D01*
X268868Y41399D01*
X268840Y41401D01*
X212289Y41401D01*
X212190Y41389D01*
X212091Y41386D01*
X212033Y41369D01*
X211973Y41361D01*
X211881Y41325D01*
X211786Y41297D01*
X211734Y41267D01*
X211677Y41244D01*
X211597Y41186D01*
X211512Y41136D01*
X211437Y41070D01*
X211420Y41058D01*
X211412Y41048D01*
X211391Y41030D01*
X208461Y38099D01*
X197939Y38099D01*
X195009Y41030D01*
X194931Y41090D01*
X194859Y41158D01*
X194806Y41187D01*
X194758Y41224D01*
X194667Y41264D01*
X194580Y41312D01*
X194521Y41327D01*
X194466Y41351D01*
X194368Y41366D01*
X194272Y41391D01*
X194172Y41397D01*
X194152Y41401D01*
X194139Y41399D01*
X194111Y41401D01*
X143639Y41401D01*
X143540Y41389D01*
X143441Y41386D01*
X143383Y41369D01*
X143323Y41361D01*
X143231Y41325D01*
X143136Y41297D01*
X143084Y41267D01*
X143027Y41244D01*
X142947Y41186D01*
X142862Y41136D01*
X142787Y41070D01*
X142770Y41058D01*
X142762Y41048D01*
X142741Y41030D01*
X136046Y34335D01*
X135986Y34257D01*
X135918Y34185D01*
X135889Y34132D01*
X135852Y34084D01*
X135812Y33993D01*
X135764Y33906D01*
X135749Y33847D01*
X135725Y33792D01*
X135710Y33694D01*
X135685Y33598D01*
X135679Y33498D01*
X135675Y33478D01*
X135677Y33465D01*
X135675Y33437D01*
X135675Y25618D01*
X134782Y24725D01*
X123465Y24725D01*
X123451Y24736D01*
X123342Y24783D01*
X123236Y24837D01*
X123197Y24846D01*
X123160Y24862D01*
X123042Y24881D01*
X122926Y24907D01*
X122886Y24906D01*
X122846Y24912D01*
X122727Y24901D01*
X122608Y24897D01*
X122569Y24886D01*
X122529Y24882D01*
X122417Y24842D01*
X122303Y24809D01*
X122268Y24788D01*
X122230Y24775D01*
X122131Y24708D01*
X122029Y24647D01*
X121983Y24608D01*
X121966Y24596D01*
X121953Y24581D01*
X121908Y24541D01*
X119044Y21677D01*
X103051Y21677D01*
G37*
%LPD*%
G36*
X146070Y246892D02*
X146070Y246892D01*
X146089Y246890D01*
X146191Y246912D01*
X146293Y246929D01*
X146310Y246938D01*
X146330Y246942D01*
X146419Y246995D01*
X146510Y247044D01*
X146524Y247058D01*
X146541Y247068D01*
X146608Y247147D01*
X146680Y247222D01*
X146688Y247240D01*
X146701Y247255D01*
X146740Y247351D01*
X146783Y247445D01*
X146785Y247465D01*
X146793Y247483D01*
X146811Y247650D01*
X146811Y378714D01*
X146808Y378734D01*
X146810Y378753D01*
X146788Y378855D01*
X146772Y378957D01*
X146762Y378974D01*
X146758Y378994D01*
X146705Y379083D01*
X146656Y379174D01*
X146642Y379188D01*
X146632Y379205D01*
X146553Y379272D01*
X146478Y379344D01*
X146460Y379352D01*
X146445Y379365D01*
X146349Y379404D01*
X146255Y379447D01*
X146235Y379449D01*
X146217Y379457D01*
X146050Y379475D01*
X130521Y379475D01*
X125292Y381641D01*
X125113Y381820D01*
X125039Y381873D01*
X124969Y381933D01*
X124939Y381945D01*
X124913Y381964D01*
X124867Y381978D01*
X121626Y385219D01*
X121611Y385248D01*
X121575Y385332D01*
X121549Y385364D01*
X121538Y385385D01*
X121515Y385407D01*
X121470Y385463D01*
X121291Y385642D01*
X119125Y390871D01*
X119125Y396529D01*
X121291Y401758D01*
X121470Y401937D01*
X121523Y402011D01*
X121583Y402081D01*
X121595Y402111D01*
X121614Y402137D01*
X121628Y402183D01*
X124869Y405424D01*
X124898Y405439D01*
X124982Y405475D01*
X125014Y405501D01*
X125035Y405512D01*
X125057Y405535D01*
X125113Y405580D01*
X125292Y405759D01*
X130521Y407925D01*
X146050Y407925D01*
X146070Y407928D01*
X146089Y407926D01*
X146191Y407948D01*
X146293Y407964D01*
X146310Y407974D01*
X146330Y407978D01*
X146419Y408031D01*
X146510Y408080D01*
X146524Y408094D01*
X146541Y408104D01*
X146608Y408183D01*
X146680Y408258D01*
X146688Y408276D01*
X146701Y408291D01*
X146740Y408387D01*
X146783Y408481D01*
X146785Y408501D01*
X146793Y408519D01*
X146811Y408686D01*
X146811Y434621D01*
X146808Y434641D01*
X146810Y434660D01*
X146788Y434762D01*
X146772Y434864D01*
X146762Y434881D01*
X146758Y434901D01*
X146705Y434990D01*
X146656Y435081D01*
X146642Y435095D01*
X146632Y435112D01*
X146553Y435179D01*
X146478Y435251D01*
X146460Y435259D01*
X146445Y435272D01*
X146349Y435311D01*
X146255Y435354D01*
X146235Y435356D01*
X146217Y435364D01*
X146050Y435382D01*
X3429Y435382D01*
X3409Y435379D01*
X3390Y435381D01*
X3288Y435359D01*
X3186Y435343D01*
X3169Y435333D01*
X3149Y435329D01*
X3060Y435276D01*
X2969Y435227D01*
X2955Y435213D01*
X2938Y435203D01*
X2871Y435124D01*
X2799Y435049D01*
X2791Y435031D01*
X2778Y435016D01*
X2739Y434920D01*
X2696Y434826D01*
X2694Y434806D01*
X2686Y434788D01*
X2668Y434621D01*
X2668Y247650D01*
X2671Y247630D01*
X2669Y247611D01*
X2691Y247509D01*
X2707Y247407D01*
X2717Y247390D01*
X2721Y247370D01*
X2774Y247281D01*
X2823Y247190D01*
X2837Y247176D01*
X2847Y247159D01*
X2926Y247092D01*
X3001Y247021D01*
X3019Y247012D01*
X3034Y246999D01*
X3130Y246960D01*
X3224Y246917D01*
X3244Y246915D01*
X3262Y246907D01*
X3429Y246889D01*
X146050Y246889D01*
X146070Y246892D01*
G37*
G36*
X216936Y246892D02*
X216936Y246892D01*
X216955Y246890D01*
X217057Y246912D01*
X217159Y246929D01*
X217176Y246938D01*
X217196Y246942D01*
X217285Y246995D01*
X217376Y247044D01*
X217390Y247058D01*
X217407Y247068D01*
X217474Y247147D01*
X217546Y247222D01*
X217554Y247240D01*
X217567Y247255D01*
X217606Y247351D01*
X217649Y247445D01*
X217651Y247465D01*
X217659Y247483D01*
X217677Y247650D01*
X217677Y248414D01*
X217674Y248433D01*
X217676Y248451D01*
X217676Y248452D01*
X217676Y248453D01*
X217654Y248555D01*
X217638Y248657D01*
X217628Y248674D01*
X217624Y248694D01*
X217571Y248783D01*
X217522Y248874D01*
X217508Y248888D01*
X217498Y248905D01*
X217419Y248972D01*
X217344Y249044D01*
X217326Y249052D01*
X217311Y249065D01*
X217215Y249104D01*
X217121Y249147D01*
X217101Y249149D01*
X217083Y249157D01*
X216916Y249175D01*
X213618Y249175D01*
X212725Y250068D01*
X212725Y264332D01*
X213618Y265225D01*
X230882Y265225D01*
X231775Y264332D01*
X231775Y254457D01*
X231789Y254367D01*
X231797Y254276D01*
X231809Y254247D01*
X231814Y254215D01*
X231857Y254134D01*
X231893Y254050D01*
X231919Y254018D01*
X231930Y253997D01*
X231953Y253975D01*
X231998Y253919D01*
X238805Y247112D01*
X238879Y247059D01*
X238949Y246999D01*
X238979Y246987D01*
X239005Y246968D01*
X239092Y246941D01*
X239177Y246907D01*
X239218Y246903D01*
X239240Y246896D01*
X239272Y246897D01*
X239343Y246889D01*
X279991Y246889D01*
X280062Y246900D01*
X280133Y246902D01*
X280182Y246920D01*
X280234Y246929D01*
X280297Y246962D01*
X280364Y246987D01*
X280405Y247019D01*
X280451Y247044D01*
X280500Y247096D01*
X280556Y247140D01*
X280584Y247184D01*
X280620Y247222D01*
X280651Y247287D01*
X280689Y247347D01*
X280702Y247398D01*
X280724Y247445D01*
X280732Y247516D01*
X280749Y247586D01*
X280745Y247638D01*
X280751Y247689D01*
X280736Y247760D01*
X280730Y247831D01*
X280710Y247879D01*
X280699Y247930D01*
X280662Y247991D01*
X280634Y248057D01*
X280589Y248113D01*
X280573Y248141D01*
X280555Y248156D01*
X280529Y248188D01*
X277997Y250720D01*
X276605Y254081D01*
X276605Y272959D01*
X277997Y276320D01*
X280570Y278893D01*
X283931Y280285D01*
X287569Y280285D01*
X290930Y278893D01*
X293503Y276320D01*
X294895Y272959D01*
X294895Y254081D01*
X293503Y250720D01*
X290971Y248188D01*
X290929Y248130D01*
X290880Y248078D01*
X290858Y248031D01*
X290827Y247989D01*
X290806Y247920D01*
X290776Y247855D01*
X290770Y247803D01*
X290755Y247753D01*
X290757Y247682D01*
X290749Y247611D01*
X290760Y247560D01*
X290761Y247508D01*
X290786Y247440D01*
X290801Y247370D01*
X290828Y247326D01*
X290846Y247277D01*
X290891Y247221D01*
X290927Y247159D01*
X290967Y247125D01*
X291000Y247085D01*
X291060Y247046D01*
X291114Y246999D01*
X291163Y246980D01*
X291206Y246952D01*
X291276Y246934D01*
X291342Y246907D01*
X291414Y246899D01*
X291445Y246891D01*
X291468Y246893D01*
X291509Y246889D01*
X298071Y246889D01*
X298091Y246892D01*
X298110Y246890D01*
X298212Y246912D01*
X298314Y246929D01*
X298331Y246938D01*
X298351Y246942D01*
X298440Y246995D01*
X298531Y247044D01*
X298545Y247058D01*
X298562Y247068D01*
X298629Y247147D01*
X298701Y247222D01*
X298709Y247240D01*
X298722Y247255D01*
X298761Y247351D01*
X298804Y247445D01*
X298806Y247465D01*
X298814Y247483D01*
X298832Y247650D01*
X298832Y342900D01*
X298829Y342920D01*
X298831Y342939D01*
X298809Y343041D01*
X298793Y343143D01*
X298783Y343160D01*
X298779Y343180D01*
X298726Y343269D01*
X298677Y343360D01*
X298663Y343374D01*
X298653Y343391D01*
X298574Y343458D01*
X298499Y343530D01*
X298481Y343538D01*
X298466Y343551D01*
X298370Y343590D01*
X298276Y343633D01*
X298256Y343635D01*
X298238Y343643D01*
X298071Y343661D01*
X216661Y343661D01*
X216661Y434621D01*
X216658Y434641D01*
X216660Y434660D01*
X216638Y434762D01*
X216621Y434864D01*
X216612Y434881D01*
X216608Y434901D01*
X216555Y434990D01*
X216506Y435081D01*
X216492Y435095D01*
X216482Y435112D01*
X216403Y435179D01*
X216328Y435251D01*
X216310Y435259D01*
X216295Y435272D01*
X216199Y435311D01*
X216105Y435354D01*
X216085Y435356D01*
X216067Y435364D01*
X215900Y435382D01*
X158750Y435382D01*
X158730Y435379D01*
X158711Y435381D01*
X158609Y435359D01*
X158507Y435343D01*
X158490Y435333D01*
X158470Y435329D01*
X158381Y435276D01*
X158290Y435227D01*
X158276Y435213D01*
X158259Y435203D01*
X158192Y435124D01*
X158121Y435049D01*
X158112Y435031D01*
X158099Y435016D01*
X158060Y434920D01*
X158017Y434826D01*
X158015Y434806D01*
X158007Y434788D01*
X157989Y434621D01*
X157989Y408686D01*
X157992Y408666D01*
X157990Y408647D01*
X158012Y408545D01*
X158029Y408443D01*
X158038Y408426D01*
X158042Y408406D01*
X158095Y408317D01*
X158144Y408226D01*
X158158Y408212D01*
X158168Y408195D01*
X158247Y408128D01*
X158322Y408056D01*
X158340Y408048D01*
X158355Y408035D01*
X158451Y407996D01*
X158545Y407953D01*
X158565Y407951D01*
X158583Y407943D01*
X158750Y407925D01*
X161579Y407925D01*
X166808Y405759D01*
X166987Y405580D01*
X167061Y405527D01*
X167131Y405467D01*
X167161Y405455D01*
X167187Y405436D01*
X167233Y405422D01*
X170474Y402181D01*
X170489Y402152D01*
X170525Y402068D01*
X170551Y402036D01*
X170562Y402015D01*
X170585Y401993D01*
X170630Y401937D01*
X170809Y401758D01*
X172975Y396529D01*
X172975Y390871D01*
X170809Y385642D01*
X170630Y385463D01*
X170577Y385389D01*
X170517Y385319D01*
X170505Y385289D01*
X170486Y385263D01*
X170472Y385217D01*
X167231Y381976D01*
X167202Y381961D01*
X167118Y381925D01*
X167086Y381899D01*
X167065Y381888D01*
X167043Y381865D01*
X166987Y381820D01*
X166808Y381641D01*
X161579Y379475D01*
X158750Y379475D01*
X158730Y379472D01*
X158711Y379474D01*
X158609Y379452D01*
X158507Y379436D01*
X158490Y379426D01*
X158470Y379422D01*
X158381Y379369D01*
X158290Y379320D01*
X158276Y379306D01*
X158259Y379296D01*
X158192Y379217D01*
X158121Y379142D01*
X158112Y379124D01*
X158099Y379109D01*
X158060Y379013D01*
X158017Y378919D01*
X158015Y378899D01*
X158007Y378881D01*
X157989Y378714D01*
X157989Y247650D01*
X157992Y247630D01*
X157990Y247611D01*
X158012Y247509D01*
X158029Y247407D01*
X158038Y247390D01*
X158042Y247370D01*
X158095Y247281D01*
X158144Y247190D01*
X158158Y247176D01*
X158168Y247159D01*
X158247Y247092D01*
X158322Y247021D01*
X158340Y247012D01*
X158355Y246999D01*
X158451Y246960D01*
X158545Y246917D01*
X158565Y246915D01*
X158583Y246907D01*
X158750Y246889D01*
X216916Y246889D01*
X216936Y246892D01*
G37*
G36*
X298091Y348492D02*
X298091Y348492D01*
X298110Y348490D01*
X298212Y348512D01*
X298314Y348529D01*
X298331Y348538D01*
X298351Y348542D01*
X298440Y348595D01*
X298531Y348644D01*
X298545Y348658D01*
X298562Y348668D01*
X298629Y348747D01*
X298701Y348822D01*
X298709Y348840D01*
X298722Y348855D01*
X298761Y348951D01*
X298804Y349045D01*
X298806Y349065D01*
X298814Y349083D01*
X298832Y349250D01*
X298832Y434621D01*
X298829Y434641D01*
X298831Y434660D01*
X298809Y434762D01*
X298793Y434864D01*
X298783Y434881D01*
X298779Y434901D01*
X298726Y434990D01*
X298677Y435081D01*
X298663Y435095D01*
X298653Y435112D01*
X298574Y435179D01*
X298499Y435251D01*
X298481Y435259D01*
X298466Y435272D01*
X298370Y435311D01*
X298276Y435354D01*
X298256Y435356D01*
X298238Y435364D01*
X298071Y435382D01*
X222250Y435382D01*
X222230Y435379D01*
X222211Y435381D01*
X222109Y435359D01*
X222007Y435343D01*
X221990Y435333D01*
X221970Y435329D01*
X221881Y435276D01*
X221790Y435227D01*
X221776Y435213D01*
X221759Y435203D01*
X221692Y435124D01*
X221621Y435049D01*
X221612Y435031D01*
X221599Y435016D01*
X221560Y434920D01*
X221517Y434826D01*
X221515Y434806D01*
X221507Y434788D01*
X221489Y434621D01*
X221489Y349250D01*
X221492Y349230D01*
X221490Y349211D01*
X221512Y349109D01*
X221529Y349007D01*
X221538Y348990D01*
X221542Y348970D01*
X221595Y348881D01*
X221644Y348790D01*
X221658Y348776D01*
X221668Y348759D01*
X221747Y348692D01*
X221822Y348621D01*
X221840Y348612D01*
X221855Y348599D01*
X221951Y348560D01*
X222045Y348517D01*
X222065Y348515D01*
X222083Y348507D01*
X222250Y348489D01*
X298071Y348489D01*
X298091Y348492D01*
G37*
G36*
X118573Y76699D02*
X118573Y76699D01*
X118692Y76703D01*
X118731Y76714D01*
X118771Y76718D01*
X118883Y76758D01*
X118997Y76791D01*
X119032Y76812D01*
X119070Y76825D01*
X119169Y76892D01*
X119271Y76953D01*
X119317Y76992D01*
X119333Y77004D01*
X119347Y77019D01*
X119392Y77059D01*
X124342Y82008D01*
X124402Y82087D01*
X124470Y82159D01*
X124499Y82212D01*
X124536Y82260D01*
X124576Y82351D01*
X124624Y82437D01*
X124639Y82496D01*
X124663Y82551D01*
X124678Y82649D01*
X124703Y82745D01*
X124709Y82845D01*
X124713Y82866D01*
X124711Y82878D01*
X124713Y82906D01*
X124713Y87206D01*
X124698Y87324D01*
X124691Y87443D01*
X124678Y87481D01*
X124673Y87522D01*
X124630Y87632D01*
X124593Y87745D01*
X124571Y87780D01*
X124556Y87817D01*
X124487Y87913D01*
X124423Y88014D01*
X124393Y88042D01*
X124370Y88075D01*
X124278Y88151D01*
X124191Y88232D01*
X124156Y88252D01*
X124125Y88277D01*
X124017Y88328D01*
X123913Y88386D01*
X123873Y88396D01*
X123837Y88413D01*
X123720Y88435D01*
X123605Y88465D01*
X123545Y88469D01*
X123525Y88473D01*
X123504Y88471D01*
X123444Y88475D01*
X123368Y88475D01*
X122475Y89368D01*
X122475Y112632D01*
X123368Y113525D01*
X126031Y113525D01*
X126169Y113542D01*
X126307Y113555D01*
X126327Y113562D01*
X126347Y113565D01*
X126476Y113616D01*
X126607Y113663D01*
X126624Y113674D01*
X126642Y113682D01*
X126755Y113763D01*
X126870Y113841D01*
X126883Y113857D01*
X126900Y113868D01*
X126988Y113976D01*
X127080Y114080D01*
X127090Y114098D01*
X127102Y114113D01*
X127162Y114239D01*
X127225Y114363D01*
X127229Y114383D01*
X127238Y114401D01*
X127264Y114537D01*
X127295Y114673D01*
X127294Y114694D01*
X127298Y114713D01*
X127289Y114852D01*
X127285Y114991D01*
X127279Y115011D01*
X127278Y115031D01*
X127235Y115163D01*
X127197Y115297D01*
X127186Y115314D01*
X127180Y115333D01*
X127105Y115451D01*
X127035Y115571D01*
X127016Y115592D01*
X127010Y115602D01*
X126995Y115616D01*
X126929Y115691D01*
X123443Y119177D01*
X123443Y139875D01*
X123431Y139973D01*
X123428Y140072D01*
X123411Y140130D01*
X123403Y140190D01*
X123367Y140282D01*
X123339Y140377D01*
X123309Y140430D01*
X123286Y140486D01*
X123228Y140566D01*
X123178Y140651D01*
X123112Y140727D01*
X123100Y140743D01*
X123090Y140751D01*
X123072Y140772D01*
X122475Y141368D01*
X122475Y164632D01*
X123511Y165667D01*
X123547Y165682D01*
X123643Y165751D01*
X123744Y165815D01*
X123772Y165845D01*
X123805Y165868D01*
X123881Y165960D01*
X123962Y166047D01*
X123982Y166082D01*
X124007Y166113D01*
X124058Y166221D01*
X124116Y166325D01*
X124126Y166365D01*
X124143Y166401D01*
X124165Y166518D01*
X124195Y166633D01*
X124199Y166693D01*
X124203Y166713D01*
X124201Y166734D01*
X124205Y166794D01*
X124205Y167617D01*
X124193Y167715D01*
X124190Y167814D01*
X124173Y167872D01*
X124165Y167932D01*
X124129Y168024D01*
X124101Y168119D01*
X124071Y168172D01*
X124048Y168228D01*
X123990Y168308D01*
X123940Y168393D01*
X123874Y168469D01*
X123862Y168485D01*
X123852Y168493D01*
X123834Y168514D01*
X117244Y175104D01*
X117166Y175164D01*
X117094Y175232D01*
X117041Y175261D01*
X116993Y175298D01*
X116902Y175338D01*
X116815Y175386D01*
X116757Y175401D01*
X116701Y175425D01*
X116603Y175440D01*
X116507Y175465D01*
X116407Y175471D01*
X116387Y175475D01*
X116375Y175473D01*
X116347Y175475D01*
X111301Y175475D01*
X111163Y175458D01*
X111024Y175445D01*
X111005Y175438D01*
X110985Y175435D01*
X110856Y175384D01*
X110725Y175337D01*
X110708Y175326D01*
X110689Y175318D01*
X110577Y175237D01*
X110462Y175159D01*
X110448Y175143D01*
X110432Y175132D01*
X110343Y175024D01*
X110251Y174920D01*
X110242Y174902D01*
X110229Y174887D01*
X110170Y174761D01*
X110107Y174637D01*
X110102Y174617D01*
X110094Y174599D01*
X110068Y174463D01*
X110037Y174327D01*
X110038Y174306D01*
X110034Y174287D01*
X110042Y174148D01*
X110047Y174009D01*
X110052Y173989D01*
X110054Y173969D01*
X110096Y173837D01*
X110135Y173703D01*
X110145Y173686D01*
X110152Y173667D01*
X110226Y173549D01*
X110297Y173429D01*
X110315Y173408D01*
X110322Y173398D01*
X110337Y173384D01*
X110403Y173309D01*
X117388Y166324D01*
X117389Y166318D01*
X117425Y166226D01*
X117453Y166131D01*
X117483Y166078D01*
X117506Y166022D01*
X117564Y165942D01*
X117614Y165857D01*
X117680Y165781D01*
X117692Y165765D01*
X117702Y165757D01*
X117720Y165736D01*
X118825Y164632D01*
X118825Y141368D01*
X117932Y140475D01*
X110668Y140475D01*
X109775Y141368D01*
X109775Y164787D01*
X109763Y164886D01*
X109760Y164985D01*
X109743Y165043D01*
X109735Y165103D01*
X109699Y165195D01*
X109671Y165290D01*
X109641Y165342D01*
X109618Y165399D01*
X109560Y165479D01*
X109510Y165564D01*
X109444Y165639D01*
X109432Y165656D01*
X109422Y165664D01*
X109404Y165685D01*
X101217Y173872D01*
X101139Y173932D01*
X101067Y174000D01*
X101014Y174029D01*
X100966Y174066D01*
X100875Y174106D01*
X100788Y174154D01*
X100729Y174169D01*
X100674Y174193D01*
X100576Y174208D01*
X100480Y174233D01*
X100380Y174239D01*
X100360Y174243D01*
X100347Y174241D01*
X100319Y174243D01*
X97365Y174243D01*
X97267Y174231D01*
X97168Y174228D01*
X97109Y174211D01*
X97049Y174203D01*
X96957Y174167D01*
X96862Y174139D01*
X96810Y174109D01*
X96754Y174086D01*
X96674Y174028D01*
X96588Y173978D01*
X96513Y173912D01*
X96496Y173900D01*
X96488Y173890D01*
X96467Y173872D01*
X92267Y169671D01*
X86614Y169671D01*
X86496Y169656D01*
X86377Y169649D01*
X86339Y169636D01*
X86298Y169631D01*
X86188Y169588D01*
X86075Y169551D01*
X86040Y169529D01*
X86003Y169514D01*
X85907Y169445D01*
X85806Y169381D01*
X85778Y169351D01*
X85745Y169328D01*
X85669Y169236D01*
X85588Y169149D01*
X85568Y169114D01*
X85543Y169083D01*
X85492Y168975D01*
X85434Y168871D01*
X85424Y168831D01*
X85407Y168795D01*
X85385Y168678D01*
X85355Y168563D01*
X85351Y168503D01*
X85347Y168483D01*
X85349Y168462D01*
X85345Y168402D01*
X85345Y129877D01*
X85357Y129779D01*
X85360Y129680D01*
X85377Y129621D01*
X85385Y129561D01*
X85421Y129469D01*
X85449Y129374D01*
X85479Y129322D01*
X85502Y129266D01*
X85560Y129185D01*
X85610Y129100D01*
X85676Y129025D01*
X85688Y129008D01*
X85698Y129000D01*
X85716Y128979D01*
X90679Y124017D01*
X90679Y117283D01*
X85917Y112521D01*
X79183Y112521D01*
X74811Y116893D01*
X74702Y116978D01*
X74595Y117067D01*
X74576Y117075D01*
X74560Y117088D01*
X74432Y117143D01*
X74307Y117202D01*
X74287Y117206D01*
X74268Y117214D01*
X74130Y117236D01*
X73994Y117262D01*
X73974Y117261D01*
X73954Y117264D01*
X73815Y117251D01*
X73677Y117242D01*
X73658Y117236D01*
X73638Y117234D01*
X73506Y117187D01*
X73375Y117144D01*
X73357Y117133D01*
X73338Y117127D01*
X73223Y117048D01*
X73106Y116974D01*
X73092Y116959D01*
X73075Y116948D01*
X72983Y116844D01*
X72888Y116742D01*
X72878Y116725D01*
X72865Y116710D01*
X72801Y116585D01*
X72734Y116464D01*
X72729Y116444D01*
X72720Y116426D01*
X72690Y116290D01*
X72655Y116156D01*
X72653Y116128D01*
X72650Y116116D01*
X72651Y116095D01*
X72645Y115995D01*
X72645Y111783D01*
X72657Y111685D01*
X72660Y111586D01*
X72677Y111528D01*
X72685Y111468D01*
X72721Y111376D01*
X72749Y111281D01*
X72779Y111228D01*
X72802Y111172D01*
X72860Y111092D01*
X72910Y111007D01*
X72976Y110931D01*
X72988Y110915D01*
X72998Y110907D01*
X73016Y110886D01*
X74091Y109811D01*
X85956Y97946D01*
X86034Y97886D01*
X86106Y97818D01*
X86159Y97789D01*
X86207Y97752D01*
X86298Y97712D01*
X86385Y97664D01*
X86443Y97649D01*
X86499Y97625D01*
X86597Y97610D01*
X86693Y97585D01*
X86793Y97579D01*
X86813Y97575D01*
X86825Y97577D01*
X86853Y97575D01*
X95032Y97575D01*
X95925Y96682D01*
X95925Y85418D01*
X95032Y84525D01*
X85441Y84525D01*
X85304Y84508D01*
X85165Y84495D01*
X85146Y84488D01*
X85126Y84485D01*
X84997Y84434D01*
X84866Y84387D01*
X84849Y84376D01*
X84830Y84368D01*
X84718Y84287D01*
X84603Y84209D01*
X84589Y84193D01*
X84573Y84182D01*
X84484Y84074D01*
X84392Y83970D01*
X84383Y83952D01*
X84370Y83937D01*
X84311Y83811D01*
X84247Y83687D01*
X84243Y83667D01*
X84234Y83649D01*
X84208Y83513D01*
X84178Y83377D01*
X84178Y83356D01*
X84175Y83337D01*
X84183Y83198D01*
X84187Y83059D01*
X84193Y83039D01*
X84194Y83019D01*
X84237Y82887D01*
X84276Y82753D01*
X84286Y82736D01*
X84292Y82717D01*
X84367Y82599D01*
X84437Y82479D01*
X84456Y82458D01*
X84463Y82448D01*
X84477Y82434D01*
X84544Y82359D01*
X85956Y80946D01*
X86034Y80886D01*
X86106Y80818D01*
X86159Y80789D01*
X86207Y80752D01*
X86298Y80712D01*
X86385Y80664D01*
X86443Y80649D01*
X86499Y80625D01*
X86597Y80610D01*
X86693Y80585D01*
X86793Y80579D01*
X86813Y80575D01*
X86825Y80577D01*
X86853Y80575D01*
X95032Y80575D01*
X95925Y79682D01*
X95925Y78114D01*
X95940Y77996D01*
X95947Y77877D01*
X95960Y77839D01*
X95965Y77798D01*
X96008Y77688D01*
X96045Y77575D01*
X96067Y77540D01*
X96082Y77503D01*
X96151Y77407D01*
X96215Y77306D01*
X96245Y77278D01*
X96268Y77245D01*
X96360Y77169D01*
X96447Y77088D01*
X96482Y77068D01*
X96513Y77043D01*
X96621Y76992D01*
X96725Y76934D01*
X96765Y76924D01*
X96801Y76907D01*
X96918Y76885D01*
X97033Y76855D01*
X97093Y76851D01*
X97113Y76847D01*
X97134Y76849D01*
X97194Y76845D01*
X105963Y76845D01*
X106061Y76857D01*
X106160Y76860D01*
X106210Y76875D01*
X110236Y76875D01*
X110354Y76890D01*
X110473Y76897D01*
X110511Y76910D01*
X110552Y76915D01*
X110662Y76958D01*
X110775Y76995D01*
X110810Y77017D01*
X110847Y77032D01*
X110943Y77101D01*
X111044Y77165D01*
X111072Y77195D01*
X111105Y77218D01*
X111181Y77310D01*
X111262Y77397D01*
X111282Y77432D01*
X111307Y77463D01*
X111358Y77571D01*
X111416Y77675D01*
X111426Y77715D01*
X111443Y77751D01*
X111465Y77868D01*
X111495Y77983D01*
X111499Y78043D01*
X111503Y78063D01*
X111501Y78084D01*
X111505Y78144D01*
X111505Y87206D01*
X111490Y87324D01*
X111483Y87443D01*
X111470Y87481D01*
X111465Y87522D01*
X111422Y87632D01*
X111385Y87745D01*
X111363Y87780D01*
X111348Y87817D01*
X111279Y87913D01*
X111215Y88014D01*
X111185Y88042D01*
X111162Y88075D01*
X111070Y88151D01*
X110983Y88232D01*
X110948Y88252D01*
X110917Y88277D01*
X110822Y88322D01*
X109775Y89368D01*
X109775Y112632D01*
X110668Y113525D01*
X117932Y113525D01*
X118825Y112632D01*
X118825Y89368D01*
X117789Y88333D01*
X117753Y88318D01*
X117657Y88249D01*
X117556Y88185D01*
X117528Y88155D01*
X117495Y88132D01*
X117419Y88040D01*
X117338Y87953D01*
X117318Y87918D01*
X117293Y87887D01*
X117242Y87779D01*
X117184Y87675D01*
X117174Y87635D01*
X117157Y87599D01*
X117135Y87482D01*
X117105Y87367D01*
X117101Y87307D01*
X117097Y87287D01*
X117099Y87266D01*
X117095Y87206D01*
X117095Y78087D01*
X117107Y77989D01*
X117110Y77890D01*
X117127Y77832D01*
X117135Y77772D01*
X117171Y77680D01*
X117198Y77585D01*
X117229Y77532D01*
X117252Y77476D01*
X117310Y77396D01*
X117360Y77311D01*
X117426Y77235D01*
X117438Y77219D01*
X117448Y77211D01*
X117466Y77190D01*
X117597Y77059D01*
X117691Y76986D01*
X117781Y76907D01*
X117817Y76889D01*
X117848Y76864D01*
X117958Y76817D01*
X118064Y76763D01*
X118103Y76754D01*
X118140Y76738D01*
X118258Y76719D01*
X118374Y76693D01*
X118414Y76694D01*
X118454Y76688D01*
X118573Y76699D01*
G37*
G36*
X188674Y125610D02*
X188674Y125610D01*
X188793Y125617D01*
X188831Y125630D01*
X188872Y125635D01*
X188982Y125678D01*
X189095Y125715D01*
X189130Y125737D01*
X189167Y125752D01*
X189263Y125821D01*
X189364Y125885D01*
X189392Y125915D01*
X189425Y125938D01*
X189501Y126030D01*
X189582Y126117D01*
X189602Y126152D01*
X189627Y126183D01*
X189678Y126291D01*
X189736Y126395D01*
X189746Y126435D01*
X189763Y126471D01*
X189785Y126588D01*
X189815Y126703D01*
X189819Y126763D01*
X189823Y126783D01*
X189821Y126804D01*
X189825Y126864D01*
X189825Y128432D01*
X190718Y129325D01*
X197760Y129325D01*
X197897Y129342D01*
X198036Y129355D01*
X198056Y129362D01*
X198076Y129365D01*
X198204Y129416D01*
X198336Y129463D01*
X198352Y129474D01*
X198371Y129482D01*
X198484Y129563D01*
X198599Y129641D01*
X198612Y129657D01*
X198629Y129668D01*
X198717Y129776D01*
X198809Y129880D01*
X198818Y129898D01*
X198831Y129913D01*
X198891Y130039D01*
X198954Y130163D01*
X198958Y130183D01*
X198967Y130201D01*
X198993Y130337D01*
X199024Y130473D01*
X199023Y130494D01*
X199027Y130513D01*
X199018Y130652D01*
X199014Y130791D01*
X199008Y130811D01*
X199007Y130831D01*
X198964Y130963D01*
X198925Y131097D01*
X198915Y131114D01*
X198909Y131133D01*
X198834Y131251D01*
X198764Y131371D01*
X198745Y131392D01*
X198739Y131402D01*
X198724Y131416D01*
X198658Y131491D01*
X195459Y134690D01*
X195459Y151956D01*
X195444Y152074D01*
X195437Y152193D01*
X195424Y152231D01*
X195419Y152272D01*
X195376Y152382D01*
X195339Y152495D01*
X195317Y152530D01*
X195302Y152567D01*
X195233Y152663D01*
X195169Y152764D01*
X195139Y152792D01*
X195116Y152825D01*
X195024Y152901D01*
X194937Y152982D01*
X194902Y153002D01*
X194871Y153027D01*
X194763Y153078D01*
X194659Y153136D01*
X194619Y153146D01*
X194583Y153163D01*
X194466Y153185D01*
X194351Y153215D01*
X194291Y153219D01*
X194271Y153223D01*
X194250Y153221D01*
X194190Y153225D01*
X193368Y153225D01*
X192475Y154118D01*
X192475Y163382D01*
X193368Y164275D01*
X202632Y164275D01*
X202858Y164048D01*
X202968Y163963D01*
X203075Y163874D01*
X203094Y163865D01*
X203110Y163853D01*
X203238Y163797D01*
X203363Y163738D01*
X203383Y163735D01*
X203402Y163726D01*
X203540Y163705D01*
X203676Y163679D01*
X203696Y163680D01*
X203716Y163677D01*
X203855Y163690D01*
X203993Y163698D01*
X204012Y163705D01*
X204032Y163706D01*
X204163Y163754D01*
X204295Y163796D01*
X204313Y163807D01*
X204332Y163814D01*
X204446Y163892D01*
X204564Y163967D01*
X204578Y163981D01*
X204595Y163993D01*
X204687Y164097D01*
X204782Y164198D01*
X204792Y164216D01*
X204805Y164231D01*
X204868Y164355D01*
X204936Y164477D01*
X204941Y164496D01*
X204950Y164514D01*
X204980Y164650D01*
X205015Y164785D01*
X205017Y164813D01*
X205020Y164825D01*
X205019Y164845D01*
X205025Y164945D01*
X205025Y176132D01*
X205621Y176728D01*
X205682Y176806D01*
X205750Y176878D01*
X205779Y176931D01*
X205816Y176979D01*
X205856Y177070D01*
X205904Y177157D01*
X205919Y177215D01*
X205943Y177271D01*
X205958Y177369D01*
X205983Y177465D01*
X205989Y177565D01*
X205993Y177585D01*
X205991Y177597D01*
X205993Y177625D01*
X205993Y203375D01*
X205981Y203473D01*
X205978Y203572D01*
X205961Y203630D01*
X205953Y203690D01*
X205917Y203782D01*
X205889Y203877D01*
X205859Y203930D01*
X205836Y203986D01*
X205778Y204066D01*
X205728Y204151D01*
X205662Y204227D01*
X205650Y204243D01*
X205640Y204251D01*
X205621Y204272D01*
X205025Y204868D01*
X205025Y211674D01*
X205010Y211792D01*
X205003Y211911D01*
X204990Y211949D01*
X204985Y211990D01*
X204942Y212100D01*
X204905Y212213D01*
X204883Y212248D01*
X204868Y212285D01*
X204799Y212381D01*
X204735Y212482D01*
X204705Y212510D01*
X204682Y212543D01*
X204590Y212619D01*
X204503Y212700D01*
X204468Y212720D01*
X204437Y212745D01*
X204329Y212796D01*
X204225Y212854D01*
X204185Y212864D01*
X204149Y212881D01*
X204032Y212903D01*
X203917Y212933D01*
X203857Y212937D01*
X203837Y212941D01*
X203816Y212939D01*
X203756Y212943D01*
X152849Y212943D01*
X152751Y212931D01*
X152652Y212928D01*
X152594Y212911D01*
X152533Y212903D01*
X152441Y212867D01*
X152346Y212839D01*
X152294Y212809D01*
X152238Y212786D01*
X152158Y212728D01*
X152072Y212678D01*
X151997Y212612D01*
X151980Y212600D01*
X151973Y212590D01*
X151951Y212572D01*
X148087Y208707D01*
X148002Y208598D01*
X147914Y208491D01*
X147905Y208472D01*
X147892Y208456D01*
X147837Y208328D01*
X147778Y208203D01*
X147774Y208183D01*
X147766Y208164D01*
X147744Y208026D01*
X147718Y207890D01*
X147719Y207870D01*
X147716Y207850D01*
X147729Y207711D01*
X147738Y207573D01*
X147744Y207554D01*
X147746Y207534D01*
X147793Y207402D01*
X147836Y207271D01*
X147847Y207253D01*
X147854Y207234D01*
X147932Y207119D01*
X148006Y207002D01*
X148021Y206988D01*
X148032Y206971D01*
X148137Y206879D01*
X148238Y206784D01*
X148255Y206774D01*
X148271Y206761D01*
X148395Y206697D01*
X148516Y206630D01*
X148536Y206625D01*
X148554Y206616D01*
X148690Y206586D01*
X148824Y206551D01*
X148852Y206549D01*
X148864Y206546D01*
X148885Y206547D01*
X148985Y206541D01*
X149901Y206541D01*
X149901Y201499D01*
X144359Y201499D01*
X144359Y201915D01*
X144342Y202052D01*
X144329Y202191D01*
X144322Y202211D01*
X144319Y202231D01*
X144268Y202360D01*
X144221Y202491D01*
X144210Y202507D01*
X144202Y202526D01*
X144121Y202639D01*
X144043Y202754D01*
X144027Y202767D01*
X144016Y202784D01*
X143908Y202872D01*
X143804Y202964D01*
X143786Y202973D01*
X143771Y202986D01*
X143645Y203046D01*
X143521Y203109D01*
X143501Y203113D01*
X143483Y203122D01*
X143346Y203148D01*
X143211Y203179D01*
X143190Y203178D01*
X143171Y203182D01*
X143032Y203173D01*
X142893Y203169D01*
X142873Y203163D01*
X142853Y203162D01*
X142721Y203119D01*
X142587Y203080D01*
X142570Y203070D01*
X142551Y203064D01*
X142433Y202990D01*
X142313Y202919D01*
X142292Y202900D01*
X142282Y202894D01*
X142268Y202879D01*
X142193Y202813D01*
X140746Y201367D01*
X140686Y201288D01*
X140618Y201216D01*
X140589Y201163D01*
X140552Y201115D01*
X140512Y201024D01*
X140464Y200938D01*
X140449Y200879D01*
X140425Y200823D01*
X140410Y200725D01*
X140385Y200630D01*
X140379Y200530D01*
X140375Y200509D01*
X140377Y200497D01*
X140375Y200469D01*
X140375Y195270D01*
X140390Y195152D01*
X140397Y195033D01*
X140410Y194995D01*
X140415Y194954D01*
X140458Y194844D01*
X140495Y194731D01*
X140517Y194696D01*
X140532Y194659D01*
X140601Y194563D01*
X140665Y194462D01*
X140695Y194434D01*
X140718Y194401D01*
X140810Y194325D01*
X140897Y194244D01*
X140932Y194224D01*
X140963Y194199D01*
X141071Y194148D01*
X141175Y194090D01*
X141215Y194080D01*
X141251Y194063D01*
X141368Y194041D01*
X141483Y194011D01*
X141543Y194007D01*
X141563Y194003D01*
X141584Y194005D01*
X141644Y194001D01*
X143090Y194001D01*
X143208Y194016D01*
X143327Y194023D01*
X143365Y194036D01*
X143406Y194041D01*
X143516Y194084D01*
X143629Y194121D01*
X143664Y194143D01*
X143701Y194158D01*
X143797Y194227D01*
X143898Y194291D01*
X143926Y194321D01*
X143959Y194344D01*
X144035Y194436D01*
X144116Y194523D01*
X144136Y194558D01*
X144161Y194589D01*
X144212Y194697D01*
X144270Y194801D01*
X144280Y194841D01*
X144297Y194877D01*
X144319Y194994D01*
X144349Y195109D01*
X144353Y195169D01*
X144357Y195189D01*
X144355Y195210D01*
X144359Y195270D01*
X144359Y196501D01*
X151170Y196501D01*
X151288Y196516D01*
X151407Y196523D01*
X151445Y196535D01*
X151485Y196541D01*
X151596Y196584D01*
X151709Y196621D01*
X151743Y196643D01*
X151781Y196658D01*
X151877Y196727D01*
X151978Y196791D01*
X152006Y196821D01*
X152038Y196844D01*
X152114Y196936D01*
X152196Y197023D01*
X152215Y197058D01*
X152241Y197089D01*
X152292Y197197D01*
X152349Y197301D01*
X152359Y197341D01*
X152377Y197377D01*
X152397Y197484D01*
X152401Y197454D01*
X152445Y197343D01*
X152481Y197231D01*
X152503Y197196D01*
X152518Y197159D01*
X152588Y197062D01*
X152651Y196962D01*
X152681Y196934D01*
X152705Y196901D01*
X152796Y196825D01*
X152883Y196744D01*
X152918Y196724D01*
X152950Y196699D01*
X153057Y196648D01*
X153162Y196590D01*
X153201Y196580D01*
X153237Y196563D01*
X153354Y196541D01*
X153470Y196511D01*
X153530Y196507D01*
X153550Y196503D01*
X153570Y196505D01*
X153630Y196501D01*
X159874Y196501D01*
X159972Y196513D01*
X160071Y196516D01*
X160129Y196533D01*
X160189Y196541D01*
X160282Y196577D01*
X160377Y196605D01*
X160429Y196635D01*
X160485Y196658D01*
X160565Y196716D01*
X160651Y196766D01*
X160726Y196832D01*
X160742Y196844D01*
X160750Y196854D01*
X160771Y196872D01*
X163649Y199750D01*
X163695Y199765D01*
X163730Y199787D01*
X163767Y199802D01*
X163863Y199871D01*
X163964Y199935D01*
X163992Y199965D01*
X164025Y199988D01*
X164101Y200080D01*
X164182Y200167D01*
X164202Y200202D01*
X164227Y200233D01*
X164278Y200341D01*
X164336Y200445D01*
X164346Y200485D01*
X164363Y200521D01*
X164385Y200638D01*
X164415Y200753D01*
X164419Y200813D01*
X164423Y200833D01*
X164421Y200854D01*
X164425Y200914D01*
X164425Y204632D01*
X165318Y205525D01*
X177582Y205525D01*
X178475Y204632D01*
X178475Y203064D01*
X178490Y202946D01*
X178497Y202827D01*
X178510Y202789D01*
X178515Y202748D01*
X178558Y202638D01*
X178595Y202525D01*
X178617Y202490D01*
X178632Y202453D01*
X178701Y202357D01*
X178765Y202256D01*
X178795Y202228D01*
X178818Y202195D01*
X178910Y202119D01*
X178997Y202038D01*
X179032Y202018D01*
X179063Y201993D01*
X179171Y201942D01*
X179275Y201884D01*
X179315Y201874D01*
X179351Y201857D01*
X179468Y201835D01*
X179583Y201805D01*
X179643Y201801D01*
X179663Y201797D01*
X179684Y201799D01*
X179744Y201795D01*
X182206Y201795D01*
X182324Y201810D01*
X182443Y201817D01*
X182481Y201830D01*
X182522Y201835D01*
X182632Y201878D01*
X182745Y201915D01*
X182780Y201937D01*
X182817Y201952D01*
X182913Y202021D01*
X183014Y202085D01*
X183042Y202115D01*
X183075Y202138D01*
X183151Y202230D01*
X183232Y202317D01*
X183252Y202352D01*
X183277Y202383D01*
X183328Y202491D01*
X183386Y202595D01*
X183396Y202635D01*
X183413Y202671D01*
X183435Y202788D01*
X183465Y202903D01*
X183469Y202963D01*
X183473Y202983D01*
X183471Y203004D01*
X183475Y203064D01*
X183475Y204632D01*
X184368Y205525D01*
X196632Y205525D01*
X197525Y204632D01*
X197525Y193368D01*
X196632Y192475D01*
X184368Y192475D01*
X183475Y193368D01*
X183475Y194936D01*
X183460Y195054D01*
X183453Y195173D01*
X183440Y195211D01*
X183435Y195252D01*
X183392Y195362D01*
X183355Y195475D01*
X183333Y195510D01*
X183318Y195547D01*
X183249Y195643D01*
X183185Y195744D01*
X183155Y195772D01*
X183132Y195805D01*
X183040Y195881D01*
X182953Y195962D01*
X182918Y195982D01*
X182887Y196007D01*
X182779Y196058D01*
X182675Y196116D01*
X182635Y196126D01*
X182599Y196143D01*
X182482Y196165D01*
X182367Y196195D01*
X182307Y196199D01*
X182287Y196203D01*
X182266Y196201D01*
X182206Y196205D01*
X179744Y196205D01*
X179626Y196190D01*
X179507Y196183D01*
X179469Y196170D01*
X179428Y196165D01*
X179318Y196122D01*
X179205Y196085D01*
X179170Y196063D01*
X179133Y196048D01*
X179037Y195979D01*
X178936Y195915D01*
X178908Y195885D01*
X178875Y195862D01*
X178799Y195770D01*
X178718Y195683D01*
X178698Y195648D01*
X178673Y195617D01*
X178622Y195509D01*
X178564Y195405D01*
X178554Y195365D01*
X178537Y195329D01*
X178515Y195212D01*
X178485Y195097D01*
X178481Y195037D01*
X178477Y195017D01*
X178479Y194996D01*
X178475Y194936D01*
X178475Y193368D01*
X177582Y192475D01*
X164805Y192475D01*
X164706Y192463D01*
X164607Y192460D01*
X164549Y192443D01*
X164489Y192435D01*
X164397Y192399D01*
X164302Y192371D01*
X164250Y192341D01*
X164193Y192318D01*
X164113Y192260D01*
X164028Y192210D01*
X163953Y192144D01*
X163936Y192132D01*
X163928Y192122D01*
X163907Y192104D01*
X159993Y188189D01*
X159987Y188185D01*
X159886Y188121D01*
X159858Y188091D01*
X159825Y188068D01*
X159749Y187976D01*
X159668Y187889D01*
X159648Y187854D01*
X159623Y187823D01*
X159572Y187715D01*
X159514Y187611D01*
X159504Y187571D01*
X159487Y187535D01*
X159465Y187418D01*
X159435Y187303D01*
X159431Y187243D01*
X159427Y187223D01*
X159429Y187202D01*
X159425Y187142D01*
X159425Y186064D01*
X159440Y185946D01*
X159447Y185827D01*
X159460Y185789D01*
X159465Y185748D01*
X159508Y185638D01*
X159545Y185525D01*
X159567Y185490D01*
X159582Y185453D01*
X159651Y185357D01*
X159715Y185256D01*
X159745Y185228D01*
X159768Y185195D01*
X159860Y185119D01*
X159947Y185038D01*
X159982Y185018D01*
X160013Y184993D01*
X160121Y184942D01*
X160225Y184884D01*
X160265Y184874D01*
X160301Y184857D01*
X160418Y184835D01*
X160533Y184805D01*
X160593Y184801D01*
X160613Y184797D01*
X160634Y184799D01*
X160694Y184795D01*
X163156Y184795D01*
X163274Y184810D01*
X163393Y184817D01*
X163431Y184830D01*
X163472Y184835D01*
X163582Y184878D01*
X163695Y184915D01*
X163730Y184937D01*
X163767Y184952D01*
X163863Y185021D01*
X163964Y185085D01*
X163992Y185115D01*
X164025Y185138D01*
X164101Y185230D01*
X164182Y185317D01*
X164202Y185352D01*
X164227Y185383D01*
X164278Y185491D01*
X164336Y185595D01*
X164346Y185635D01*
X164363Y185671D01*
X164385Y185788D01*
X164415Y185903D01*
X164419Y185963D01*
X164423Y185983D01*
X164421Y186004D01*
X164425Y186064D01*
X164425Y187632D01*
X165318Y188525D01*
X177582Y188525D01*
X178475Y187632D01*
X178475Y176991D01*
X178492Y176854D01*
X178505Y176715D01*
X178512Y176696D01*
X178515Y176676D01*
X178566Y176547D01*
X178613Y176416D01*
X178624Y176399D01*
X178632Y176380D01*
X178713Y176268D01*
X178791Y176153D01*
X178807Y176139D01*
X178818Y176123D01*
X178926Y176034D01*
X179030Y175942D01*
X179048Y175933D01*
X179063Y175920D01*
X179189Y175861D01*
X179313Y175797D01*
X179333Y175793D01*
X179351Y175784D01*
X179487Y175758D01*
X179623Y175728D01*
X179644Y175728D01*
X179663Y175725D01*
X179802Y175733D01*
X179941Y175737D01*
X179961Y175743D01*
X179981Y175744D01*
X180113Y175787D01*
X180247Y175826D01*
X180264Y175836D01*
X180283Y175842D01*
X180401Y175917D01*
X180521Y175987D01*
X180542Y176006D01*
X180552Y176013D01*
X180566Y176028D01*
X180641Y176094D01*
X183104Y178556D01*
X183164Y178634D01*
X183232Y178706D01*
X183261Y178759D01*
X183298Y178807D01*
X183338Y178898D01*
X183386Y178985D01*
X183401Y179043D01*
X183425Y179099D01*
X183440Y179197D01*
X183465Y179293D01*
X183471Y179393D01*
X183475Y179413D01*
X183473Y179425D01*
X183475Y179453D01*
X183475Y187632D01*
X184368Y188525D01*
X196632Y188525D01*
X197525Y187632D01*
X197525Y176368D01*
X196632Y175475D01*
X188453Y175475D01*
X188355Y175463D01*
X188256Y175460D01*
X188198Y175443D01*
X188138Y175435D01*
X188046Y175399D01*
X187951Y175371D01*
X187898Y175341D01*
X187842Y175318D01*
X187762Y175260D01*
X187677Y175210D01*
X187601Y175144D01*
X187585Y175132D01*
X187577Y175122D01*
X187556Y175104D01*
X179910Y167457D01*
X179824Y167347D01*
X179736Y167241D01*
X179727Y167222D01*
X179715Y167206D01*
X179659Y167078D01*
X179600Y166953D01*
X179597Y166933D01*
X179589Y166914D01*
X179567Y166776D01*
X179541Y166640D01*
X179542Y166620D01*
X179539Y166600D01*
X179552Y166461D01*
X179560Y166323D01*
X179567Y166304D01*
X179568Y166284D01*
X179616Y166152D01*
X179658Y166021D01*
X179669Y166003D01*
X179676Y165984D01*
X179754Y165869D01*
X179829Y165752D01*
X179843Y165738D01*
X179855Y165721D01*
X179959Y165629D01*
X180060Y165534D01*
X180078Y165524D01*
X180093Y165511D01*
X180217Y165447D01*
X180339Y165380D01*
X180358Y165375D01*
X180376Y165366D01*
X180512Y165336D01*
X180647Y165301D01*
X180675Y165299D01*
X180687Y165296D01*
X180707Y165297D01*
X180807Y165291D01*
X181001Y165291D01*
X181001Y160749D01*
X176459Y160749D01*
X176459Y160943D01*
X176442Y161080D01*
X176429Y161219D01*
X176422Y161238D01*
X176419Y161258D01*
X176368Y161387D01*
X176321Y161518D01*
X176310Y161535D01*
X176302Y161554D01*
X176221Y161666D01*
X176143Y161781D01*
X176127Y161795D01*
X176116Y161811D01*
X176008Y161900D01*
X175904Y161992D01*
X175886Y162001D01*
X175871Y162014D01*
X175745Y162073D01*
X175621Y162137D01*
X175601Y162141D01*
X175583Y162150D01*
X175447Y162176D01*
X175311Y162206D01*
X175290Y162206D01*
X175271Y162209D01*
X175132Y162201D01*
X174993Y162197D01*
X174973Y162191D01*
X174953Y162190D01*
X174821Y162147D01*
X174687Y162108D01*
X174670Y162098D01*
X174651Y162092D01*
X174533Y162017D01*
X174413Y161947D01*
X174392Y161928D01*
X174382Y161921D01*
X174368Y161907D01*
X174293Y161840D01*
X161800Y149348D01*
X161727Y149253D01*
X161648Y149164D01*
X161630Y149128D01*
X161605Y149096D01*
X161558Y148987D01*
X161503Y148881D01*
X161495Y148842D01*
X161479Y148804D01*
X161460Y148687D01*
X161434Y148571D01*
X161435Y148530D01*
X161429Y148490D01*
X161440Y148372D01*
X161443Y148253D01*
X161455Y148214D01*
X161459Y148174D01*
X161499Y148061D01*
X161532Y147947D01*
X161552Y147913D01*
X161566Y147874D01*
X161633Y147776D01*
X161693Y147673D01*
X161733Y147628D01*
X161745Y147611D01*
X161760Y147598D01*
X161800Y147553D01*
X179656Y129696D01*
X179734Y129636D01*
X179806Y129568D01*
X179859Y129539D01*
X179907Y129502D01*
X179998Y129462D01*
X180085Y129414D01*
X180143Y129399D01*
X180199Y129375D01*
X180297Y129360D01*
X180393Y129335D01*
X180493Y129329D01*
X180513Y129325D01*
X180525Y129327D01*
X180553Y129325D01*
X183932Y129325D01*
X184825Y128432D01*
X184825Y126864D01*
X184840Y126746D01*
X184847Y126627D01*
X184860Y126589D01*
X184865Y126548D01*
X184908Y126438D01*
X184945Y126325D01*
X184967Y126290D01*
X184982Y126253D01*
X185051Y126157D01*
X185115Y126056D01*
X185145Y126028D01*
X185168Y125995D01*
X185260Y125919D01*
X185347Y125838D01*
X185382Y125818D01*
X185413Y125793D01*
X185521Y125742D01*
X185625Y125684D01*
X185665Y125674D01*
X185701Y125657D01*
X185818Y125635D01*
X185933Y125605D01*
X185993Y125601D01*
X186013Y125597D01*
X186034Y125599D01*
X186094Y125595D01*
X188556Y125595D01*
X188674Y125610D01*
G37*
G36*
X137002Y44392D02*
X137002Y44392D01*
X137141Y44397D01*
X137161Y44402D01*
X137181Y44404D01*
X137313Y44446D01*
X137447Y44485D01*
X137464Y44495D01*
X137483Y44502D01*
X137601Y44576D01*
X137721Y44647D01*
X137742Y44665D01*
X137752Y44672D01*
X137766Y44687D01*
X137842Y44753D01*
X138430Y45341D01*
X140587Y47499D01*
X193869Y47499D01*
X193919Y47505D01*
X193968Y47503D01*
X194076Y47525D01*
X194185Y47539D01*
X194231Y47557D01*
X194280Y47567D01*
X194379Y47615D01*
X194481Y47656D01*
X194521Y47685D01*
X194566Y47707D01*
X194649Y47778D01*
X194738Y47842D01*
X194770Y47881D01*
X194808Y47913D01*
X194871Y48003D01*
X194941Y48087D01*
X194962Y48132D01*
X194991Y48173D01*
X195030Y48276D01*
X195076Y48375D01*
X195086Y48424D01*
X195103Y48470D01*
X195115Y48580D01*
X195136Y48687D01*
X195133Y48737D01*
X195139Y48787D01*
X195123Y48895D01*
X195116Y49005D01*
X195101Y49052D01*
X195094Y49101D01*
X195071Y49168D01*
X195071Y52417D01*
X195391Y53189D01*
X195399Y53218D01*
X195412Y53244D01*
X195441Y53371D01*
X195475Y53496D01*
X195476Y53525D01*
X195482Y53554D01*
X195478Y53684D01*
X195480Y53814D01*
X195473Y53843D01*
X195472Y53872D01*
X195436Y53997D01*
X195406Y54123D01*
X195392Y54149D01*
X195384Y54178D01*
X195318Y54289D01*
X195257Y54404D01*
X195237Y54426D01*
X195222Y54452D01*
X195116Y54572D01*
X183259Y66430D01*
X181101Y68587D01*
X181101Y76113D01*
X181089Y76211D01*
X181086Y76310D01*
X181069Y76368D01*
X181061Y76428D01*
X181025Y76520D01*
X180997Y76616D01*
X180967Y76668D01*
X180944Y76724D01*
X180886Y76804D01*
X180836Y76890D01*
X180770Y76965D01*
X180758Y76981D01*
X180748Y76989D01*
X180730Y77010D01*
X168423Y89317D01*
X168345Y89378D01*
X168273Y89446D01*
X168220Y89475D01*
X168172Y89512D01*
X168081Y89551D01*
X167994Y89599D01*
X167935Y89614D01*
X167880Y89638D01*
X167782Y89654D01*
X167686Y89678D01*
X167586Y89685D01*
X167566Y89688D01*
X167553Y89687D01*
X167525Y89689D01*
X166000Y89689D01*
X164050Y90497D01*
X162557Y91989D01*
X161749Y93940D01*
X161749Y96051D01*
X162557Y98001D01*
X164050Y99494D01*
X165021Y99896D01*
X165064Y99921D01*
X165111Y99938D01*
X165201Y99999D01*
X165297Y100054D01*
X165333Y100088D01*
X165374Y100116D01*
X165447Y100199D01*
X165525Y100275D01*
X165551Y100317D01*
X165584Y100355D01*
X165634Y100453D01*
X165692Y100546D01*
X165706Y100594D01*
X165729Y100638D01*
X165753Y100745D01*
X165785Y100850D01*
X165788Y100900D01*
X165798Y100948D01*
X165795Y101058D01*
X165800Y101168D01*
X165790Y101217D01*
X165789Y101266D01*
X165758Y101372D01*
X165736Y101479D01*
X165714Y101524D01*
X165700Y101572D01*
X165645Y101666D01*
X165596Y101765D01*
X165564Y101803D01*
X165539Y101846D01*
X165432Y101966D01*
X160107Y107292D01*
X159998Y107377D01*
X159891Y107465D01*
X159872Y107474D01*
X159856Y107486D01*
X159728Y107542D01*
X159603Y107601D01*
X159583Y107605D01*
X159564Y107613D01*
X159426Y107635D01*
X159290Y107661D01*
X159270Y107659D01*
X159250Y107663D01*
X159111Y107650D01*
X158973Y107641D01*
X158954Y107635D01*
X158934Y107633D01*
X158802Y107586D01*
X158671Y107543D01*
X158653Y107532D01*
X158634Y107525D01*
X158519Y107447D01*
X158402Y107373D01*
X158388Y107358D01*
X158371Y107347D01*
X158279Y107242D01*
X158184Y107141D01*
X158174Y107123D01*
X158161Y107108D01*
X158097Y106984D01*
X158030Y106863D01*
X158025Y106843D01*
X158016Y106825D01*
X157986Y106689D01*
X157951Y106555D01*
X157949Y106527D01*
X157946Y106515D01*
X157947Y106494D01*
X157941Y106394D01*
X157941Y102499D01*
X152630Y102499D01*
X152512Y102484D01*
X152393Y102477D01*
X152386Y102475D01*
X152330Y102489D01*
X152270Y102493D01*
X152250Y102497D01*
X152230Y102495D01*
X152170Y102499D01*
X146859Y102499D01*
X146859Y110730D01*
X146844Y110848D01*
X146837Y110967D01*
X146824Y111005D01*
X146819Y111046D01*
X146776Y111156D01*
X146739Y111269D01*
X146717Y111304D01*
X146702Y111341D01*
X146633Y111437D01*
X146569Y111538D01*
X146539Y111566D01*
X146516Y111599D01*
X146424Y111675D01*
X146337Y111756D01*
X146302Y111776D01*
X146271Y111801D01*
X146163Y111852D01*
X146059Y111910D01*
X146019Y111920D01*
X145983Y111937D01*
X145866Y111959D01*
X145751Y111989D01*
X145691Y111993D01*
X145671Y111997D01*
X145650Y111995D01*
X145590Y111999D01*
X145494Y111999D01*
X145376Y111984D01*
X145257Y111977D01*
X145219Y111964D01*
X145178Y111959D01*
X145068Y111916D01*
X144955Y111879D01*
X144920Y111857D01*
X144883Y111842D01*
X144787Y111773D01*
X144686Y111709D01*
X144658Y111679D01*
X144625Y111656D01*
X144549Y111564D01*
X144468Y111477D01*
X144448Y111442D01*
X144423Y111411D01*
X144372Y111303D01*
X144314Y111199D01*
X144304Y111159D01*
X144287Y111123D01*
X144265Y111006D01*
X144235Y110891D01*
X144231Y110831D01*
X144227Y110811D01*
X144229Y110790D01*
X144225Y110730D01*
X144225Y89363D01*
X144170Y89292D01*
X144091Y89203D01*
X144073Y89167D01*
X144048Y89135D01*
X144000Y89026D01*
X143946Y88920D01*
X143937Y88880D01*
X143921Y88843D01*
X143903Y88725D01*
X143877Y88609D01*
X143878Y88569D01*
X143871Y88529D01*
X143883Y88410D01*
X143886Y88292D01*
X143898Y88253D01*
X143901Y88212D01*
X143942Y88100D01*
X143975Y87986D01*
X143995Y87951D01*
X144009Y87913D01*
X144076Y87814D01*
X144136Y87712D01*
X144176Y87667D01*
X144187Y87650D01*
X144203Y87637D01*
X144243Y87591D01*
X146187Y85647D01*
X146187Y78144D01*
X146202Y78026D01*
X146209Y77907D01*
X146222Y77869D01*
X146227Y77828D01*
X146270Y77718D01*
X146307Y77605D01*
X146329Y77570D01*
X146344Y77533D01*
X146413Y77437D01*
X146477Y77336D01*
X146507Y77308D01*
X146530Y77275D01*
X146622Y77199D01*
X146709Y77118D01*
X146744Y77098D01*
X146775Y77073D01*
X146883Y77022D01*
X146987Y76964D01*
X147027Y76954D01*
X147063Y76937D01*
X147180Y76915D01*
X147295Y76885D01*
X147355Y76881D01*
X147375Y76877D01*
X147396Y76879D01*
X147456Y76875D01*
X149532Y76875D01*
X150425Y75982D01*
X150425Y63718D01*
X149532Y62825D01*
X138268Y62825D01*
X137422Y63671D01*
X137328Y63744D01*
X137239Y63823D01*
X137203Y63841D01*
X137171Y63866D01*
X137062Y63914D01*
X136956Y63968D01*
X136917Y63976D01*
X136879Y63992D01*
X136762Y64011D01*
X136646Y64037D01*
X136605Y64036D01*
X136565Y64042D01*
X136447Y64031D01*
X136328Y64028D01*
X136289Y64016D01*
X136249Y64013D01*
X136137Y63972D01*
X136022Y63939D01*
X135987Y63919D01*
X135949Y63905D01*
X135851Y63838D01*
X135748Y63778D01*
X135703Y63738D01*
X135686Y63726D01*
X135673Y63711D01*
X135627Y63671D01*
X134782Y62825D01*
X125420Y62825D01*
X125302Y62810D01*
X125183Y62803D01*
X125145Y62790D01*
X125104Y62785D01*
X124994Y62742D01*
X124881Y62705D01*
X124846Y62683D01*
X124809Y62668D01*
X124713Y62599D01*
X124612Y62535D01*
X124584Y62505D01*
X124551Y62482D01*
X124475Y62390D01*
X124394Y62303D01*
X124374Y62268D01*
X124349Y62237D01*
X124298Y62129D01*
X124240Y62025D01*
X124230Y61985D01*
X124213Y61949D01*
X124191Y61832D01*
X124161Y61717D01*
X124157Y61657D01*
X124153Y61637D01*
X124155Y61616D01*
X124151Y61556D01*
X124151Y59094D01*
X124166Y58976D01*
X124173Y58857D01*
X124186Y58819D01*
X124191Y58778D01*
X124234Y58668D01*
X124271Y58555D01*
X124293Y58520D01*
X124308Y58483D01*
X124377Y58387D01*
X124441Y58286D01*
X124471Y58258D01*
X124494Y58225D01*
X124586Y58149D01*
X124673Y58068D01*
X124708Y58048D01*
X124739Y58023D01*
X124847Y57972D01*
X124951Y57914D01*
X124991Y57904D01*
X125027Y57887D01*
X125144Y57865D01*
X125259Y57835D01*
X125319Y57831D01*
X125339Y57827D01*
X125360Y57829D01*
X125420Y57825D01*
X134782Y57825D01*
X135675Y56932D01*
X135675Y45651D01*
X135692Y45513D01*
X135705Y45374D01*
X135712Y45355D01*
X135715Y45335D01*
X135766Y45205D01*
X135813Y45075D01*
X135824Y45058D01*
X135832Y45039D01*
X135913Y44927D01*
X135991Y44812D01*
X136007Y44798D01*
X136018Y44782D01*
X136126Y44693D01*
X136230Y44601D01*
X136248Y44592D01*
X136263Y44579D01*
X136389Y44520D01*
X136513Y44457D01*
X136533Y44452D01*
X136551Y44444D01*
X136687Y44418D01*
X136823Y44387D01*
X136844Y44388D01*
X136863Y44384D01*
X137002Y44392D01*
G37*
G36*
X169624Y109372D02*
X169624Y109372D01*
X169743Y109379D01*
X169781Y109392D01*
X169822Y109397D01*
X169932Y109440D01*
X170045Y109477D01*
X170080Y109499D01*
X170117Y109514D01*
X170213Y109583D01*
X170314Y109647D01*
X170342Y109677D01*
X170375Y109700D01*
X170451Y109792D01*
X170532Y109879D01*
X170552Y109914D01*
X170577Y109945D01*
X170628Y110053D01*
X170686Y110157D01*
X170696Y110197D01*
X170713Y110233D01*
X170735Y110350D01*
X170765Y110465D01*
X170769Y110525D01*
X170773Y110545D01*
X170771Y110566D01*
X170775Y110626D01*
X170775Y111432D01*
X171668Y112325D01*
X180206Y112325D01*
X180304Y112337D01*
X180403Y112340D01*
X180461Y112357D01*
X180521Y112365D01*
X180613Y112401D01*
X180709Y112429D01*
X180761Y112459D01*
X180817Y112482D01*
X180897Y112540D01*
X180982Y112590D01*
X181058Y112656D01*
X181074Y112668D01*
X181082Y112678D01*
X181103Y112696D01*
X182515Y114109D01*
X182600Y114218D01*
X182689Y114325D01*
X182698Y114344D01*
X182710Y114360D01*
X182766Y114487D01*
X182825Y114613D01*
X182829Y114633D01*
X182837Y114652D01*
X182859Y114790D01*
X182885Y114926D01*
X182883Y114946D01*
X182887Y114966D01*
X182873Y115105D01*
X182865Y115243D01*
X182859Y115262D01*
X182857Y115282D01*
X182810Y115414D01*
X182767Y115545D01*
X182756Y115563D01*
X182749Y115582D01*
X182671Y115697D01*
X182597Y115814D01*
X182582Y115828D01*
X182571Y115845D01*
X182466Y115937D01*
X182365Y116032D01*
X182347Y116042D01*
X182332Y116055D01*
X182208Y116119D01*
X182087Y116186D01*
X182067Y116191D01*
X182049Y116200D01*
X181913Y116230D01*
X181779Y116265D01*
X181751Y116267D01*
X181739Y116270D01*
X181718Y116269D01*
X181618Y116275D01*
X171668Y116275D01*
X170775Y117168D01*
X170775Y128432D01*
X170998Y128654D01*
X171071Y128749D01*
X171150Y128838D01*
X171168Y128874D01*
X171193Y128906D01*
X171240Y129015D01*
X171295Y129121D01*
X171303Y129160D01*
X171319Y129198D01*
X171338Y129315D01*
X171364Y129431D01*
X171363Y129472D01*
X171369Y129512D01*
X171358Y129630D01*
X171355Y129749D01*
X171343Y129788D01*
X171340Y129828D01*
X171299Y129940D01*
X171266Y130055D01*
X171246Y130090D01*
X171232Y130128D01*
X171165Y130226D01*
X171105Y130329D01*
X171065Y130374D01*
X171053Y130391D01*
X171038Y130404D01*
X170998Y130449D01*
X159091Y142356D01*
X158982Y142441D01*
X158875Y142530D01*
X158856Y142539D01*
X158840Y142551D01*
X158712Y142607D01*
X158587Y142666D01*
X158567Y142669D01*
X158548Y142677D01*
X158410Y142699D01*
X158274Y142725D01*
X158254Y142724D01*
X158234Y142727D01*
X158095Y142714D01*
X157957Y142706D01*
X157938Y142699D01*
X157918Y142698D01*
X157786Y142650D01*
X157655Y142608D01*
X157637Y142597D01*
X157618Y142590D01*
X157503Y142512D01*
X157386Y142437D01*
X157372Y142423D01*
X157355Y142411D01*
X157263Y142307D01*
X157168Y142206D01*
X157158Y142188D01*
X157145Y142173D01*
X157081Y142048D01*
X157014Y141927D01*
X157009Y141908D01*
X157000Y141890D01*
X156970Y141754D01*
X156935Y141619D01*
X156933Y141591D01*
X156930Y141579D01*
X156931Y141559D01*
X156925Y141459D01*
X156925Y141368D01*
X156032Y140475D01*
X148768Y140475D01*
X147875Y141368D01*
X147875Y164632D01*
X148768Y165525D01*
X156032Y165525D01*
X156925Y164632D01*
X156925Y155441D01*
X156942Y155304D01*
X156955Y155165D01*
X156962Y155146D01*
X156965Y155126D01*
X157016Y154997D01*
X157063Y154866D01*
X157074Y154849D01*
X157082Y154830D01*
X157163Y154718D01*
X157241Y154603D01*
X157257Y154589D01*
X157268Y154573D01*
X157376Y154484D01*
X157480Y154392D01*
X157498Y154383D01*
X157513Y154370D01*
X157639Y154311D01*
X157763Y154247D01*
X157783Y154243D01*
X157801Y154234D01*
X157937Y154208D01*
X158073Y154178D01*
X158094Y154178D01*
X158113Y154175D01*
X158252Y154183D01*
X158391Y154187D01*
X158411Y154193D01*
X158431Y154194D01*
X158563Y154237D01*
X158697Y154276D01*
X158714Y154286D01*
X158733Y154292D01*
X158851Y154367D01*
X158971Y154437D01*
X158992Y154456D01*
X159002Y154463D01*
X159016Y154477D01*
X159091Y154544D01*
X177856Y173309D01*
X177941Y173418D01*
X178030Y173525D01*
X178039Y173544D01*
X178051Y173560D01*
X178107Y173688D01*
X178166Y173813D01*
X178169Y173833D01*
X178177Y173852D01*
X178199Y173990D01*
X178225Y174126D01*
X178224Y174146D01*
X178227Y174166D01*
X178214Y174305D01*
X178206Y174443D01*
X178199Y174462D01*
X178198Y174482D01*
X178150Y174614D01*
X178108Y174745D01*
X178097Y174763D01*
X178090Y174782D01*
X178012Y174897D01*
X177937Y175014D01*
X177923Y175028D01*
X177911Y175045D01*
X177807Y175137D01*
X177706Y175232D01*
X177688Y175242D01*
X177673Y175255D01*
X177549Y175318D01*
X177427Y175386D01*
X177408Y175391D01*
X177390Y175400D01*
X177254Y175430D01*
X177119Y175465D01*
X177091Y175467D01*
X177079Y175470D01*
X177059Y175469D01*
X176959Y175475D01*
X165318Y175475D01*
X164425Y176368D01*
X164425Y177936D01*
X164410Y178054D01*
X164403Y178173D01*
X164390Y178211D01*
X164385Y178252D01*
X164342Y178362D01*
X164305Y178475D01*
X164283Y178510D01*
X164268Y178547D01*
X164199Y178643D01*
X164135Y178744D01*
X164105Y178772D01*
X164082Y178805D01*
X163990Y178881D01*
X163903Y178962D01*
X163868Y178982D01*
X163837Y179007D01*
X163729Y179058D01*
X163625Y179116D01*
X163585Y179126D01*
X163549Y179143D01*
X163432Y179165D01*
X163317Y179195D01*
X163257Y179199D01*
X163237Y179203D01*
X163216Y179201D01*
X163156Y179205D01*
X160694Y179205D01*
X160576Y179190D01*
X160457Y179183D01*
X160419Y179170D01*
X160378Y179165D01*
X160268Y179122D01*
X160155Y179085D01*
X160120Y179063D01*
X160083Y179048D01*
X159987Y178979D01*
X159886Y178915D01*
X159858Y178885D01*
X159825Y178862D01*
X159749Y178770D01*
X159668Y178683D01*
X159648Y178648D01*
X159623Y178617D01*
X159572Y178509D01*
X159514Y178405D01*
X159504Y178365D01*
X159487Y178329D01*
X159465Y178212D01*
X159435Y178097D01*
X159431Y178037D01*
X159427Y178017D01*
X159429Y177996D01*
X159425Y177936D01*
X159425Y176368D01*
X158532Y175475D01*
X146268Y175475D01*
X145375Y176368D01*
X145375Y177936D01*
X145360Y178054D01*
X145353Y178173D01*
X145340Y178211D01*
X145335Y178252D01*
X145292Y178362D01*
X145255Y178475D01*
X145233Y178510D01*
X145218Y178547D01*
X145149Y178643D01*
X145085Y178744D01*
X145055Y178772D01*
X145032Y178805D01*
X144940Y178881D01*
X144853Y178962D01*
X144818Y178982D01*
X144787Y179007D01*
X144679Y179058D01*
X144575Y179116D01*
X144535Y179126D01*
X144499Y179143D01*
X144382Y179165D01*
X144267Y179195D01*
X144207Y179199D01*
X144187Y179203D01*
X144166Y179201D01*
X144106Y179205D01*
X143161Y179205D01*
X143023Y179188D01*
X142885Y179175D01*
X142866Y179168D01*
X142846Y179165D01*
X142716Y179114D01*
X142586Y179067D01*
X142569Y179056D01*
X142550Y179048D01*
X142438Y178967D01*
X142323Y178889D01*
X142309Y178873D01*
X142293Y178862D01*
X142204Y178754D01*
X142112Y178650D01*
X142103Y178632D01*
X142090Y178617D01*
X142031Y178491D01*
X141967Y178367D01*
X141963Y178347D01*
X141954Y178329D01*
X141928Y178193D01*
X141898Y178057D01*
X141898Y178036D01*
X141895Y178017D01*
X141903Y177878D01*
X141907Y177739D01*
X141913Y177719D01*
X141914Y177699D01*
X141957Y177567D01*
X141996Y177433D01*
X142006Y177416D01*
X142012Y177397D01*
X142087Y177279D01*
X142157Y177159D01*
X142176Y177138D01*
X142183Y177128D01*
X142197Y177114D01*
X142264Y177038D01*
X142495Y176808D01*
X142495Y166794D01*
X142510Y166676D01*
X142517Y166557D01*
X142530Y166519D01*
X142535Y166478D01*
X142578Y166368D01*
X142615Y166255D01*
X142637Y166220D01*
X142652Y166183D01*
X142721Y166087D01*
X142785Y165986D01*
X142815Y165958D01*
X142838Y165925D01*
X142930Y165849D01*
X143017Y165768D01*
X143052Y165748D01*
X143083Y165723D01*
X143178Y165678D01*
X144225Y164632D01*
X144225Y141368D01*
X143120Y140264D01*
X143060Y140186D01*
X142992Y140114D01*
X142963Y140061D01*
X142926Y140013D01*
X142886Y139922D01*
X142838Y139835D01*
X142823Y139777D01*
X142799Y139721D01*
X142784Y139623D01*
X142759Y139527D01*
X142753Y139427D01*
X142749Y139407D01*
X142751Y139395D01*
X142749Y139367D01*
X142749Y135139D01*
X142761Y135040D01*
X142764Y134941D01*
X142781Y134883D01*
X142789Y134823D01*
X142825Y134731D01*
X142853Y134636D01*
X142883Y134584D01*
X142906Y134527D01*
X142964Y134447D01*
X143014Y134362D01*
X143080Y134287D01*
X143092Y134270D01*
X143102Y134262D01*
X143120Y134241D01*
X151047Y126314D01*
X151125Y126254D01*
X151197Y126186D01*
X151250Y126157D01*
X151298Y126120D01*
X151389Y126080D01*
X151476Y126032D01*
X151535Y126017D01*
X151590Y125993D01*
X151688Y125978D01*
X151784Y125953D01*
X151884Y125947D01*
X151904Y125943D01*
X151917Y125945D01*
X151945Y125943D01*
X153768Y125943D01*
X153866Y125955D01*
X153965Y125958D01*
X154024Y125975D01*
X154084Y125983D01*
X154176Y126019D01*
X154271Y126047D01*
X154323Y126077D01*
X154379Y126100D01*
X154459Y126158D01*
X154545Y126208D01*
X154620Y126274D01*
X154637Y126286D01*
X154644Y126296D01*
X154666Y126314D01*
X155744Y127393D01*
X157694Y128201D01*
X159806Y128201D01*
X161756Y127393D01*
X163249Y125900D01*
X164057Y123950D01*
X164057Y121838D01*
X163249Y119888D01*
X161756Y118395D01*
X161607Y118334D01*
X161564Y118309D01*
X161517Y118292D01*
X161427Y118230D01*
X161331Y118176D01*
X161295Y118141D01*
X161254Y118114D01*
X161182Y118031D01*
X161103Y117955D01*
X161077Y117912D01*
X161044Y117875D01*
X160994Y117777D01*
X160936Y117684D01*
X160922Y117636D01*
X160899Y117592D01*
X160875Y117485D01*
X160843Y117380D01*
X160840Y117330D01*
X160829Y117282D01*
X160833Y117172D01*
X160828Y117062D01*
X160838Y117013D01*
X160839Y116964D01*
X160870Y116858D01*
X160892Y116751D01*
X160914Y116706D01*
X160928Y116658D01*
X160983Y116564D01*
X161032Y116465D01*
X161064Y116427D01*
X161089Y116384D01*
X161195Y116263D01*
X167730Y109728D01*
X167809Y109668D01*
X167881Y109600D01*
X167934Y109571D01*
X167982Y109534D01*
X168073Y109494D01*
X168159Y109446D01*
X168218Y109431D01*
X168274Y109407D01*
X168372Y109392D01*
X168467Y109367D01*
X168567Y109361D01*
X168588Y109357D01*
X168600Y109359D01*
X168628Y109357D01*
X169506Y109357D01*
X169624Y109372D01*
G37*
G36*
X104474Y34814D02*
X104474Y34814D01*
X104593Y34821D01*
X104631Y34834D01*
X104672Y34839D01*
X104782Y34882D01*
X104895Y34919D01*
X104930Y34941D01*
X104967Y34956D01*
X105063Y35025D01*
X105164Y35089D01*
X105192Y35119D01*
X105225Y35142D01*
X105301Y35234D01*
X105382Y35321D01*
X105402Y35356D01*
X105427Y35387D01*
X105478Y35495D01*
X105536Y35599D01*
X105546Y35639D01*
X105563Y35675D01*
X105585Y35792D01*
X105615Y35907D01*
X105619Y35967D01*
X105623Y35987D01*
X105621Y36008D01*
X105625Y36068D01*
X105625Y37882D01*
X106518Y38775D01*
X108086Y38775D01*
X108204Y38790D01*
X108323Y38797D01*
X108361Y38810D01*
X108402Y38815D01*
X108512Y38858D01*
X108625Y38895D01*
X108660Y38917D01*
X108697Y38932D01*
X108793Y39001D01*
X108894Y39065D01*
X108922Y39095D01*
X108955Y39118D01*
X109031Y39210D01*
X109112Y39297D01*
X109132Y39332D01*
X109157Y39363D01*
X109208Y39471D01*
X109266Y39575D01*
X109276Y39615D01*
X109293Y39651D01*
X109315Y39768D01*
X109345Y39883D01*
X109349Y39943D01*
X109353Y39963D01*
X109351Y39984D01*
X109355Y40044D01*
X109355Y42506D01*
X109340Y42624D01*
X109333Y42743D01*
X109320Y42781D01*
X109315Y42822D01*
X109272Y42932D01*
X109235Y43045D01*
X109213Y43080D01*
X109198Y43117D01*
X109129Y43213D01*
X109065Y43314D01*
X109035Y43342D01*
X109012Y43375D01*
X108920Y43451D01*
X108833Y43532D01*
X108798Y43552D01*
X108767Y43577D01*
X108659Y43628D01*
X108555Y43686D01*
X108515Y43696D01*
X108479Y43713D01*
X108362Y43735D01*
X108247Y43765D01*
X108187Y43769D01*
X108167Y43773D01*
X108146Y43771D01*
X108086Y43775D01*
X106518Y43775D01*
X105625Y44668D01*
X105625Y56932D01*
X106518Y57825D01*
X118307Y57825D01*
X118414Y57838D01*
X118545Y57846D01*
X118551Y57848D01*
X118557Y57849D01*
X118593Y57861D01*
X118623Y57865D01*
X118720Y57903D01*
X118847Y57944D01*
X118853Y57948D01*
X118858Y57950D01*
X118891Y57971D01*
X118919Y57982D01*
X119002Y58042D01*
X119116Y58115D01*
X119120Y58119D01*
X119125Y58122D01*
X119152Y58151D01*
X119176Y58168D01*
X119242Y58248D01*
X119334Y58346D01*
X119337Y58351D01*
X119341Y58356D01*
X119360Y58391D01*
X119379Y58413D01*
X119423Y58508D01*
X119488Y58625D01*
X119489Y58631D01*
X119492Y58636D01*
X119501Y58674D01*
X119514Y58701D01*
X119534Y58805D01*
X119567Y58933D01*
X119568Y58941D01*
X119569Y58945D01*
X119568Y58954D01*
X119571Y58999D01*
X119574Y59013D01*
X119573Y59028D01*
X119577Y59093D01*
X119577Y61557D01*
X119561Y61686D01*
X119554Y61793D01*
X119545Y61822D01*
X119540Y61861D01*
X119538Y61866D01*
X119537Y61872D01*
X119489Y61996D01*
X119456Y62095D01*
X119440Y62121D01*
X119426Y62157D01*
X119423Y62162D01*
X119420Y62168D01*
X119342Y62277D01*
X119286Y62364D01*
X119265Y62384D01*
X119242Y62416D01*
X119237Y62420D01*
X119234Y62425D01*
X119130Y62511D01*
X119054Y62582D01*
X119029Y62596D01*
X118999Y62622D01*
X118993Y62624D01*
X118989Y62628D01*
X118867Y62685D01*
X118776Y62736D01*
X118747Y62743D01*
X118712Y62760D01*
X118706Y62761D01*
X118701Y62764D01*
X118571Y62789D01*
X118468Y62815D01*
X118424Y62818D01*
X118401Y62823D01*
X118394Y62822D01*
X118389Y62823D01*
X118362Y62822D01*
X118307Y62825D01*
X106518Y62825D01*
X105625Y63718D01*
X105625Y69986D01*
X105610Y70104D01*
X105603Y70223D01*
X105590Y70261D01*
X105585Y70302D01*
X105542Y70412D01*
X105505Y70525D01*
X105483Y70560D01*
X105468Y70597D01*
X105399Y70693D01*
X105335Y70794D01*
X105305Y70822D01*
X105282Y70855D01*
X105190Y70931D01*
X105103Y71012D01*
X105068Y71032D01*
X105037Y71057D01*
X104929Y71108D01*
X104825Y71166D01*
X104785Y71176D01*
X104749Y71193D01*
X104632Y71215D01*
X104517Y71245D01*
X104457Y71249D01*
X104437Y71253D01*
X104416Y71251D01*
X104356Y71255D01*
X97194Y71255D01*
X97076Y71240D01*
X96957Y71233D01*
X96919Y71220D01*
X96878Y71215D01*
X96768Y71172D01*
X96655Y71135D01*
X96620Y71113D01*
X96583Y71098D01*
X96487Y71029D01*
X96386Y70965D01*
X96358Y70935D01*
X96325Y70912D01*
X96249Y70820D01*
X96168Y70733D01*
X96148Y70698D01*
X96123Y70667D01*
X96072Y70559D01*
X96014Y70455D01*
X96004Y70415D01*
X95987Y70379D01*
X95965Y70262D01*
X95935Y70147D01*
X95931Y70087D01*
X95927Y70067D01*
X95929Y70046D01*
X95925Y69986D01*
X95925Y68418D01*
X95032Y67525D01*
X82768Y67525D01*
X81875Y68418D01*
X81875Y76597D01*
X81863Y76695D01*
X81860Y76794D01*
X81843Y76852D01*
X81835Y76912D01*
X81799Y77004D01*
X81771Y77099D01*
X81741Y77152D01*
X81718Y77208D01*
X81660Y77288D01*
X81610Y77373D01*
X81544Y77449D01*
X81532Y77465D01*
X81522Y77473D01*
X81504Y77494D01*
X79041Y79956D01*
X78932Y80041D01*
X78825Y80130D01*
X78806Y80139D01*
X78790Y80151D01*
X78662Y80207D01*
X78537Y80266D01*
X78517Y80269D01*
X78498Y80277D01*
X78360Y80299D01*
X78224Y80325D01*
X78204Y80324D01*
X78184Y80327D01*
X78045Y80314D01*
X77907Y80306D01*
X77888Y80299D01*
X77868Y80298D01*
X77736Y80250D01*
X77605Y80208D01*
X77587Y80197D01*
X77568Y80190D01*
X77453Y80112D01*
X77336Y80037D01*
X77322Y80023D01*
X77305Y80011D01*
X77213Y79907D01*
X77118Y79806D01*
X77108Y79788D01*
X77095Y79773D01*
X77031Y79649D01*
X76964Y79527D01*
X76959Y79508D01*
X76950Y79490D01*
X76920Y79354D01*
X76885Y79219D01*
X76883Y79191D01*
X76880Y79179D01*
X76881Y79159D01*
X76875Y79059D01*
X76875Y68418D01*
X75982Y67525D01*
X75751Y67525D01*
X75633Y67510D01*
X75514Y67503D01*
X75476Y67490D01*
X75435Y67485D01*
X75325Y67442D01*
X75212Y67405D01*
X75177Y67383D01*
X75140Y67368D01*
X75044Y67299D01*
X74943Y67235D01*
X74915Y67205D01*
X74882Y67182D01*
X74806Y67090D01*
X74725Y67003D01*
X74705Y66968D01*
X74680Y66937D01*
X74629Y66829D01*
X74571Y66725D01*
X74561Y66685D01*
X74544Y66649D01*
X74522Y66532D01*
X74492Y66417D01*
X74488Y66356D01*
X74484Y66337D01*
X74486Y66316D01*
X74482Y66256D01*
X74482Y60744D01*
X74497Y60626D01*
X74504Y60507D01*
X74517Y60469D01*
X74522Y60428D01*
X74565Y60318D01*
X74602Y60205D01*
X74624Y60170D01*
X74639Y60133D01*
X74708Y60037D01*
X74772Y59936D01*
X74802Y59908D01*
X74825Y59875D01*
X74917Y59799D01*
X75004Y59718D01*
X75039Y59698D01*
X75070Y59673D01*
X75178Y59622D01*
X75282Y59564D01*
X75322Y59554D01*
X75358Y59537D01*
X75475Y59515D01*
X75590Y59485D01*
X75650Y59481D01*
X75670Y59477D01*
X75691Y59479D01*
X75751Y59475D01*
X75982Y59475D01*
X76875Y58582D01*
X76875Y57268D01*
X76890Y57150D01*
X76897Y57031D01*
X76910Y56993D01*
X76915Y56952D01*
X76958Y56842D01*
X76995Y56729D01*
X77017Y56694D01*
X77032Y56657D01*
X77101Y56561D01*
X77165Y56460D01*
X77195Y56432D01*
X77218Y56399D01*
X77310Y56323D01*
X77397Y56242D01*
X77432Y56222D01*
X77463Y56197D01*
X77571Y56146D01*
X77675Y56088D01*
X77715Y56078D01*
X77751Y56061D01*
X77868Y56039D01*
X77983Y56009D01*
X78043Y56005D01*
X78063Y56001D01*
X78084Y56003D01*
X78144Y55999D01*
X81663Y55999D01*
X102491Y35170D01*
X102569Y35110D01*
X102641Y35042D01*
X102694Y35013D01*
X102742Y34976D01*
X102833Y34936D01*
X102920Y34888D01*
X102979Y34873D01*
X103034Y34849D01*
X103132Y34834D01*
X103228Y34809D01*
X103328Y34803D01*
X103348Y34799D01*
X103361Y34801D01*
X103389Y34799D01*
X104356Y34799D01*
X104474Y34814D01*
G37*
%LPC*%
G36*
X213618Y268175D02*
X213618Y268175D01*
X212725Y269068D01*
X212725Y271882D01*
X212722Y271902D01*
X212724Y271921D01*
X212702Y272023D01*
X212686Y272125D01*
X212676Y272142D01*
X212672Y272162D01*
X212619Y272251D01*
X212570Y272342D01*
X212556Y272356D01*
X212546Y272373D01*
X212467Y272440D01*
X212392Y272512D01*
X212374Y272520D01*
X212359Y272533D01*
X212263Y272572D01*
X212169Y272615D01*
X212149Y272617D01*
X212131Y272625D01*
X211964Y272643D01*
X208077Y272643D01*
X207068Y273652D01*
X206994Y273705D01*
X206924Y273765D01*
X206894Y273777D01*
X206868Y273796D01*
X206781Y273823D01*
X206696Y273857D01*
X206655Y273861D01*
X206633Y273868D01*
X206601Y273867D01*
X206529Y273875D01*
X175368Y273875D01*
X174475Y274768D01*
X174475Y284032D01*
X175368Y284925D01*
X211632Y284925D01*
X212437Y284120D01*
X212453Y284108D01*
X212465Y284092D01*
X212553Y284036D01*
X212636Y283976D01*
X212655Y283970D01*
X212672Y283959D01*
X212773Y283934D01*
X212872Y283904D01*
X212892Y283904D01*
X212911Y283899D01*
X213014Y283907D01*
X213117Y283910D01*
X213136Y283917D01*
X213156Y283918D01*
X213251Y283959D01*
X213348Y283994D01*
X213364Y284007D01*
X213382Y284015D01*
X213513Y284120D01*
X213618Y284225D01*
X230882Y284225D01*
X231775Y283332D01*
X231775Y269068D01*
X230882Y268175D01*
X213618Y268175D01*
G37*
%LPD*%
G36*
X78585Y143099D02*
X78585Y143099D01*
X78723Y143108D01*
X78742Y143114D01*
X78762Y143116D01*
X78894Y143163D01*
X79025Y143206D01*
X79043Y143217D01*
X79062Y143223D01*
X79177Y143302D01*
X79294Y143376D01*
X79308Y143391D01*
X79325Y143402D01*
X79417Y143506D01*
X79512Y143608D01*
X79522Y143625D01*
X79535Y143640D01*
X79599Y143765D01*
X79666Y143886D01*
X79671Y143906D01*
X79680Y143924D01*
X79710Y144060D01*
X79745Y144194D01*
X79747Y144222D01*
X79750Y144234D01*
X79749Y144255D01*
X79755Y144355D01*
X79755Y169176D01*
X79743Y169274D01*
X79740Y169373D01*
X79723Y169431D01*
X79715Y169491D01*
X79679Y169583D01*
X79651Y169679D01*
X79621Y169731D01*
X79598Y169787D01*
X79540Y169867D01*
X79490Y169952D01*
X79424Y170028D01*
X79412Y170044D01*
X79402Y170052D01*
X79384Y170073D01*
X76707Y172750D01*
X76707Y174107D01*
X76698Y174176D01*
X76700Y174247D01*
X76679Y174333D01*
X76667Y174422D01*
X76642Y174488D01*
X76625Y174556D01*
X76583Y174635D01*
X76550Y174718D01*
X76509Y174775D01*
X76476Y174837D01*
X76416Y174903D01*
X76364Y174975D01*
X76310Y175020D01*
X76262Y175072D01*
X76187Y175121D01*
X76119Y175178D01*
X76055Y175208D01*
X75996Y175247D01*
X75912Y175276D01*
X75831Y175314D01*
X75762Y175327D01*
X75696Y175350D01*
X75606Y175357D01*
X75519Y175373D01*
X75448Y175369D01*
X75379Y175375D01*
X75290Y175359D01*
X75201Y175354D01*
X75134Y175332D01*
X75065Y175320D01*
X74984Y175283D01*
X74899Y175256D01*
X74839Y175218D01*
X74775Y175189D01*
X74706Y175133D01*
X74630Y175086D01*
X74582Y175034D01*
X74527Y174991D01*
X74473Y174919D01*
X74462Y174907D01*
X72856Y173301D01*
X70906Y172493D01*
X70099Y172493D01*
X70001Y172481D01*
X69902Y172478D01*
X69844Y172461D01*
X69783Y172453D01*
X69691Y172417D01*
X69596Y172389D01*
X69544Y172359D01*
X69488Y172336D01*
X69408Y172278D01*
X69322Y172228D01*
X69247Y172162D01*
X69230Y172150D01*
X69223Y172140D01*
X69201Y172122D01*
X61078Y163999D01*
X61018Y163920D01*
X60950Y163848D01*
X60921Y163795D01*
X60884Y163747D01*
X60844Y163656D01*
X60796Y163570D01*
X60781Y163511D01*
X60757Y163455D01*
X60742Y163357D01*
X60717Y163262D01*
X60711Y163162D01*
X60707Y163141D01*
X60709Y163129D01*
X60707Y163101D01*
X60707Y145117D01*
X60724Y144979D01*
X60737Y144840D01*
X60744Y144821D01*
X60747Y144801D01*
X60798Y144672D01*
X60845Y144541D01*
X60856Y144524D01*
X60864Y144505D01*
X60945Y144393D01*
X61023Y144278D01*
X61039Y144265D01*
X61050Y144248D01*
X61158Y144159D01*
X61262Y144067D01*
X61280Y144058D01*
X61295Y144045D01*
X61421Y143986D01*
X61545Y143923D01*
X61565Y143918D01*
X61583Y143910D01*
X61719Y143884D01*
X61855Y143853D01*
X61876Y143854D01*
X61895Y143850D01*
X62034Y143859D01*
X62173Y143863D01*
X62193Y143869D01*
X62213Y143870D01*
X62345Y143913D01*
X62479Y143951D01*
X62496Y143962D01*
X62515Y143968D01*
X62633Y144042D01*
X62753Y144113D01*
X62774Y144131D01*
X62784Y144138D01*
X62798Y144153D01*
X62873Y144219D01*
X66483Y147829D01*
X73217Y147829D01*
X77589Y143457D01*
X77698Y143372D01*
X77805Y143283D01*
X77824Y143275D01*
X77840Y143262D01*
X77968Y143207D01*
X78093Y143148D01*
X78113Y143144D01*
X78132Y143136D01*
X78270Y143114D01*
X78406Y143088D01*
X78426Y143089D01*
X78446Y143086D01*
X78585Y143099D01*
G37*
G36*
X146699Y119130D02*
X146699Y119130D01*
X146838Y119143D01*
X146857Y119150D01*
X146877Y119153D01*
X147007Y119204D01*
X147137Y119251D01*
X147154Y119262D01*
X147173Y119270D01*
X147285Y119351D01*
X147400Y119429D01*
X147414Y119445D01*
X147430Y119456D01*
X147519Y119564D01*
X147611Y119668D01*
X147620Y119686D01*
X147633Y119701D01*
X147692Y119827D01*
X147755Y119951D01*
X147760Y119971D01*
X147768Y119989D01*
X147794Y120125D01*
X147825Y120261D01*
X147824Y120282D01*
X147828Y120301D01*
X147820Y120440D01*
X147815Y120579D01*
X147810Y120599D01*
X147808Y120619D01*
X147766Y120751D01*
X147727Y120885D01*
X147717Y120902D01*
X147710Y120921D01*
X147636Y121039D01*
X147565Y121159D01*
X147547Y121180D01*
X147540Y121190D01*
X147525Y121204D01*
X147459Y121279D01*
X146736Y122003D01*
X136651Y132087D01*
X136651Y139367D01*
X136639Y139465D01*
X136636Y139564D01*
X136619Y139622D01*
X136611Y139682D01*
X136575Y139774D01*
X136547Y139869D01*
X136517Y139922D01*
X136494Y139978D01*
X136436Y140058D01*
X136386Y140143D01*
X136320Y140219D01*
X136308Y140235D01*
X136298Y140243D01*
X136280Y140264D01*
X135175Y141368D01*
X135175Y164632D01*
X136211Y165667D01*
X136247Y165682D01*
X136343Y165751D01*
X136444Y165815D01*
X136472Y165845D01*
X136505Y165868D01*
X136581Y165960D01*
X136662Y166047D01*
X136682Y166082D01*
X136707Y166113D01*
X136758Y166221D01*
X136816Y166325D01*
X136826Y166365D01*
X136843Y166401D01*
X136865Y166518D01*
X136895Y166633D01*
X136899Y166693D01*
X136903Y166713D01*
X136901Y166734D01*
X136905Y166794D01*
X136905Y173967D01*
X136893Y174065D01*
X136890Y174164D01*
X136873Y174222D01*
X136865Y174282D01*
X136829Y174374D01*
X136801Y174469D01*
X136771Y174522D01*
X136748Y174578D01*
X136690Y174658D01*
X136640Y174743D01*
X136574Y174819D01*
X136562Y174835D01*
X136552Y174843D01*
X136534Y174864D01*
X136294Y175104D01*
X136216Y175164D01*
X136144Y175232D01*
X136091Y175261D01*
X136043Y175298D01*
X135952Y175338D01*
X135865Y175386D01*
X135807Y175401D01*
X135751Y175425D01*
X135653Y175440D01*
X135557Y175465D01*
X135457Y175471D01*
X135437Y175475D01*
X135425Y175473D01*
X135397Y175475D01*
X127841Y175475D01*
X127703Y175458D01*
X127565Y175445D01*
X127546Y175438D01*
X127526Y175435D01*
X127397Y175384D01*
X127266Y175337D01*
X127249Y175326D01*
X127230Y175318D01*
X127118Y175237D01*
X127003Y175159D01*
X126989Y175143D01*
X126973Y175132D01*
X126884Y175024D01*
X126792Y174920D01*
X126783Y174902D01*
X126770Y174887D01*
X126711Y174761D01*
X126647Y174637D01*
X126643Y174617D01*
X126634Y174599D01*
X126608Y174462D01*
X126578Y174327D01*
X126578Y174306D01*
X126575Y174287D01*
X126583Y174148D01*
X126587Y174009D01*
X126593Y173989D01*
X126594Y173969D01*
X126637Y173837D01*
X126676Y173703D01*
X126686Y173686D01*
X126692Y173667D01*
X126767Y173549D01*
X126837Y173429D01*
X126856Y173408D01*
X126863Y173398D01*
X126878Y173384D01*
X126944Y173309D01*
X127786Y172467D01*
X127786Y172466D01*
X129795Y170458D01*
X129795Y166794D01*
X129810Y166676D01*
X129817Y166557D01*
X129830Y166519D01*
X129835Y166478D01*
X129878Y166368D01*
X129915Y166255D01*
X129937Y166220D01*
X129952Y166183D01*
X130021Y166087D01*
X130085Y165986D01*
X130115Y165958D01*
X130138Y165925D01*
X130230Y165849D01*
X130317Y165768D01*
X130352Y165748D01*
X130383Y165723D01*
X130478Y165678D01*
X131525Y164632D01*
X131525Y141368D01*
X130928Y140772D01*
X130868Y140694D01*
X130800Y140622D01*
X130771Y140569D01*
X130734Y140521D01*
X130694Y140430D01*
X130646Y140343D01*
X130631Y140285D01*
X130607Y140229D01*
X130592Y140131D01*
X130567Y140035D01*
X130561Y139935D01*
X130557Y139915D01*
X130559Y139903D01*
X130557Y139875D01*
X130557Y122649D01*
X130569Y122551D01*
X130572Y122452D01*
X130589Y122394D01*
X130597Y122333D01*
X130633Y122241D01*
X130661Y122146D01*
X130691Y122094D01*
X130714Y122038D01*
X130772Y121958D01*
X130822Y121872D01*
X130888Y121797D01*
X130900Y121780D01*
X130910Y121773D01*
X130928Y121751D01*
X133195Y119484D01*
X133274Y119424D01*
X133346Y119356D01*
X133399Y119327D01*
X133447Y119290D01*
X133538Y119250D01*
X133624Y119202D01*
X133683Y119187D01*
X133739Y119163D01*
X133837Y119148D01*
X133932Y119123D01*
X134032Y119117D01*
X134053Y119113D01*
X134065Y119115D01*
X134093Y119113D01*
X146561Y119113D01*
X146699Y119130D01*
G37*
G36*
X136603Y75669D02*
X136603Y75669D01*
X136722Y75672D01*
X136761Y75684D01*
X136801Y75687D01*
X136914Y75728D01*
X137028Y75761D01*
X137062Y75781D01*
X137101Y75795D01*
X137199Y75862D01*
X137302Y75922D01*
X137347Y75962D01*
X137364Y75974D01*
X137377Y75989D01*
X137422Y76029D01*
X138268Y76875D01*
X140344Y76875D01*
X140462Y76890D01*
X140581Y76897D01*
X140619Y76910D01*
X140660Y76915D01*
X140770Y76958D01*
X140883Y76995D01*
X140918Y77017D01*
X140955Y77032D01*
X141051Y77101D01*
X141152Y77165D01*
X141180Y77195D01*
X141213Y77218D01*
X141289Y77310D01*
X141370Y77397D01*
X141390Y77432D01*
X141415Y77463D01*
X141466Y77571D01*
X141524Y77675D01*
X141534Y77715D01*
X141551Y77751D01*
X141573Y77868D01*
X141603Y77983D01*
X141607Y78043D01*
X141611Y78063D01*
X141609Y78084D01*
X141613Y78144D01*
X141613Y83227D01*
X141601Y83325D01*
X141598Y83424D01*
X141581Y83482D01*
X141573Y83543D01*
X141537Y83635D01*
X141509Y83730D01*
X141479Y83782D01*
X141456Y83838D01*
X141398Y83918D01*
X141348Y84004D01*
X141282Y84079D01*
X141270Y84096D01*
X141260Y84103D01*
X141242Y84125D01*
X139125Y86242D01*
X137263Y88104D01*
X137184Y88164D01*
X137112Y88232D01*
X137059Y88261D01*
X137011Y88298D01*
X136920Y88338D01*
X136834Y88386D01*
X136775Y88401D01*
X136719Y88425D01*
X136621Y88440D01*
X136526Y88465D01*
X136426Y88471D01*
X136405Y88475D01*
X136393Y88473D01*
X136365Y88475D01*
X136068Y88475D01*
X135175Y89368D01*
X135175Y110730D01*
X135160Y110848D01*
X135153Y110967D01*
X135140Y111005D01*
X135135Y111046D01*
X135092Y111156D01*
X135055Y111269D01*
X135033Y111304D01*
X135018Y111341D01*
X134949Y111437D01*
X134885Y111538D01*
X134855Y111566D01*
X134832Y111599D01*
X134740Y111675D01*
X134653Y111756D01*
X134618Y111776D01*
X134587Y111801D01*
X134479Y111852D01*
X134375Y111910D01*
X134335Y111920D01*
X134299Y111937D01*
X134182Y111959D01*
X134067Y111989D01*
X134007Y111993D01*
X133987Y111997D01*
X133966Y111995D01*
X133906Y111999D01*
X132794Y111999D01*
X132676Y111984D01*
X132557Y111977D01*
X132519Y111964D01*
X132478Y111959D01*
X132368Y111916D01*
X132255Y111879D01*
X132220Y111857D01*
X132183Y111842D01*
X132087Y111773D01*
X131986Y111709D01*
X131958Y111679D01*
X131925Y111656D01*
X131849Y111564D01*
X131768Y111477D01*
X131748Y111442D01*
X131723Y111411D01*
X131672Y111303D01*
X131614Y111199D01*
X131604Y111159D01*
X131587Y111123D01*
X131565Y111006D01*
X131535Y110891D01*
X131531Y110831D01*
X131527Y110811D01*
X131529Y110790D01*
X131525Y110730D01*
X131525Y89368D01*
X130632Y88475D01*
X130556Y88475D01*
X130438Y88460D01*
X130319Y88453D01*
X130281Y88440D01*
X130240Y88435D01*
X130130Y88392D01*
X130017Y88355D01*
X129982Y88333D01*
X129945Y88318D01*
X129849Y88249D01*
X129748Y88185D01*
X129720Y88155D01*
X129687Y88132D01*
X129611Y88040D01*
X129530Y87953D01*
X129510Y87918D01*
X129485Y87887D01*
X129434Y87779D01*
X129376Y87675D01*
X129366Y87635D01*
X129349Y87599D01*
X129327Y87482D01*
X129297Y87367D01*
X129293Y87307D01*
X129289Y87287D01*
X129291Y87266D01*
X129287Y87206D01*
X129287Y80486D01*
X127843Y79041D01*
X127757Y78931D01*
X127669Y78825D01*
X127660Y78806D01*
X127648Y78790D01*
X127592Y78662D01*
X127533Y78537D01*
X127529Y78517D01*
X127521Y78498D01*
X127499Y78360D01*
X127473Y78224D01*
X127475Y78204D01*
X127471Y78184D01*
X127484Y78045D01*
X127493Y77907D01*
X127499Y77888D01*
X127501Y77868D01*
X127548Y77736D01*
X127591Y77605D01*
X127602Y77587D01*
X127609Y77568D01*
X127687Y77453D01*
X127761Y77336D01*
X127776Y77322D01*
X127787Y77305D01*
X127892Y77213D01*
X127993Y77118D01*
X128011Y77108D01*
X128026Y77095D01*
X128150Y77031D01*
X128271Y76964D01*
X128291Y76959D01*
X128309Y76950D01*
X128445Y76920D01*
X128579Y76885D01*
X128607Y76883D01*
X128619Y76880D01*
X128640Y76881D01*
X128740Y76875D01*
X134782Y76875D01*
X135627Y76029D01*
X135721Y75956D01*
X135811Y75877D01*
X135847Y75859D01*
X135879Y75834D01*
X135988Y75787D01*
X136094Y75732D01*
X136133Y75724D01*
X136171Y75708D01*
X136288Y75689D01*
X136404Y75663D01*
X136445Y75664D01*
X136485Y75658D01*
X136603Y75669D01*
G37*
%LPC*%
G36*
X278759Y218439D02*
X278759Y218439D01*
X278759Y226061D01*
X284640Y226061D01*
X286219Y225811D01*
X287740Y225316D01*
X289165Y224590D01*
X290459Y223650D01*
X291590Y222519D01*
X292530Y221225D01*
X293256Y219800D01*
X293699Y218439D01*
X278759Y218439D01*
G37*
%LPD*%
%LPC*%
G36*
X27939Y129539D02*
X27939Y129539D01*
X27939Y137161D01*
X33820Y137161D01*
X35399Y136911D01*
X36920Y136416D01*
X38345Y135690D01*
X39639Y134750D01*
X40770Y133619D01*
X41710Y132325D01*
X42436Y130900D01*
X42879Y129539D01*
X27939Y129539D01*
G37*
%LPD*%
%LPC*%
G36*
X258741Y218439D02*
X258741Y218439D01*
X259184Y219800D01*
X259910Y221225D01*
X260850Y222519D01*
X261981Y223650D01*
X263275Y224590D01*
X264700Y225316D01*
X266221Y225811D01*
X267800Y226061D01*
X273681Y226061D01*
X273681Y218439D01*
X258741Y218439D01*
G37*
%LPD*%
%LPC*%
G36*
X7921Y129539D02*
X7921Y129539D01*
X8364Y130900D01*
X9090Y132325D01*
X10030Y133619D01*
X11161Y134750D01*
X12455Y135690D01*
X13880Y136416D01*
X15401Y136911D01*
X16980Y137161D01*
X22861Y137161D01*
X22861Y129539D01*
X7921Y129539D01*
G37*
%LPD*%
%LPC*%
G36*
X278759Y205739D02*
X278759Y205739D01*
X278759Y213361D01*
X293699Y213361D01*
X293256Y212000D01*
X292530Y210575D01*
X291590Y209281D01*
X290459Y208150D01*
X289165Y207210D01*
X287740Y206484D01*
X286219Y205989D01*
X284640Y205739D01*
X278759Y205739D01*
G37*
%LPD*%
%LPC*%
G36*
X27939Y116839D02*
X27939Y116839D01*
X27939Y124461D01*
X42879Y124461D01*
X42436Y123100D01*
X41710Y121675D01*
X40770Y120381D01*
X39639Y119250D01*
X38345Y118310D01*
X36920Y117584D01*
X35399Y117089D01*
X33820Y116839D01*
X27939Y116839D01*
G37*
%LPD*%
%LPC*%
G36*
X267800Y205739D02*
X267800Y205739D01*
X266221Y205989D01*
X264700Y206484D01*
X263275Y207210D01*
X261981Y208150D01*
X260850Y209281D01*
X259910Y210575D01*
X259184Y212000D01*
X258741Y213361D01*
X273681Y213361D01*
X273681Y205739D01*
X267800Y205739D01*
G37*
%LPD*%
%LPC*%
G36*
X16980Y116839D02*
X16980Y116839D01*
X15401Y117089D01*
X13880Y117584D01*
X12455Y118310D01*
X11161Y119250D01*
X10030Y120381D01*
X9090Y121675D01*
X8364Y123100D01*
X7921Y124461D01*
X22861Y124461D01*
X22861Y116839D01*
X16980Y116839D01*
G37*
%LPD*%
%LPC*%
G36*
X27431Y21081D02*
X27431Y21081D01*
X27431Y28195D01*
X32724Y28195D01*
X34145Y27970D01*
X35514Y27525D01*
X36797Y26871D01*
X37961Y26025D01*
X38979Y25007D01*
X39825Y23843D01*
X40479Y22560D01*
X40924Y21191D01*
X40941Y21081D01*
X27431Y21081D01*
G37*
%LPD*%
%LPC*%
G36*
X9859Y21081D02*
X9859Y21081D01*
X9876Y21191D01*
X10321Y22560D01*
X10975Y23843D01*
X11821Y25007D01*
X12839Y26025D01*
X14003Y26871D01*
X15286Y27525D01*
X16655Y27970D01*
X18076Y28195D01*
X23369Y28195D01*
X23369Y21081D01*
X9859Y21081D01*
G37*
%LPD*%
%LPC*%
G36*
X27431Y9905D02*
X27431Y9905D01*
X27431Y17019D01*
X40941Y17019D01*
X40924Y16909D01*
X40479Y15540D01*
X39825Y14257D01*
X38979Y13093D01*
X37961Y12075D01*
X36797Y11229D01*
X35514Y10575D01*
X34145Y10130D01*
X32724Y9905D01*
X27431Y9905D01*
G37*
%LPD*%
%LPC*%
G36*
X18076Y9905D02*
X18076Y9905D01*
X16655Y10130D01*
X15286Y10575D01*
X14003Y11229D01*
X12839Y12075D01*
X11821Y13093D01*
X10975Y14257D01*
X10321Y15540D01*
X9876Y16909D01*
X9859Y17019D01*
X23369Y17019D01*
X23369Y9905D01*
X18076Y9905D01*
G37*
%LPD*%
%LPC*%
G36*
X249149Y217999D02*
X249149Y217999D01*
X249149Y230041D01*
X250984Y230041D01*
X251631Y229868D01*
X252210Y229533D01*
X252683Y229060D01*
X253018Y228481D01*
X253191Y227834D01*
X253191Y217999D01*
X249149Y217999D01*
G37*
%LPD*%
%LPC*%
G36*
X153899Y87459D02*
X153899Y87459D01*
X153899Y99501D01*
X157941Y99501D01*
X157941Y89666D01*
X157768Y89019D01*
X157433Y88440D01*
X156960Y87967D01*
X156381Y87632D01*
X155734Y87459D01*
X153899Y87459D01*
G37*
%LPD*%
%LPC*%
G36*
X249149Y202959D02*
X249149Y202959D01*
X249149Y215001D01*
X253191Y215001D01*
X253191Y205166D01*
X253018Y204519D01*
X252683Y203940D01*
X252210Y203467D01*
X251631Y203132D01*
X250984Y202959D01*
X249149Y202959D01*
G37*
%LPD*%
%LPC*%
G36*
X249149Y150959D02*
X249149Y150959D01*
X249149Y163001D01*
X253191Y163001D01*
X253191Y153166D01*
X253018Y152519D01*
X252683Y151940D01*
X252210Y151467D01*
X251631Y151132D01*
X250984Y150959D01*
X249149Y150959D01*
G37*
%LPD*%
%LPC*%
G36*
X242109Y217999D02*
X242109Y217999D01*
X242109Y227834D01*
X242282Y228481D01*
X242617Y229060D01*
X243090Y229533D01*
X243669Y229868D01*
X244316Y230041D01*
X246151Y230041D01*
X246151Y217999D01*
X242109Y217999D01*
G37*
%LPD*%
%LPC*%
G36*
X244316Y150959D02*
X244316Y150959D01*
X243669Y151132D01*
X243090Y151467D01*
X242617Y151940D01*
X242282Y152519D01*
X242109Y153166D01*
X242109Y163001D01*
X246151Y163001D01*
X246151Y150959D01*
X244316Y150959D01*
G37*
%LPD*%
%LPC*%
G36*
X149066Y87459D02*
X149066Y87459D01*
X148419Y87632D01*
X147840Y87967D01*
X147367Y88440D01*
X147032Y89019D01*
X146859Y89666D01*
X146859Y99501D01*
X150901Y99501D01*
X150901Y87459D01*
X149066Y87459D01*
G37*
%LPD*%
%LPC*%
G36*
X244316Y202959D02*
X244316Y202959D01*
X243669Y203132D01*
X243090Y203467D01*
X242617Y203940D01*
X242282Y204519D01*
X242109Y205166D01*
X242109Y215001D01*
X246151Y215001D01*
X246151Y202959D01*
X244316Y202959D01*
G37*
%LPD*%
%LPC*%
G36*
X40131Y179831D02*
X40131Y179831D01*
X40131Y186945D01*
X41888Y186945D01*
X47245Y181588D01*
X47245Y179831D01*
X40131Y179831D01*
G37*
%LPD*%
%LPC*%
G36*
X275081Y84581D02*
X275081Y84581D01*
X275081Y91695D01*
X276838Y91695D01*
X282195Y86338D01*
X282195Y84581D01*
X275081Y84581D01*
G37*
%LPD*%
%LPC*%
G36*
X205231Y78231D02*
X205231Y78231D01*
X205231Y85345D01*
X206988Y85345D01*
X212345Y79988D01*
X212345Y78231D01*
X205231Y78231D01*
G37*
%LPD*%
%LPC*%
G36*
X279844Y21081D02*
X279844Y21081D01*
X279844Y28195D01*
X281600Y28195D01*
X286957Y22838D01*
X286957Y21081D01*
X279844Y21081D01*
G37*
%LPD*%
%LPC*%
G36*
X275081Y122681D02*
X275081Y122681D01*
X275081Y129795D01*
X276838Y129795D01*
X282195Y124438D01*
X282195Y122681D01*
X275081Y122681D01*
G37*
%LPD*%
%LPC*%
G36*
X268668Y21081D02*
X268668Y21081D01*
X268668Y22838D01*
X274025Y28195D01*
X275781Y28195D01*
X275781Y21081D01*
X268668Y21081D01*
G37*
%LPD*%
%LPC*%
G36*
X263905Y122681D02*
X263905Y122681D01*
X263905Y124438D01*
X269262Y129795D01*
X271019Y129795D01*
X271019Y122681D01*
X263905Y122681D01*
G37*
%LPD*%
%LPC*%
G36*
X28955Y179831D02*
X28955Y179831D01*
X28955Y181588D01*
X34312Y186945D01*
X36069Y186945D01*
X36069Y179831D01*
X28955Y179831D01*
G37*
%LPD*%
%LPC*%
G36*
X194055Y78231D02*
X194055Y78231D01*
X194055Y79988D01*
X199412Y85345D01*
X201169Y85345D01*
X201169Y78231D01*
X194055Y78231D01*
G37*
%LPD*%
%LPC*%
G36*
X263905Y84581D02*
X263905Y84581D01*
X263905Y86338D01*
X269262Y91695D01*
X271019Y91695D01*
X271019Y84581D01*
X263905Y84581D01*
G37*
%LPD*%
%LPC*%
G36*
X40131Y168655D02*
X40131Y168655D01*
X40131Y175769D01*
X47245Y175769D01*
X47245Y174012D01*
X41888Y168655D01*
X40131Y168655D01*
G37*
%LPD*%
%LPC*%
G36*
X275081Y111505D02*
X275081Y111505D01*
X275081Y118619D01*
X282195Y118619D01*
X282195Y116862D01*
X276838Y111505D01*
X275081Y111505D01*
G37*
%LPD*%
%LPC*%
G36*
X275081Y73405D02*
X275081Y73405D01*
X275081Y80519D01*
X282195Y80519D01*
X282195Y78762D01*
X276838Y73405D01*
X275081Y73405D01*
G37*
%LPD*%
%LPC*%
G36*
X205231Y67055D02*
X205231Y67055D01*
X205231Y74169D01*
X212345Y74169D01*
X212345Y72412D01*
X206988Y67055D01*
X205231Y67055D01*
G37*
%LPD*%
%LPC*%
G36*
X279844Y9905D02*
X279844Y9905D01*
X279844Y17019D01*
X286957Y17019D01*
X286957Y15262D01*
X281600Y9905D01*
X279844Y9905D01*
G37*
%LPD*%
%LPC*%
G36*
X269262Y111505D02*
X269262Y111505D01*
X263905Y116862D01*
X263905Y118619D01*
X271019Y118619D01*
X271019Y111505D01*
X269262Y111505D01*
G37*
%LPD*%
%LPC*%
G36*
X199412Y67055D02*
X199412Y67055D01*
X194055Y72412D01*
X194055Y74169D01*
X201169Y74169D01*
X201169Y67055D01*
X199412Y67055D01*
G37*
%LPD*%
%LPC*%
G36*
X34312Y168655D02*
X34312Y168655D01*
X28955Y174012D01*
X28955Y175769D01*
X36069Y175769D01*
X36069Y168655D01*
X34312Y168655D01*
G37*
%LPD*%
%LPC*%
G36*
X269262Y73405D02*
X269262Y73405D01*
X263905Y78762D01*
X263905Y80519D01*
X271019Y80519D01*
X271019Y73405D01*
X269262Y73405D01*
G37*
%LPD*%
%LPC*%
G36*
X274025Y9905D02*
X274025Y9905D01*
X268668Y15262D01*
X268668Y17019D01*
X275781Y17019D01*
X275781Y9905D01*
X274025Y9905D01*
G37*
%LPD*%
%LPC*%
G36*
X154899Y201499D02*
X154899Y201499D01*
X154899Y206541D01*
X158234Y206541D01*
X158881Y206368D01*
X159460Y206033D01*
X159933Y205560D01*
X160268Y204981D01*
X160441Y204334D01*
X160441Y201499D01*
X154899Y201499D01*
G37*
%LPD*%
%LPC*%
G36*
X163399Y72349D02*
X163399Y72349D01*
X163399Y77891D01*
X166234Y77891D01*
X166881Y77718D01*
X167460Y77383D01*
X167933Y76910D01*
X168268Y76331D01*
X168441Y75684D01*
X168441Y72349D01*
X163399Y72349D01*
G37*
%LPD*%
%LPC*%
G36*
X163399Y61809D02*
X163399Y61809D01*
X163399Y67351D01*
X168441Y67351D01*
X168441Y64016D01*
X168268Y63369D01*
X167933Y62790D01*
X167460Y62317D01*
X166881Y61982D01*
X166234Y61809D01*
X163399Y61809D01*
G37*
%LPD*%
%LPC*%
G36*
X199349Y98259D02*
X199349Y98259D01*
X199349Y103301D01*
X204891Y103301D01*
X204891Y100466D01*
X204718Y99819D01*
X204383Y99240D01*
X203910Y98767D01*
X203331Y98432D01*
X202684Y98259D01*
X199349Y98259D01*
G37*
%LPD*%
%LPC*%
G36*
X153359Y72349D02*
X153359Y72349D01*
X153359Y75684D01*
X153532Y76331D01*
X153867Y76910D01*
X154340Y77383D01*
X154919Y77718D01*
X155566Y77891D01*
X158401Y77891D01*
X158401Y72349D01*
X153359Y72349D01*
G37*
%LPD*%
%LPC*%
G36*
X155566Y61809D02*
X155566Y61809D01*
X154919Y61982D01*
X154340Y62317D01*
X153867Y62790D01*
X153532Y63369D01*
X153359Y64016D01*
X153359Y67351D01*
X158401Y67351D01*
X158401Y61809D01*
X155566Y61809D01*
G37*
%LPD*%
%LPC*%
G36*
X191016Y98259D02*
X191016Y98259D01*
X190369Y98432D01*
X189790Y98767D01*
X189317Y99240D01*
X188982Y99819D01*
X188809Y100466D01*
X188809Y103301D01*
X194351Y103301D01*
X194351Y98259D01*
X191016Y98259D01*
G37*
%LPD*%
%LPC*%
G36*
X184999Y160749D02*
X184999Y160749D01*
X184999Y165291D01*
X187334Y165291D01*
X187981Y165118D01*
X188560Y164783D01*
X189033Y164310D01*
X189368Y163731D01*
X189541Y163084D01*
X189541Y160749D01*
X184999Y160749D01*
G37*
%LPD*%
%LPC*%
G36*
X184999Y156751D02*
X184999Y156751D01*
X189541Y156751D01*
X189541Y154416D01*
X189368Y153769D01*
X189033Y153190D01*
X188560Y152717D01*
X187981Y152382D01*
X187334Y152209D01*
X184999Y152209D01*
X184999Y156751D01*
G37*
%LPD*%
%LPC*%
G36*
X178666Y152209D02*
X178666Y152209D01*
X178019Y152382D01*
X177440Y152717D01*
X176967Y153190D01*
X176632Y153769D01*
X176459Y154416D01*
X176459Y156751D01*
X181001Y156751D01*
X181001Y152209D01*
X178666Y152209D01*
G37*
%LPD*%
%LPC*%
G36*
X276219Y215899D02*
X276219Y215899D01*
X276219Y215901D01*
X276221Y215901D01*
X276221Y215899D01*
X276219Y215899D01*
G37*
%LPD*%
%LPC*%
G36*
X25399Y126999D02*
X25399Y126999D01*
X25399Y127001D01*
X25401Y127001D01*
X25401Y126999D01*
X25399Y126999D01*
G37*
%LPD*%
D10*
X9088Y231648D02*
X7846Y231648D01*
X7776Y231650D01*
X7707Y231656D01*
X7638Y231666D01*
X7570Y231679D01*
X7502Y231697D01*
X7436Y231718D01*
X7371Y231743D01*
X7307Y231771D01*
X7245Y231803D01*
X7185Y231838D01*
X7127Y231877D01*
X7072Y231919D01*
X7018Y231964D01*
X6968Y232012D01*
X6920Y232062D01*
X6875Y232116D01*
X6833Y232171D01*
X6794Y232229D01*
X6759Y232289D01*
X6727Y232351D01*
X6699Y232415D01*
X6674Y232480D01*
X6653Y232546D01*
X6635Y232614D01*
X6622Y232682D01*
X6612Y232751D01*
X6606Y232820D01*
X6604Y232890D01*
X6604Y235994D01*
X6606Y236064D01*
X6612Y236133D01*
X6622Y236202D01*
X6635Y236270D01*
X6653Y236338D01*
X6674Y236404D01*
X6699Y236469D01*
X6727Y236533D01*
X6759Y236595D01*
X6794Y236655D01*
X6833Y236713D01*
X6875Y236768D01*
X6920Y236822D01*
X6968Y236872D01*
X7018Y236920D01*
X7072Y236965D01*
X7127Y237007D01*
X7185Y237046D01*
X7245Y237081D01*
X7307Y237113D01*
X7371Y237141D01*
X7436Y237166D01*
X7502Y237187D01*
X7570Y237205D01*
X7638Y237218D01*
X7707Y237228D01*
X7776Y237234D01*
X7846Y237236D01*
X9088Y237236D01*
X13548Y234752D02*
X14480Y234752D01*
X14480Y231648D01*
X12617Y231648D01*
X12547Y231650D01*
X12478Y231656D01*
X12409Y231666D01*
X12341Y231679D01*
X12273Y231697D01*
X12207Y231718D01*
X12142Y231743D01*
X12078Y231771D01*
X12016Y231803D01*
X11956Y231838D01*
X11898Y231877D01*
X11843Y231919D01*
X11789Y231964D01*
X11739Y232012D01*
X11691Y232062D01*
X11646Y232116D01*
X11604Y232171D01*
X11565Y232229D01*
X11530Y232289D01*
X11498Y232351D01*
X11470Y232415D01*
X11445Y232480D01*
X11424Y232546D01*
X11406Y232614D01*
X11393Y232682D01*
X11383Y232751D01*
X11377Y232820D01*
X11375Y232890D01*
X11375Y235994D01*
X11377Y236064D01*
X11383Y236133D01*
X11393Y236202D01*
X11406Y236270D01*
X11424Y236338D01*
X11445Y236404D01*
X11470Y236469D01*
X11498Y236533D01*
X11530Y236595D01*
X11565Y236655D01*
X11604Y236713D01*
X11646Y236768D01*
X11691Y236822D01*
X11739Y236872D01*
X11789Y236920D01*
X11843Y236965D01*
X11898Y237007D01*
X11956Y237046D01*
X12016Y237081D01*
X12078Y237113D01*
X12142Y237141D01*
X12207Y237166D01*
X12273Y237187D01*
X12341Y237205D01*
X12409Y237218D01*
X12478Y237228D01*
X12547Y237234D01*
X12617Y237236D01*
X14480Y237236D01*
X17100Y233821D02*
X20825Y233821D01*
X23262Y232890D02*
X24504Y237236D01*
X23262Y232890D02*
X26367Y232890D01*
X25435Y234132D02*
X25435Y231648D01*
X29990Y234132D02*
X31853Y234132D01*
X29990Y234131D02*
X29920Y234133D01*
X29851Y234139D01*
X29782Y234149D01*
X29714Y234162D01*
X29646Y234180D01*
X29580Y234201D01*
X29515Y234226D01*
X29451Y234254D01*
X29389Y234286D01*
X29329Y234321D01*
X29271Y234360D01*
X29216Y234402D01*
X29162Y234447D01*
X29112Y234495D01*
X29064Y234545D01*
X29019Y234599D01*
X28977Y234654D01*
X28938Y234712D01*
X28903Y234772D01*
X28871Y234834D01*
X28843Y234898D01*
X28818Y234963D01*
X28797Y235029D01*
X28779Y235097D01*
X28766Y235165D01*
X28756Y235234D01*
X28750Y235303D01*
X28748Y235373D01*
X28749Y235373D02*
X28749Y235684D01*
X28751Y235761D01*
X28757Y235839D01*
X28766Y235915D01*
X28780Y235992D01*
X28797Y236067D01*
X28818Y236141D01*
X28843Y236215D01*
X28871Y236287D01*
X28903Y236357D01*
X28938Y236426D01*
X28977Y236493D01*
X29019Y236558D01*
X29064Y236621D01*
X29112Y236682D01*
X29163Y236740D01*
X29217Y236795D01*
X29274Y236848D01*
X29333Y236897D01*
X29395Y236944D01*
X29459Y236988D01*
X29525Y237028D01*
X29593Y237065D01*
X29663Y237099D01*
X29734Y237129D01*
X29807Y237155D01*
X29881Y237178D01*
X29956Y237197D01*
X30031Y237212D01*
X30108Y237224D01*
X30185Y237232D01*
X30262Y237236D01*
X30340Y237236D01*
X30417Y237232D01*
X30494Y237224D01*
X30571Y237212D01*
X30646Y237197D01*
X30721Y237178D01*
X30795Y237155D01*
X30868Y237129D01*
X30939Y237099D01*
X31009Y237065D01*
X31077Y237028D01*
X31143Y236988D01*
X31207Y236944D01*
X31269Y236897D01*
X31328Y236848D01*
X31385Y236795D01*
X31439Y236740D01*
X31490Y236682D01*
X31538Y236621D01*
X31583Y236558D01*
X31625Y236493D01*
X31664Y236426D01*
X31699Y236357D01*
X31731Y236287D01*
X31759Y236215D01*
X31784Y236141D01*
X31805Y236067D01*
X31822Y235992D01*
X31836Y235915D01*
X31845Y235839D01*
X31851Y235761D01*
X31853Y235684D01*
X31853Y234132D01*
X31854Y234132D02*
X31852Y234034D01*
X31846Y233937D01*
X31837Y233840D01*
X31823Y233743D01*
X31806Y233647D01*
X31785Y233552D01*
X31761Y233458D01*
X31732Y233364D01*
X31700Y233272D01*
X31665Y233181D01*
X31626Y233092D01*
X31583Y233004D01*
X31537Y232918D01*
X31488Y232834D01*
X31435Y232752D01*
X31380Y232672D01*
X31321Y232594D01*
X31259Y232519D01*
X31194Y232446D01*
X31126Y232376D01*
X31056Y232308D01*
X30983Y232243D01*
X30908Y232181D01*
X30830Y232122D01*
X30750Y232067D01*
X30668Y232014D01*
X30584Y231965D01*
X30498Y231919D01*
X30410Y231876D01*
X30321Y231837D01*
X30230Y231802D01*
X30138Y231770D01*
X30044Y231741D01*
X29950Y231717D01*
X29855Y231696D01*
X29759Y231679D01*
X29662Y231665D01*
X29565Y231656D01*
X29467Y231650D01*
X29370Y231648D01*
X34235Y234442D02*
X34237Y234573D01*
X34242Y234703D01*
X34252Y234833D01*
X34265Y234963D01*
X34281Y235093D01*
X34301Y235222D01*
X34325Y235350D01*
X34353Y235477D01*
X34384Y235604D01*
X34419Y235730D01*
X34457Y235855D01*
X34499Y235979D01*
X34544Y236101D01*
X34593Y236222D01*
X34645Y236342D01*
X34701Y236460D01*
X34700Y236460D02*
X34723Y236520D01*
X34749Y236580D01*
X34778Y236637D01*
X34811Y236693D01*
X34847Y236747D01*
X34885Y236799D01*
X34927Y236849D01*
X34971Y236896D01*
X35018Y236941D01*
X35068Y236983D01*
X35119Y237022D01*
X35173Y237058D01*
X35229Y237091D01*
X35286Y237121D01*
X35345Y237148D01*
X35406Y237171D01*
X35467Y237191D01*
X35530Y237207D01*
X35594Y237220D01*
X35658Y237229D01*
X35722Y237234D01*
X35787Y237236D01*
X35852Y237234D01*
X35916Y237229D01*
X35980Y237220D01*
X36044Y237207D01*
X36107Y237191D01*
X36168Y237171D01*
X36229Y237148D01*
X36288Y237121D01*
X36345Y237091D01*
X36401Y237058D01*
X36455Y237022D01*
X36506Y236983D01*
X36556Y236941D01*
X36603Y236896D01*
X36647Y236849D01*
X36689Y236799D01*
X36727Y236747D01*
X36763Y236693D01*
X36796Y236637D01*
X36825Y236580D01*
X36851Y236520D01*
X36874Y236460D01*
X36930Y236342D01*
X36982Y236222D01*
X37031Y236101D01*
X37076Y235979D01*
X37118Y235855D01*
X37156Y235730D01*
X37191Y235604D01*
X37222Y235478D01*
X37250Y235350D01*
X37274Y235222D01*
X37294Y235093D01*
X37310Y234963D01*
X37323Y234833D01*
X37333Y234703D01*
X37338Y234573D01*
X37340Y234442D01*
X34235Y234442D02*
X34237Y234311D01*
X34242Y234181D01*
X34252Y234051D01*
X34265Y233921D01*
X34281Y233791D01*
X34301Y233662D01*
X34325Y233534D01*
X34353Y233407D01*
X34384Y233280D01*
X34419Y233154D01*
X34457Y233029D01*
X34499Y232905D01*
X34544Y232783D01*
X34593Y232662D01*
X34645Y232542D01*
X34701Y232424D01*
X34700Y232424D02*
X34723Y232364D01*
X34749Y232304D01*
X34778Y232247D01*
X34811Y232191D01*
X34847Y232137D01*
X34885Y232085D01*
X34927Y232035D01*
X34971Y231988D01*
X35018Y231943D01*
X35068Y231901D01*
X35119Y231862D01*
X35173Y231826D01*
X35229Y231793D01*
X35286Y231763D01*
X35345Y231736D01*
X35406Y231713D01*
X35467Y231693D01*
X35530Y231677D01*
X35594Y231664D01*
X35658Y231655D01*
X35722Y231650D01*
X35787Y231648D01*
X36874Y232424D02*
X36930Y232542D01*
X36982Y232662D01*
X37031Y232783D01*
X37076Y232905D01*
X37118Y233029D01*
X37156Y233154D01*
X37191Y233280D01*
X37222Y233406D01*
X37250Y233534D01*
X37274Y233662D01*
X37294Y233791D01*
X37310Y233921D01*
X37323Y234051D01*
X37333Y234181D01*
X37338Y234311D01*
X37340Y234442D01*
X36874Y232424D02*
X36851Y232364D01*
X36825Y232304D01*
X36796Y232247D01*
X36763Y232191D01*
X36727Y232137D01*
X36689Y232085D01*
X36647Y232035D01*
X36603Y231988D01*
X36556Y231943D01*
X36506Y231901D01*
X36455Y231862D01*
X36401Y231826D01*
X36345Y231793D01*
X36288Y231763D01*
X36229Y231736D01*
X36168Y231713D01*
X36107Y231693D01*
X36044Y231677D01*
X35980Y231664D01*
X35916Y231655D01*
X35852Y231650D01*
X35787Y231648D01*
X34545Y232890D02*
X37029Y235994D01*
X42913Y237236D02*
X42913Y231648D01*
X42913Y237236D02*
X44465Y237236D01*
X44542Y237234D01*
X44620Y237228D01*
X44696Y237219D01*
X44773Y237205D01*
X44848Y237188D01*
X44922Y237167D01*
X44996Y237142D01*
X45068Y237114D01*
X45138Y237082D01*
X45207Y237047D01*
X45274Y237008D01*
X45339Y236966D01*
X45402Y236921D01*
X45463Y236873D01*
X45521Y236822D01*
X45576Y236768D01*
X45629Y236711D01*
X45678Y236652D01*
X45725Y236590D01*
X45769Y236526D01*
X45809Y236460D01*
X45846Y236392D01*
X45880Y236322D01*
X45910Y236251D01*
X45936Y236178D01*
X45959Y236104D01*
X45978Y236029D01*
X45993Y235954D01*
X46005Y235877D01*
X46013Y235800D01*
X46017Y235723D01*
X46017Y235645D01*
X46013Y235568D01*
X46005Y235491D01*
X45993Y235414D01*
X45978Y235339D01*
X45959Y235264D01*
X45936Y235190D01*
X45910Y235117D01*
X45880Y235046D01*
X45846Y234976D01*
X45809Y234908D01*
X45769Y234842D01*
X45725Y234778D01*
X45678Y234716D01*
X45629Y234657D01*
X45576Y234600D01*
X45521Y234546D01*
X45463Y234495D01*
X45402Y234447D01*
X45339Y234402D01*
X45274Y234360D01*
X45207Y234321D01*
X45138Y234286D01*
X45068Y234254D01*
X44996Y234226D01*
X44922Y234201D01*
X44848Y234180D01*
X44773Y234163D01*
X44696Y234149D01*
X44620Y234140D01*
X44542Y234134D01*
X44465Y234132D01*
X42913Y234132D01*
X48078Y234132D02*
X48078Y232890D01*
X48078Y234132D02*
X48080Y234202D01*
X48086Y234271D01*
X48096Y234340D01*
X48109Y234408D01*
X48127Y234476D01*
X48148Y234542D01*
X48173Y234607D01*
X48201Y234671D01*
X48233Y234733D01*
X48268Y234793D01*
X48307Y234851D01*
X48349Y234906D01*
X48394Y234960D01*
X48442Y235010D01*
X48492Y235058D01*
X48546Y235103D01*
X48601Y235145D01*
X48659Y235184D01*
X48719Y235219D01*
X48781Y235251D01*
X48845Y235279D01*
X48910Y235304D01*
X48976Y235325D01*
X49044Y235343D01*
X49112Y235356D01*
X49181Y235366D01*
X49250Y235372D01*
X49320Y235374D01*
X49390Y235372D01*
X49459Y235366D01*
X49528Y235356D01*
X49596Y235343D01*
X49664Y235325D01*
X49730Y235304D01*
X49795Y235279D01*
X49859Y235251D01*
X49921Y235219D01*
X49981Y235184D01*
X50039Y235145D01*
X50094Y235103D01*
X50148Y235058D01*
X50198Y235010D01*
X50246Y234960D01*
X50291Y234906D01*
X50333Y234851D01*
X50372Y234793D01*
X50407Y234733D01*
X50439Y234671D01*
X50467Y234607D01*
X50492Y234542D01*
X50513Y234476D01*
X50531Y234408D01*
X50544Y234340D01*
X50554Y234271D01*
X50560Y234202D01*
X50562Y234132D01*
X50562Y232890D01*
X50560Y232820D01*
X50554Y232751D01*
X50544Y232682D01*
X50531Y232614D01*
X50513Y232546D01*
X50492Y232480D01*
X50467Y232415D01*
X50439Y232351D01*
X50407Y232289D01*
X50372Y232229D01*
X50333Y232171D01*
X50291Y232116D01*
X50246Y232062D01*
X50198Y232012D01*
X50148Y231964D01*
X50094Y231919D01*
X50039Y231877D01*
X49981Y231838D01*
X49921Y231803D01*
X49859Y231771D01*
X49795Y231743D01*
X49730Y231718D01*
X49664Y231697D01*
X49596Y231679D01*
X49528Y231666D01*
X49459Y231656D01*
X49390Y231650D01*
X49320Y231648D01*
X49250Y231650D01*
X49181Y231656D01*
X49112Y231666D01*
X49044Y231679D01*
X48976Y231697D01*
X48910Y231718D01*
X48845Y231743D01*
X48781Y231771D01*
X48719Y231803D01*
X48659Y231838D01*
X48601Y231877D01*
X48546Y231919D01*
X48492Y231964D01*
X48442Y232012D01*
X48394Y232062D01*
X48349Y232116D01*
X48307Y232171D01*
X48268Y232229D01*
X48233Y232289D01*
X48201Y232351D01*
X48173Y232415D01*
X48148Y232480D01*
X48127Y232546D01*
X48109Y232614D01*
X48096Y232682D01*
X48086Y232751D01*
X48080Y232820D01*
X48078Y232890D01*
X52761Y235373D02*
X53692Y231648D01*
X54624Y234132D01*
X55555Y231648D01*
X56486Y235373D01*
X59617Y231648D02*
X61169Y231648D01*
X59617Y231648D02*
X59559Y231650D01*
X59500Y231655D01*
X59443Y231664D01*
X59385Y231677D01*
X59329Y231694D01*
X59274Y231713D01*
X59221Y231737D01*
X59168Y231763D01*
X59118Y231793D01*
X59070Y231826D01*
X59024Y231862D01*
X58980Y231900D01*
X58938Y231942D01*
X58900Y231986D01*
X58864Y232032D01*
X58831Y232080D01*
X58801Y232130D01*
X58775Y232183D01*
X58751Y232236D01*
X58732Y232291D01*
X58715Y232347D01*
X58702Y232405D01*
X58693Y232462D01*
X58688Y232521D01*
X58686Y232579D01*
X58685Y232579D02*
X58685Y234132D01*
X58687Y234202D01*
X58693Y234271D01*
X58703Y234340D01*
X58716Y234408D01*
X58734Y234476D01*
X58755Y234542D01*
X58780Y234607D01*
X58808Y234671D01*
X58840Y234733D01*
X58875Y234793D01*
X58914Y234851D01*
X58956Y234906D01*
X59001Y234960D01*
X59049Y235010D01*
X59099Y235058D01*
X59153Y235103D01*
X59208Y235145D01*
X59266Y235184D01*
X59326Y235219D01*
X59388Y235251D01*
X59452Y235279D01*
X59517Y235304D01*
X59583Y235325D01*
X59651Y235343D01*
X59719Y235356D01*
X59788Y235366D01*
X59857Y235372D01*
X59927Y235374D01*
X59997Y235372D01*
X60066Y235366D01*
X60135Y235356D01*
X60203Y235343D01*
X60271Y235325D01*
X60337Y235304D01*
X60402Y235279D01*
X60466Y235251D01*
X60528Y235219D01*
X60588Y235184D01*
X60646Y235145D01*
X60701Y235103D01*
X60755Y235058D01*
X60805Y235010D01*
X60853Y234960D01*
X60898Y234906D01*
X60940Y234851D01*
X60979Y234793D01*
X61014Y234733D01*
X61046Y234671D01*
X61074Y234607D01*
X61099Y234542D01*
X61120Y234476D01*
X61138Y234408D01*
X61151Y234340D01*
X61161Y234271D01*
X61167Y234202D01*
X61169Y234132D01*
X61169Y233511D01*
X58685Y233511D01*
X63656Y231648D02*
X63656Y235373D01*
X65518Y235373D01*
X65518Y234752D01*
X69016Y231648D02*
X69086Y231650D01*
X69155Y231656D01*
X69224Y231666D01*
X69292Y231679D01*
X69360Y231697D01*
X69426Y231718D01*
X69491Y231743D01*
X69555Y231771D01*
X69617Y231803D01*
X69677Y231838D01*
X69735Y231877D01*
X69790Y231919D01*
X69844Y231964D01*
X69894Y232012D01*
X69942Y232062D01*
X69987Y232116D01*
X70029Y232171D01*
X70068Y232229D01*
X70103Y232289D01*
X70135Y232351D01*
X70163Y232415D01*
X70188Y232480D01*
X70209Y232546D01*
X70227Y232614D01*
X70240Y232682D01*
X70250Y232751D01*
X70256Y232820D01*
X70258Y232890D01*
X69016Y231648D02*
X68917Y231650D01*
X68819Y231655D01*
X68721Y231665D01*
X68623Y231678D01*
X68526Y231694D01*
X68429Y231714D01*
X68334Y231738D01*
X68239Y231766D01*
X68145Y231797D01*
X68053Y231831D01*
X67962Y231869D01*
X67872Y231910D01*
X67784Y231955D01*
X67698Y232003D01*
X67614Y232054D01*
X67532Y232108D01*
X67451Y232166D01*
X67373Y232226D01*
X67298Y232289D01*
X67224Y232355D01*
X67154Y232424D01*
X67308Y235994D02*
X67310Y236064D01*
X67316Y236133D01*
X67326Y236202D01*
X67339Y236270D01*
X67357Y236338D01*
X67378Y236404D01*
X67403Y236469D01*
X67431Y236533D01*
X67463Y236595D01*
X67498Y236655D01*
X67537Y236713D01*
X67579Y236768D01*
X67624Y236822D01*
X67672Y236872D01*
X67722Y236920D01*
X67776Y236965D01*
X67831Y237007D01*
X67889Y237046D01*
X67949Y237081D01*
X68011Y237113D01*
X68075Y237141D01*
X68140Y237166D01*
X68206Y237187D01*
X68274Y237205D01*
X68342Y237218D01*
X68411Y237228D01*
X68480Y237234D01*
X68550Y237236D01*
X68644Y237234D01*
X68737Y237228D01*
X68830Y237219D01*
X68923Y237206D01*
X69015Y237189D01*
X69106Y237169D01*
X69197Y237144D01*
X69286Y237117D01*
X69374Y237085D01*
X69461Y237050D01*
X69547Y237012D01*
X69630Y236970D01*
X69712Y236925D01*
X69793Y236877D01*
X69871Y236825D01*
X69947Y236770D01*
X67930Y234908D02*
X67871Y234944D01*
X67815Y234984D01*
X67761Y235027D01*
X67709Y235072D01*
X67660Y235121D01*
X67614Y235172D01*
X67571Y235225D01*
X67530Y235281D01*
X67493Y235339D01*
X67458Y235399D01*
X67428Y235460D01*
X67400Y235523D01*
X67376Y235588D01*
X67356Y235654D01*
X67339Y235721D01*
X67326Y235788D01*
X67317Y235856D01*
X67311Y235925D01*
X67309Y235994D01*
X69636Y233976D02*
X69695Y233940D01*
X69751Y233900D01*
X69805Y233857D01*
X69857Y233812D01*
X69906Y233763D01*
X69952Y233712D01*
X69995Y233659D01*
X70036Y233603D01*
X70073Y233545D01*
X70108Y233485D01*
X70138Y233424D01*
X70166Y233361D01*
X70190Y233296D01*
X70210Y233230D01*
X70227Y233163D01*
X70240Y233096D01*
X70249Y233028D01*
X70255Y232959D01*
X70257Y232890D01*
X69637Y233976D02*
X67929Y234908D01*
X72329Y235373D02*
X73260Y231648D01*
X74192Y234132D01*
X75123Y231648D01*
X76054Y235373D01*
X78215Y235373D02*
X78215Y231648D01*
X78060Y236926D02*
X78060Y237236D01*
X78370Y237236D01*
X78370Y236926D01*
X78060Y236926D01*
X79982Y235373D02*
X81844Y235373D01*
X80602Y237236D02*
X80602Y232579D01*
X80603Y232579D02*
X80605Y232521D01*
X80610Y232462D01*
X80619Y232405D01*
X80632Y232347D01*
X80649Y232291D01*
X80668Y232236D01*
X80692Y232183D01*
X80718Y232130D01*
X80748Y232080D01*
X80781Y232032D01*
X80817Y231986D01*
X80855Y231942D01*
X80897Y231900D01*
X80941Y231862D01*
X80987Y231826D01*
X81035Y231793D01*
X81086Y231763D01*
X81138Y231737D01*
X81191Y231713D01*
X81246Y231694D01*
X81302Y231677D01*
X81360Y231664D01*
X81417Y231655D01*
X81476Y231650D01*
X81534Y231648D01*
X81844Y231648D01*
X84860Y231648D02*
X86102Y231648D01*
X84860Y231648D02*
X84802Y231650D01*
X84743Y231655D01*
X84686Y231664D01*
X84628Y231677D01*
X84572Y231694D01*
X84517Y231713D01*
X84464Y231737D01*
X84411Y231763D01*
X84361Y231793D01*
X84313Y231826D01*
X84267Y231862D01*
X84223Y231900D01*
X84181Y231942D01*
X84143Y231986D01*
X84107Y232032D01*
X84074Y232080D01*
X84044Y232130D01*
X84018Y232183D01*
X83994Y232236D01*
X83975Y232291D01*
X83958Y232347D01*
X83945Y232405D01*
X83936Y232462D01*
X83931Y232521D01*
X83929Y232579D01*
X83929Y234442D01*
X83931Y234500D01*
X83936Y234559D01*
X83945Y234616D01*
X83958Y234674D01*
X83975Y234730D01*
X83994Y234785D01*
X84018Y234838D01*
X84044Y234891D01*
X84074Y234941D01*
X84107Y234989D01*
X84143Y235035D01*
X84181Y235079D01*
X84223Y235121D01*
X84267Y235159D01*
X84313Y235195D01*
X84361Y235228D01*
X84411Y235258D01*
X84464Y235284D01*
X84517Y235308D01*
X84572Y235327D01*
X84628Y235344D01*
X84686Y235357D01*
X84743Y235366D01*
X84802Y235371D01*
X84860Y235373D01*
X86102Y235373D01*
X88312Y237236D02*
X88312Y231648D01*
X88312Y235373D02*
X89864Y235373D01*
X89922Y235371D01*
X89981Y235366D01*
X90038Y235357D01*
X90096Y235344D01*
X90152Y235327D01*
X90207Y235308D01*
X90260Y235284D01*
X90313Y235258D01*
X90363Y235228D01*
X90411Y235195D01*
X90457Y235159D01*
X90501Y235121D01*
X90543Y235079D01*
X90581Y235035D01*
X90617Y234989D01*
X90650Y234941D01*
X90680Y234891D01*
X90706Y234838D01*
X90730Y234785D01*
X90749Y234730D01*
X90766Y234674D01*
X90779Y234616D01*
X90788Y234559D01*
X90793Y234500D01*
X90795Y234442D01*
X90795Y231648D01*
X94857Y231648D02*
X92994Y237236D01*
X96720Y237236D02*
X94857Y231648D01*
X98791Y235994D02*
X100343Y237236D01*
X100343Y231648D01*
X98791Y231648D02*
X101896Y231648D01*
X8156Y228092D02*
X8156Y222504D01*
X6604Y228092D02*
X9708Y228092D01*
X11852Y228092D02*
X11852Y222504D01*
X11852Y226229D02*
X13404Y226229D01*
X13462Y226227D01*
X13521Y226222D01*
X13578Y226213D01*
X13636Y226200D01*
X13692Y226183D01*
X13747Y226164D01*
X13800Y226140D01*
X13853Y226114D01*
X13903Y226084D01*
X13951Y226051D01*
X13997Y226015D01*
X14041Y225977D01*
X14083Y225935D01*
X14121Y225891D01*
X14157Y225845D01*
X14190Y225797D01*
X14220Y225747D01*
X14246Y225694D01*
X14270Y225641D01*
X14289Y225586D01*
X14306Y225530D01*
X14319Y225472D01*
X14328Y225415D01*
X14333Y225356D01*
X14335Y225298D01*
X14336Y225298D02*
X14336Y222504D01*
X16790Y223746D02*
X16790Y224988D01*
X16792Y225058D01*
X16798Y225127D01*
X16808Y225196D01*
X16821Y225264D01*
X16839Y225332D01*
X16860Y225398D01*
X16885Y225463D01*
X16913Y225527D01*
X16945Y225589D01*
X16980Y225649D01*
X17019Y225707D01*
X17061Y225762D01*
X17106Y225816D01*
X17154Y225866D01*
X17204Y225914D01*
X17258Y225959D01*
X17313Y226001D01*
X17371Y226040D01*
X17431Y226075D01*
X17493Y226107D01*
X17557Y226135D01*
X17622Y226160D01*
X17688Y226181D01*
X17756Y226199D01*
X17824Y226212D01*
X17893Y226222D01*
X17962Y226228D01*
X18032Y226230D01*
X18102Y226228D01*
X18171Y226222D01*
X18240Y226212D01*
X18308Y226199D01*
X18376Y226181D01*
X18442Y226160D01*
X18507Y226135D01*
X18571Y226107D01*
X18633Y226075D01*
X18693Y226040D01*
X18751Y226001D01*
X18806Y225959D01*
X18860Y225914D01*
X18910Y225866D01*
X18958Y225816D01*
X19003Y225762D01*
X19045Y225707D01*
X19084Y225649D01*
X19119Y225589D01*
X19151Y225527D01*
X19179Y225463D01*
X19204Y225398D01*
X19225Y225332D01*
X19243Y225264D01*
X19256Y225196D01*
X19266Y225127D01*
X19272Y225058D01*
X19274Y224988D01*
X19273Y224988D02*
X19273Y223746D01*
X19274Y223746D02*
X19272Y223676D01*
X19266Y223607D01*
X19256Y223538D01*
X19243Y223470D01*
X19225Y223402D01*
X19204Y223336D01*
X19179Y223271D01*
X19151Y223207D01*
X19119Y223145D01*
X19084Y223085D01*
X19045Y223027D01*
X19003Y222972D01*
X18958Y222918D01*
X18910Y222868D01*
X18860Y222820D01*
X18806Y222775D01*
X18751Y222733D01*
X18693Y222694D01*
X18633Y222659D01*
X18571Y222627D01*
X18507Y222599D01*
X18442Y222574D01*
X18376Y222553D01*
X18308Y222535D01*
X18240Y222522D01*
X18171Y222512D01*
X18102Y222506D01*
X18032Y222504D01*
X17962Y222506D01*
X17893Y222512D01*
X17824Y222522D01*
X17756Y222535D01*
X17688Y222553D01*
X17622Y222574D01*
X17557Y222599D01*
X17493Y222627D01*
X17431Y222659D01*
X17371Y222694D01*
X17313Y222733D01*
X17258Y222775D01*
X17204Y222820D01*
X17154Y222868D01*
X17106Y222918D01*
X17061Y222972D01*
X17019Y223027D01*
X16980Y223085D01*
X16945Y223145D01*
X16913Y223207D01*
X16885Y223271D01*
X16860Y223336D01*
X16839Y223402D01*
X16821Y223470D01*
X16808Y223538D01*
X16798Y223607D01*
X16792Y223676D01*
X16790Y223746D01*
X21838Y222504D02*
X21838Y226229D01*
X24632Y226229D01*
X24690Y226227D01*
X24749Y226222D01*
X24806Y226213D01*
X24864Y226200D01*
X24920Y226183D01*
X24975Y226164D01*
X25028Y226140D01*
X25081Y226114D01*
X25131Y226084D01*
X25179Y226051D01*
X25225Y226015D01*
X25269Y225977D01*
X25311Y225935D01*
X25349Y225891D01*
X25385Y225845D01*
X25418Y225797D01*
X25448Y225747D01*
X25474Y225694D01*
X25498Y225641D01*
X25517Y225586D01*
X25534Y225530D01*
X25547Y225472D01*
X25556Y225415D01*
X25561Y225356D01*
X25563Y225298D01*
X25564Y225298D02*
X25564Y222504D01*
X23701Y222504D02*
X23701Y226229D01*
X29186Y224677D02*
X30583Y224677D01*
X29186Y224678D02*
X29122Y224676D01*
X29057Y224670D01*
X28994Y224661D01*
X28931Y224648D01*
X28869Y224631D01*
X28808Y224610D01*
X28748Y224586D01*
X28690Y224558D01*
X28633Y224527D01*
X28579Y224493D01*
X28526Y224455D01*
X28476Y224414D01*
X28429Y224371D01*
X28384Y224325D01*
X28342Y224276D01*
X28303Y224225D01*
X28267Y224171D01*
X28234Y224116D01*
X28205Y224058D01*
X28179Y224000D01*
X28156Y223939D01*
X28137Y223878D01*
X28122Y223815D01*
X28111Y223751D01*
X28103Y223688D01*
X28099Y223623D01*
X28099Y223559D01*
X28103Y223494D01*
X28111Y223431D01*
X28122Y223367D01*
X28137Y223304D01*
X28156Y223243D01*
X28179Y223182D01*
X28205Y223124D01*
X28234Y223066D01*
X28267Y223011D01*
X28303Y222957D01*
X28342Y222906D01*
X28384Y222857D01*
X28429Y222811D01*
X28476Y222768D01*
X28526Y222727D01*
X28579Y222689D01*
X28633Y222655D01*
X28690Y222624D01*
X28748Y222596D01*
X28808Y222572D01*
X28869Y222551D01*
X28931Y222534D01*
X28994Y222521D01*
X29057Y222512D01*
X29122Y222506D01*
X29186Y222504D01*
X30583Y222504D01*
X30583Y225298D01*
X30581Y225356D01*
X30576Y225415D01*
X30567Y225472D01*
X30554Y225530D01*
X30537Y225586D01*
X30518Y225641D01*
X30494Y225694D01*
X30468Y225747D01*
X30438Y225797D01*
X30405Y225845D01*
X30369Y225891D01*
X30331Y225935D01*
X30289Y225977D01*
X30245Y226015D01*
X30199Y226051D01*
X30151Y226084D01*
X30101Y226114D01*
X30048Y226140D01*
X29995Y226164D01*
X29940Y226183D01*
X29884Y226200D01*
X29826Y226213D01*
X29769Y226222D01*
X29710Y226227D01*
X29652Y226229D01*
X28410Y226229D01*
X33532Y224677D02*
X35084Y224056D01*
X33532Y224677D02*
X33481Y224699D01*
X33432Y224725D01*
X33384Y224754D01*
X33339Y224787D01*
X33296Y224823D01*
X33255Y224861D01*
X33218Y224903D01*
X33183Y224946D01*
X33151Y224992D01*
X33123Y225041D01*
X33098Y225091D01*
X33077Y225142D01*
X33059Y225195D01*
X33045Y225249D01*
X33035Y225304D01*
X33029Y225360D01*
X33026Y225415D01*
X33027Y225471D01*
X33033Y225527D01*
X33042Y225582D01*
X33054Y225636D01*
X33071Y225690D01*
X33091Y225742D01*
X33115Y225792D01*
X33142Y225841D01*
X33173Y225888D01*
X33207Y225932D01*
X33243Y225974D01*
X33283Y226014D01*
X33325Y226050D01*
X33370Y226084D01*
X33417Y226114D01*
X33465Y226141D01*
X33516Y226165D01*
X33568Y226185D01*
X33622Y226201D01*
X33676Y226214D01*
X33731Y226223D01*
X33787Y226228D01*
X33843Y226229D01*
X33842Y226230D02*
X33953Y226226D01*
X34064Y226220D01*
X34174Y226209D01*
X34284Y226195D01*
X34394Y226178D01*
X34503Y226158D01*
X34611Y226134D01*
X34718Y226106D01*
X34825Y226075D01*
X34930Y226041D01*
X35035Y226004D01*
X35138Y225963D01*
X35240Y225919D01*
X35084Y224056D02*
X35135Y224034D01*
X35184Y224008D01*
X35232Y223979D01*
X35277Y223946D01*
X35320Y223910D01*
X35361Y223872D01*
X35398Y223830D01*
X35433Y223787D01*
X35465Y223741D01*
X35493Y223692D01*
X35518Y223642D01*
X35539Y223591D01*
X35557Y223538D01*
X35571Y223484D01*
X35581Y223429D01*
X35587Y223373D01*
X35590Y223318D01*
X35589Y223262D01*
X35583Y223206D01*
X35574Y223151D01*
X35562Y223097D01*
X35545Y223043D01*
X35525Y222991D01*
X35501Y222941D01*
X35474Y222892D01*
X35443Y222845D01*
X35409Y222801D01*
X35373Y222759D01*
X35333Y222719D01*
X35291Y222683D01*
X35246Y222649D01*
X35199Y222619D01*
X35151Y222592D01*
X35100Y222568D01*
X35048Y222548D01*
X34994Y222532D01*
X34940Y222519D01*
X34885Y222510D01*
X34829Y222505D01*
X34773Y222504D01*
X34774Y222504D02*
X34640Y222507D01*
X34506Y222514D01*
X34372Y222525D01*
X34239Y222538D01*
X34106Y222556D01*
X33973Y222576D01*
X33841Y222600D01*
X33710Y222628D01*
X33579Y222658D01*
X33450Y222692D01*
X33321Y222730D01*
X33193Y222770D01*
X33066Y222814D01*
X41068Y222504D02*
X41068Y228092D01*
X44173Y228092D02*
X41068Y224677D01*
X42310Y225919D02*
X44173Y222504D01*
X46416Y223435D02*
X46416Y226229D01*
X46417Y223435D02*
X46419Y223377D01*
X46424Y223318D01*
X46433Y223261D01*
X46446Y223203D01*
X46463Y223147D01*
X46482Y223092D01*
X46506Y223039D01*
X46532Y222986D01*
X46562Y222936D01*
X46595Y222888D01*
X46631Y222842D01*
X46669Y222798D01*
X46711Y222756D01*
X46755Y222718D01*
X46801Y222682D01*
X46849Y222649D01*
X46899Y222619D01*
X46952Y222593D01*
X47005Y222569D01*
X47060Y222550D01*
X47116Y222533D01*
X47174Y222520D01*
X47231Y222511D01*
X47290Y222506D01*
X47348Y222504D01*
X48900Y222504D01*
X48900Y226229D01*
X51424Y228092D02*
X51424Y223435D01*
X51426Y223377D01*
X51431Y223318D01*
X51440Y223261D01*
X51453Y223203D01*
X51470Y223147D01*
X51489Y223092D01*
X51513Y223039D01*
X51539Y222986D01*
X51569Y222936D01*
X51602Y222888D01*
X51638Y222842D01*
X51676Y222798D01*
X51718Y222756D01*
X51762Y222718D01*
X51808Y222682D01*
X51856Y222649D01*
X51906Y222619D01*
X51959Y222593D01*
X52012Y222569D01*
X52067Y222550D01*
X52123Y222533D01*
X52181Y222520D01*
X52238Y222511D01*
X52297Y222506D01*
X52355Y222504D01*
X54242Y222504D02*
X54242Y226229D01*
X54086Y227782D02*
X54086Y228092D01*
X54397Y228092D01*
X54397Y227782D01*
X54086Y227782D01*
X56657Y226229D02*
X56657Y222504D01*
X56657Y226229D02*
X58210Y226229D01*
X58268Y226227D01*
X58327Y226222D01*
X58384Y226213D01*
X58442Y226200D01*
X58498Y226183D01*
X58553Y226164D01*
X58606Y226140D01*
X58659Y226114D01*
X58709Y226084D01*
X58757Y226051D01*
X58803Y226015D01*
X58847Y225977D01*
X58889Y225935D01*
X58927Y225891D01*
X58963Y225845D01*
X58996Y225797D01*
X59026Y225747D01*
X59052Y225694D01*
X59076Y225641D01*
X59095Y225586D01*
X59112Y225530D01*
X59125Y225472D01*
X59134Y225415D01*
X59139Y225356D01*
X59141Y225298D01*
X59141Y222504D01*
X66284Y228092D02*
X66357Y228090D01*
X66430Y228084D01*
X66503Y228075D01*
X66574Y228061D01*
X66646Y228044D01*
X66716Y228024D01*
X66785Y227999D01*
X66852Y227971D01*
X66918Y227940D01*
X66983Y227905D01*
X67045Y227867D01*
X67105Y227825D01*
X67163Y227781D01*
X67219Y227733D01*
X67272Y227683D01*
X67322Y227630D01*
X67370Y227574D01*
X67414Y227516D01*
X67456Y227456D01*
X67494Y227394D01*
X67529Y227329D01*
X67560Y227263D01*
X67588Y227196D01*
X67613Y227127D01*
X67633Y227057D01*
X67650Y226985D01*
X67664Y226914D01*
X67673Y226841D01*
X67679Y226768D01*
X67681Y226695D01*
X66284Y228092D02*
X66200Y228090D01*
X66117Y228084D01*
X66034Y228075D01*
X65952Y228061D01*
X65870Y228044D01*
X65789Y228022D01*
X65709Y227997D01*
X65631Y227969D01*
X65553Y227937D01*
X65478Y227901D01*
X65404Y227862D01*
X65332Y227819D01*
X65262Y227773D01*
X65195Y227724D01*
X65129Y227671D01*
X65067Y227616D01*
X65007Y227558D01*
X64949Y227497D01*
X64895Y227434D01*
X64843Y227368D01*
X64795Y227300D01*
X64750Y227229D01*
X64708Y227157D01*
X64670Y227082D01*
X64635Y227006D01*
X64604Y226929D01*
X64576Y226850D01*
X67215Y225609D02*
X67269Y225662D01*
X67320Y225719D01*
X67368Y225778D01*
X67413Y225839D01*
X67454Y225902D01*
X67493Y225968D01*
X67528Y226035D01*
X67560Y226104D01*
X67588Y226175D01*
X67612Y226246D01*
X67633Y226319D01*
X67650Y226393D01*
X67664Y226468D01*
X67673Y226543D01*
X67679Y226619D01*
X67681Y226695D01*
X67215Y225608D02*
X64577Y222504D01*
X67681Y222504D01*
X70063Y225298D02*
X70065Y225429D01*
X70070Y225559D01*
X70080Y225689D01*
X70093Y225819D01*
X70109Y225949D01*
X70129Y226078D01*
X70153Y226206D01*
X70181Y226333D01*
X70212Y226460D01*
X70247Y226586D01*
X70285Y226711D01*
X70327Y226835D01*
X70372Y226957D01*
X70421Y227078D01*
X70473Y227198D01*
X70529Y227316D01*
X70528Y227316D02*
X70551Y227376D01*
X70577Y227436D01*
X70606Y227493D01*
X70639Y227549D01*
X70675Y227603D01*
X70713Y227655D01*
X70755Y227705D01*
X70799Y227752D01*
X70846Y227797D01*
X70896Y227839D01*
X70947Y227878D01*
X71001Y227914D01*
X71057Y227947D01*
X71114Y227977D01*
X71173Y228004D01*
X71234Y228027D01*
X71295Y228047D01*
X71358Y228063D01*
X71422Y228076D01*
X71486Y228085D01*
X71550Y228090D01*
X71615Y228092D01*
X71680Y228090D01*
X71744Y228085D01*
X71808Y228076D01*
X71872Y228063D01*
X71935Y228047D01*
X71996Y228027D01*
X72057Y228004D01*
X72116Y227977D01*
X72173Y227947D01*
X72229Y227914D01*
X72283Y227878D01*
X72334Y227839D01*
X72384Y227797D01*
X72431Y227752D01*
X72475Y227705D01*
X72517Y227655D01*
X72555Y227603D01*
X72591Y227549D01*
X72624Y227493D01*
X72653Y227436D01*
X72679Y227376D01*
X72702Y227316D01*
X72758Y227198D01*
X72810Y227078D01*
X72859Y226957D01*
X72904Y226835D01*
X72946Y226711D01*
X72984Y226586D01*
X73019Y226460D01*
X73050Y226334D01*
X73078Y226206D01*
X73102Y226078D01*
X73122Y225949D01*
X73138Y225819D01*
X73151Y225689D01*
X73161Y225559D01*
X73166Y225429D01*
X73168Y225298D01*
X70063Y225298D02*
X70065Y225167D01*
X70070Y225037D01*
X70080Y224907D01*
X70093Y224777D01*
X70109Y224647D01*
X70129Y224518D01*
X70153Y224390D01*
X70181Y224263D01*
X70212Y224136D01*
X70247Y224010D01*
X70285Y223885D01*
X70327Y223761D01*
X70372Y223639D01*
X70421Y223518D01*
X70473Y223398D01*
X70529Y223280D01*
X70528Y223280D02*
X70551Y223220D01*
X70577Y223160D01*
X70606Y223103D01*
X70639Y223047D01*
X70675Y222993D01*
X70713Y222941D01*
X70755Y222891D01*
X70799Y222844D01*
X70846Y222799D01*
X70896Y222757D01*
X70947Y222718D01*
X71001Y222682D01*
X71057Y222649D01*
X71114Y222619D01*
X71173Y222592D01*
X71234Y222569D01*
X71295Y222549D01*
X71358Y222533D01*
X71422Y222520D01*
X71486Y222511D01*
X71550Y222506D01*
X71615Y222504D01*
X72701Y223280D02*
X72757Y223398D01*
X72809Y223518D01*
X72858Y223639D01*
X72903Y223761D01*
X72945Y223885D01*
X72983Y224010D01*
X73018Y224136D01*
X73049Y224262D01*
X73077Y224390D01*
X73101Y224518D01*
X73121Y224647D01*
X73137Y224777D01*
X73150Y224907D01*
X73160Y225037D01*
X73165Y225167D01*
X73167Y225298D01*
X72702Y223280D02*
X72679Y223220D01*
X72653Y223160D01*
X72624Y223103D01*
X72591Y223047D01*
X72555Y222993D01*
X72517Y222941D01*
X72475Y222891D01*
X72431Y222844D01*
X72384Y222799D01*
X72334Y222757D01*
X72283Y222718D01*
X72229Y222682D01*
X72173Y222649D01*
X72116Y222619D01*
X72057Y222592D01*
X71996Y222569D01*
X71935Y222549D01*
X71872Y222533D01*
X71808Y222520D01*
X71744Y222511D01*
X71680Y222506D01*
X71615Y222504D01*
X70373Y223746D02*
X72857Y226850D01*
X77257Y228092D02*
X77330Y228090D01*
X77403Y228084D01*
X77476Y228075D01*
X77547Y228061D01*
X77619Y228044D01*
X77689Y228024D01*
X77758Y227999D01*
X77825Y227971D01*
X77891Y227940D01*
X77956Y227905D01*
X78018Y227867D01*
X78078Y227825D01*
X78136Y227781D01*
X78192Y227733D01*
X78245Y227683D01*
X78295Y227630D01*
X78343Y227574D01*
X78387Y227516D01*
X78429Y227456D01*
X78467Y227394D01*
X78502Y227329D01*
X78533Y227263D01*
X78561Y227196D01*
X78586Y227127D01*
X78606Y227057D01*
X78623Y226985D01*
X78637Y226914D01*
X78646Y226841D01*
X78652Y226768D01*
X78654Y226695D01*
X77257Y228092D02*
X77173Y228090D01*
X77090Y228084D01*
X77007Y228075D01*
X76925Y228061D01*
X76843Y228044D01*
X76762Y228022D01*
X76682Y227997D01*
X76604Y227969D01*
X76526Y227937D01*
X76451Y227901D01*
X76377Y227862D01*
X76305Y227819D01*
X76235Y227773D01*
X76168Y227724D01*
X76102Y227671D01*
X76040Y227616D01*
X75980Y227558D01*
X75922Y227497D01*
X75868Y227434D01*
X75816Y227368D01*
X75768Y227300D01*
X75723Y227229D01*
X75681Y227157D01*
X75643Y227082D01*
X75608Y227006D01*
X75577Y226929D01*
X75549Y226850D01*
X78187Y225609D02*
X78241Y225662D01*
X78292Y225719D01*
X78340Y225778D01*
X78385Y225839D01*
X78426Y225902D01*
X78465Y225968D01*
X78500Y226035D01*
X78532Y226104D01*
X78560Y226175D01*
X78584Y226246D01*
X78605Y226319D01*
X78622Y226393D01*
X78636Y226468D01*
X78645Y226543D01*
X78651Y226619D01*
X78653Y226695D01*
X78188Y225608D02*
X75549Y222504D01*
X78654Y222504D01*
X81036Y225298D02*
X81038Y225429D01*
X81043Y225559D01*
X81053Y225689D01*
X81066Y225819D01*
X81082Y225949D01*
X81102Y226078D01*
X81126Y226206D01*
X81154Y226333D01*
X81185Y226460D01*
X81220Y226586D01*
X81258Y226711D01*
X81300Y226835D01*
X81345Y226957D01*
X81394Y227078D01*
X81446Y227198D01*
X81502Y227316D01*
X81501Y227316D02*
X81524Y227376D01*
X81550Y227436D01*
X81579Y227493D01*
X81612Y227549D01*
X81648Y227603D01*
X81686Y227655D01*
X81728Y227705D01*
X81772Y227752D01*
X81819Y227797D01*
X81869Y227839D01*
X81920Y227878D01*
X81974Y227914D01*
X82030Y227947D01*
X82087Y227977D01*
X82146Y228004D01*
X82207Y228027D01*
X82268Y228047D01*
X82331Y228063D01*
X82395Y228076D01*
X82459Y228085D01*
X82523Y228090D01*
X82588Y228092D01*
X82653Y228090D01*
X82717Y228085D01*
X82781Y228076D01*
X82845Y228063D01*
X82908Y228047D01*
X82969Y228027D01*
X83030Y228004D01*
X83089Y227977D01*
X83146Y227947D01*
X83202Y227914D01*
X83256Y227878D01*
X83307Y227839D01*
X83357Y227797D01*
X83404Y227752D01*
X83448Y227705D01*
X83490Y227655D01*
X83528Y227603D01*
X83564Y227549D01*
X83597Y227493D01*
X83626Y227436D01*
X83652Y227376D01*
X83675Y227316D01*
X83674Y227316D02*
X83730Y227198D01*
X83782Y227078D01*
X83831Y226957D01*
X83876Y226835D01*
X83918Y226711D01*
X83956Y226586D01*
X83991Y226460D01*
X84022Y226334D01*
X84050Y226206D01*
X84074Y226078D01*
X84094Y225949D01*
X84110Y225819D01*
X84123Y225689D01*
X84133Y225559D01*
X84138Y225429D01*
X84140Y225298D01*
X81036Y225298D02*
X81038Y225167D01*
X81043Y225037D01*
X81053Y224907D01*
X81066Y224777D01*
X81082Y224647D01*
X81102Y224518D01*
X81126Y224390D01*
X81154Y224263D01*
X81185Y224136D01*
X81220Y224010D01*
X81258Y223885D01*
X81300Y223761D01*
X81345Y223639D01*
X81394Y223518D01*
X81446Y223398D01*
X81502Y223280D01*
X81501Y223280D02*
X81524Y223220D01*
X81550Y223160D01*
X81579Y223103D01*
X81612Y223047D01*
X81648Y222993D01*
X81686Y222941D01*
X81728Y222891D01*
X81772Y222844D01*
X81819Y222799D01*
X81869Y222757D01*
X81920Y222718D01*
X81974Y222682D01*
X82030Y222649D01*
X82087Y222619D01*
X82146Y222592D01*
X82207Y222569D01*
X82268Y222549D01*
X82331Y222533D01*
X82395Y222520D01*
X82459Y222511D01*
X82523Y222506D01*
X82588Y222504D01*
X83674Y223280D02*
X83730Y223398D01*
X83782Y223518D01*
X83831Y223639D01*
X83876Y223761D01*
X83918Y223885D01*
X83956Y224010D01*
X83991Y224136D01*
X84022Y224262D01*
X84050Y224390D01*
X84074Y224518D01*
X84094Y224647D01*
X84110Y224777D01*
X84123Y224907D01*
X84133Y225037D01*
X84138Y225167D01*
X84140Y225298D01*
X83675Y223280D02*
X83652Y223220D01*
X83626Y223160D01*
X83597Y223103D01*
X83564Y223047D01*
X83528Y222993D01*
X83490Y222941D01*
X83448Y222891D01*
X83404Y222844D01*
X83357Y222799D01*
X83307Y222757D01*
X83256Y222718D01*
X83202Y222682D01*
X83146Y222649D01*
X83089Y222619D01*
X83030Y222592D01*
X82969Y222569D01*
X82908Y222549D01*
X82845Y222533D01*
X82781Y222520D01*
X82717Y222511D01*
X82653Y222506D01*
X82588Y222504D01*
X81346Y223746D02*
X83830Y226850D01*
D11*
X88900Y177800D03*
X38100Y177800D03*
D12*
X127000Y101000D03*
X127000Y153000D03*
X114300Y101000D03*
X139700Y101000D03*
X152400Y101000D03*
X114300Y153000D03*
X139700Y153000D03*
X152400Y153000D03*
D13*
X57150Y120650D03*
X69850Y139700D03*
X82550Y120650D03*
D14*
X129150Y50800D03*
X112150Y50800D03*
D15*
X190500Y182000D03*
X190500Y199000D03*
X114300Y199000D03*
X114300Y182000D03*
D14*
X129150Y69850D03*
X112150Y69850D03*
D15*
X177800Y122800D03*
X177800Y105800D03*
D14*
X143900Y69850D03*
X160900Y69850D03*
D15*
X69850Y52950D03*
X69850Y35950D03*
X69850Y74050D03*
X69850Y91050D03*
X88900Y74050D03*
X88900Y91050D03*
X152400Y199000D03*
X152400Y182000D03*
X171450Y182000D03*
X171450Y199000D03*
X133350Y182000D03*
X133350Y199000D03*
X196850Y105800D03*
X196850Y122800D03*
D16*
X32004Y19050D02*
X18796Y19050D01*
X18796Y44450D02*
X32004Y44450D01*
D17*
X203200Y76200D03*
D18*
X203200Y50800D03*
D14*
X112150Y31750D03*
X129150Y31750D03*
D19*
X277813Y44450D03*
X277813Y19050D03*
D20*
X33020Y76200D02*
X17780Y76200D01*
X17780Y101600D02*
X33020Y101600D01*
X33020Y127000D02*
X17780Y127000D01*
D21*
X183000Y158750D03*
X198000Y158750D03*
D12*
X222250Y164500D03*
X222250Y216500D03*
X209550Y164500D03*
X234950Y164500D03*
X247650Y164500D03*
X209550Y216500D03*
X234950Y216500D03*
X247650Y216500D03*
D22*
X222250Y257200D03*
X222250Y276200D03*
D23*
X135800Y393700D03*
X92800Y393700D03*
X199300Y393700D03*
X156300Y393700D03*
D13*
X222250Y120650D03*
X273050Y120650D03*
X247650Y82550D03*
X273050Y82550D03*
D24*
X241300Y328680D03*
X241300Y357120D03*
D25*
X193500Y279400D03*
X193500Y292100D03*
X193500Y304800D03*
X193500Y330200D03*
X193500Y342900D03*
X193500Y355600D03*
D26*
X90750Y317500D03*
D24*
X266700Y328680D03*
X266700Y357120D03*
D20*
X285750Y271140D02*
X285750Y255900D01*
X260350Y255900D02*
X260350Y271140D01*
X268600Y165100D02*
X283840Y165100D01*
X283840Y190500D02*
X268600Y190500D01*
X268600Y215900D02*
X283840Y215900D01*
D27*
X127000Y81433D02*
X121864Y76297D01*
X127000Y81433D02*
X127000Y101000D01*
X92012Y35950D02*
X103998Y23964D01*
X118097Y23964D01*
X121864Y27731D01*
X121864Y76297D01*
X92012Y35950D02*
X69850Y35950D01*
X61350Y44450D02*
X25400Y44450D01*
X61350Y44450D02*
X69850Y35950D01*
X143900Y69850D02*
X143900Y84700D01*
X139700Y88900D01*
X139700Y101000D01*
D28*
X143900Y69850D02*
X129150Y69850D01*
D29*
X88900Y74050D02*
X71900Y91050D01*
X69850Y91050D01*
X88900Y74050D02*
X107950Y74050D01*
X112150Y69850D01*
X114300Y72000D02*
X114300Y101000D01*
X114300Y72000D02*
X112150Y69850D01*
X88900Y91050D02*
X70925Y109025D01*
X69850Y110100D01*
X69850Y139700D01*
D27*
X31750Y107950D02*
X25400Y101600D01*
X31750Y107950D02*
X49812Y107950D01*
D30*
X49812Y107950D03*
X64488Y107950D03*
D27*
X65563Y109025D01*
X70925Y109025D01*
D29*
X171450Y196850D02*
X171450Y199000D01*
X171450Y196850D02*
X164701Y196850D01*
X159057Y191206D01*
X109055Y191206D01*
X171450Y199000D02*
X190500Y199000D01*
X82550Y170859D02*
X79502Y173907D01*
X79502Y181693D01*
X108349Y190500D02*
X109055Y191206D01*
X82550Y170859D02*
X82550Y120650D01*
X79502Y181693D02*
X88309Y190500D01*
X108349Y190500D01*
X133350Y182000D02*
X171450Y182000D01*
X139700Y175650D02*
X133350Y182000D01*
X139700Y175650D02*
X139700Y153000D01*
D28*
X139700Y133350D01*
X150156Y122894D01*
X158750Y122894D01*
D30*
X158750Y122894D03*
D28*
X184150Y69850D02*
X203200Y50800D01*
D30*
X167056Y94995D03*
D28*
X184150Y77901D01*
X184150Y69850D01*
X155875Y149525D02*
X152400Y153000D01*
D29*
X158025Y149525D02*
X190500Y182000D01*
X158025Y149525D02*
X155875Y149525D01*
X177800Y122800D02*
X196850Y122800D01*
X177800Y127600D02*
X152400Y153000D01*
X177800Y127600D02*
X177800Y122800D01*
X127000Y169300D02*
X114300Y182000D01*
X127000Y169300D02*
X127000Y153000D01*
X127000Y146050D01*
D31*
X127000Y153000D02*
X127000Y120650D01*
X132094Y115556D01*
X166629Y105800D02*
X177800Y105800D01*
X156873Y115556D02*
X132094Y115556D01*
X156873Y115556D02*
X166629Y105800D01*
D32*
X203402Y115260D02*
X204890Y116748D01*
X204890Y128852D01*
X187260Y115260D02*
X177800Y105800D01*
X198000Y135742D02*
X198000Y158750D01*
X203402Y115260D02*
X187260Y115260D01*
X204890Y128852D02*
X198000Y135742D01*
D29*
X198000Y158750D02*
X198069Y158750D01*
D30*
X198069Y158750D03*
X216888Y190500D03*
D29*
X276220Y190500D01*
D28*
X112150Y50800D02*
X110000Y52950D01*
D29*
X72000Y50800D02*
X70925Y51875D01*
X69850Y52950D01*
X112150Y50800D02*
X112150Y31750D01*
D31*
X101600Y177800D02*
X88900Y177800D01*
D28*
X80400Y52950D02*
X69850Y52950D01*
X80400Y52950D02*
X101600Y31750D01*
X112150Y31750D01*
X114300Y153000D02*
X114300Y165100D01*
X101600Y177800D01*
D30*
X69850Y177800D03*
D31*
X67700Y76200D02*
X25400Y76200D01*
X67700Y76200D02*
X69850Y74050D01*
X57150Y86750D01*
X57150Y120650D01*
X57150Y165100D01*
X69850Y177800D01*
X69850Y184150D01*
X84700Y199000D01*
X133350Y199000D01*
X150850Y216500D01*
X209550Y216500D01*
X222250Y120650D02*
X247650Y95250D01*
X247650Y82550D01*
X70925Y74050D02*
X69850Y74050D01*
X70925Y74050D02*
X70925Y51875D01*
X209550Y133350D02*
X222250Y120650D01*
X209550Y133350D02*
X209550Y164500D01*
X209550Y216500D01*
D30*
X165100Y69850D03*
X152400Y88900D03*
X101600Y139700D03*
X101600Y107950D03*
X69850Y158750D03*
X50800Y57150D03*
X95250Y57150D03*
X44450Y88900D03*
X177800Y158750D03*
X196850Y101600D03*
X152400Y203200D03*
X234950Y368300D03*
X247650Y368300D03*
X241300Y361950D03*
X234950Y355600D03*
X247650Y355600D03*
X260350Y355600D03*
X260350Y368300D03*
X273050Y368300D03*
X273050Y355600D03*
X266700Y361950D03*
X292100Y431800D03*
X266700Y431800D03*
X241300Y431800D03*
X241300Y419100D03*
X266700Y419100D03*
X292100Y419100D03*
X279400Y425450D03*
X254000Y425450D03*
X254000Y412750D03*
X279400Y412750D03*
X241300Y406400D03*
X266700Y406400D03*
X292100Y406400D03*
X279400Y400050D03*
X254000Y400050D03*
X241300Y393700D03*
X266700Y393700D03*
X292100Y393700D03*
X254000Y387350D03*
X279400Y387350D03*
X228600Y425450D03*
X228600Y412750D03*
X228600Y400050D03*
X228600Y387350D03*
X158750Y133350D03*
X136525Y123825D03*
X133350Y82550D03*
X228600Y361950D03*
X254000Y361950D03*
X241300Y374650D03*
X254000Y374650D03*
X266700Y374650D03*
X279400Y361950D03*
X247650Y165100D03*
X247650Y215900D03*
D28*
X141850Y44450D02*
X129150Y31750D01*
X141850Y44450D02*
X195900Y44450D01*
X199202Y41148D01*
X207198Y41148D01*
X210500Y44450D01*
X277813Y44450D01*
D33*
X222250Y216500D02*
X222250Y257200D01*
X234950Y244500D02*
X234950Y216500D01*
X234950Y244500D02*
X222250Y257200D01*
D30*
X127000Y400050D03*
X127000Y387350D03*
X139700Y400050D03*
X139700Y387350D03*
X152400Y400050D03*
X158750Y393700D03*
X165100Y400050D03*
X165100Y387350D03*
X152400Y387350D03*
D34*
X156300Y393700D02*
X158750Y393700D01*
X156300Y393700D02*
X135800Y393700D01*
D30*
X133350Y393700D03*
D34*
X135800Y393700D01*
D30*
X50800Y368300D03*
X63500Y361950D03*
X76200Y368300D03*
X101600Y368300D03*
X127000Y368300D03*
X88900Y361950D03*
X114300Y361950D03*
X50800Y355600D03*
X76200Y355600D03*
X101600Y355600D03*
X127000Y355600D03*
X127000Y342900D03*
X101600Y342900D03*
X76200Y342900D03*
X50800Y342900D03*
X50800Y330200D03*
X50800Y317500D03*
X50800Y304800D03*
X50800Y292100D03*
X50800Y279400D03*
X50800Y266700D03*
X76200Y266700D03*
X76200Y279400D03*
X76200Y292100D03*
X76200Y304800D03*
X76200Y317500D03*
X76200Y330200D03*
X101600Y330200D03*
X101600Y317500D03*
X101600Y304800D03*
X101600Y292100D03*
X101600Y279400D03*
X101600Y266700D03*
X127000Y266700D03*
X127000Y279400D03*
X127000Y292100D03*
X127000Y304800D03*
X127000Y317500D03*
X127000Y330200D03*
X114300Y349250D03*
X114300Y336550D03*
X114300Y323850D03*
X114300Y311150D03*
X114300Y298450D03*
X114300Y285750D03*
X114300Y273050D03*
X88900Y273050D03*
X88900Y285750D03*
X88900Y298450D03*
X88900Y311150D03*
X88900Y323850D03*
X88900Y336550D03*
X88900Y349250D03*
X63500Y349250D03*
X63500Y336550D03*
X63500Y323850D03*
X63500Y311150D03*
X63500Y298450D03*
X63500Y285750D03*
X63500Y273050D03*
X82550Y400050D03*
X88900Y393700D03*
X95250Y400050D03*
X95250Y387350D03*
X82550Y387350D03*
X6350Y431800D03*
X31750Y431800D03*
X31750Y431800D03*
X57150Y431800D03*
X69850Y425450D03*
X44450Y425450D03*
X19050Y425450D03*
X57150Y419100D03*
X31750Y419100D03*
X6350Y419100D03*
X19050Y412750D03*
X44450Y412750D03*
X69850Y412750D03*
X6350Y406400D03*
X31750Y406400D03*
X57150Y406400D03*
X19050Y400050D03*
X44450Y400050D03*
X69850Y400050D03*
X6350Y393700D03*
X31750Y393700D03*
X57150Y393700D03*
X69850Y387350D03*
X44450Y387350D03*
X19050Y387350D03*
X177800Y355600D03*
X203200Y355600D03*
X177800Y342900D03*
X177800Y330200D03*
X177800Y317500D03*
X177800Y304800D03*
X177800Y292100D03*
X203200Y292100D03*
X203200Y304800D03*
X203200Y317500D03*
X203200Y330200D03*
X203200Y342900D03*
X190500Y349250D03*
X190500Y336550D03*
X190500Y323850D03*
X190500Y311150D03*
X190500Y298450D03*
X241300Y330200D03*
X234950Y336550D03*
X247650Y336550D03*
X234950Y323850D03*
X247650Y323850D03*
X266700Y330200D03*
X260350Y336550D03*
X273050Y336550D03*
X273050Y323850D03*
X260350Y323850D03*
X190500Y387350D03*
X190500Y400050D03*
X196850Y393700D03*
X203200Y400050D03*
X203200Y387350D03*
X241300Y317500D03*
X254000Y330200D03*
X228600Y330200D03*
X254000Y317500D03*
X266700Y317500D03*
X279400Y330200D03*
D31*
X222250Y276200D02*
X209550Y276200D01*
X209550Y279400D01*
X193500Y279400D01*
D30*
X222250Y164500D03*
D29*
X222250Y177800D01*
X225425Y180975D01*
X260350Y180975D02*
X276220Y165100D01*
X260350Y180975D02*
X225425Y180975D01*
M02*
