G04 EAGLE Gerber RS-274X export*
G75*
%MOMM*%
%FSLAX34Y34*%
%LPD*%
%IN*%
%IPPOS*%
%AMOC8*
5,1,8,0,0,1.08239X$1,22.5*%
G01*
%ADD10C,0.254000*%


D10*
X50800Y190500D02*
X418900Y190500D01*
X418900Y479300D01*
X50800Y479300D01*
X50800Y190500D01*
X308610Y428720D02*
X308539Y427641D01*
X308398Y426569D01*
X308187Y425509D01*
X307908Y424465D01*
X307560Y423441D01*
X307146Y422443D01*
X306668Y421473D01*
X306128Y420537D01*
X305527Y419638D01*
X304869Y418781D01*
X304157Y417968D01*
X303392Y417204D01*
X302579Y416491D01*
X301722Y415833D01*
X300823Y415232D01*
X299887Y414692D01*
X298917Y414214D01*
X297919Y413800D01*
X296895Y413452D01*
X295851Y413173D01*
X294791Y412962D01*
X293719Y412821D01*
X292640Y412750D01*
X291560Y412750D01*
X290481Y412821D01*
X289409Y412962D01*
X288349Y413173D01*
X287305Y413452D01*
X286281Y413800D01*
X285283Y414214D01*
X284313Y414692D01*
X283377Y415232D01*
X282478Y415833D01*
X281621Y416491D01*
X280808Y417204D01*
X280044Y417968D01*
X279331Y418781D01*
X278673Y419638D01*
X278072Y420537D01*
X277532Y421473D01*
X277054Y422443D01*
X276640Y423441D01*
X276292Y424465D01*
X276013Y425509D01*
X275802Y426569D01*
X275661Y427641D01*
X275590Y428720D01*
X275590Y429800D01*
X275661Y430879D01*
X275802Y431951D01*
X276013Y433011D01*
X276292Y434055D01*
X276640Y435079D01*
X277054Y436077D01*
X277532Y437047D01*
X278072Y437983D01*
X278673Y438882D01*
X279331Y439739D01*
X280044Y440552D01*
X280808Y441317D01*
X281621Y442029D01*
X282478Y442687D01*
X283377Y443288D01*
X284313Y443828D01*
X285283Y444306D01*
X286281Y444720D01*
X287305Y445068D01*
X288349Y445347D01*
X289409Y445558D01*
X290481Y445699D01*
X291560Y445770D01*
X292640Y445770D01*
X293719Y445699D01*
X294791Y445558D01*
X295851Y445347D01*
X296895Y445068D01*
X297919Y444720D01*
X298917Y444306D01*
X299887Y443828D01*
X300823Y443288D01*
X301722Y442687D01*
X302579Y442029D01*
X303392Y441317D01*
X304157Y440552D01*
X304869Y439739D01*
X305527Y438882D01*
X306128Y437983D01*
X306668Y437047D01*
X307146Y436077D01*
X307560Y435079D01*
X307908Y434055D01*
X308187Y433011D01*
X308398Y431951D01*
X308539Y430879D01*
X308610Y429800D01*
X308610Y428720D01*
M02*
