G04 EAGLE Gerber RS-274X export*
G75*
%MOMM*%
%FSLAX34Y34*%
%LPD*%
%INSilkscreen Top*%
%IPPOS*%
%AMOC8*
5,1,8,0,0,1.08239X$1,22.5*%
G01*
%ADD10C,0.304800*%
%ADD11C,0.152400*%
%ADD12C,0.127000*%
%ADD13C,0.254000*%
%ADD14C,0.203200*%
%ADD15C,0.050800*%
%ADD16R,0.762000X0.635000*%
%ADD17R,1.270000X2.794000*%
%ADD18C,0.177800*%


D10*
X168148Y400050D02*
X168148Y406400D01*
X168148Y412750D01*
D11*
X168148Y406400D02*
X180340Y406400D01*
D10*
X161798Y406400D02*
X161798Y400050D01*
X161798Y406400D02*
X161798Y412750D01*
D11*
X161798Y406400D02*
X149860Y406400D01*
X201930Y386080D02*
X201930Y426720D01*
X199390Y429260D02*
X130810Y429260D01*
X128270Y426720D02*
X128270Y386080D01*
X130810Y383540D02*
X199390Y383540D01*
X130810Y383540D02*
X130710Y383542D01*
X130611Y383548D01*
X130511Y383558D01*
X130413Y383571D01*
X130314Y383589D01*
X130217Y383610D01*
X130121Y383635D01*
X130025Y383664D01*
X129931Y383697D01*
X129838Y383733D01*
X129747Y383773D01*
X129657Y383817D01*
X129569Y383864D01*
X129483Y383914D01*
X129399Y383968D01*
X129317Y384025D01*
X129238Y384085D01*
X129160Y384149D01*
X129086Y384215D01*
X129014Y384284D01*
X128945Y384356D01*
X128879Y384430D01*
X128815Y384508D01*
X128755Y384587D01*
X128698Y384669D01*
X128644Y384753D01*
X128594Y384839D01*
X128547Y384927D01*
X128503Y385017D01*
X128463Y385108D01*
X128427Y385201D01*
X128394Y385295D01*
X128365Y385391D01*
X128340Y385487D01*
X128319Y385584D01*
X128301Y385683D01*
X128288Y385781D01*
X128278Y385881D01*
X128272Y385980D01*
X128270Y386080D01*
X128270Y426720D02*
X128272Y426820D01*
X128278Y426919D01*
X128288Y427019D01*
X128301Y427117D01*
X128319Y427216D01*
X128340Y427313D01*
X128365Y427409D01*
X128394Y427505D01*
X128427Y427599D01*
X128463Y427692D01*
X128503Y427783D01*
X128547Y427873D01*
X128594Y427961D01*
X128644Y428047D01*
X128698Y428131D01*
X128755Y428213D01*
X128815Y428292D01*
X128879Y428370D01*
X128945Y428444D01*
X129014Y428516D01*
X129086Y428585D01*
X129160Y428651D01*
X129238Y428715D01*
X129317Y428775D01*
X129399Y428832D01*
X129483Y428886D01*
X129569Y428936D01*
X129657Y428983D01*
X129747Y429027D01*
X129838Y429067D01*
X129931Y429103D01*
X130025Y429136D01*
X130121Y429165D01*
X130217Y429190D01*
X130314Y429211D01*
X130413Y429229D01*
X130511Y429242D01*
X130611Y429252D01*
X130710Y429258D01*
X130810Y429260D01*
X199390Y429260D02*
X199490Y429258D01*
X199589Y429252D01*
X199689Y429242D01*
X199787Y429229D01*
X199886Y429211D01*
X199983Y429190D01*
X200079Y429165D01*
X200175Y429136D01*
X200269Y429103D01*
X200362Y429067D01*
X200453Y429027D01*
X200543Y428983D01*
X200631Y428936D01*
X200717Y428886D01*
X200801Y428832D01*
X200883Y428775D01*
X200962Y428715D01*
X201040Y428651D01*
X201114Y428585D01*
X201186Y428516D01*
X201255Y428444D01*
X201321Y428370D01*
X201385Y428292D01*
X201445Y428213D01*
X201502Y428131D01*
X201556Y428047D01*
X201606Y427961D01*
X201653Y427873D01*
X201697Y427783D01*
X201737Y427692D01*
X201773Y427599D01*
X201806Y427505D01*
X201835Y427409D01*
X201860Y427313D01*
X201881Y427216D01*
X201899Y427117D01*
X201912Y427019D01*
X201922Y426919D01*
X201928Y426820D01*
X201930Y426720D01*
X201930Y386080D02*
X201928Y385980D01*
X201922Y385881D01*
X201912Y385781D01*
X201899Y385683D01*
X201881Y385584D01*
X201860Y385487D01*
X201835Y385391D01*
X201806Y385295D01*
X201773Y385201D01*
X201737Y385108D01*
X201697Y385017D01*
X201653Y384927D01*
X201606Y384839D01*
X201556Y384753D01*
X201502Y384669D01*
X201445Y384587D01*
X201385Y384508D01*
X201321Y384430D01*
X201255Y384356D01*
X201186Y384284D01*
X201114Y384215D01*
X201040Y384149D01*
X200962Y384085D01*
X200883Y384025D01*
X200801Y383968D01*
X200717Y383914D01*
X200631Y383864D01*
X200543Y383817D01*
X200453Y383773D01*
X200362Y383733D01*
X200269Y383697D01*
X200175Y383664D01*
X200079Y383635D01*
X199983Y383610D01*
X199886Y383589D01*
X199787Y383571D01*
X199689Y383558D01*
X199589Y383548D01*
X199490Y383542D01*
X199390Y383540D01*
D12*
X189193Y367665D02*
X186653Y367665D01*
X186553Y367667D01*
X186454Y367673D01*
X186354Y367683D01*
X186256Y367696D01*
X186157Y367714D01*
X186060Y367735D01*
X185964Y367760D01*
X185868Y367789D01*
X185774Y367822D01*
X185681Y367858D01*
X185590Y367898D01*
X185500Y367942D01*
X185412Y367989D01*
X185326Y368039D01*
X185242Y368093D01*
X185160Y368150D01*
X185081Y368210D01*
X185003Y368274D01*
X184929Y368340D01*
X184857Y368409D01*
X184788Y368481D01*
X184722Y368555D01*
X184658Y368633D01*
X184598Y368712D01*
X184541Y368794D01*
X184487Y368878D01*
X184437Y368964D01*
X184390Y369052D01*
X184346Y369142D01*
X184306Y369233D01*
X184270Y369326D01*
X184237Y369420D01*
X184208Y369516D01*
X184183Y369612D01*
X184162Y369709D01*
X184144Y369808D01*
X184131Y369906D01*
X184121Y370006D01*
X184115Y370105D01*
X184113Y370205D01*
X184113Y376555D01*
X184115Y376655D01*
X184121Y376754D01*
X184131Y376854D01*
X184144Y376952D01*
X184162Y377051D01*
X184183Y377148D01*
X184208Y377244D01*
X184237Y377340D01*
X184270Y377434D01*
X184306Y377527D01*
X184346Y377618D01*
X184390Y377708D01*
X184437Y377796D01*
X184487Y377882D01*
X184541Y377966D01*
X184598Y378048D01*
X184658Y378127D01*
X184722Y378205D01*
X184788Y378279D01*
X184857Y378351D01*
X184929Y378420D01*
X185003Y378486D01*
X185081Y378550D01*
X185160Y378610D01*
X185242Y378667D01*
X185326Y378721D01*
X185412Y378771D01*
X185500Y378818D01*
X185590Y378862D01*
X185681Y378902D01*
X185774Y378938D01*
X185868Y378971D01*
X185964Y379000D01*
X186060Y379025D01*
X186157Y379046D01*
X186256Y379064D01*
X186354Y379077D01*
X186454Y379087D01*
X186553Y379093D01*
X186653Y379095D01*
X189193Y379095D01*
X193675Y376555D02*
X196850Y379095D01*
X196850Y367665D01*
X193675Y367665D02*
X200025Y367665D01*
D11*
X194310Y281940D02*
X237490Y281940D01*
X237490Y251460D02*
X194310Y251460D01*
X240030Y254000D02*
X240030Y279400D01*
X191770Y279400D02*
X191770Y254000D01*
X237490Y281940D02*
X237590Y281938D01*
X237689Y281932D01*
X237789Y281922D01*
X237887Y281909D01*
X237986Y281891D01*
X238083Y281870D01*
X238179Y281845D01*
X238275Y281816D01*
X238369Y281783D01*
X238462Y281747D01*
X238553Y281707D01*
X238643Y281663D01*
X238731Y281616D01*
X238817Y281566D01*
X238901Y281512D01*
X238983Y281455D01*
X239062Y281395D01*
X239140Y281331D01*
X239214Y281265D01*
X239286Y281196D01*
X239355Y281124D01*
X239421Y281050D01*
X239485Y280972D01*
X239545Y280893D01*
X239602Y280811D01*
X239656Y280727D01*
X239706Y280641D01*
X239753Y280553D01*
X239797Y280463D01*
X239837Y280372D01*
X239873Y280279D01*
X239906Y280185D01*
X239935Y280089D01*
X239960Y279993D01*
X239981Y279896D01*
X239999Y279797D01*
X240012Y279699D01*
X240022Y279599D01*
X240028Y279500D01*
X240030Y279400D01*
X194310Y281940D02*
X194210Y281938D01*
X194111Y281932D01*
X194011Y281922D01*
X193913Y281909D01*
X193814Y281891D01*
X193717Y281870D01*
X193621Y281845D01*
X193525Y281816D01*
X193431Y281783D01*
X193338Y281747D01*
X193247Y281707D01*
X193157Y281663D01*
X193069Y281616D01*
X192983Y281566D01*
X192899Y281512D01*
X192817Y281455D01*
X192738Y281395D01*
X192660Y281331D01*
X192586Y281265D01*
X192514Y281196D01*
X192445Y281124D01*
X192379Y281050D01*
X192315Y280972D01*
X192255Y280893D01*
X192198Y280811D01*
X192144Y280727D01*
X192094Y280641D01*
X192047Y280553D01*
X192003Y280463D01*
X191963Y280372D01*
X191927Y280279D01*
X191894Y280185D01*
X191865Y280089D01*
X191840Y279993D01*
X191819Y279896D01*
X191801Y279797D01*
X191788Y279699D01*
X191778Y279599D01*
X191772Y279500D01*
X191770Y279400D01*
X237490Y251460D02*
X237590Y251462D01*
X237689Y251468D01*
X237789Y251478D01*
X237887Y251491D01*
X237986Y251509D01*
X238083Y251530D01*
X238179Y251555D01*
X238275Y251584D01*
X238369Y251617D01*
X238462Y251653D01*
X238553Y251693D01*
X238643Y251737D01*
X238731Y251784D01*
X238817Y251834D01*
X238901Y251888D01*
X238983Y251945D01*
X239062Y252005D01*
X239140Y252069D01*
X239214Y252135D01*
X239286Y252204D01*
X239355Y252276D01*
X239421Y252350D01*
X239485Y252428D01*
X239545Y252507D01*
X239602Y252589D01*
X239656Y252673D01*
X239706Y252759D01*
X239753Y252847D01*
X239797Y252937D01*
X239837Y253028D01*
X239873Y253121D01*
X239906Y253215D01*
X239935Y253311D01*
X239960Y253407D01*
X239981Y253504D01*
X239999Y253603D01*
X240012Y253701D01*
X240022Y253801D01*
X240028Y253900D01*
X240030Y254000D01*
X194310Y251460D02*
X194210Y251462D01*
X194111Y251468D01*
X194011Y251478D01*
X193913Y251491D01*
X193814Y251509D01*
X193717Y251530D01*
X193621Y251555D01*
X193525Y251584D01*
X193431Y251617D01*
X193338Y251653D01*
X193247Y251693D01*
X193157Y251737D01*
X193069Y251784D01*
X192983Y251834D01*
X192899Y251888D01*
X192817Y251945D01*
X192738Y252005D01*
X192660Y252069D01*
X192586Y252135D01*
X192514Y252204D01*
X192445Y252276D01*
X192379Y252350D01*
X192315Y252428D01*
X192255Y252507D01*
X192198Y252589D01*
X192144Y252673D01*
X192094Y252759D01*
X192047Y252847D01*
X192003Y252937D01*
X191963Y253028D01*
X191927Y253121D01*
X191894Y253215D01*
X191865Y253311D01*
X191840Y253407D01*
X191819Y253504D01*
X191801Y253603D01*
X191788Y253701D01*
X191778Y253801D01*
X191772Y253900D01*
X191770Y254000D01*
X218440Y266700D02*
X219710Y266700D01*
D13*
X218440Y266700D02*
X218440Y274320D01*
X218440Y266700D02*
X218440Y259080D01*
X213360Y266700D02*
X213360Y274320D01*
X213360Y266700D02*
X213360Y259080D01*
D11*
X213360Y266700D02*
X212090Y266700D01*
D12*
X198755Y286385D02*
X196215Y286385D01*
X196115Y286387D01*
X196016Y286393D01*
X195916Y286403D01*
X195818Y286416D01*
X195719Y286434D01*
X195622Y286455D01*
X195526Y286480D01*
X195430Y286509D01*
X195336Y286542D01*
X195243Y286578D01*
X195152Y286618D01*
X195062Y286662D01*
X194974Y286709D01*
X194888Y286759D01*
X194804Y286813D01*
X194722Y286870D01*
X194643Y286930D01*
X194565Y286994D01*
X194491Y287060D01*
X194419Y287129D01*
X194350Y287201D01*
X194284Y287275D01*
X194220Y287353D01*
X194160Y287432D01*
X194103Y287514D01*
X194049Y287598D01*
X193999Y287684D01*
X193952Y287772D01*
X193908Y287862D01*
X193868Y287953D01*
X193832Y288046D01*
X193799Y288140D01*
X193770Y288236D01*
X193745Y288332D01*
X193724Y288429D01*
X193706Y288528D01*
X193693Y288626D01*
X193683Y288726D01*
X193677Y288825D01*
X193675Y288925D01*
X193675Y295275D01*
X193677Y295375D01*
X193683Y295474D01*
X193693Y295574D01*
X193706Y295672D01*
X193724Y295771D01*
X193745Y295868D01*
X193770Y295964D01*
X193799Y296060D01*
X193832Y296154D01*
X193868Y296247D01*
X193908Y296338D01*
X193952Y296428D01*
X193999Y296516D01*
X194049Y296602D01*
X194103Y296686D01*
X194160Y296768D01*
X194220Y296847D01*
X194284Y296925D01*
X194350Y296999D01*
X194419Y297071D01*
X194491Y297140D01*
X194565Y297206D01*
X194643Y297270D01*
X194722Y297330D01*
X194804Y297387D01*
X194888Y297441D01*
X194974Y297491D01*
X195062Y297538D01*
X195152Y297582D01*
X195243Y297622D01*
X195336Y297658D01*
X195430Y297691D01*
X195526Y297720D01*
X195622Y297745D01*
X195719Y297766D01*
X195818Y297784D01*
X195916Y297797D01*
X196016Y297807D01*
X196115Y297813D01*
X196215Y297815D01*
X198755Y297815D01*
X206730Y297816D02*
X206834Y297814D01*
X206939Y297808D01*
X207043Y297799D01*
X207146Y297786D01*
X207249Y297768D01*
X207351Y297748D01*
X207453Y297723D01*
X207553Y297695D01*
X207653Y297663D01*
X207751Y297627D01*
X207848Y297588D01*
X207943Y297546D01*
X208037Y297500D01*
X208129Y297450D01*
X208219Y297398D01*
X208307Y297342D01*
X208393Y297282D01*
X208477Y297220D01*
X208558Y297155D01*
X208637Y297087D01*
X208714Y297015D01*
X208787Y296942D01*
X208859Y296865D01*
X208927Y296786D01*
X208992Y296705D01*
X209054Y296621D01*
X209114Y296535D01*
X209170Y296447D01*
X209222Y296357D01*
X209272Y296265D01*
X209318Y296171D01*
X209360Y296076D01*
X209399Y295979D01*
X209435Y295881D01*
X209467Y295781D01*
X209495Y295681D01*
X209520Y295579D01*
X209540Y295477D01*
X209558Y295374D01*
X209571Y295271D01*
X209580Y295167D01*
X209586Y295062D01*
X209588Y294958D01*
X206730Y297815D02*
X206612Y297813D01*
X206493Y297807D01*
X206375Y297798D01*
X206258Y297785D01*
X206141Y297767D01*
X206024Y297747D01*
X205908Y297722D01*
X205793Y297694D01*
X205680Y297661D01*
X205567Y297626D01*
X205455Y297586D01*
X205345Y297544D01*
X205236Y297497D01*
X205128Y297447D01*
X205023Y297394D01*
X204919Y297337D01*
X204817Y297277D01*
X204717Y297214D01*
X204619Y297147D01*
X204523Y297078D01*
X204430Y297005D01*
X204339Y296929D01*
X204250Y296851D01*
X204164Y296769D01*
X204081Y296685D01*
X204000Y296599D01*
X203923Y296509D01*
X203848Y296418D01*
X203776Y296324D01*
X203707Y296227D01*
X203642Y296129D01*
X203579Y296028D01*
X203520Y295925D01*
X203464Y295821D01*
X203412Y295715D01*
X203363Y295607D01*
X203318Y295498D01*
X203276Y295387D01*
X203238Y295275D01*
X208635Y292736D02*
X208711Y292811D01*
X208786Y292890D01*
X208857Y292971D01*
X208926Y293055D01*
X208991Y293141D01*
X209053Y293229D01*
X209113Y293319D01*
X209169Y293411D01*
X209222Y293506D01*
X209271Y293602D01*
X209317Y293700D01*
X209360Y293799D01*
X209399Y293900D01*
X209434Y294002D01*
X209466Y294105D01*
X209494Y294209D01*
X209519Y294314D01*
X209540Y294421D01*
X209557Y294527D01*
X209570Y294634D01*
X209579Y294742D01*
X209585Y294850D01*
X209587Y294958D01*
X208635Y292735D02*
X203237Y286385D01*
X209587Y286385D01*
D14*
X366500Y319900D02*
X371000Y319900D01*
X366500Y319900D02*
X366500Y365900D01*
X371000Y365900D01*
X391000Y365900D02*
X395500Y365900D01*
X395500Y319900D01*
X391000Y319900D01*
X391000Y374650D02*
X371000Y374650D01*
D12*
X363855Y338725D02*
X359029Y338725D01*
X359029Y340065D01*
X359031Y340135D01*
X359036Y340205D01*
X359046Y340275D01*
X359058Y340344D01*
X359075Y340412D01*
X359095Y340479D01*
X359118Y340546D01*
X359145Y340610D01*
X359175Y340674D01*
X359209Y340736D01*
X359245Y340795D01*
X359285Y340853D01*
X359328Y340909D01*
X359373Y340962D01*
X359422Y341013D01*
X359473Y341062D01*
X359526Y341107D01*
X359582Y341150D01*
X359640Y341190D01*
X359700Y341226D01*
X359761Y341260D01*
X359825Y341290D01*
X359889Y341317D01*
X359956Y341340D01*
X360023Y341360D01*
X360091Y341377D01*
X360160Y341389D01*
X360230Y341399D01*
X360300Y341404D01*
X360370Y341406D01*
X362514Y341406D01*
X362584Y341404D01*
X362654Y341399D01*
X362724Y341389D01*
X362793Y341377D01*
X362861Y341360D01*
X362928Y341340D01*
X362995Y341317D01*
X363059Y341290D01*
X363123Y341260D01*
X363185Y341226D01*
X363244Y341190D01*
X363302Y341150D01*
X363358Y341107D01*
X363411Y341062D01*
X363462Y341013D01*
X363511Y340962D01*
X363556Y340909D01*
X363599Y340853D01*
X363639Y340795D01*
X363675Y340735D01*
X363709Y340674D01*
X363739Y340610D01*
X363766Y340546D01*
X363789Y340479D01*
X363809Y340412D01*
X363826Y340344D01*
X363838Y340275D01*
X363848Y340205D01*
X363853Y340135D01*
X363855Y340065D01*
X363855Y338725D01*
X360101Y344394D02*
X359029Y345735D01*
X363855Y345735D01*
X363855Y347075D02*
X363855Y344394D01*
D14*
X366500Y256400D02*
X371000Y256400D01*
X366500Y256400D02*
X366500Y302400D01*
X371000Y302400D01*
X391000Y302400D02*
X395500Y302400D01*
X395500Y256400D01*
X391000Y256400D01*
X391000Y311150D02*
X371000Y311150D01*
D12*
X363855Y275225D02*
X359029Y275225D01*
X359029Y276565D01*
X359031Y276635D01*
X359036Y276705D01*
X359046Y276775D01*
X359058Y276844D01*
X359075Y276912D01*
X359095Y276979D01*
X359118Y277046D01*
X359145Y277110D01*
X359175Y277174D01*
X359209Y277236D01*
X359245Y277295D01*
X359285Y277353D01*
X359328Y277409D01*
X359373Y277462D01*
X359422Y277513D01*
X359473Y277562D01*
X359526Y277607D01*
X359582Y277650D01*
X359640Y277690D01*
X359700Y277726D01*
X359761Y277760D01*
X359825Y277790D01*
X359889Y277817D01*
X359956Y277840D01*
X360023Y277860D01*
X360091Y277877D01*
X360160Y277889D01*
X360230Y277899D01*
X360300Y277904D01*
X360370Y277906D01*
X362514Y277906D01*
X362584Y277904D01*
X362654Y277899D01*
X362724Y277889D01*
X362793Y277877D01*
X362861Y277860D01*
X362928Y277840D01*
X362995Y277817D01*
X363059Y277790D01*
X363123Y277760D01*
X363185Y277726D01*
X363244Y277690D01*
X363302Y277650D01*
X363358Y277607D01*
X363411Y277562D01*
X363462Y277513D01*
X363511Y277462D01*
X363556Y277409D01*
X363599Y277353D01*
X363639Y277295D01*
X363675Y277235D01*
X363709Y277174D01*
X363739Y277110D01*
X363766Y277046D01*
X363789Y276979D01*
X363809Y276912D01*
X363826Y276844D01*
X363838Y276775D01*
X363848Y276705D01*
X363853Y276635D01*
X363855Y276565D01*
X363855Y275225D01*
X359029Y282369D02*
X359031Y282437D01*
X359037Y282504D01*
X359046Y282571D01*
X359059Y282638D01*
X359076Y282703D01*
X359097Y282768D01*
X359121Y282831D01*
X359149Y282893D01*
X359180Y282953D01*
X359214Y283011D01*
X359252Y283067D01*
X359292Y283122D01*
X359336Y283173D01*
X359383Y283222D01*
X359432Y283269D01*
X359483Y283313D01*
X359538Y283353D01*
X359594Y283391D01*
X359652Y283425D01*
X359712Y283456D01*
X359774Y283484D01*
X359837Y283508D01*
X359902Y283529D01*
X359967Y283546D01*
X360034Y283559D01*
X360101Y283568D01*
X360168Y283574D01*
X360236Y283576D01*
X359029Y282369D02*
X359031Y282291D01*
X359037Y282213D01*
X359047Y282136D01*
X359060Y282059D01*
X359078Y281983D01*
X359099Y281908D01*
X359124Y281834D01*
X359153Y281762D01*
X359185Y281691D01*
X359221Y281622D01*
X359260Y281554D01*
X359303Y281489D01*
X359349Y281426D01*
X359398Y281365D01*
X359450Y281307D01*
X359505Y281252D01*
X359562Y281199D01*
X359622Y281150D01*
X359685Y281103D01*
X359750Y281060D01*
X359816Y281020D01*
X359885Y280983D01*
X359956Y280950D01*
X360028Y280920D01*
X360102Y280894D01*
X361174Y283173D02*
X361125Y283222D01*
X361073Y283269D01*
X361018Y283312D01*
X360961Y283353D01*
X360902Y283391D01*
X360841Y283425D01*
X360778Y283456D01*
X360714Y283484D01*
X360648Y283508D01*
X360582Y283528D01*
X360514Y283545D01*
X360445Y283558D01*
X360376Y283567D01*
X360306Y283573D01*
X360236Y283575D01*
X361174Y283173D02*
X363855Y280894D01*
X363855Y283575D01*
D11*
X215900Y300990D02*
X114300Y300990D01*
X114300Y359410D02*
X215900Y359410D01*
X114300Y359410D02*
X114300Y300990D01*
X215900Y300990D02*
X215900Y320040D01*
X215900Y340360D02*
X215900Y359410D01*
X215900Y340360D02*
X215653Y340357D01*
X215405Y340348D01*
X215158Y340333D01*
X214912Y340312D01*
X214666Y340285D01*
X214421Y340252D01*
X214176Y340213D01*
X213933Y340168D01*
X213691Y340117D01*
X213450Y340060D01*
X213211Y339998D01*
X212973Y339929D01*
X212737Y339855D01*
X212503Y339775D01*
X212271Y339690D01*
X212041Y339598D01*
X211813Y339502D01*
X211588Y339399D01*
X211365Y339292D01*
X211145Y339178D01*
X210928Y339060D01*
X210713Y338936D01*
X210502Y338807D01*
X210294Y338673D01*
X210089Y338534D01*
X209888Y338390D01*
X209690Y338242D01*
X209496Y338088D01*
X209306Y337930D01*
X209120Y337767D01*
X208938Y337600D01*
X208760Y337428D01*
X208586Y337252D01*
X208416Y337072D01*
X208251Y336887D01*
X208091Y336699D01*
X207935Y336507D01*
X207783Y336311D01*
X207637Y336112D01*
X207495Y335909D01*
X207359Y335702D01*
X207227Y335493D01*
X207101Y335280D01*
X206980Y335064D01*
X206864Y334846D01*
X206754Y334624D01*
X206649Y334400D01*
X206549Y334174D01*
X206455Y333945D01*
X206367Y333714D01*
X206284Y333480D01*
X206207Y333245D01*
X206136Y333008D01*
X206070Y332770D01*
X206011Y332530D01*
X205957Y332288D01*
X205909Y332045D01*
X205867Y331802D01*
X205831Y331557D01*
X205801Y331311D01*
X205777Y331065D01*
X205759Y330818D01*
X205747Y330571D01*
X205741Y330324D01*
X205741Y330076D01*
X205747Y329829D01*
X205759Y329582D01*
X205777Y329335D01*
X205801Y329089D01*
X205831Y328843D01*
X205867Y328598D01*
X205909Y328355D01*
X205957Y328112D01*
X206011Y327870D01*
X206070Y327630D01*
X206136Y327392D01*
X206207Y327155D01*
X206284Y326920D01*
X206367Y326686D01*
X206455Y326455D01*
X206549Y326226D01*
X206649Y326000D01*
X206754Y325776D01*
X206864Y325554D01*
X206980Y325336D01*
X207101Y325120D01*
X207227Y324907D01*
X207359Y324698D01*
X207495Y324491D01*
X207637Y324288D01*
X207783Y324089D01*
X207935Y323893D01*
X208091Y323701D01*
X208251Y323513D01*
X208416Y323328D01*
X208586Y323148D01*
X208760Y322972D01*
X208938Y322800D01*
X209120Y322633D01*
X209306Y322470D01*
X209496Y322312D01*
X209690Y322158D01*
X209888Y322010D01*
X210089Y321866D01*
X210294Y321727D01*
X210502Y321593D01*
X210713Y321464D01*
X210928Y321340D01*
X211145Y321222D01*
X211365Y321108D01*
X211588Y321001D01*
X211813Y320898D01*
X212041Y320802D01*
X212271Y320710D01*
X212503Y320625D01*
X212737Y320545D01*
X212973Y320471D01*
X213211Y320402D01*
X213450Y320340D01*
X213691Y320283D01*
X213933Y320232D01*
X214176Y320187D01*
X214421Y320148D01*
X214666Y320115D01*
X214912Y320088D01*
X215158Y320067D01*
X215405Y320052D01*
X215653Y320043D01*
X215900Y320040D01*
D12*
X219075Y336931D02*
X230505Y336931D01*
X230505Y335661D02*
X230505Y338201D01*
X219075Y338201D02*
X219075Y335661D01*
X230505Y345403D02*
X230505Y347943D01*
X230505Y345403D02*
X230503Y345303D01*
X230497Y345204D01*
X230487Y345104D01*
X230474Y345006D01*
X230456Y344907D01*
X230435Y344810D01*
X230410Y344714D01*
X230381Y344618D01*
X230348Y344524D01*
X230312Y344431D01*
X230272Y344340D01*
X230228Y344250D01*
X230181Y344162D01*
X230131Y344076D01*
X230077Y343992D01*
X230020Y343910D01*
X229960Y343831D01*
X229896Y343753D01*
X229830Y343679D01*
X229761Y343607D01*
X229689Y343538D01*
X229615Y343472D01*
X229537Y343408D01*
X229458Y343348D01*
X229376Y343291D01*
X229292Y343237D01*
X229206Y343187D01*
X229118Y343140D01*
X229028Y343096D01*
X228937Y343056D01*
X228844Y343020D01*
X228750Y342987D01*
X228654Y342958D01*
X228558Y342933D01*
X228461Y342912D01*
X228362Y342894D01*
X228264Y342881D01*
X228164Y342871D01*
X228065Y342865D01*
X227965Y342863D01*
X221615Y342863D01*
X221515Y342865D01*
X221416Y342871D01*
X221316Y342881D01*
X221218Y342894D01*
X221119Y342912D01*
X221022Y342933D01*
X220926Y342958D01*
X220830Y342987D01*
X220736Y343020D01*
X220643Y343056D01*
X220552Y343096D01*
X220462Y343140D01*
X220374Y343187D01*
X220288Y343237D01*
X220204Y343291D01*
X220122Y343348D01*
X220043Y343408D01*
X219965Y343472D01*
X219891Y343538D01*
X219819Y343607D01*
X219750Y343679D01*
X219684Y343753D01*
X219620Y343831D01*
X219560Y343910D01*
X219503Y343992D01*
X219449Y344076D01*
X219399Y344162D01*
X219352Y344250D01*
X219308Y344340D01*
X219268Y344431D01*
X219232Y344524D01*
X219199Y344618D01*
X219170Y344714D01*
X219145Y344810D01*
X219124Y344907D01*
X219106Y345006D01*
X219093Y345104D01*
X219083Y345204D01*
X219077Y345303D01*
X219075Y345403D01*
X219075Y347943D01*
X221615Y352425D02*
X219075Y355600D01*
X230505Y355600D01*
X230505Y352425D02*
X230505Y358775D01*
D11*
X88900Y361950D02*
X88900Y349250D01*
X82550Y342900D01*
X69850Y342900D01*
X63500Y349250D01*
X82550Y342900D02*
X88900Y336550D01*
X88900Y323850D01*
X82550Y317500D01*
X69850Y317500D01*
X63500Y323850D01*
X63500Y336550D01*
X69850Y342900D01*
X69850Y368300D02*
X82550Y368300D01*
X88900Y361950D01*
X69850Y368300D02*
X63500Y361950D01*
X63500Y349250D01*
X82550Y317500D02*
X88900Y311150D01*
X88900Y298450D01*
X82550Y292100D01*
X69850Y292100D01*
X63500Y298450D01*
X63500Y311150D01*
X69850Y317500D01*
D12*
X69723Y269038D02*
X78613Y269038D01*
X78713Y269036D01*
X78812Y269030D01*
X78912Y269020D01*
X79010Y269007D01*
X79109Y268989D01*
X79206Y268968D01*
X79302Y268943D01*
X79398Y268914D01*
X79492Y268881D01*
X79585Y268845D01*
X79676Y268805D01*
X79766Y268761D01*
X79854Y268714D01*
X79940Y268664D01*
X80024Y268610D01*
X80106Y268553D01*
X80185Y268493D01*
X80263Y268429D01*
X80337Y268363D01*
X80409Y268294D01*
X80478Y268222D01*
X80544Y268148D01*
X80608Y268070D01*
X80668Y267991D01*
X80725Y267909D01*
X80779Y267825D01*
X80829Y267739D01*
X80876Y267651D01*
X80920Y267561D01*
X80960Y267470D01*
X80996Y267377D01*
X81029Y267283D01*
X81058Y267187D01*
X81083Y267091D01*
X81104Y266994D01*
X81122Y266895D01*
X81135Y266797D01*
X81145Y266697D01*
X81151Y266598D01*
X81153Y266498D01*
X81153Y265228D01*
X81153Y275019D02*
X69723Y275019D01*
X69723Y278194D01*
X69725Y278305D01*
X69731Y278415D01*
X69740Y278526D01*
X69754Y278636D01*
X69771Y278745D01*
X69792Y278854D01*
X69817Y278962D01*
X69846Y279069D01*
X69878Y279175D01*
X69914Y279280D01*
X69954Y279383D01*
X69997Y279485D01*
X70044Y279586D01*
X70095Y279685D01*
X70148Y279782D01*
X70205Y279876D01*
X70266Y279969D01*
X70329Y280060D01*
X70396Y280149D01*
X70466Y280235D01*
X70539Y280318D01*
X70614Y280400D01*
X70692Y280478D01*
X70774Y280553D01*
X70857Y280626D01*
X70943Y280696D01*
X71032Y280763D01*
X71123Y280826D01*
X71216Y280887D01*
X71311Y280944D01*
X71407Y280997D01*
X71506Y281048D01*
X71607Y281095D01*
X71709Y281138D01*
X71812Y281178D01*
X71917Y281214D01*
X72023Y281246D01*
X72130Y281275D01*
X72238Y281300D01*
X72347Y281321D01*
X72456Y281338D01*
X72566Y281352D01*
X72677Y281361D01*
X72787Y281367D01*
X72898Y281369D01*
X73009Y281367D01*
X73119Y281361D01*
X73230Y281352D01*
X73340Y281338D01*
X73449Y281321D01*
X73558Y281300D01*
X73666Y281275D01*
X73773Y281246D01*
X73879Y281214D01*
X73984Y281178D01*
X74087Y281138D01*
X74189Y281095D01*
X74290Y281048D01*
X74389Y280997D01*
X74486Y280944D01*
X74580Y280887D01*
X74673Y280826D01*
X74764Y280763D01*
X74853Y280696D01*
X74939Y280626D01*
X75022Y280553D01*
X75104Y280478D01*
X75182Y280400D01*
X75257Y280318D01*
X75330Y280235D01*
X75400Y280149D01*
X75467Y280060D01*
X75530Y279969D01*
X75591Y279876D01*
X75648Y279782D01*
X75701Y279685D01*
X75752Y279586D01*
X75799Y279485D01*
X75842Y279383D01*
X75882Y279280D01*
X75918Y279175D01*
X75950Y279069D01*
X75979Y278962D01*
X76004Y278854D01*
X76025Y278745D01*
X76042Y278636D01*
X76056Y278526D01*
X76065Y278415D01*
X76071Y278305D01*
X76073Y278194D01*
X76073Y275019D01*
X72263Y285877D02*
X69723Y289052D01*
X81153Y289052D01*
X81153Y285877D02*
X81153Y292227D01*
D11*
X365760Y447040D02*
X396240Y447040D01*
X365760Y447040D02*
X365760Y391160D01*
X396240Y391160D01*
X396240Y447040D01*
D12*
X362585Y399415D02*
X362585Y396875D01*
X362583Y396775D01*
X362577Y396676D01*
X362567Y396576D01*
X362554Y396478D01*
X362536Y396379D01*
X362515Y396282D01*
X362490Y396186D01*
X362461Y396090D01*
X362428Y395996D01*
X362392Y395903D01*
X362352Y395812D01*
X362308Y395722D01*
X362261Y395634D01*
X362211Y395548D01*
X362157Y395464D01*
X362100Y395382D01*
X362040Y395303D01*
X361976Y395225D01*
X361910Y395151D01*
X361841Y395079D01*
X361769Y395010D01*
X361695Y394944D01*
X361617Y394880D01*
X361538Y394820D01*
X361456Y394763D01*
X361372Y394709D01*
X361286Y394659D01*
X361198Y394612D01*
X361108Y394568D01*
X361017Y394528D01*
X360924Y394492D01*
X360830Y394459D01*
X360734Y394430D01*
X360638Y394405D01*
X360541Y394384D01*
X360442Y394366D01*
X360344Y394353D01*
X360244Y394343D01*
X360145Y394337D01*
X360045Y394335D01*
X353695Y394335D01*
X353595Y394337D01*
X353496Y394343D01*
X353396Y394353D01*
X353298Y394366D01*
X353199Y394384D01*
X353102Y394405D01*
X353006Y394430D01*
X352910Y394459D01*
X352816Y394492D01*
X352723Y394528D01*
X352632Y394568D01*
X352542Y394612D01*
X352454Y394659D01*
X352368Y394709D01*
X352284Y394763D01*
X352202Y394820D01*
X352123Y394880D01*
X352045Y394944D01*
X351971Y395010D01*
X351899Y395079D01*
X351830Y395151D01*
X351764Y395225D01*
X351700Y395303D01*
X351640Y395382D01*
X351583Y395464D01*
X351529Y395548D01*
X351479Y395634D01*
X351432Y395722D01*
X351388Y395812D01*
X351348Y395903D01*
X351312Y395996D01*
X351279Y396090D01*
X351250Y396186D01*
X351225Y396282D01*
X351204Y396379D01*
X351186Y396478D01*
X351173Y396576D01*
X351163Y396676D01*
X351157Y396775D01*
X351155Y396875D01*
X351155Y399415D01*
X354330Y403897D02*
X359410Y403897D01*
X354330Y403897D02*
X354219Y403899D01*
X354109Y403905D01*
X353998Y403914D01*
X353888Y403928D01*
X353779Y403945D01*
X353670Y403966D01*
X353562Y403991D01*
X353455Y404020D01*
X353349Y404052D01*
X353244Y404088D01*
X353141Y404128D01*
X353039Y404171D01*
X352938Y404218D01*
X352839Y404269D01*
X352743Y404322D01*
X352648Y404379D01*
X352555Y404440D01*
X352464Y404503D01*
X352375Y404570D01*
X352289Y404640D01*
X352206Y404713D01*
X352124Y404788D01*
X352046Y404866D01*
X351971Y404948D01*
X351898Y405031D01*
X351828Y405117D01*
X351761Y405206D01*
X351698Y405297D01*
X351637Y405390D01*
X351580Y405485D01*
X351527Y405581D01*
X351476Y405680D01*
X351429Y405781D01*
X351386Y405883D01*
X351346Y405986D01*
X351310Y406091D01*
X351278Y406197D01*
X351249Y406304D01*
X351224Y406412D01*
X351203Y406521D01*
X351186Y406630D01*
X351172Y406740D01*
X351163Y406851D01*
X351157Y406961D01*
X351155Y407072D01*
X351157Y407183D01*
X351163Y407293D01*
X351172Y407404D01*
X351186Y407514D01*
X351203Y407623D01*
X351224Y407732D01*
X351249Y407840D01*
X351278Y407947D01*
X351310Y408053D01*
X351346Y408158D01*
X351386Y408261D01*
X351429Y408363D01*
X351476Y408464D01*
X351527Y408563D01*
X351580Y408660D01*
X351637Y408754D01*
X351698Y408847D01*
X351761Y408938D01*
X351828Y409027D01*
X351898Y409113D01*
X351971Y409196D01*
X352046Y409278D01*
X352124Y409356D01*
X352206Y409431D01*
X352289Y409504D01*
X352375Y409574D01*
X352464Y409641D01*
X352555Y409704D01*
X352648Y409765D01*
X352743Y409822D01*
X352839Y409875D01*
X352938Y409926D01*
X353039Y409973D01*
X353141Y410016D01*
X353244Y410056D01*
X353349Y410092D01*
X353455Y410124D01*
X353562Y410153D01*
X353670Y410178D01*
X353779Y410199D01*
X353888Y410216D01*
X353998Y410230D01*
X354109Y410239D01*
X354219Y410245D01*
X354330Y410247D01*
X359410Y410247D01*
X359521Y410245D01*
X359631Y410239D01*
X359742Y410230D01*
X359852Y410216D01*
X359961Y410199D01*
X360070Y410178D01*
X360178Y410153D01*
X360285Y410124D01*
X360391Y410092D01*
X360496Y410056D01*
X360599Y410016D01*
X360701Y409973D01*
X360802Y409926D01*
X360901Y409875D01*
X360998Y409822D01*
X361092Y409765D01*
X361185Y409704D01*
X361276Y409641D01*
X361365Y409574D01*
X361451Y409504D01*
X361534Y409431D01*
X361616Y409356D01*
X361694Y409278D01*
X361769Y409196D01*
X361842Y409113D01*
X361912Y409027D01*
X361979Y408938D01*
X362042Y408847D01*
X362103Y408754D01*
X362160Y408659D01*
X362213Y408563D01*
X362264Y408464D01*
X362311Y408363D01*
X362354Y408261D01*
X362394Y408158D01*
X362430Y408053D01*
X362462Y407947D01*
X362491Y407840D01*
X362516Y407732D01*
X362537Y407623D01*
X362554Y407514D01*
X362568Y407404D01*
X362577Y407293D01*
X362583Y407183D01*
X362585Y407072D01*
X362583Y406961D01*
X362577Y406851D01*
X362568Y406740D01*
X362554Y406630D01*
X362537Y406521D01*
X362516Y406412D01*
X362491Y406304D01*
X362462Y406197D01*
X362430Y406091D01*
X362394Y405986D01*
X362354Y405883D01*
X362311Y405781D01*
X362264Y405680D01*
X362213Y405581D01*
X362160Y405484D01*
X362103Y405390D01*
X362042Y405297D01*
X361979Y405206D01*
X361912Y405117D01*
X361842Y405031D01*
X361769Y404948D01*
X361694Y404866D01*
X361616Y404788D01*
X361534Y404713D01*
X361451Y404640D01*
X361365Y404570D01*
X361276Y404503D01*
X361185Y404440D01*
X361092Y404379D01*
X360998Y404322D01*
X360901Y404269D01*
X360802Y404218D01*
X360701Y404171D01*
X360599Y404128D01*
X360496Y404088D01*
X360391Y404052D01*
X360285Y404020D01*
X360178Y403991D01*
X360070Y403966D01*
X359961Y403945D01*
X359852Y403928D01*
X359742Y403914D01*
X359631Y403905D01*
X359521Y403899D01*
X359410Y403897D01*
X362585Y416216D02*
X351155Y416216D01*
X362585Y414946D02*
X362585Y417486D01*
X351155Y417486D02*
X351155Y414946D01*
X351155Y422592D02*
X362585Y422592D01*
X362585Y427672D01*
X358140Y432218D02*
X358140Y439838D01*
D11*
X340360Y243840D02*
X340360Y213360D01*
X396240Y213360D01*
X396240Y243840D01*
X340360Y243840D01*
D12*
X305181Y217805D02*
X303276Y217805D01*
X305181Y217805D02*
X305181Y211455D01*
X301371Y211455D01*
X301271Y211457D01*
X301172Y211463D01*
X301072Y211473D01*
X300974Y211486D01*
X300875Y211504D01*
X300778Y211525D01*
X300682Y211550D01*
X300586Y211579D01*
X300492Y211612D01*
X300399Y211648D01*
X300308Y211688D01*
X300218Y211732D01*
X300130Y211779D01*
X300044Y211829D01*
X299960Y211883D01*
X299878Y211940D01*
X299799Y212000D01*
X299721Y212064D01*
X299647Y212130D01*
X299575Y212199D01*
X299506Y212271D01*
X299440Y212345D01*
X299376Y212423D01*
X299316Y212502D01*
X299259Y212584D01*
X299205Y212668D01*
X299155Y212754D01*
X299108Y212842D01*
X299064Y212932D01*
X299024Y213023D01*
X298988Y213116D01*
X298955Y213210D01*
X298926Y213306D01*
X298901Y213402D01*
X298880Y213499D01*
X298862Y213598D01*
X298849Y213696D01*
X298839Y213796D01*
X298833Y213895D01*
X298831Y213995D01*
X298831Y220345D01*
X298833Y220445D01*
X298839Y220544D01*
X298849Y220644D01*
X298862Y220742D01*
X298880Y220841D01*
X298901Y220938D01*
X298926Y221034D01*
X298955Y221130D01*
X298988Y221224D01*
X299024Y221317D01*
X299064Y221408D01*
X299108Y221498D01*
X299155Y221586D01*
X299205Y221672D01*
X299259Y221756D01*
X299316Y221838D01*
X299376Y221917D01*
X299440Y221995D01*
X299506Y222069D01*
X299575Y222141D01*
X299647Y222210D01*
X299721Y222276D01*
X299799Y222340D01*
X299878Y222400D01*
X299960Y222457D01*
X300044Y222511D01*
X300130Y222561D01*
X300218Y222608D01*
X300308Y222652D01*
X300399Y222692D01*
X300492Y222728D01*
X300586Y222761D01*
X300682Y222790D01*
X300778Y222815D01*
X300875Y222836D01*
X300974Y222854D01*
X301072Y222867D01*
X301172Y222877D01*
X301271Y222883D01*
X301371Y222885D01*
X305181Y222885D01*
X311023Y222885D02*
X311023Y211455D01*
X317373Y211455D02*
X311023Y222885D01*
X317373Y222885D02*
X317373Y211455D01*
X323215Y211455D02*
X323215Y222885D01*
X326390Y222885D01*
X326501Y222883D01*
X326611Y222877D01*
X326722Y222868D01*
X326832Y222854D01*
X326941Y222837D01*
X327050Y222816D01*
X327158Y222791D01*
X327265Y222762D01*
X327371Y222730D01*
X327476Y222694D01*
X327579Y222654D01*
X327681Y222611D01*
X327782Y222564D01*
X327881Y222513D01*
X327978Y222460D01*
X328072Y222403D01*
X328165Y222342D01*
X328256Y222279D01*
X328345Y222212D01*
X328431Y222142D01*
X328514Y222069D01*
X328596Y221994D01*
X328674Y221916D01*
X328749Y221834D01*
X328822Y221751D01*
X328892Y221665D01*
X328959Y221576D01*
X329022Y221485D01*
X329083Y221392D01*
X329140Y221298D01*
X329193Y221201D01*
X329244Y221102D01*
X329291Y221001D01*
X329334Y220899D01*
X329374Y220796D01*
X329410Y220691D01*
X329442Y220585D01*
X329471Y220478D01*
X329496Y220370D01*
X329517Y220261D01*
X329534Y220152D01*
X329548Y220042D01*
X329557Y219931D01*
X329563Y219821D01*
X329565Y219710D01*
X329565Y214630D01*
X329563Y214519D01*
X329557Y214409D01*
X329548Y214298D01*
X329534Y214188D01*
X329517Y214079D01*
X329496Y213970D01*
X329471Y213862D01*
X329442Y213755D01*
X329410Y213649D01*
X329374Y213544D01*
X329334Y213441D01*
X329291Y213339D01*
X329244Y213238D01*
X329193Y213139D01*
X329140Y213042D01*
X329083Y212948D01*
X329022Y212855D01*
X328959Y212764D01*
X328892Y212675D01*
X328822Y212589D01*
X328749Y212506D01*
X328674Y212424D01*
X328596Y212346D01*
X328514Y212271D01*
X328431Y212198D01*
X328345Y212128D01*
X328256Y212061D01*
X328165Y211998D01*
X328072Y211937D01*
X327978Y211880D01*
X327881Y211827D01*
X327782Y211776D01*
X327681Y211729D01*
X327579Y211686D01*
X327476Y211646D01*
X327371Y211610D01*
X327265Y211578D01*
X327158Y211549D01*
X327050Y211524D01*
X326941Y211503D01*
X326832Y211486D01*
X326722Y211472D01*
X326611Y211463D01*
X326501Y211457D01*
X326390Y211455D01*
X323215Y211455D01*
X344170Y304800D02*
X240030Y304800D01*
X240030Y463550D02*
X344170Y463550D01*
X344170Y429260D02*
X344170Y304800D01*
X344170Y429260D02*
X335280Y429260D01*
X335280Y444500D01*
X344170Y444500D01*
X344170Y463550D01*
X240030Y429260D02*
X240030Y304800D01*
X240030Y429260D02*
X248920Y429260D01*
X248920Y444500D01*
X240030Y444500D01*
X240030Y463550D01*
D15*
X246380Y311150D02*
X337820Y311150D01*
X337820Y393700D01*
X246380Y393700D01*
X246380Y311150D01*
D12*
X274066Y429260D02*
X274071Y429703D01*
X274088Y430145D01*
X274115Y430587D01*
X274153Y431028D01*
X274202Y431468D01*
X274261Y431906D01*
X274332Y432343D01*
X274413Y432778D01*
X274504Y433211D01*
X274606Y433642D01*
X274719Y434070D01*
X274843Y434495D01*
X274976Y434917D01*
X275120Y435335D01*
X275274Y435750D01*
X275439Y436161D01*
X275613Y436568D01*
X275797Y436971D01*
X275992Y437368D01*
X276195Y437761D01*
X276409Y438149D01*
X276632Y438531D01*
X276864Y438908D01*
X277105Y439279D01*
X277356Y439644D01*
X277615Y440003D01*
X277883Y440355D01*
X278160Y440701D01*
X278444Y441039D01*
X278738Y441371D01*
X279039Y441695D01*
X279348Y442012D01*
X279665Y442321D01*
X279989Y442622D01*
X280321Y442916D01*
X280659Y443200D01*
X281005Y443477D01*
X281357Y443745D01*
X281716Y444004D01*
X282081Y444255D01*
X282452Y444496D01*
X282829Y444728D01*
X283211Y444951D01*
X283599Y445165D01*
X283992Y445368D01*
X284389Y445563D01*
X284792Y445747D01*
X285199Y445921D01*
X285610Y446086D01*
X286025Y446240D01*
X286443Y446384D01*
X286865Y446517D01*
X287290Y446641D01*
X287718Y446754D01*
X288149Y446856D01*
X288582Y446947D01*
X289017Y447028D01*
X289454Y447099D01*
X289892Y447158D01*
X290332Y447207D01*
X290773Y447245D01*
X291215Y447272D01*
X291657Y447289D01*
X292100Y447294D01*
X292543Y447289D01*
X292985Y447272D01*
X293427Y447245D01*
X293868Y447207D01*
X294308Y447158D01*
X294746Y447099D01*
X295183Y447028D01*
X295618Y446947D01*
X296051Y446856D01*
X296482Y446754D01*
X296910Y446641D01*
X297335Y446517D01*
X297757Y446384D01*
X298175Y446240D01*
X298590Y446086D01*
X299001Y445921D01*
X299408Y445747D01*
X299811Y445563D01*
X300208Y445368D01*
X300601Y445165D01*
X300989Y444951D01*
X301371Y444728D01*
X301748Y444496D01*
X302119Y444255D01*
X302484Y444004D01*
X302843Y443745D01*
X303195Y443477D01*
X303541Y443200D01*
X303879Y442916D01*
X304211Y442622D01*
X304535Y442321D01*
X304852Y442012D01*
X305161Y441695D01*
X305462Y441371D01*
X305756Y441039D01*
X306040Y440701D01*
X306317Y440355D01*
X306585Y440003D01*
X306844Y439644D01*
X307095Y439279D01*
X307336Y438908D01*
X307568Y438531D01*
X307791Y438149D01*
X308005Y437761D01*
X308208Y437368D01*
X308403Y436971D01*
X308587Y436568D01*
X308761Y436161D01*
X308926Y435750D01*
X309080Y435335D01*
X309224Y434917D01*
X309357Y434495D01*
X309481Y434070D01*
X309594Y433642D01*
X309696Y433211D01*
X309787Y432778D01*
X309868Y432343D01*
X309939Y431906D01*
X309998Y431468D01*
X310047Y431028D01*
X310085Y430587D01*
X310112Y430145D01*
X310129Y429703D01*
X310134Y429260D01*
X310129Y428817D01*
X310112Y428375D01*
X310085Y427933D01*
X310047Y427492D01*
X309998Y427052D01*
X309939Y426614D01*
X309868Y426177D01*
X309787Y425742D01*
X309696Y425309D01*
X309594Y424878D01*
X309481Y424450D01*
X309357Y424025D01*
X309224Y423603D01*
X309080Y423185D01*
X308926Y422770D01*
X308761Y422359D01*
X308587Y421952D01*
X308403Y421549D01*
X308208Y421152D01*
X308005Y420759D01*
X307791Y420371D01*
X307568Y419989D01*
X307336Y419612D01*
X307095Y419241D01*
X306844Y418876D01*
X306585Y418517D01*
X306317Y418165D01*
X306040Y417819D01*
X305756Y417481D01*
X305462Y417149D01*
X305161Y416825D01*
X304852Y416508D01*
X304535Y416199D01*
X304211Y415898D01*
X303879Y415604D01*
X303541Y415320D01*
X303195Y415043D01*
X302843Y414775D01*
X302484Y414516D01*
X302119Y414265D01*
X301748Y414024D01*
X301371Y413792D01*
X300989Y413569D01*
X300601Y413355D01*
X300208Y413152D01*
X299811Y412957D01*
X299408Y412773D01*
X299001Y412599D01*
X298590Y412434D01*
X298175Y412280D01*
X297757Y412136D01*
X297335Y412003D01*
X296910Y411879D01*
X296482Y411766D01*
X296051Y411664D01*
X295618Y411573D01*
X295183Y411492D01*
X294746Y411421D01*
X294308Y411362D01*
X293868Y411313D01*
X293427Y411275D01*
X292985Y411248D01*
X292543Y411231D01*
X292100Y411226D01*
X291657Y411231D01*
X291215Y411248D01*
X290773Y411275D01*
X290332Y411313D01*
X289892Y411362D01*
X289454Y411421D01*
X289017Y411492D01*
X288582Y411573D01*
X288149Y411664D01*
X287718Y411766D01*
X287290Y411879D01*
X286865Y412003D01*
X286443Y412136D01*
X286025Y412280D01*
X285610Y412434D01*
X285199Y412599D01*
X284792Y412773D01*
X284389Y412957D01*
X283992Y413152D01*
X283599Y413355D01*
X283211Y413569D01*
X282829Y413792D01*
X282452Y414024D01*
X282081Y414265D01*
X281716Y414516D01*
X281357Y414775D01*
X281005Y415043D01*
X280659Y415320D01*
X280321Y415604D01*
X279989Y415898D01*
X279665Y416199D01*
X279348Y416508D01*
X279039Y416825D01*
X278738Y417149D01*
X278444Y417481D01*
X278160Y417819D01*
X277883Y418165D01*
X277615Y418517D01*
X277356Y418876D01*
X277105Y419241D01*
X276864Y419612D01*
X276632Y419989D01*
X276409Y420371D01*
X276195Y420759D01*
X275992Y421152D01*
X275797Y421549D01*
X275613Y421952D01*
X275439Y422359D01*
X275274Y422770D01*
X275120Y423185D01*
X274976Y423603D01*
X274843Y424025D01*
X274719Y424450D01*
X274606Y424878D01*
X274504Y425309D01*
X274413Y425742D01*
X274332Y426177D01*
X274261Y426614D01*
X274202Y427052D01*
X274153Y427492D01*
X274115Y427933D01*
X274088Y428375D01*
X274071Y428817D01*
X274066Y429260D01*
X251164Y405511D02*
X248285Y396875D01*
X254042Y396875D02*
X251164Y405511D01*
X253323Y399034D02*
X249005Y399034D01*
X257680Y403592D02*
X260079Y405511D01*
X260079Y396875D01*
X257680Y396875D02*
X262478Y396875D01*
X266596Y404551D02*
X266596Y405511D01*
X271393Y405511D01*
X268994Y396875D01*
X274951Y396875D02*
X275431Y396875D01*
X274951Y396875D02*
X274951Y397355D01*
X275431Y397355D01*
X275431Y396875D01*
X274712Y394956D01*
X279077Y396875D02*
X281956Y396875D01*
X282042Y396877D01*
X282128Y396883D01*
X282214Y396892D01*
X282299Y396906D01*
X282383Y396923D01*
X282467Y396944D01*
X282549Y396969D01*
X282630Y396997D01*
X282710Y397029D01*
X282789Y397065D01*
X282865Y397104D01*
X282940Y397147D01*
X283013Y397192D01*
X283084Y397242D01*
X283152Y397294D01*
X283219Y397349D01*
X283282Y397407D01*
X283343Y397468D01*
X283401Y397531D01*
X283456Y397598D01*
X283509Y397666D01*
X283558Y397737D01*
X283603Y397810D01*
X283646Y397885D01*
X283685Y397961D01*
X283721Y398040D01*
X283753Y398120D01*
X283781Y398201D01*
X283806Y398284D01*
X283827Y398367D01*
X283844Y398451D01*
X283858Y398536D01*
X283867Y398622D01*
X283873Y398708D01*
X283875Y398794D01*
X283875Y399754D01*
X283873Y399840D01*
X283867Y399926D01*
X283858Y400012D01*
X283844Y400097D01*
X283827Y400181D01*
X283806Y400265D01*
X283781Y400347D01*
X283753Y400428D01*
X283721Y400508D01*
X283685Y400587D01*
X283646Y400663D01*
X283603Y400738D01*
X283558Y400811D01*
X283509Y400882D01*
X283456Y400950D01*
X283401Y401017D01*
X283343Y401080D01*
X283282Y401141D01*
X283219Y401199D01*
X283152Y401254D01*
X283084Y401307D01*
X283013Y401356D01*
X282940Y401401D01*
X282865Y401444D01*
X282789Y401483D01*
X282710Y401519D01*
X282630Y401551D01*
X282549Y401579D01*
X282467Y401604D01*
X282383Y401625D01*
X282299Y401642D01*
X282214Y401656D01*
X282128Y401665D01*
X282042Y401671D01*
X281956Y401673D01*
X279077Y401673D01*
X279077Y405511D01*
X283875Y405511D01*
X288404Y402632D02*
X288404Y396875D01*
X288404Y402632D02*
X292722Y402632D01*
X292797Y402630D01*
X292872Y402624D01*
X292947Y402614D01*
X293021Y402601D01*
X293094Y402583D01*
X293167Y402562D01*
X293238Y402536D01*
X293307Y402508D01*
X293375Y402475D01*
X293442Y402439D01*
X293506Y402400D01*
X293568Y402357D01*
X293628Y402311D01*
X293685Y402262D01*
X293740Y402211D01*
X293791Y402156D01*
X293840Y402099D01*
X293886Y402039D01*
X293929Y401977D01*
X293968Y401913D01*
X294004Y401846D01*
X294037Y401778D01*
X294065Y401709D01*
X294091Y401638D01*
X294112Y401565D01*
X294130Y401492D01*
X294143Y401418D01*
X294153Y401343D01*
X294159Y401268D01*
X294161Y401193D01*
X294161Y396875D01*
X291283Y396875D02*
X291283Y402632D01*
X299103Y402632D02*
X299103Y396875D01*
X299103Y402632D02*
X303421Y402632D01*
X303496Y402630D01*
X303571Y402624D01*
X303646Y402614D01*
X303720Y402601D01*
X303793Y402583D01*
X303866Y402562D01*
X303937Y402536D01*
X304006Y402508D01*
X304074Y402475D01*
X304141Y402439D01*
X304205Y402400D01*
X304267Y402357D01*
X304327Y402311D01*
X304384Y402262D01*
X304439Y402211D01*
X304490Y402156D01*
X304539Y402099D01*
X304585Y402039D01*
X304628Y401977D01*
X304667Y401913D01*
X304703Y401846D01*
X304736Y401778D01*
X304764Y401709D01*
X304790Y401638D01*
X304811Y401565D01*
X304829Y401492D01*
X304842Y401418D01*
X304852Y401343D01*
X304858Y401268D01*
X304860Y401193D01*
X304860Y396875D01*
X301981Y396875D02*
X301981Y402632D01*
D16*
X317500Y273685D03*
X292100Y273685D03*
X266700Y273685D03*
D17*
X266700Y290830D03*
X292100Y290830D03*
X317500Y290830D03*
D18*
X254889Y374904D02*
X254889Y382016D01*
X254891Y382148D01*
X254897Y382279D01*
X254907Y382411D01*
X254920Y382542D01*
X254938Y382672D01*
X254959Y382802D01*
X254984Y382932D01*
X255013Y383060D01*
X255046Y383188D01*
X255083Y383314D01*
X255123Y383440D01*
X255167Y383564D01*
X255215Y383687D01*
X255266Y383808D01*
X255321Y383928D01*
X255379Y384046D01*
X255441Y384162D01*
X255507Y384276D01*
X255575Y384389D01*
X255647Y384499D01*
X255722Y384607D01*
X255801Y384713D01*
X255882Y384817D01*
X255967Y384918D01*
X256054Y385016D01*
X256145Y385112D01*
X256238Y385205D01*
X256334Y385296D01*
X256432Y385383D01*
X256533Y385468D01*
X256637Y385549D01*
X256743Y385628D01*
X256851Y385703D01*
X256961Y385775D01*
X257074Y385843D01*
X257188Y385909D01*
X257304Y385971D01*
X257422Y386029D01*
X257542Y386084D01*
X257663Y386135D01*
X257786Y386183D01*
X257910Y386227D01*
X258036Y386267D01*
X258162Y386304D01*
X258290Y386337D01*
X258418Y386366D01*
X258548Y386391D01*
X258678Y386412D01*
X258808Y386430D01*
X258939Y386443D01*
X259071Y386453D01*
X259202Y386459D01*
X259334Y386461D01*
X259466Y386459D01*
X259597Y386453D01*
X259729Y386443D01*
X259860Y386430D01*
X259990Y386412D01*
X260120Y386391D01*
X260250Y386366D01*
X260378Y386337D01*
X260506Y386304D01*
X260632Y386267D01*
X260758Y386227D01*
X260882Y386183D01*
X261005Y386135D01*
X261126Y386084D01*
X261246Y386029D01*
X261364Y385971D01*
X261480Y385909D01*
X261594Y385843D01*
X261707Y385775D01*
X261817Y385703D01*
X261925Y385628D01*
X262031Y385549D01*
X262135Y385468D01*
X262236Y385383D01*
X262334Y385296D01*
X262430Y385205D01*
X262523Y385112D01*
X262614Y385016D01*
X262701Y384918D01*
X262786Y384817D01*
X262867Y384713D01*
X262946Y384607D01*
X263021Y384499D01*
X263093Y384389D01*
X263161Y384276D01*
X263227Y384162D01*
X263289Y384046D01*
X263347Y383928D01*
X263402Y383808D01*
X263453Y383687D01*
X263501Y383564D01*
X263545Y383440D01*
X263585Y383314D01*
X263622Y383188D01*
X263655Y383060D01*
X263684Y382932D01*
X263709Y382802D01*
X263730Y382672D01*
X263748Y382542D01*
X263761Y382411D01*
X263771Y382279D01*
X263777Y382148D01*
X263779Y382016D01*
X263779Y374904D01*
X263777Y374772D01*
X263771Y374641D01*
X263761Y374509D01*
X263748Y374378D01*
X263730Y374248D01*
X263709Y374118D01*
X263684Y373988D01*
X263655Y373860D01*
X263622Y373732D01*
X263585Y373606D01*
X263545Y373480D01*
X263501Y373356D01*
X263453Y373233D01*
X263402Y373112D01*
X263347Y372992D01*
X263289Y372874D01*
X263227Y372758D01*
X263161Y372644D01*
X263093Y372531D01*
X263021Y372421D01*
X262946Y372313D01*
X262867Y372207D01*
X262786Y372103D01*
X262701Y372002D01*
X262614Y371904D01*
X262523Y371808D01*
X262430Y371715D01*
X262334Y371624D01*
X262236Y371537D01*
X262135Y371452D01*
X262031Y371371D01*
X261925Y371292D01*
X261817Y371217D01*
X261707Y371145D01*
X261594Y371077D01*
X261480Y371011D01*
X261364Y370949D01*
X261246Y370891D01*
X261126Y370836D01*
X261005Y370785D01*
X260882Y370737D01*
X260758Y370693D01*
X260632Y370653D01*
X260506Y370616D01*
X260378Y370583D01*
X260250Y370554D01*
X260120Y370529D01*
X259990Y370508D01*
X259860Y370490D01*
X259729Y370477D01*
X259597Y370467D01*
X259466Y370461D01*
X259334Y370459D01*
X259202Y370461D01*
X259071Y370467D01*
X258939Y370477D01*
X258808Y370490D01*
X258678Y370508D01*
X258548Y370529D01*
X258418Y370554D01*
X258290Y370583D01*
X258162Y370616D01*
X258036Y370653D01*
X257910Y370693D01*
X257786Y370737D01*
X257663Y370785D01*
X257542Y370836D01*
X257422Y370891D01*
X257304Y370949D01*
X257188Y371011D01*
X257074Y371077D01*
X256961Y371145D01*
X256851Y371217D01*
X256743Y371292D01*
X256637Y371371D01*
X256533Y371452D01*
X256432Y371537D01*
X256334Y371624D01*
X256238Y371715D01*
X256145Y371808D01*
X256054Y371904D01*
X255967Y372002D01*
X255882Y372103D01*
X255801Y372207D01*
X255722Y372313D01*
X255647Y372421D01*
X255575Y372531D01*
X255507Y372644D01*
X255441Y372758D01*
X255379Y372874D01*
X255321Y372992D01*
X255266Y373112D01*
X255215Y373233D01*
X255167Y373356D01*
X255123Y373480D01*
X255083Y373606D01*
X255046Y373732D01*
X255013Y373860D01*
X254984Y373988D01*
X254959Y374118D01*
X254938Y374248D01*
X254920Y374378D01*
X254907Y374509D01*
X254897Y374641D01*
X254891Y374772D01*
X254889Y374904D01*
X262001Y374015D02*
X265557Y370459D01*
X270120Y382905D02*
X274565Y386461D01*
X274565Y370459D01*
X270120Y370459D02*
X279010Y370459D01*
D11*
X186690Y240030D02*
X186590Y240028D01*
X186491Y240022D01*
X186391Y240012D01*
X186293Y239999D01*
X186194Y239981D01*
X186097Y239960D01*
X186001Y239935D01*
X185905Y239906D01*
X185811Y239873D01*
X185718Y239837D01*
X185627Y239797D01*
X185537Y239753D01*
X185449Y239706D01*
X185363Y239656D01*
X185279Y239602D01*
X185197Y239545D01*
X185118Y239485D01*
X185040Y239421D01*
X184966Y239355D01*
X184894Y239286D01*
X184825Y239214D01*
X184759Y239140D01*
X184695Y239062D01*
X184635Y238983D01*
X184578Y238901D01*
X184524Y238817D01*
X184474Y238731D01*
X184427Y238643D01*
X184383Y238553D01*
X184343Y238462D01*
X184307Y238369D01*
X184274Y238275D01*
X184245Y238179D01*
X184220Y238083D01*
X184199Y237986D01*
X184181Y237887D01*
X184168Y237789D01*
X184158Y237689D01*
X184152Y237590D01*
X184150Y237490D01*
X184150Y219710D02*
X184152Y219610D01*
X184158Y219511D01*
X184168Y219411D01*
X184181Y219313D01*
X184199Y219214D01*
X184220Y219117D01*
X184245Y219021D01*
X184274Y218925D01*
X184307Y218831D01*
X184343Y218738D01*
X184383Y218647D01*
X184427Y218557D01*
X184474Y218469D01*
X184524Y218383D01*
X184578Y218299D01*
X184635Y218217D01*
X184695Y218138D01*
X184759Y218060D01*
X184825Y217986D01*
X184894Y217914D01*
X184966Y217845D01*
X185040Y217779D01*
X185118Y217715D01*
X185197Y217655D01*
X185279Y217598D01*
X185363Y217544D01*
X185449Y217494D01*
X185537Y217447D01*
X185627Y217403D01*
X185718Y217363D01*
X185811Y217327D01*
X185905Y217294D01*
X186001Y217265D01*
X186097Y217240D01*
X186194Y217219D01*
X186293Y217201D01*
X186391Y217188D01*
X186491Y217178D01*
X186590Y217172D01*
X186690Y217170D01*
X245110Y217170D02*
X245210Y217172D01*
X245309Y217178D01*
X245409Y217188D01*
X245507Y217201D01*
X245606Y217219D01*
X245703Y217240D01*
X245799Y217265D01*
X245895Y217294D01*
X245989Y217327D01*
X246082Y217363D01*
X246173Y217403D01*
X246263Y217447D01*
X246351Y217494D01*
X246437Y217544D01*
X246521Y217598D01*
X246603Y217655D01*
X246682Y217715D01*
X246760Y217779D01*
X246834Y217845D01*
X246906Y217914D01*
X246975Y217986D01*
X247041Y218060D01*
X247105Y218138D01*
X247165Y218217D01*
X247222Y218299D01*
X247276Y218383D01*
X247326Y218469D01*
X247373Y218557D01*
X247417Y218647D01*
X247457Y218738D01*
X247493Y218831D01*
X247526Y218925D01*
X247555Y219021D01*
X247580Y219117D01*
X247601Y219214D01*
X247619Y219313D01*
X247632Y219411D01*
X247642Y219511D01*
X247648Y219610D01*
X247650Y219710D01*
X247650Y237490D02*
X247648Y237590D01*
X247642Y237689D01*
X247632Y237789D01*
X247619Y237887D01*
X247601Y237986D01*
X247580Y238083D01*
X247555Y238179D01*
X247526Y238275D01*
X247493Y238369D01*
X247457Y238462D01*
X247417Y238553D01*
X247373Y238643D01*
X247326Y238731D01*
X247276Y238817D01*
X247222Y238901D01*
X247165Y238983D01*
X247105Y239062D01*
X247041Y239140D01*
X246975Y239214D01*
X246906Y239286D01*
X246834Y239355D01*
X246760Y239421D01*
X246682Y239485D01*
X246603Y239545D01*
X246521Y239602D01*
X246437Y239656D01*
X246351Y239706D01*
X246263Y239753D01*
X246173Y239797D01*
X246082Y239837D01*
X245989Y239873D01*
X245895Y239906D01*
X245799Y239935D01*
X245703Y239960D01*
X245606Y239981D01*
X245507Y239999D01*
X245409Y240012D01*
X245309Y240022D01*
X245210Y240028D01*
X245110Y240030D01*
X190500Y240030D02*
X186690Y240030D01*
X190500Y240030D02*
X191770Y238760D01*
X190500Y217170D02*
X186690Y217170D01*
X190500Y217170D02*
X191770Y218440D01*
X240030Y238760D02*
X241300Y240030D01*
X240030Y238760D02*
X191770Y238760D01*
X240030Y218440D02*
X241300Y217170D01*
X240030Y218440D02*
X191770Y218440D01*
X241300Y240030D02*
X245110Y240030D01*
X245110Y217170D02*
X241300Y217170D01*
D12*
X191135Y243205D02*
X191135Y254635D01*
X194310Y254635D01*
X194421Y254633D01*
X194531Y254627D01*
X194642Y254618D01*
X194752Y254604D01*
X194861Y254587D01*
X194970Y254566D01*
X195078Y254541D01*
X195185Y254512D01*
X195291Y254480D01*
X195396Y254444D01*
X195499Y254404D01*
X195601Y254361D01*
X195702Y254314D01*
X195801Y254263D01*
X195898Y254210D01*
X195992Y254153D01*
X196085Y254092D01*
X196176Y254029D01*
X196265Y253962D01*
X196351Y253892D01*
X196434Y253819D01*
X196516Y253744D01*
X196594Y253666D01*
X196669Y253584D01*
X196742Y253501D01*
X196812Y253415D01*
X196879Y253326D01*
X196942Y253235D01*
X197003Y253142D01*
X197060Y253047D01*
X197113Y252951D01*
X197164Y252852D01*
X197211Y252751D01*
X197254Y252649D01*
X197294Y252546D01*
X197330Y252441D01*
X197362Y252335D01*
X197391Y252228D01*
X197416Y252120D01*
X197437Y252011D01*
X197454Y251902D01*
X197468Y251792D01*
X197477Y251681D01*
X197483Y251571D01*
X197485Y251460D01*
X197483Y251349D01*
X197477Y251239D01*
X197468Y251128D01*
X197454Y251018D01*
X197437Y250909D01*
X197416Y250800D01*
X197391Y250692D01*
X197362Y250585D01*
X197330Y250479D01*
X197294Y250374D01*
X197254Y250271D01*
X197211Y250169D01*
X197164Y250068D01*
X197113Y249969D01*
X197060Y249872D01*
X197003Y249778D01*
X196942Y249685D01*
X196879Y249594D01*
X196812Y249505D01*
X196742Y249419D01*
X196669Y249336D01*
X196594Y249254D01*
X196516Y249176D01*
X196434Y249101D01*
X196351Y249028D01*
X196265Y248958D01*
X196176Y248891D01*
X196085Y248828D01*
X195992Y248767D01*
X195897Y248710D01*
X195801Y248657D01*
X195702Y248606D01*
X195601Y248559D01*
X195499Y248516D01*
X195396Y248476D01*
X195291Y248440D01*
X195185Y248408D01*
X195078Y248379D01*
X194970Y248354D01*
X194861Y248333D01*
X194752Y248316D01*
X194642Y248302D01*
X194531Y248293D01*
X194421Y248287D01*
X194310Y248285D01*
X191135Y248285D01*
X194945Y248285D02*
X197485Y243205D01*
X202482Y252095D02*
X205657Y254635D01*
X205657Y243205D01*
X202482Y243205D02*
X208832Y243205D01*
M02*
