G04 EAGLE Gerber RS-274X export*
G75*
%MOMM*%
%FSLAX34Y34*%
%LPD*%
%INSoldermask Top*%
%IPPOS*%
%AMOC8*
5,1,8,0,0,1.08239X$1,22.5*%
G01*
%ADD10P,1.649562X8X202.500000*%
%ADD11P,1.649562X8X22.500000*%
%ADD12R,1.673200X1.473200*%
%ADD13C,1.524000*%
%ADD14C,1.727200*%
%ADD15R,2.743200X5.283200*%
%ADD16R,5.283200X2.743200*%
%ADD17C,1.879600*%
%ADD18C,3.505200*%


D10*
X190500Y406400D03*
X139700Y406400D03*
D11*
X203200Y266700D03*
X228600Y266700D03*
D12*
X381000Y321400D03*
X381000Y364400D03*
X381000Y257900D03*
X381000Y300900D03*
D13*
X203200Y361696D02*
X203200Y374904D01*
X177800Y374904D02*
X177800Y361696D01*
X177800Y298704D02*
X177800Y285496D01*
X203200Y285496D02*
X203200Y298704D01*
X152400Y361696D02*
X152400Y374904D01*
X127000Y374904D02*
X127000Y361696D01*
X152400Y298704D02*
X152400Y285496D01*
X127000Y285496D02*
X127000Y298704D01*
D14*
X83820Y355600D02*
X68580Y355600D01*
X68580Y330200D02*
X83820Y330200D01*
X83820Y304800D02*
X68580Y304800D01*
D15*
X381000Y419100D03*
D16*
X368300Y228600D03*
D17*
X266700Y245618D02*
X266700Y262382D01*
X292100Y262382D02*
X292100Y245618D01*
X317500Y245618D02*
X317500Y262382D01*
D18*
X292100Y429260D03*
D11*
X177800Y228600D03*
X254000Y228600D03*
M02*
