G04 EAGLE Gerber RS-274X export*
G75*
%MOMM*%
%FSLAX34Y34*%
%LPD*%
%INSoldermask Bottom*%
%IPPOS*%
%AMOC8*
5,1,8,0,0,1.08239X$1,22.5*%
G01*
%ADD10P,1.649562X8X202.500000*%
%ADD11P,1.649562X8X22.500000*%
%ADD12C,1.524000*%
%ADD13P,1.649562X8X112.500000*%
%ADD14C,1.524000*%
%ADD15P,1.649562X8X292.500000*%
%ADD16C,1.727200*%
%ADD17R,1.371600X1.803400*%
%ADD18R,0.152400X1.828800*%
%ADD19C,0.959600*%


D10*
X88900Y177800D03*
X38100Y177800D03*
D11*
X57150Y120650D03*
X69850Y139700D03*
X82550Y120650D03*
D12*
X32004Y19050D02*
X18796Y19050D01*
X18796Y44450D02*
X32004Y44450D01*
D13*
X203200Y76200D03*
D14*
X203200Y50800D03*
D15*
X277813Y44450D03*
X277813Y19050D03*
D16*
X33020Y76200D02*
X17780Y76200D01*
X17780Y101600D02*
X33020Y101600D01*
X33020Y127000D02*
X17780Y127000D01*
D11*
X222250Y120650D03*
X273050Y120650D03*
X247650Y82550D03*
X273050Y82550D03*
D16*
X285750Y255900D02*
X285750Y271140D01*
X260350Y271140D02*
X260350Y255900D01*
X268600Y165100D02*
X283840Y165100D01*
X283840Y190500D02*
X268600Y190500D01*
X268600Y215900D02*
X283840Y215900D01*
D17*
X201930Y174620D03*
X217170Y174620D03*
D18*
X209550Y174620D03*
D19*
X49812Y107950D03*
X64488Y107950D03*
X158750Y122894D03*
X167056Y94995D03*
X198069Y158750D03*
X216888Y190500D03*
X69850Y177800D03*
X165100Y69850D03*
X152400Y88900D03*
X101600Y139700D03*
X101600Y107950D03*
X69850Y158750D03*
X50800Y57150D03*
X95250Y57150D03*
X44450Y88900D03*
X177800Y158750D03*
X196850Y101600D03*
X152400Y203200D03*
X234950Y368300D03*
X247650Y368300D03*
X241300Y361950D03*
X234950Y355600D03*
X247650Y355600D03*
X260350Y355600D03*
X260350Y368300D03*
X273050Y368300D03*
X273050Y355600D03*
X266700Y361950D03*
X292100Y431800D03*
X266700Y431800D03*
X241300Y431800D03*
X241300Y419100D03*
X266700Y419100D03*
X292100Y419100D03*
X279400Y425450D03*
X254000Y425450D03*
X254000Y412750D03*
X279400Y412750D03*
X241300Y406400D03*
X266700Y406400D03*
X292100Y406400D03*
X279400Y400050D03*
X254000Y400050D03*
X241300Y393700D03*
X266700Y393700D03*
X292100Y393700D03*
X254000Y387350D03*
X279400Y387350D03*
X228600Y425450D03*
X228600Y412750D03*
X228600Y400050D03*
X228600Y387350D03*
X158750Y133350D03*
X136525Y123825D03*
X133350Y82550D03*
X228600Y361950D03*
X254000Y361950D03*
X241300Y374650D03*
X254000Y374650D03*
X266700Y374650D03*
X279400Y361950D03*
X247650Y165100D03*
X247650Y215900D03*
X127000Y400050D03*
X127000Y387350D03*
X139700Y400050D03*
X139700Y387350D03*
X152400Y400050D03*
X158750Y393700D03*
X165100Y400050D03*
X165100Y387350D03*
X152400Y387350D03*
X133350Y393700D03*
X50800Y368300D03*
X63500Y361950D03*
X76200Y368300D03*
X101600Y368300D03*
X127000Y368300D03*
X88900Y361950D03*
X114300Y361950D03*
X50800Y355600D03*
X76200Y355600D03*
X101600Y355600D03*
X127000Y355600D03*
X127000Y342900D03*
X101600Y342900D03*
X76200Y342900D03*
X50800Y342900D03*
X50800Y330200D03*
X50800Y317500D03*
X50800Y304800D03*
X50800Y292100D03*
X50800Y279400D03*
X50800Y266700D03*
X76200Y266700D03*
X76200Y279400D03*
X76200Y292100D03*
X76200Y304800D03*
X76200Y317500D03*
X76200Y330200D03*
X101600Y330200D03*
X101600Y317500D03*
X101600Y304800D03*
X101600Y292100D03*
X101600Y279400D03*
X101600Y266700D03*
X127000Y266700D03*
X127000Y279400D03*
X127000Y292100D03*
X127000Y304800D03*
X127000Y317500D03*
X127000Y330200D03*
X114300Y349250D03*
X114300Y336550D03*
X114300Y323850D03*
X114300Y311150D03*
X114300Y298450D03*
X114300Y285750D03*
X114300Y273050D03*
X88900Y273050D03*
X88900Y285750D03*
X88900Y298450D03*
X88900Y311150D03*
X88900Y323850D03*
X88900Y336550D03*
X88900Y349250D03*
X63500Y349250D03*
X63500Y336550D03*
X63500Y323850D03*
X63500Y311150D03*
X63500Y298450D03*
X63500Y285750D03*
X63500Y273050D03*
X82550Y400050D03*
X88900Y393700D03*
X95250Y400050D03*
X95250Y387350D03*
X82550Y387350D03*
X6350Y431800D03*
X31750Y431800D03*
X31750Y431800D03*
X57150Y431800D03*
X69850Y425450D03*
X44450Y425450D03*
X19050Y425450D03*
X57150Y419100D03*
X31750Y419100D03*
X6350Y419100D03*
X19050Y412750D03*
X44450Y412750D03*
X69850Y412750D03*
X6350Y406400D03*
X31750Y406400D03*
X57150Y406400D03*
X19050Y400050D03*
X44450Y400050D03*
X69850Y400050D03*
X6350Y393700D03*
X31750Y393700D03*
X57150Y393700D03*
X69850Y387350D03*
X44450Y387350D03*
X19050Y387350D03*
X177800Y355600D03*
X203200Y355600D03*
X177800Y342900D03*
X177800Y330200D03*
X177800Y317500D03*
X177800Y304800D03*
X177800Y292100D03*
X203200Y292100D03*
X203200Y304800D03*
X203200Y317500D03*
X203200Y330200D03*
X203200Y342900D03*
X190500Y349250D03*
X190500Y336550D03*
X190500Y323850D03*
X190500Y311150D03*
X190500Y298450D03*
X241300Y330200D03*
X234950Y336550D03*
X247650Y336550D03*
X234950Y323850D03*
X247650Y323850D03*
X266700Y330200D03*
X260350Y336550D03*
X273050Y336550D03*
X273050Y323850D03*
X260350Y323850D03*
X190500Y387350D03*
X190500Y400050D03*
X196850Y393700D03*
X203200Y400050D03*
X203200Y387350D03*
X241300Y317500D03*
X254000Y330200D03*
X228600Y330200D03*
X254000Y317500D03*
X266700Y317500D03*
X279400Y330200D03*
X222250Y164500D03*
M02*
