G04 EAGLE Gerber RS-274X export*
G75*
%MOMM*%
%FSLAX34Y34*%
%LPD*%
%INSoldermask Top*%
%IPPOS*%
%AMOC8*
5,1,8,0,0,1.08239X$1,22.5*%
G01*
%ADD10R,10.160000X15.240000*%
%ADD11P,1.649562X8X202.500000*%
%ADD12P,1.649562X8X22.500000*%
%ADD13R,1.673200X1.473200*%
%ADD14C,1.524000*%
%ADD15C,1.727200*%
%ADD16R,2.743200X5.283200*%
%ADD17R,5.283200X2.743200*%
%ADD18C,1.879600*%
%ADD19C,3.505200*%
%ADD20C,0.959600*%


D10*
X292100Y393700D03*
D11*
X190500Y406400D03*
X139700Y406400D03*
D12*
X203200Y266700D03*
X228600Y266700D03*
D13*
X381000Y321400D03*
X381000Y364400D03*
X381000Y257900D03*
X381000Y300900D03*
D14*
X203200Y361696D02*
X203200Y374904D01*
X177800Y374904D02*
X177800Y361696D01*
X177800Y298704D02*
X177800Y285496D01*
X203200Y285496D02*
X203200Y298704D01*
X152400Y361696D02*
X152400Y374904D01*
X127000Y374904D02*
X127000Y361696D01*
X152400Y298704D02*
X152400Y285496D01*
X127000Y285496D02*
X127000Y298704D01*
D15*
X83820Y355600D02*
X68580Y355600D01*
X68580Y330200D02*
X83820Y330200D01*
X83820Y304800D02*
X68580Y304800D01*
D16*
X381000Y419100D03*
D17*
X368300Y228600D03*
D18*
X266700Y245618D02*
X266700Y262382D01*
X292100Y262382D02*
X292100Y245618D01*
X317500Y245618D02*
X317500Y262382D01*
D19*
X292100Y429260D03*
D12*
X177800Y228600D03*
X254000Y228600D03*
D20*
X342900Y241300D03*
X342900Y228600D03*
X355600Y241300D03*
X355600Y228600D03*
X368300Y241300D03*
X368300Y228600D03*
X381000Y241300D03*
X381000Y228600D03*
X393700Y241300D03*
X393700Y228600D03*
X393700Y215900D03*
X381000Y215900D03*
X368300Y215900D03*
X355600Y215900D03*
X342900Y215900D03*
X323850Y266700D03*
X311150Y266700D03*
X311150Y241300D03*
X323850Y241300D03*
X330200Y254000D03*
X317500Y273050D03*
X317500Y234950D03*
X374650Y254000D03*
X387350Y254000D03*
X387350Y266700D03*
X374650Y266700D03*
X393700Y444500D03*
X381000Y444500D03*
X368300Y444500D03*
X374650Y431800D03*
X387350Y431800D03*
X393700Y419100D03*
X381000Y419100D03*
X368300Y419100D03*
X374650Y406400D03*
X387350Y406400D03*
X393700Y393700D03*
X381000Y393700D03*
X368300Y393700D03*
X254000Y381000D03*
X273050Y381000D03*
X292100Y381000D03*
X311150Y381000D03*
X330200Y381000D03*
X254000Y361950D03*
X273050Y361950D03*
X292100Y361950D03*
X311150Y361950D03*
X330200Y361950D03*
X330200Y400050D03*
X254000Y400050D03*
X374650Y374650D03*
X387350Y374650D03*
X387350Y361950D03*
X374650Y361950D03*
M02*
