M48
;GenerationSoftware,Autodesk,EAGLE,9.4.2*%
;CreationDate,2020-03-11T19:05:15Z*%
FMAT,2
ICI,OFF
METRIC,TZ,000.000
T3C0.350
T2C0.813
T1C1.016
%
G90
M71
T1
X27622Y21590
X2540Y7620
X2540Y10160
X2540Y12700
X28575Y26352
X26035Y26352
X27622Y16510
X27622Y19050
T2
X8890Y17780
X3810Y17780
X5715Y12065
X6985Y13970
X8255Y12065
X2540Y1905
X2540Y4445
X20320Y7620
X20320Y5080
X27781Y4445
X27781Y1905
X22225Y12065
X27305Y12065
X24765Y8255
X27305Y8255
T3
X26035Y35560
X26035Y36830
X27305Y36830
X27305Y35560
X26670Y36195
X29210Y43180
X26670Y43180
X24130Y43180
X24130Y41910
X26670Y41910
X29210Y41910
X27940Y42545
X25400Y42545
X25400Y41275
X27940Y41275
X24130Y40640
X26670Y40640
X29210Y40640
X27940Y40005
X25400Y40005
X24130Y39370
X26670Y39370
X29210Y39370
X25400Y38735
X27940Y38735
X22860Y42545
X22860Y41275
X22860Y40005
X22860Y38735
X15875Y13335
X13652Y12382
X13335Y8255
X22860Y36195
X25400Y36195
X24130Y37465
X25400Y37465
X26670Y37465
X27940Y36195
X24765Y16510
X24765Y21590
X12700Y40005
X12700Y38735
X13970Y40005
X13970Y38735
X15240Y40005
X15875Y39370
X16510Y40005
X16510Y38735
X15240Y38735
X13335Y39370
X5080Y36830
X6350Y36195
X7620Y36830
X10160Y36830
X12700Y36830
X8890Y36195
X11430Y36195
X5080Y35560
X7620Y35560
X10160Y35560
X12700Y35560
X12700Y34290
X10160Y34290
X7620Y34290
X5080Y34290
X5080Y33020
X5080Y31750
X5080Y30480
X5080Y29210
X5080Y27940
X5080Y26670
X7620Y26670
X7620Y27940
X7620Y29210
X7620Y30480
X7620Y31750
X7620Y33020
X10160Y33020
X10160Y31750
X10160Y30480
X10160Y29210
X10160Y27940
X10160Y26670
X12700Y26670
X12700Y27940
X12700Y29210
X12700Y30480
X12700Y31750
X12700Y33020
X11430Y34925
X11430Y33655
X11430Y32385
X11430Y31115
X11430Y29845
X11430Y28575
X11430Y27305
X8890Y27305
X8890Y28575
X8890Y29845
X8890Y31115
X8890Y32385
X8890Y33655
X8890Y34925
X6350Y34925
X6350Y33655
X6350Y32385
X6350Y31115
X6350Y29845
X6350Y28575
X6350Y27305
X8255Y40005
X8890Y39370
X9525Y40005
X9525Y38735
X8255Y38735
X635Y43180
X3175Y43180
X3175Y43180
X5715Y43180
X6985Y42545
X4445Y42545
X1905Y42545
X5715Y41910
X3175Y41910
X635Y41910
X1905Y41275
X4445Y41275
X6985Y41275
X635Y40640
X3175Y40640
X5715Y40640
X1905Y40005
X4445Y40005
X6985Y40005
X635Y39370
X3175Y39370
X5715Y39370
X6985Y38735
X4445Y38735
X1905Y38735
X17780Y35560
X20320Y35560
X17780Y34290
X17780Y33020
X17780Y31750
X4981Y10795
X17780Y29210
X20320Y29210
X20320Y30480
X20320Y31750
X20320Y33020
X20320Y34290
X19050Y34925
X19050Y33655
X19050Y32385
X19050Y31115
X19050Y29845
X24130Y33020
X23495Y33655
X24765Y33655
X23495Y32385
X24765Y32385
X26670Y33020
X26035Y33655
X27305Y33655
X27305Y32385
X26035Y32385
X19050Y38735
X19050Y40005
X19685Y39370
X20320Y40005
X20320Y38735
X24130Y31750
X17780Y30480
X22860Y33020
X25400Y31750
X26670Y31750
X27940Y33020
X22225Y16450
X6449Y10795
X15875Y12289
X16706Y9500
X19807Y15875
X21689Y19050
X6985Y17780
X16510Y6985
X15240Y8890
X10160Y13970
X10160Y10795
X6985Y15875
X5080Y5715
X9525Y5715
X4445Y8890
X17780Y15875
X19685Y10160
X15240Y20320
X23495Y36830
X24765Y36830
X24130Y36195
X23495Y35560
X24765Y35560
X25400Y33020
M30