M48
;GenerationSoftware,Autodesk,EAGLE,9.4.2*%
;CreationDate,2020-01-29T15:12:30Z*%
FMAT,2
ICI,OFF
METRIC,TZ,000.000
T5C0.350
T4C0.813
T3C1.016
T2C1.118
T1C3.302
%
G90
M71
T1
X29210Y42926
T2
X26670Y25400
X29210Y25400
X31750Y25400
T3
X7620Y35560
X7620Y33020
X7620Y30480
T4
X15240Y29210
X19050Y40640
X13970Y40640
X20320Y26670
X22860Y26670
X20320Y36830
X17780Y36830
X17780Y29210
X20320Y29210
X15240Y36830
X12700Y36830
X12700Y29210
X17780Y22860
X25400Y22860
T5
X31750Y23495
X37465Y25400
X38735Y25400
X38735Y26670
X37465Y26670
X39370Y44450
X38100Y44450
X36830Y44450
X37465Y43180
X38735Y43180
X39370Y41910
X38100Y41910
X36830Y41910
X37465Y40640
X38735Y40640
X39370Y39370
X38100Y39370
X39370Y22860
X25400Y38100
X27305Y38100
X29210Y38100
X31115Y38100
X33020Y38100
X25400Y36195
X27305Y36195
X29210Y36195
X31115Y36195
X33020Y36195
X33020Y40005
X25400Y40005
X37465Y37465
X38735Y37465
X38735Y36195
X37465Y36195
X34290Y24130
X34290Y22860
X35560Y24130
X35560Y22860
X36830Y24130
X36830Y22860
X38100Y24130
X38100Y22860
X39370Y24130
X39370Y21590
X38100Y21590
X36830Y39370
X36830Y21590
X35560Y21590
X34290Y21590
X32385Y26670
X31115Y26670
X31115Y24130
X32385Y24130
X33020Y25400
X31750Y27305
M30