M48
;GenerationSoftware,Autodesk,EAGLE,9.4.2*%
;CreationDate,2019-11-21T21:09:41Z*%
FMAT,2
ICI,OFF
METRIC,TZ,000.000
T4C0.813
T3C1.016
T2C1.118
T1C3.302
%
G90
M71
T1
X29210Y42926
T2
X26670Y25400
X29210Y25400
X31750Y25400
T3
X7620Y35560
X7620Y33020
X7620Y30480
T4
X19050Y40640
X13970Y40640
X20320Y26670
X22860Y26670
X20320Y36830
X17780Y36830
X17780Y29210
X20320Y29210
X15240Y36830
X12700Y36830
X15240Y29210
X12700Y29210
X17780Y22860
X25400Y22860
M30